<svg width="16" height="10" viewBox="0 0 16 10" fill="CurrentColor" xmlns="http://www.w3.org/2000/svg">
<path d="M15.3125 8.93751C15.3125 9.08669 15.2532 9.22977 15.1477 9.33525C15.0423 9.44074 14.8992 9.50001 14.75 9.50001H10.3161C10.1071 9.50068 9.90204 9.44281 9.72422 9.33296C9.54639 9.2231 9.40288 9.06566 9.30992 8.87844L5.68391 1.62501H1.25C1.10082 1.62501 0.957742 1.56574 0.852252 1.46025C0.746763 1.35476 0.6875 1.21169 0.6875 1.06251C0.6875 0.913321 0.746763 0.770248 0.852252 0.664758C0.957742 0.559269 1.10082 0.500006 1.25 0.500006H5.68391C5.89292 0.499337 6.09796 0.557205 6.27578 0.667057C6.45361 0.776909 6.59712 0.934355 6.69008 1.12157L10.3161 8.37501H14.75C14.8992 8.37501 15.0423 8.43427 15.1477 8.53976C15.2532 8.64525 15.3125 8.78832 15.3125 8.93751ZM9.6875 1.62501H14.75C14.8992 1.62501 15.0423 1.56574 15.1477 1.46025C15.2532 1.35476 15.3125 1.21169 15.3125 1.06251C15.3125 0.913321 15.2532 0.770248 15.1477 0.664758C15.0423 0.559269 14.8992 0.500006 14.75 0.500006H9.6875C9.53832 0.500006 9.39524 0.559269 9.28975 0.664758C9.18426 0.770248 9.125 0.913321 9.125 1.06251C9.125 1.21169 9.18426 1.35476 9.28975 1.46025C9.39524 1.56574 9.53832 1.62501 9.6875 1.62501Z" fill="CurrentColor"/>
</svg>
