<?xml version="1.0" encoding="utf-8"?>
<!-- Generator: Adobe Illustrator 21.1.0, SVG Export Plug-In . SVG Version: 6.00 Build 0)  -->
<svg version="1.1" id="Layer_1" xmlns="http://www.w3.org/2000/svg" xmlns:xlink="http://www.w3.org/1999/xlink" x="0px" y="0px"
	 viewBox="0 0 35 35" style="enable-background:new 0 0 35 35;" xml:space="preserve">
<g>
	<path d="M5.9,12.7h6.9V5.9H5.9V12.7z M5.9,20.9h6.9v-6.9H5.9V20.9z M14.1,20.9h6.9v-6.9h-6.9C14.1,14.1,14.1,20.9,14.1,20.9z
		 M22.3,20.9h6.9v-6.9h-6.9V20.9z M14.1,12.7h6.9V5.9h-6.9C14.1,5.9,14.1,12.7,14.1,12.7z M22.3,5.9v6.9h6.9V5.9H22.3z"/>
	<rect x="5.9" y="22.3" width="6.9" height="6.9"/>
	<rect x="14.1" y="22.3" width="6.9" height="6.9"/>
	<rect x="22.3" y="22.3" width="6.9" height="6.9"/>
</g>
</svg>
