<?xml version="1.0" encoding="utf-8"?>
<!-- Generator: Adobe Illustrator 21.1.0, SVG Export Plug-In . SVG Version: 6.00 Build 0)  -->
<svg version="1.1" id="Layer_1" xmlns="http://www.w3.org/2000/svg" xmlns:xlink="http://www.w3.org/1999/xlink" x="0px" y="0px"
	 viewBox="0 0 24 24" style="enable-background:new 0 0 24 24;" xml:space="preserve">
<g>
	<g>
		<path d="M7.9,20.2l-0.3-1.6H7.4c-0.6,0.7-1.1,1.2-1.7,1.4c-0.6,0.3-1.3,0.4-2.1,0.4c-1.1,0-2-0.3-2.7-0.9c-0.6-0.6-1-1.4-1-2.5
			c0-2.3,1.8-3.5,5.5-3.6l1.9-0.1v-0.7c0-0.9-0.2-1.6-0.6-2S5.9,10,5,10c-0.9,0-2,0.3-3.2,0.9L1.3,9.6C1.8,9.3,2.5,9,3.1,8.8
			c0.7-0.2,1.3-0.3,2-0.3c1.4,0,2.4,0.3,3,0.9c0.7,0.6,1,1.6,1,2.9v7.8H7.9z M4,18.9c1.1,0,1.9-0.3,2.5-0.9s0.9-1.4,0.9-2.5v-1
			l-1.7,0.1c-1.4,0-2.4,0.3-3,0.6s-0.9,1-0.9,1.8c0,0.6,0.2,1.1,0.6,1.4S3.3,18.9,4,18.9z"/>
	</g>
	<g>
		<path d="M22.2,20.1l-0.5-2.3h-0.1c-0.8,1-1.6,1.7-2.4,2.1c-0.8,0.4-1.8,0.5-3,0.5c-1.6,0-2.9-0.4-3.8-1.2s-1.4-2-1.4-3.5
			c0-3.3,2.6-5,7.8-5.1l2.7-0.1v-1c0-1.3-0.3-2.2-0.8-2.8c-0.5-0.6-1.4-0.9-2.6-0.9c-1.3,0-2.9,0.4-4.6,1.2L12.9,5
			c0.8-0.4,1.7-0.8,2.6-1c0.9-0.2,1.9-0.4,2.9-0.4c1.9,0,3.4,0.4,4.3,1.3S24,7.2,24,9v11H22.2z M16.7,18.3c1.5,0,2.7-0.4,3.6-1.3
			c0.9-0.8,1.3-2,1.3-3.5v-1.5l-2.4,0.1c-1.9,0.1-3.3,0.4-4.2,0.9c-0.9,0.5-1.3,1.4-1.3,2.5c0,0.9,0.3,1.6,0.8,2
			C14.9,18.1,15.7,18.3,16.7,18.3z"/>
	</g>
</g>
</svg>
