<svg width="18" height="18" viewBox="0 0 18 18" fill="none" xmlns="http://www.w3.org/2000/svg">
<path d="M12.75 9C12.75 9.16576 12.6842 9.32473 12.5669 9.44194C12.4497 9.55915 12.2908 9.625 12.125 9.625H5.875C5.70924 9.625 5.55027 9.55915 5.43306 9.44194C5.31585 9.32473 5.25 9.16576 5.25 9C5.25 8.83424 5.31585 8.67527 5.43306 8.55806C5.55027 8.44085 5.70924 8.375 5.875 8.375H12.125C12.2908 8.375 12.4497 8.44085 12.5669 8.55806C12.6842 8.67527 12.75 8.83424 12.75 9ZM17.125 9C17.125 10.607 16.6485 12.1779 15.7557 13.514C14.8629 14.8502 13.594 15.8916 12.1093 16.5065C10.6247 17.1215 8.99099 17.2824 7.4149 16.9689C5.8388 16.6554 4.39106 15.8815 3.25476 14.7452C2.11846 13.6089 1.34463 12.1612 1.03112 10.5851C0.717618 9.00901 0.87852 7.37535 1.49348 5.8907C2.10844 4.40605 3.14985 3.1371 4.486 2.24431C5.82214 1.35152 7.39303 0.875 9 0.875C11.1542 0.877275 13.2195 1.73403 14.7427 3.25727C16.266 4.78051 17.1227 6.84581 17.125 9ZM15.875 9C15.875 7.64025 15.4718 6.31104 14.7164 5.18045C13.9609 4.04987 12.8872 3.16868 11.631 2.64833C10.3747 2.12798 8.99238 1.99183 7.65876 2.2571C6.32514 2.52237 5.10013 3.17716 4.13864 4.13864C3.17716 5.10013 2.52238 6.32513 2.2571 7.65875C1.99183 8.99237 2.12798 10.3747 2.64833 11.6309C3.16868 12.8872 4.04987 13.9609 5.18046 14.7164C6.31105 15.4718 7.64026 15.875 9 15.875C10.8227 15.8729 12.5702 15.1479 13.8591 13.8591C15.1479 12.5702 15.8729 10.8227 15.875 9Z" fill="CurrentColor"/>
</svg>
