<svg width="19" height="20" viewBox="0 0 19 20" fill="CurrentColor" xmlns="http://www.w3.org/2000/svg">
<path fill-rule="evenodd" clip-rule="evenodd" d="M12.7156 14.9737H5.49561C5.08161 14.9737 4.74561 14.6377 4.74561 14.2237C4.74561 13.8097 5.08161 13.4737 5.49561 13.4737H12.7156C13.1296 13.4737 13.4656 13.8097 13.4656 14.2237C13.4656 14.6377 13.1296 14.9737 12.7156 14.9737Z" fill="CurrentColor"/>
<path fill-rule="evenodd" clip-rule="evenodd" d="M12.7156 10.7872H5.49561C5.08161 10.7872 4.74561 10.4512 4.74561 10.0372C4.74561 9.6232 5.08161 9.2872 5.49561 9.2872H12.7156C13.1296 9.2872 13.4656 9.6232 13.4656 10.0372C13.4656 10.4512 13.1296 10.7872 12.7156 10.7872Z" fill="CurrentColor"/>
<path fill-rule="evenodd" clip-rule="evenodd" d="M8.25061 6.6104H5.49561C5.08161 6.6104 4.74561 6.2744 4.74561 5.8604C4.74561 5.4464 5.08161 5.1104 5.49561 5.1104H8.25061C8.66461 5.1104 9.00061 5.4464 9.00061 5.8604C9.00061 6.2744 8.66461 6.6104 8.25061 6.6104Z" fill="CurrentColore"/>
<mask id="mask0_405_2153" style="mask-type:luminance" maskUnits="userSpaceOnUse" x="0" y="0" width="19" height="20">
<path fill-rule="evenodd" clip-rule="evenodd" d="M0 0.000198364H18.1647V19.91H0V0.000198364Z" fill="white"/>
</mask>
<g mask="url(#mask0_405_2153)">
<path fill-rule="evenodd" clip-rule="evenodd" d="M12.9085 1.5L5.21951 1.504C2.89151 1.518 1.49951 2.958 1.49951 5.357V14.553C1.49951 16.968 2.90451 18.41 5.25551 18.41L12.9445 18.407C15.2725 18.393 16.6645 16.951 16.6645 14.553V5.357C16.6645 2.942 15.2605 1.5 12.9085 1.5ZM5.25651 19.91C2.11251 19.91 -0.000488281 17.757 -0.000488281 14.553V5.357C-0.000488281 2.124 2.04651 0.023 5.21451 0.004L12.9075 0H12.9085C16.0525 0 18.1645 2.153 18.1645 5.357V14.553C18.1645 17.785 16.1175 19.887 12.9495 19.907L5.25651 19.91Z" fill="CurrentColor"/>
</g>
</svg>
