<svg width="16" height="15" viewBox="0 0 16 15" fill="CurrentColor" xmlns="http://www.w3.org/2000/svg">
<path d="M15.1479 7.03949L8.39792 0.289485C8.34568 0.237186 8.28364 0.195697 8.21536 0.167389C8.14707 0.139082 8.07388 0.124512 7.99995 0.124512C7.92603 0.124512 7.85284 0.139082 7.78455 0.167389C7.71626 0.195697 7.65423 0.237186 7.60198 0.289485L0.851986 7.03949C0.77323 7.11815 0.719585 7.21842 0.697844 7.32759C0.676104 7.43677 0.687244 7.54994 0.729855 7.65277C0.772465 7.75561 0.844631 7.84349 0.937215 7.9053C1.0298 7.9671 1.13864 8.00004 1.24995 7.99995H4.06245V13.625C4.06245 13.9233 4.18098 14.2095 4.39196 14.4204C4.60294 14.6314 4.88909 14.75 5.18745 14.75H10.8125C11.1108 14.75 11.397 14.6314 11.6079 14.4204C11.8189 14.2095 11.9375 13.9233 11.9375 13.625V7.99995H14.75C14.8613 8.00004 14.9701 7.9671 15.0627 7.9053C15.1553 7.84349 15.2274 7.75561 15.2701 7.65277C15.3127 7.54994 15.3238 7.43677 15.3021 7.32759C15.2803 7.21842 15.2267 7.11815 15.1479 7.03949ZM11.375 6.87495C11.2258 6.87495 11.0827 6.93422 10.9772 7.03971C10.8717 7.1452 10.8125 7.28827 10.8125 7.43745V13.625H5.18745V7.43745C5.18745 7.28827 5.12819 7.1452 5.0227 7.03971C4.91721 6.93422 4.77414 6.87495 4.62495 6.87495H2.60769L7.99995 1.48269L13.3922 6.87495H11.375Z" fill="CurrentColor"/>
</svg>
