<svg width="18" height="13" viewBox="0 0 18 13" fill="none" xmlns="http://www.w3.org/2000/svg">
<path d="M8.25 1C8.25 1.19891 8.17098 1.38968 8.03033 1.53033C7.88968 1.67098 7.69891 1.75 7.5 1.75H0.75C0.551088 1.75 0.360322 1.67098 0.21967 1.53033C0.0790178 1.38968 0 1.19891 0 1C0 0.801088 0.0790178 0.610322 0.21967 0.46967C0.360322 0.329018 0.551088 0.25 0.75 0.25H7.5C7.69891 0.25 7.88968 0.329018 8.03033 0.46967C8.17098 0.610322 8.25 0.801088 8.25 1ZM7.5 4H0.75C0.551088 4 0.360322 4.07902 0.21967 4.21967C0.0790178 4.36032 0 4.55109 0 4.75C0 4.94891 0.0790178 5.13968 0.21967 5.28033C0.360322 5.42098 0.551088 5.5 0.75 5.5H7.5C7.69891 5.5 7.88968 5.42098 8.03033 5.28033C8.17098 5.13968 8.25 4.94891 8.25 4.75C8.25 4.55109 8.17098 4.36032 8.03033 4.21967C7.88968 4.07902 7.69891 4 7.5 4ZM7.5 7.75H0.75C0.551088 7.75 0.360322 7.82902 0.21967 7.96967C0.0790178 8.11032 0 8.30109 0 8.5C0 8.69891 0.0790178 8.88968 0.21967 9.03033C0.360322 9.17098 0.551088 9.25 0.75 9.25H7.5C7.69891 9.25 7.88968 9.17098 8.03033 9.03033C8.17098 8.88968 8.25 8.69891 8.25 8.5C8.25 8.30109 8.17098 8.11032 8.03033 7.96967C7.88968 7.82902 7.69891 7.75 7.5 7.75ZM7.5 11.5H0.75C0.551088 11.5 0.360322 11.579 0.21967 11.7197C0.0790178 11.8603 0 12.0511 0 12.25C0 12.4489 0.0790178 12.6397 0.21967 12.7803C0.360322 12.921 0.551088 13 0.75 13H7.5C7.69891 13 7.88968 12.921 8.03033 12.7803C8.17098 12.6397 8.25 12.4489 8.25 12.25C8.25 12.0511 8.17098 11.8603 8.03033 11.7197C7.88968 11.579 7.69891 11.5 7.5 11.5ZM10.5 1.75H17.25C17.4489 1.75 17.6397 1.67098 17.7803 1.53033C17.921 1.38968 18 1.19891 18 1C18 0.801088 17.921 0.610322 17.7803 0.46967C17.6397 0.329018 17.4489 0.25 17.25 0.25H10.5C10.3011 0.25 10.1103 0.329018 9.96967 0.46967C9.82902 0.610322 9.75 0.801088 9.75 1C9.75 1.19891 9.82902 1.38968 9.96967 1.53033C10.1103 1.67098 10.3011 1.75 10.5 1.75ZM17.25 4H10.5C10.3011 4 10.1103 4.07902 9.96967 4.21967C9.82902 4.36032 9.75 4.55109 9.75 4.75C9.75 4.94891 9.82902 5.13968 9.96967 5.28033C10.1103 5.42098 10.3011 5.5 10.5 5.5H17.25C17.4489 5.5 17.6397 5.42098 17.7803 5.28033C17.921 5.13968 18 4.94891 18 4.75C18 4.55109 17.921 4.36032 17.7803 4.21967C17.6397 4.07902 17.4489 4 17.25 4ZM17.25 7.75H10.5C10.3011 7.75 10.1103 7.82902 9.96967 7.96967C9.82902 8.11032 9.75 8.30109 9.75 8.5C9.75 8.69891 9.82902 8.88968 9.96967 9.03033C10.1103 9.17098 10.3011 9.25 10.5 9.25H17.25C17.4489 9.25 17.6397 9.17098 17.7803 9.03033C17.921 8.88968 18 8.69891 18 8.5C18 8.30109 17.921 8.11032 17.7803 7.96967C17.6397 7.82902 17.4489 7.75 17.25 7.75ZM17.25 11.5H10.5C10.3011 11.5 10.1103 11.579 9.96967 11.7197C9.82902 11.8603 9.75 12.0511 9.75 12.25C9.75 12.4489 9.82902 12.6397 9.96967 12.7803C10.1103 12.921 10.3011 13 10.5 13H17.25C17.4489 13 17.6397 12.921 17.7803 12.7803C17.921 12.6397 18 12.4489 18 12.25C18 12.0511 17.921 11.8603 17.7803 11.7197C17.6397 11.579 17.4489 11.5 17.25 11.5Z" fill="#61646B"/>
</svg>
