<svg width="9" height="9" viewBox="0 0 9 9" fill="none" xmlns="http://www.w3.org/2000/svg">
<path d="M8.61524 4.20235L4.73555 0.32266C4.66322 0.249848 4.57714 0.192121 4.48233 0.152827C4.38751 0.113533 4.28584 0.0934538 4.18321 0.0937533H0.562503C0.438183 0.0937533 0.318955 0.143139 0.231047 0.231047C0.143139 0.318955 0.0937533 0.438183 0.0937533 0.562503V4.18321C0.0934538 4.28584 0.113533 4.38751 0.152827 4.48233C0.192121 4.57714 0.249848 4.66322 0.32266 4.73555L4.20235 8.61524C4.34885 8.7617 4.54753 8.84398 4.75469 8.84398C4.96185 8.84398 5.16053 8.7617 5.30703 8.61524L8.61524 5.30703C8.7617 5.16053 8.84398 4.96185 8.84398 4.75469C8.84398 4.54753 8.7617 4.34885 8.61524 4.20235ZM4.75469 7.8418L1.03125 4.11719V1.03125H4.11719L7.84063 4.75469L4.75469 7.8418ZM2.90625 2.28125C2.90625 2.40487 2.8696 2.5257 2.80092 2.62848C2.73225 2.73127 2.63463 2.81137 2.52043 2.85868C2.40623 2.90598 2.28056 2.91836 2.15932 2.89424C2.03808 2.87013 1.92672 2.8106 1.83931 2.72319C1.7519 2.63579 1.69238 2.52442 1.66826 2.40318C1.64415 2.28195 1.65652 2.15628 1.70383 2.04208C1.75113 1.92787 1.83124 1.83026 1.93402 1.76158C2.0368 1.69291 2.15764 1.65625 2.28125 1.65625C2.44701 1.65625 2.60598 1.7221 2.72319 1.83931C2.84041 1.95652 2.90625 2.11549 2.90625 2.28125Z" fill="#FEFEFE"/>
</svg>
