<svg width="20" height="19" viewBox="0 0 20 19" fill="none" xmlns="http://www.w3.org/2000/svg">
<path d="M15.5472 9.55742L11.6503 8.1207L10.2104 4.2207C10.1003 3.92209 9.90133 3.66442 9.64025 3.48242C9.37916 3.30042 9.06855 3.20284 8.75029 3.20284C8.43203 3.20284 8.12142 3.30042 7.86033 3.48242C7.59924 3.66442 7.40023 3.92209 7.29013 4.2207L5.85341 8.1207L1.95341 9.55742C1.6548 9.66752 1.39713 9.86653 1.21513 10.1276C1.03312 10.3887 0.935547 10.6993 0.935547 11.0176C0.935547 11.3358 1.03312 11.6465 1.21513 11.9075C1.39713 12.1686 1.6548 12.3676 1.95341 12.4777L5.85029 13.9145L7.29013 17.8145C7.40023 18.1131 7.59924 18.3707 7.86033 18.5527C8.12142 18.7347 8.43203 18.8323 8.75029 18.8323C9.06855 18.8323 9.37916 18.7347 9.64025 18.5527C9.90133 18.3707 10.1003 18.1131 10.2104 17.8145L11.6472 13.9176L15.5472 12.4777C15.8458 12.3676 16.1034 12.1686 16.2854 11.9075C16.4675 11.6465 16.565 11.3358 16.565 11.0176C16.565 10.6993 16.4675 10.3887 16.2854 10.1276C16.1034 9.86653 15.8458 9.66752 15.5472 9.55742ZM10.5956 12.3043C10.4683 12.3512 10.3528 12.4251 10.2569 12.521C10.161 12.6169 10.087 12.7325 10.0401 12.8598L8.75029 16.352L7.46357 12.8598C7.41667 12.7325 7.34272 12.6169 7.24682 12.521C7.15092 12.4251 7.03536 12.3512 6.9081 12.3043L3.41591 11.0176L6.9081 9.73086C7.03536 9.68396 7.15092 9.61001 7.24682 9.51411C7.34272 9.41821 7.41667 9.30265 7.46357 9.17539L8.75029 5.6832L10.037 9.17539C10.0839 9.30265 10.1579 9.41821 10.2538 9.51411C10.3497 9.61001 10.4652 9.68396 10.5925 9.73086L14.0847 11.0176L10.5956 12.3043ZM10.9378 2.89258C10.9378 2.64394 11.0366 2.40548 11.2124 2.22967C11.3882 2.05385 11.6266 1.95508 11.8753 1.95508H12.8128V1.01758C12.8128 0.768938 12.9116 0.530481 13.0874 0.354666C13.2632 0.17885 13.5016 0.0800781 13.7503 0.0800781C13.9989 0.0800781 14.2374 0.17885 14.4132 0.354666C14.589 0.530481 14.6878 0.768938 14.6878 1.01758V1.95508H15.6253C15.8739 1.95508 16.1124 2.05385 16.2882 2.22967C16.464 2.40548 16.5628 2.64394 16.5628 2.89258C16.5628 3.14122 16.464 3.37968 16.2882 3.55549C16.1124 3.73131 15.8739 3.83008 15.6253 3.83008H14.6878V4.76758C14.6878 5.01622 14.589 5.25468 14.4132 5.43049C14.2374 5.60631 13.9989 5.70508 13.7503 5.70508C13.5016 5.70508 13.2632 5.60631 13.0874 5.43049C12.9116 5.25468 12.8128 5.01622 12.8128 4.76758V3.83008H11.8753C11.6266 3.83008 11.3882 3.73131 11.2124 3.55549C11.0366 3.37968 10.9378 3.14122 10.9378 2.89258ZM19.6878 6.64258C19.6878 6.89122 19.589 7.12968 19.4132 7.30549C19.2374 7.48131 18.9989 7.58008 18.7503 7.58008H18.4378V7.89258C18.4378 8.14122 18.339 8.37968 18.1632 8.55549C17.9874 8.73131 17.7489 8.83008 17.5003 8.83008C17.2516 8.83008 17.0132 8.73131 16.8374 8.55549C16.6616 8.37968 16.5628 8.14122 16.5628 7.89258V7.58008H16.2503C16.0016 7.58008 15.7632 7.48131 15.5874 7.30549C15.4116 7.12968 15.3128 6.89122 15.3128 6.64258C15.3128 6.39394 15.4116 6.15548 15.5874 5.97967C15.7632 5.80385 16.0016 5.70508 16.2503 5.70508H16.5628V5.39258C16.5628 5.14394 16.6616 4.90548 16.8374 4.72967C17.0132 4.55385 17.2516 4.45508 17.5003 4.45508C17.7489 4.45508 17.9874 4.55385 18.1632 4.72967C18.339 4.90548 18.4378 5.14394 18.4378 5.39258V5.70508H18.7503C18.9989 5.70508 19.2374 5.80385 19.4132 5.97967C19.589 6.15548 19.6878 6.39394 19.6878 6.64258Z" fill="currentColor"/>
</svg>
