<svg width="18" height="13" viewBox="0 0 18 13" fill="none" xmlns="http://www.w3.org/2000/svg">
<path d="M0 1C0 0.801088 0.0790178 0.610322 0.21967 0.46967C0.360322 0.329018 0.551088 0.25 0.75 0.25H17.25C17.4489 0.25 17.6397 0.329018 17.7803 0.46967C17.921 0.610322 18 0.801088 18 1C18 1.19891 17.921 1.38968 17.7803 1.53033C17.6397 1.67098 17.4489 1.75 17.25 1.75H0.75C0.551088 1.75 0.360322 1.67098 0.21967 1.53033C0.0790178 1.38968 0 1.19891 0 1ZM17.25 4H0.75C0.551088 4 0.360322 4.07902 0.21967 4.21967C0.0790178 4.36032 0 4.55109 0 4.75C0 4.94891 0.0790178 5.13968 0.21967 5.28033C0.360322 5.42098 0.551088 5.5 0.75 5.5H17.25C17.4489 5.5 17.6397 5.42098 17.7803 5.28033C17.921 5.13968 18 4.94891 18 4.75C18 4.55109 17.921 4.36032 17.7803 4.21967C17.6397 4.07902 17.4489 4 17.25 4ZM17.25 7.75H0.75C0.551088 7.75 0.360322 7.82902 0.21967 7.96967C0.0790178 8.11032 0 8.30109 0 8.5C0 8.69891 0.0790178 8.88968 0.21967 9.03033C0.360322 9.17098 0.551088 9.25 0.75 9.25H17.25C17.4489 9.25 17.6397 9.17098 17.7803 9.03033C17.921 8.88968 18 8.69891 18 8.5C18 8.30109 17.921 8.11032 17.7803 7.96967C17.6397 7.82902 17.4489 7.75 17.25 7.75ZM17.25 11.5H0.75C0.551088 11.5 0.360322 11.579 0.21967 11.7197C0.0790178 11.8603 0 12.0511 0 12.25C0 12.4489 0.0790178 12.6397 0.21967 12.7803C0.360322 12.921 0.551088 13 0.75 13H17.25C17.4489 13 17.6397 12.921 17.7803 12.7803C17.921 12.6397 18 12.4489 18 12.25C18 12.0511 17.921 11.8603 17.7803 11.7197C17.6397 11.579 17.4489 11.5 17.25 11.5Z" fill="#61646B"/>
</svg>
