<svg width="18" height="13" viewBox="0 0 18 13" fill="none" xmlns="http://www.w3.org/2000/svg">
<path d="M0 1C0 0.801088 0.0790178 0.610322 0.21967 0.46967C0.360322 0.329018 0.551088 0.25 0.75 0.25H17.25C17.4489 0.25 17.6397 0.329018 17.7803 0.46967C17.921 0.610322 18 0.801088 18 1C18 1.19891 17.921 1.38968 17.7803 1.53033C17.6397 1.67098 17.4489 1.75 17.25 1.75H0.75C0.551088 1.75 0.360322 1.67098 0.21967 1.53033C0.0790178 1.38968 0 1.19891 0 1ZM17.25 4H5.25C5.05109 4 4.86032 4.07902 4.71967 4.21967C4.57902 4.36032 4.5 4.55109 4.5 4.75C4.5 4.94891 4.57902 5.13968 4.71967 5.28033C4.86032 5.42098 5.05109 5.5 5.25 5.5H17.25C17.4489 5.5 17.6397 5.42098 17.7803 5.28033C17.921 5.13968 18 4.94891 18 4.75C18 4.55109 17.921 4.36032 17.7803 4.21967C17.6397 4.07902 17.4489 4 17.25 4ZM17.25 7.75H0.75C0.551088 7.75 0.360322 7.82902 0.21967 7.96967C0.0790178 8.11032 0 8.30109 0 8.5C0 8.69891 0.0790178 8.88968 0.21967 9.03033C0.360322 9.17098 0.551088 9.25 0.75 9.25H17.25C17.4489 9.25 17.6397 9.17098 17.7803 9.03033C17.921 8.88968 18 8.69891 18 8.5C18 8.30109 17.921 8.11032 17.7803 7.96967C17.6397 7.82902 17.4489 7.75 17.25 7.75ZM17.25 11.5H5.25C5.05109 11.5 4.86032 11.579 4.71967 11.7197C4.57902 11.8603 4.5 12.0511 4.5 12.25C4.5 12.4489 4.57902 12.6397 4.71967 12.7803C4.86032 12.921 5.05109 13 5.25 13H17.25C17.4489 13 17.6397 12.921 17.7803 12.7803C17.921 12.6397 18 12.4489 18 12.25C18 12.0511 17.921 11.8603 17.7803 11.7197C17.6397 11.579 17.4489 11.5 17.25 11.5Z" fill="#61646B"/>
</svg>
