<svg width="16" height="11" viewBox="0 0 16 11" fill="currentColor" xmlns="http://www.w3.org/2000/svg">
<path d="M0.5 1C0.5 0.83424 0.565848 0.675269 0.683058 0.558058C0.800269 0.440848 0.95924 0.375 1.125 0.375H14.875C15.0408 0.375 15.1997 0.440848 15.3169 0.558058C15.4342 0.675269 15.5 0.83424 15.5 1C15.5 1.16576 15.4342 1.32473 15.3169 1.44194C15.1997 1.55915 15.0408 1.625 14.875 1.625H1.125C0.95924 1.625 0.800269 1.55915 0.683058 1.44194C0.565848 1.32473 0.5 1.16576 0.5 1ZM1.125 4.75H11.125C11.2908 4.75 11.4497 4.68415 11.5669 4.56694C11.6842 4.44973 11.75 4.29076 11.75 4.125C11.75 3.95924 11.6842 3.80027 11.5669 3.68306C11.4497 3.56585 11.2908 3.5 11.125 3.5H1.125C0.95924 3.5 0.800269 3.56585 0.683058 3.68306C0.565848 3.80027 0.5 3.95924 0.5 4.125C0.5 4.29076 0.565848 4.44973 0.683058 4.56694C0.800269 4.68415 0.95924 4.75 1.125 4.75ZM14.875 6.625H1.125C0.95924 6.625 0.800269 6.69085 0.683058 6.80806C0.565848 6.92527 0.5 7.08424 0.5 7.25C0.5 7.41576 0.565848 7.57473 0.683058 7.69194C0.800269 7.80915 0.95924 7.875 1.125 7.875H14.875C15.0408 7.875 15.1997 7.80915 15.3169 7.69194C15.4342 7.57473 15.5 7.41576 15.5 7.25C15.5 7.08424 15.4342 6.92527 15.3169 6.80806C15.1997 6.69085 15.0408 6.625 14.875 6.625ZM11.125 9.75H1.125C0.95924 9.75 0.800269 9.81585 0.683058 9.93306C0.565848 10.0503 0.5 10.2092 0.5 10.375C0.5 10.5408 0.565848 10.6997 0.683058 10.8169C0.800269 10.9342 0.95924 11 1.125 11H11.125C11.2908 11 11.4497 10.9342 11.5669 10.8169C11.6842 10.6997 11.75 10.5408 11.75 10.375C11.75 10.2092 11.6842 10.0503 11.5669 9.93306C11.4497 9.81585 11.2908 9.75 11.125 9.75Z" fill="currentColor"/>
</svg>
