<svg width="16" height="18" viewBox="0 0 16 18" fill="none" xmlns="http://www.w3.org/2000/svg">
<path d="M11.4375 9.1875C11.4375 9.43614 11.3387 9.6746 11.1629 9.85041C10.9871 10.0262 10.7486 10.125 10.5 10.125H5.5C5.25136 10.125 5.0129 10.0262 4.83709 9.85041C4.66127 9.6746 4.5625 9.43614 4.5625 9.1875C4.5625 8.93886 4.66127 8.7004 4.83709 8.52459C5.0129 8.34877 5.25136 8.25 5.5 8.25H10.5C10.7486 8.25 10.9871 8.34877 11.1629 8.52459C11.3387 8.7004 11.4375 8.93886 11.4375 9.1875ZM10.5 11.375H5.5C5.25136 11.375 5.0129 11.4738 4.83709 11.6496C4.66127 11.8254 4.5625 12.0639 4.5625 12.3125C4.5625 12.5611 4.66127 12.7996 4.83709 12.9754C5.0129 13.1512 5.25136 13.25 5.5 13.25H10.5C10.7486 13.25 10.9871 13.1512 11.1629 12.9754C11.3387 12.7996 11.4375 12.5611 11.4375 12.3125C11.4375 12.0639 11.3387 11.8254 11.1629 11.6496C10.9871 11.4738 10.7486 11.375 10.5 11.375ZM15.1875 3.25V15.125C15.1875 15.8709 14.8912 16.5863 14.3637 17.1137C13.8363 17.6412 13.1209 17.9375 12.375 17.9375H3.625C2.87908 17.9375 2.16371 17.6412 1.63626 17.1137C1.10882 16.5863 0.8125 15.8709 0.8125 15.125V3.25C0.8125 2.8356 0.97712 2.43817 1.27015 2.14515C1.56317 1.85212 1.9606 1.6875 2.375 1.6875H3.625V1.375C3.625 1.12636 3.72377 0.887903 3.89959 0.712087C4.0754 0.536272 4.31386 0.4375 4.5625 0.4375C4.81114 0.4375 5.0496 0.536272 5.22541 0.712087C5.40123 0.887903 5.5 1.12636 5.5 1.375V1.6875H7.0625V1.375C7.0625 1.12636 7.16127 0.887903 7.33709 0.712087C7.5129 0.536272 7.75136 0.4375 8 0.4375C8.24864 0.4375 8.4871 0.536272 8.66291 0.712087C8.83873 0.887903 8.9375 1.12636 8.9375 1.375V1.6875H10.5V1.375C10.5 1.12636 10.5988 0.887903 10.7746 0.712087C10.9504 0.536272 11.1889 0.4375 11.4375 0.4375C11.6861 0.4375 11.9246 0.536272 12.1004 0.712087C12.2762 0.887903 12.375 1.12636 12.375 1.375V1.6875H13.625C14.0394 1.6875 14.4368 1.85212 14.7299 2.14515C15.0229 2.43817 15.1875 2.8356 15.1875 3.25ZM13.3125 3.5625H12.375V3.875C12.375 4.12364 12.2762 4.3621 12.1004 4.53791C11.9246 4.71373 11.6861 4.8125 11.4375 4.8125C11.1889 4.8125 10.9504 4.71373 10.7746 4.53791C10.5988 4.3621 10.5 4.12364 10.5 3.875V3.5625H8.9375V3.875C8.9375 4.12364 8.83873 4.3621 8.66291 4.53791C8.4871 4.71373 8.24864 4.8125 8 4.8125C7.75136 4.8125 7.5129 4.71373 7.33709 4.53791C7.16127 4.3621 7.0625 4.12364 7.0625 3.875V3.5625H5.5V3.875C5.5 4.12364 5.40123 4.3621 5.22541 4.53791C5.0496 4.71373 4.81114 4.8125 4.5625 4.8125C4.31386 4.8125 4.0754 4.71373 3.89959 4.53791C3.72377 4.3621 3.625 4.12364 3.625 3.875V3.5625H2.6875V15.125C2.6875 15.3736 2.78627 15.6121 2.96209 15.7879C3.1379 15.9637 3.37636 16.0625 3.625 16.0625H12.375C12.6236 16.0625 12.8621 15.9637 13.0379 15.7879C13.2137 15.6121 13.3125 15.3736 13.3125 15.125V3.5625Z" fill="currentColor"/>
</svg>
