<svg width="12" height="13" viewBox="0 0 12 13" fill="none" xmlns="http://www.w3.org/2000/svg">
<path d="M8.40625 6.39062C8.40625 6.56467 8.33711 6.73159 8.21404 6.85466C8.09097 6.97773 7.92405 7.04688 7.75 7.04688H4.25C4.07595 7.04688 3.90903 6.97773 3.78596 6.85466C3.66289 6.73159 3.59375 6.56467 3.59375 6.39062C3.59375 6.21658 3.66289 6.04966 3.78596 5.92659C3.90903 5.80352 4.07595 5.73438 4.25 5.73438H7.75C7.92405 5.73438 8.09097 5.80352 8.21404 5.92659C8.33711 6.04966 8.40625 6.21658 8.40625 6.39062ZM7.75 7.92188H4.25C4.07595 7.92188 3.90903 7.99102 3.78596 8.11409C3.66289 8.23716 3.59375 8.40408 3.59375 8.57812C3.59375 8.75217 3.66289 8.91909 3.78596 9.04216C3.90903 9.16523 4.07595 9.23438 4.25 9.23438H7.75C7.92405 9.23438 8.09097 9.16523 8.21404 9.04216C8.33711 8.91909 8.40625 8.75217 8.40625 8.57812C8.40625 8.40408 8.33711 8.23716 8.21404 8.11409C8.09097 7.99102 7.92405 7.92188 7.75 7.92188ZM11.0312 2.23438V10.5469C11.0312 11.069 10.8238 11.5698 10.4546 11.939C10.0854 12.3082 9.58465 12.5156 9.0625 12.5156H2.9375C2.41535 12.5156 1.9146 12.3082 1.54538 11.939C1.17617 11.5698 0.96875 11.069 0.96875 10.5469V2.23438C0.96875 1.94429 1.08398 1.66609 1.2891 1.46098C1.49422 1.25586 1.77242 1.14062 2.0625 1.14062H2.9375V0.921875C2.9375 0.747827 3.00664 0.580907 3.12971 0.457836C3.25278 0.334765 3.4197 0.265625 3.59375 0.265625C3.7678 0.265625 3.93472 0.334765 4.05779 0.457836C4.18086 0.580907 4.25 0.747827 4.25 0.921875V1.14062H5.34375V0.921875C5.34375 0.747827 5.41289 0.580907 5.53596 0.457836C5.65903 0.334765 5.82595 0.265625 6 0.265625C6.17405 0.265625 6.34097 0.334765 6.46404 0.457836C6.58711 0.580907 6.65625 0.747827 6.65625 0.921875V1.14062H7.75V0.921875C7.75 0.747827 7.81914 0.580907 7.94221 0.457836C8.06528 0.334765 8.2322 0.265625 8.40625 0.265625C8.5803 0.265625 8.74722 0.334765 8.87029 0.457836C8.99336 0.580907 9.0625 0.747827 9.0625 0.921875V1.14062H9.9375C10.2276 1.14062 10.5058 1.25586 10.7109 1.46098C10.916 1.66609 11.0312 1.94429 11.0312 2.23438ZM9.71875 2.45312H9.0625V2.67188C9.0625 2.84592 8.99336 3.01284 8.87029 3.13591C8.74722 3.25898 8.5803 3.32812 8.40625 3.32812C8.2322 3.32812 8.06528 3.25898 7.94221 3.13591C7.81914 3.01284 7.75 2.84592 7.75 2.67188V2.45312H6.65625V2.67188C6.65625 2.84592 6.58711 3.01284 6.46404 3.13591C6.34097 3.25898 6.17405 3.32812 6 3.32812C5.82595 3.32812 5.65903 3.25898 5.53596 3.13591C5.41289 3.01284 5.34375 2.84592 5.34375 2.67188V2.45312H4.25V2.67188C4.25 2.84592 4.18086 3.01284 4.05779 3.13591C3.93472 3.25898 3.7678 3.32812 3.59375 3.32812C3.4197 3.32812 3.25278 3.25898 3.12971 3.13591C3.00664 3.01284 2.9375 2.84592 2.9375 2.67188V2.45312H2.28125V10.5469C2.28125 10.7209 2.35039 10.8878 2.47346 11.0109C2.59653 11.134 2.76345 11.2031 2.9375 11.2031H9.0625C9.23655 11.2031 9.40347 11.134 9.52654 11.0109C9.64961 10.8878 9.71875 10.7209 9.71875 10.5469V2.45312Z" fill="currentColor"/>
</svg>
