<svg width="17" height="16" viewBox="0 0 17 16" fill="none" xmlns="http://www.w3.org/2000/svg">
<path d="M16.4375 8C16.4375 8.24864 16.3387 8.4871 16.1629 8.66291C15.9871 8.83873 15.7486 8.9375 15.5 8.9375H6.51562L10.5406 12.9617C10.7167 13.1378 10.8157 13.3767 10.8157 13.6258C10.8157 13.8749 10.7167 14.1137 10.5406 14.2898C10.3645 14.466 10.1256 14.5649 9.87656 14.5649C9.62749 14.5649 9.38862 14.466 9.2125 14.2898L3.5875 8.66484C3.5001 8.57775 3.43075 8.47425 3.38344 8.3603C3.33612 8.24634 3.31176 8.12417 3.31176 8.00078C3.31176 7.87739 3.33612 7.75522 3.38344 7.64126C3.43075 7.52731 3.5001 7.42382 3.5875 7.33672L9.2125 1.71172C9.29971 1.62451 9.40323 1.55534 9.51717 1.50814C9.63111 1.46095 9.75323 1.43666 9.87656 1.43666C9.99989 1.43666 10.122 1.46095 10.236 1.50814C10.3499 1.55534 10.4534 1.62451 10.5406 1.71172C10.6278 1.79892 10.697 1.90245 10.7442 2.01639C10.7914 2.13033 10.8157 2.25245 10.8157 2.37578C10.8157 2.49911 10.7914 2.62123 10.7442 2.73517C10.697 2.84911 10.6278 2.95264 10.5406 3.03984L6.51562 7.0625H15.5C15.7486 7.0625 15.9871 7.16127 16.1629 7.33709C16.3387 7.5129 16.4375 7.75136 16.4375 8ZM1.125 0.1875C0.87636 0.1875 0.637903 0.286272 0.462087 0.462087C0.286272 0.637903 0.1875 0.87636 0.1875 1.125V14.875C0.1875 15.1236 0.286272 15.3621 0.462087 15.5379C0.637903 15.7137 0.87636 15.8125 1.125 15.8125C1.37364 15.8125 1.6121 15.7137 1.78791 15.5379C1.96373 15.3621 2.0625 15.1236 2.0625 14.875V1.125C2.0625 0.87636 1.96373 0.637903 1.78791 0.462087C1.6121 0.286272 1.37364 0.1875 1.125 0.1875Z" fill="currentColor"/>
</svg>
