<svg width="17" height="16" viewBox="0 0 17 16" fill="none" xmlns="http://www.w3.org/2000/svg">
<path d="M13.4133 7.33672C13.5007 7.42382 13.57 7.52731 13.6173 7.64126C13.6647 7.75522 13.689 7.87739 13.689 8.00078C13.689 8.12417 13.6647 8.24634 13.6173 8.3603C13.57 8.47425 13.5007 8.57775 13.4133 8.66484L7.78828 14.2898C7.61216 14.466 7.37329 14.5649 7.12422 14.5649C6.87515 14.5649 6.63628 14.466 6.46016 14.2898C6.28404 14.1137 6.18509 13.8749 6.18509 13.6258C6.18509 13.3767 6.28404 13.1378 6.46016 12.9617L10.4844 8.9375H1.5C1.25136 8.9375 1.0129 8.83873 0.837087 8.66291C0.661272 8.4871 0.5625 8.24864 0.5625 8C0.5625 7.75136 0.661272 7.5129 0.837087 7.33709C1.0129 7.16127 1.25136 7.0625 1.5 7.0625H10.4844L6.46172 3.03828C6.2856 2.86216 6.18665 2.62329 6.18666 2.37422C6.18666 2.12515 6.2856 1.88628 6.46172 1.71016C6.63784 1.53404 6.87671 1.43509 7.12578 1.43509C7.37485 1.43509 7.61372 1.53404 7.78984 1.71016L13.4133 7.33672ZM15.875 0.1875C15.6264 0.1875 15.3879 0.286272 15.2121 0.462087C15.0363 0.637903 14.9375 0.87636 14.9375 1.125V14.875C14.9375 15.1236 15.0363 15.3621 15.2121 15.5379C15.3879 15.7137 15.6264 15.8125 15.875 15.8125C16.1236 15.8125 16.3621 15.7137 16.5379 15.5379C16.7137 15.3621 16.8125 15.1236 16.8125 14.875V1.125C16.8125 0.87636 16.7137 0.637903 16.5379 0.462087C16.3621 0.286272 16.1236 0.1875 15.875 0.1875Z" fill="currentColor"/>
</svg>
