<svg width="14" height="16" viewBox="0 0 14 16" fill="none" xmlns="http://www.w3.org/2000/svg">
<path d="M12.625 0.241921C12.3764 0.241921 12.1379 0.340693 11.9621 0.516509C11.7863 0.692324 11.6875 0.930781 11.6875 1.17942V6.02317L2.82422 0.476296C2.58822 0.329757 2.31743 0.248784 2.03973 0.241717C1.76202 0.23465 1.48746 0.301745 1.24432 0.436091C1.00117 0.570437 0.79824 0.767176 0.656425 1.00604C0.51461 1.24491 0.43904 1.51726 0.4375 1.79505V14.3138C0.43904 14.5916 0.51461 14.8639 0.656425 15.1028C0.79824 15.3417 1.00117 15.5384 1.24432 15.6728C1.48746 15.8071 1.76202 15.8742 2.03973 15.8671C2.31743 15.8601 2.58822 15.7791 2.82422 15.6325L11.6875 10.0857V14.9294C11.6875 15.1781 11.7863 15.4165 11.9621 15.5923C12.1379 15.7681 12.3764 15.8669 12.625 15.8669C12.8736 15.8669 13.1121 15.7681 13.2879 15.5923C13.4637 15.4165 13.5625 15.1781 13.5625 14.9294V1.17942C13.5625 0.930781 13.4637 0.692324 13.2879 0.516509C13.1121 0.340693 12.8736 0.241921 12.625 0.241921ZM2.3125 13.7365V2.37239L11.3984 8.05442L2.3125 13.7365Z" fill="currentColor"/>
</svg>
