<svg width="16" height="16" viewBox="0 0 16 16" fill="none" xmlns="http://www.w3.org/2000/svg">
<path d="M13.625 0.242188H10.5C10.0856 0.242188 9.68817 0.406808 9.39515 0.699833C9.10212 0.992859 8.9375 1.39029 8.9375 1.80469V14.3047C8.9375 14.7191 9.10212 15.1165 9.39515 15.4095C9.68817 15.7026 10.0856 15.8672 10.5 15.8672H13.625C14.0394 15.8672 14.4368 15.7026 14.7299 15.4095C15.0229 15.1165 15.1875 14.7191 15.1875 14.3047V1.80469C15.1875 1.39029 15.0229 0.992859 14.7299 0.699833C14.4368 0.406808 14.0394 0.242188 13.625 0.242188ZM13.3125 13.9922H10.8125V2.11719H13.3125V13.9922ZM5.5 0.242188H2.375C1.9606 0.242188 1.56317 0.406808 1.27015 0.699833C0.97712 0.992859 0.8125 1.39029 0.8125 1.80469V14.3047C0.8125 14.7191 0.97712 15.1165 1.27015 15.4095C1.56317 15.7026 1.9606 15.8672 2.375 15.8672H5.5C5.9144 15.8672 6.31183 15.7026 6.60485 15.4095C6.89788 15.1165 7.0625 14.7191 7.0625 14.3047V1.80469C7.0625 1.39029 6.89788 0.992859 6.60485 0.699833C6.31183 0.406808 5.9144 0.242188 5.5 0.242188ZM5.1875 13.9922H2.6875V2.11719H5.1875V13.9922Z" fill="currentColor"/>
</svg>
