<svg width="16" height="18" viewBox="0 0 16 18" fill="none" xmlns="http://www.w3.org/2000/svg">
<path d="M14.3195 7.73218L3.06328 0.847019C2.82722 0.703112 2.55721 0.624413 2.2808 0.618957C2.00439 0.6135 1.73148 0.681481 1.48992 0.81596C1.24837 0.950439 1.04682 1.1466 0.905848 1.38442C0.764877 1.62225 0.689531 1.89322 0.6875 2.16968V15.94C0.689531 16.2164 0.764877 16.4874 0.905848 16.7252C1.04682 16.9631 1.24837 17.1592 1.48992 17.2937C1.73148 17.4282 2.00439 17.4962 2.2808 17.4907C2.55721 17.4853 2.82722 17.4066 3.06328 17.2626L14.3195 10.3775C14.5465 10.2393 14.7341 10.0451 14.8643 9.81344C14.9945 9.58179 15.0628 9.32055 15.0628 9.05483C15.0628 8.78912 14.9945 8.52787 14.8643 8.29623C14.7341 8.06458 14.5465 7.87034 14.3195 7.73218ZM2.5625 15.3712V2.73843L12.8875 9.05483L2.5625 15.3712Z" fill="currentColor"/>
</svg>
