<svg width="16" height="16" viewBox="0 0 16 16" fill="none" xmlns="http://www.w3.org/2000/svg">
<path d="M13.682 0.867188H2.31797C1.91888 0.867807 1.53632 1.02662 1.25413 1.30881C0.97193 1.59101 0.81312 1.97357 0.8125 2.37266V13.7367C0.81312 14.1358 0.97193 14.5184 1.25413 14.8006C1.53632 15.0828 1.91888 15.2416 2.31797 15.2422H13.682C14.0811 15.2416 14.4637 15.0828 14.7459 14.8006C15.0281 14.5184 15.1869 14.1358 15.1875 13.7367V2.37266C15.1869 1.97357 15.0281 1.59101 14.7459 1.30881C14.4637 1.02662 14.0811 0.867807 13.682 0.867188ZM13.3125 13.3672H2.6875V2.74219H13.3125V13.3672Z" fill="currentColor"/>
</svg>
