<svg width="14" height="16" viewBox="0 0 14 16" fill="none" xmlns="http://www.w3.org/2000/svg">
<path d="M12.7617 0.439063C12.5177 0.303751 12.242 0.23623 11.9631 0.243511C11.6842 0.250792 11.4124 0.332611 11.1758 0.480469L2.3125 6.02344V1.17969C2.3125 0.931047 2.21373 0.69259 2.03791 0.516775C1.8621 0.34096 1.62364 0.242188 1.375 0.242188C1.12636 0.242188 0.887903 0.34096 0.712087 0.516775C0.536272 0.69259 0.4375 0.931047 0.4375 1.17969V14.9297C0.4375 15.1783 0.536272 15.4168 0.712087 15.5926C0.887903 15.7684 1.12636 15.8672 1.375 15.8672C1.62364 15.8672 1.8621 15.7684 2.03791 15.5926C2.21373 15.4168 2.3125 15.1783 2.3125 14.9297V10.0859L11.1758 15.6328C11.4118 15.7794 11.6826 15.8603 11.9603 15.8674C12.238 15.8745 12.5125 15.8074 12.7557 15.673C12.9988 15.5387 13.2018 15.3419 13.3436 15.1031C13.4854 14.8642 13.561 14.5918 13.5625 14.3141V1.79531C13.5622 1.51835 13.4878 1.24652 13.347 1.00802C13.2062 0.769532 13.0041 0.57308 12.7617 0.439063ZM11.6875 13.7367L2.60156 8.05469L11.6875 2.37266V13.7367Z" fill="#1053C8"/>
</svg>
