<svg class="svg-icon" style="width: 1em; height: 1em;vertical-align: middle;fill: currentColor;overflow: hidden;" viewBox="0 0 1024 1024" version="1.1" xmlns="http://www.w3.org/2000/svg"><path d="M899.509173 196.331527l-38.363749-0.596588c-0.919952 0-86.925768-1.790786-175.753863-36.301787C594.288656 123.999129 535.57544 83.303264 535.032064 82.922594l-23.112394-16.060791-23.063275 16.060791c-0.542352 0.379647-59.307757 41.076534-150.359496 76.510558-88.773859 34.564213-174.832887 36.300764-175.591157 36.300764l-38.58069 0.597611 0 374.245589c0 187.907671 252.099668 386.562103 387.645784 386.562103 135.600351 0 387.702066-198.654432 387.702066-386.562103L899.509173 196.331527 899.509173 196.331527zM511.971859 901.574716c-112.593358 0-332.082304-178.686658-332.082304-331.00067L179.889555 250.538103c31.743982-2.169409 103.694687-10.091846 178.737824-39.285748 76.889181-29.953196 132.779096-63.811328 153.398716-77.051887 22.138206 14.380522 76.400041 47.098691 153.23601 77.051887 75.314313 29.248138 147.427724 37.116339 178.7368 39.285748l0.107447 320.035944C844.107375 722.888058 624.564193 901.574716 511.971859 901.574716L511.971859 901.574716z"  /><path d="M743.23599 548.391838l-148.622946 148.461263-62.288648-70.64906c-10.202363-11.504008-27.730575-12.590759-39.232536-2.494821-11.55722 10.200316-12.641925 27.727505-2.441609 39.231513l81.826634 92.842525c5.097088 5.750981 12.314467 9.115612 19.966751 9.332553 0.326435 0.054235 0.597611 0.054235 0.871857 0.054235 7.374968 0 14.432711-2.876514 19.640316-8.083096l169.570024-169.298847c10.851139-10.850116 10.851139-28.432563 0.054235-39.337937C771.721765 537.590841 754.090199 537.650193 743.23599 548.391838L743.23599 548.391838z"  /><path d="M591.246367 598.789669c12.589736-12.966313 27.999704-26.533306 40.968064-37.275975-18.61087-19.806091-41.240263-35.7052-66.471924-46.718021 30.388101-23.440875 50.300616-59.905368 50.300616-101.146655 0-70.810742-57.625442-128.438231-128.437208-128.438231-70.810742 0-128.438231 57.625442-128.438231 128.438231 0 41.131793 19.805068 77.43358 50.02944 100.929714-70.809719 30.495548-120.569006 100.924597-120.569006 182.807513 0 15.356756 12.42703 27.782763 27.782763 27.782763 15.35471 0 27.780717-12.42703 27.780717-27.782763 0-79.060637 64.299445-143.41227 143.413294-143.41227C528.412296 553.97295 565.09373 571.280128 591.246367 598.789669L591.246367 598.789669zM487.607962 340.776314c40.152489 0 72.874751 32.720216 72.874751 72.872704 0 40.153512-32.724309 72.820516-72.874751 72.820516-40.152489 0-72.873728-32.667004-72.873728-72.820516C414.734234 373.495506 447.455473 340.776314 487.607962 340.776314L487.607962 340.776314z"  /></svg>