<svg width="10" height="5" viewBox="0 0 10 5" fill="none" xmlns="http://www.w3.org/2000/svg">
<path d="M5.95366 0.945268L2.45366 4.38277C2.366 4.46889 2.24803 4.51715 2.12514 4.51715C2.00226 4.51715 1.88428 4.46889 1.79663 4.38277L0.296627 2.90972C0.25269 2.86658 0.217681 2.81521 0.193599 2.75854C0.169516 2.70186 0.156832 2.64101 0.15627 2.57943C0.155134 2.45508 0.203444 2.33537 0.290572 2.24664C0.333713 2.2027 0.385086 2.16769 0.441757 2.14361C0.498428 2.11953 0.559288 2.10684 0.620861 2.10628C0.745214 2.10514 0.864924 2.15345 0.953658 2.24058L2.12553 3.39136L5.29702 0.276519C5.3857 0.189391 5.50536 0.14106 5.62968 0.142159C5.75399 0.143258 5.87278 0.193696 5.95991 0.282378C6.04704 0.371059 6.09537 0.49072 6.09427 0.615037C6.09317 0.739353 6.04273 0.858141 5.95405 0.945268H5.95366ZM9.70952 0.281206C9.66636 0.237119 9.61491 0.201987 9.55815 0.177825C9.50138 0.153662 9.4404 0.140943 9.3787 0.140399C9.31701 0.139855 9.25581 0.151495 9.19863 0.174652C9.14144 0.19781 9.08939 0.232029 9.04545 0.275347L5.87514 3.39136L5.56733 3.08902C5.47865 3.00189 5.35899 2.95356 5.23467 2.95466C5.11035 2.95576 4.99157 3.0062 4.90444 3.09488C4.81731 3.18356 4.76898 3.30322 4.77008 3.42754C4.77118 3.55185 4.82162 3.67064 4.9103 3.75777L5.54663 4.38277C5.63428 4.46889 5.75226 4.51715 5.87514 4.51715C5.99803 4.51715 6.116 4.46889 6.20366 4.38277L9.70366 0.945268C9.74757 0.902127 9.78255 0.85076 9.80661 0.794098C9.83067 0.737437 9.84333 0.676592 9.84388 0.615037C9.84442 0.553481 9.83284 0.492422 9.80978 0.435344C9.78673 0.378266 9.75266 0.326288 9.70952 0.282378V0.281206Z" fill="currentColor"/>
</svg>
