<svg width="12" height="11" viewBox="0 0 12 11" fill="currentColor" xmlns="http://www.w3.org/2000/svg">
<path d="M10.9857 9.84375C10.343 8.7158 9.33948 7.83692 8.13664 7.3486C8.7348 6.89997 9.17665 6.27451 9.39959 5.56082C9.62253 4.84712 9.61526 4.08137 9.37882 3.37204C9.14237 2.6627 8.68874 2.04574 8.08217 1.60855C7.47559 1.17135 6.74684 0.936096 5.99914 0.936096C5.25143 0.936096 4.52268 1.17135 3.91611 1.60855C3.30953 2.04574 2.8559 2.6627 2.61945 3.37204C2.38301 4.08137 2.37574 4.84712 2.59868 5.56082C2.82162 6.27451 3.26347 6.89997 3.86164 7.3486C2.65879 7.83692 1.65525 8.7158 1.01257 9.84375C0.972751 9.90779 0.946209 9.97917 0.934526 10.0537C0.922844 10.1282 0.926258 10.2042 0.944568 10.2774C0.962877 10.3505 0.995706 10.4193 1.0411 10.4795C1.0865 10.5397 1.14354 10.5901 1.20884 10.6279C1.27413 10.6656 1.34634 10.6898 1.42117 10.6991C1.49601 10.7083 1.57194 10.7024 1.64446 10.6818C1.71697 10.6611 1.78459 10.626 1.84329 10.5787C1.902 10.5314 1.95058 10.4727 1.98617 10.4063C2.83554 8.93813 4.33554 8.0625 5.99914 8.0625C7.66273 8.0625 9.16273 8.9386 10.0121 10.4063C10.0892 10.5303 10.2115 10.6194 10.3532 10.6549C10.4948 10.6903 10.6447 10.6693 10.7712 10.5962C10.8976 10.5232 10.9907 10.4038 11.0307 10.2634C11.0707 10.123 11.0546 9.9725 10.9857 9.84375ZM3.56164 4.5C3.56164 4.01791 3.70459 3.54665 3.97243 3.1458C4.24026 2.74496 4.62095 2.43253 5.06634 2.24805C5.51174 2.06356 6.00184 2.01529 6.47467 2.10934C6.9475 2.20339 7.38182 2.43554 7.72271 2.77643C8.0636 3.11732 8.29575 3.55164 8.3898 4.02447C8.48385 4.4973 8.43558 4.9874 8.25109 5.43279C8.0666 5.87819 7.75418 6.25887 7.35334 6.52671C6.95249 6.79455 6.48123 6.9375 5.99914 6.9375C5.3529 6.93676 4.73334 6.67971 4.27638 6.22275C3.81943 5.7658 3.56238 5.14624 3.56164 4.5Z" fill="currentColor"/>
</svg>