<svg width="18" height="17" viewBox="0 0 18 17" fill="none" xmlns="http://www.w3.org/2000/svg">
<path d="M17.8125 8.55482C17.8127 10.6088 17.004 12.5803 15.5614 14.0424C14.1188 15.5046 12.1585 16.3398 10.1047 16.3673H10C8.00552 16.3715 6.08591 15.6081 4.63906 14.2353C4.45828 14.0646 4.35273 13.829 4.34562 13.5804C4.33851 13.3319 4.43044 13.0907 4.60117 12.9099C4.7719 12.7291 5.00746 12.6236 5.25602 12.6165C5.50458 12.6094 5.74578 12.7013 5.92656 12.872C6.77519 13.6732 7.84111 14.2065 8.99112 14.4053C10.1411 14.6041 11.3242 14.4596 12.3926 13.9898C13.4609 13.5201 14.3671 12.7459 14.998 11.764C15.6288 10.7821 15.9563 9.63604 15.9395 8.46909C15.9227 7.30214 15.5623 6.16602 14.9035 5.2027C14.2446 4.23939 13.3165 3.4916 12.2351 3.05279C11.1536 2.61397 9.96684 2.5036 8.82303 2.73545C7.67922 2.9673 6.62911 3.53109 5.80391 4.35638C5.79375 4.36654 5.78438 4.37591 5.77344 4.38529L4.28828 5.74232H5.625C5.87364 5.74232 6.1121 5.84109 6.28791 6.01691C6.46373 6.19272 6.5625 6.43118 6.5625 6.67982C6.5625 6.92846 6.46373 7.16692 6.28791 7.34273C6.1121 7.51855 5.87364 7.61732 5.625 7.61732H1.875C1.62636 7.61732 1.3879 7.51855 1.21209 7.34273C1.03627 7.16692 0.9375 6.92846 0.9375 6.67982V2.92982C0.9375 2.68118 1.03627 2.44272 1.21209 2.26691C1.3879 2.09109 1.62636 1.99232 1.875 1.99232C2.12364 1.99232 2.3621 2.09109 2.53791 2.26691C2.71373 2.44272 2.8125 2.68118 2.8125 2.92982V4.54857L4.49062 3.01263C5.58508 1.92406 6.97748 1.18411 8.49209 0.886166C10.0067 0.588224 11.5756 0.74565 13.0008 1.33857C14.4261 1.93149 15.6437 2.93334 16.5001 4.21765C17.3564 5.50197 17.8131 7.01119 17.8125 8.55482Z" fill="currentColor"/>
</svg>
