<?xml version="1.0" encoding="utf-8"?>
<!-- Generator: Adobe Illustrator 21.1.0, SVG Export Plug-In . SVG Version: 6.00 Build 0)  -->
<svg version="1.1" id="Layer_1" xmlns="http://www.w3.org/2000/svg" xmlns:xlink="http://www.w3.org/1999/xlink" x="0px" y="0px"
	 viewBox="0 0 24 24" style="enable-background:new 0 0 24 24;" xml:space="preserve">
<style type="text/css">
	.st0{fill:#C1C1C1;}
	.st1{fill:none;}
</style>
<path class="st0" d="M14.3,13.3h-0.5l-0.2-0.2c0.7-0.8,1.1-1.8,1.1-2.9c0-2.4-2-4.4-4.4-4.4s-4.4,2-4.4,4.4s2,4.4,4.4,4.4
	c1.1,0,2.1-0.4,2.9-1.1l0.2,0.2v0.5l3.4,3.4l1-1L14.3,13.3z M10.2,13.3c-1.7,0-3-1.4-3-3s1.4-3,3-3s3,1.4,3,3S11.9,13.3,10.2,13.3z"
	/>
<path class="st1" d="M0,0h24v24H0V0z"/>
</svg>
