<svg width="13" height="14" viewBox="0 0 13 14" fill="none" xmlns="http://www.w3.org/2000/svg">
<path fill-rule="evenodd" clip-rule="evenodd" d="M6.16438 13.6667C5.26105 13.6667 4.38038 13.6567 3.50905 13.6387C2.39438 13.6167 1.62305 12.894 1.49705 11.7527C1.28705 9.85933 0.927712 5.39667 0.924378 5.352C0.901712 5.07667 1.10705 4.83533 1.38238 4.81333C1.65371 4.806 1.89905 4.99667 1.92105 5.27133C1.92438 5.31667 2.28305 9.764 2.49105 11.6427C2.56238 12.2913 2.91238 12.626 3.52971 12.6387C5.19638 12.674 6.89705 12.676 8.73038 12.6427C9.38638 12.63 9.74105 12.302 9.81438 11.638C10.021 9.77533 10.381 5.31667 10.385 5.27133C10.407 4.99667 10.6504 4.80467 10.923 4.81333C11.1984 4.836 11.4037 5.07667 11.3817 5.352C11.3777 5.39733 11.0164 9.87133 10.8084 11.748C10.679 12.9127 9.90971 13.6213 8.74838 13.6427C7.85971 13.658 7.00238 13.6667 6.16438 13.6667Z" fill="CurrentColor"/>
<path fill-rule="evenodd" clip-rule="evenodd" d="M11.8053 3.65953H0.5C0.224 3.65953 0 3.43553 0 3.15953C0 2.88353 0.224 2.65953 0.5 2.65953H11.8053C12.0813 2.65953 12.3053 2.88353 12.3053 3.15953C12.3053 3.43553 12.0813 3.65953 11.8053 3.65953Z" fill="CurrentColor"/>
<path fill-rule="evenodd" clip-rule="evenodd" d="M9.62695 3.65953C8.86828 3.65953 8.20962 3.11887 8.06028 2.37487L7.89828 1.5642C7.86428 1.44087 7.72362 1.33353 7.56362 1.33353H4.74162C4.58162 1.33353 4.44095 1.44087 4.40028 1.59487L4.24495 2.37487C4.09628 3.11887 3.43695 3.65953 2.67828 3.65953C2.40228 3.65953 2.17828 3.43553 2.17828 3.15953C2.17828 2.88353 2.40228 2.65953 2.67828 2.65953C2.96228 2.65953 3.20895 2.45687 3.26495 2.1782L3.42695 1.36753C3.59162 0.7462 4.12962 0.333533 4.74162 0.333533H7.56362C8.17562 0.333533 8.71362 0.7462 8.87162 1.33753L9.04095 2.1782C9.09628 2.45687 9.34295 2.65953 9.62695 2.65953C9.90295 2.65953 10.127 2.88353 10.127 3.15953C10.127 3.43553 9.90295 3.65953 9.62695 3.65953Z" fill="CurrentColor"/>
</svg>
