<svg width="12" height="17" viewBox="0 0 12 17" fill="none" xmlns="http://www.w3.org/2000/svg">
<path d="M10.375 0.742188H1.625C1.2106 0.742188 0.813171 0.906808 0.520146 1.19983C0.22712 1.49286 0.0625001 1.89029 0.0625001 2.30469V16.0547C0.0624439 16.2221 0.107198 16.3864 0.192114 16.5306C0.277031 16.6749 0.399013 16.7937 0.545392 16.8749C0.691772 16.9561 0.857211 16.9966 1.02453 16.9922C1.19185 16.9878 1.35494 16.9387 1.49688 16.85L5.99922 14.0375L10.5031 16.85C10.6451 16.9387 10.8082 16.9878 10.9755 16.9922C11.1428 16.9966 11.3082 16.9561 11.4546 16.8749C11.601 16.7937 11.723 16.6749 11.8079 16.5306C11.8928 16.3864 11.9376 16.2221 11.9375 16.0547V2.30469C11.9375 1.89029 11.7729 1.49286 11.4799 1.19983C11.1868 0.906808 10.7894 0.742188 10.375 0.742188ZM10.0625 14.3633L6.49609 12.1344C6.3471 12.0413 6.17492 11.9919 5.99922 11.9919C5.82351 11.9919 5.65134 12.0413 5.50234 12.1344L1.9375 14.3633V2.61719H10.0625V14.3633Z" fill="currentColor"/>
</svg>
