<svg width="12" height="17" viewBox="0 0 12 17" fill="none" xmlns="http://www.w3.org/2000/svg">
<path d="M10.375 0.296875H1.625C1.2106 0.296875 0.813171 0.461495 0.520146 0.754521C0.22712 1.04755 0.0625001 1.44497 0.0625001 1.85938V15.6094C0.0624439 15.7767 0.107198 15.9411 0.192114 16.0853C0.277031 16.2296 0.399013 16.3484 0.545392 16.4296C0.691772 16.5108 0.857211 16.5512 1.02453 16.5469C1.19185 16.5425 1.35494 16.4934 1.49688 16.4047L5.99922 13.5922L10.5031 16.4047C10.6451 16.4934 10.8082 16.5425 10.9755 16.5469C11.1428 16.5512 11.3082 16.5108 11.4546 16.4296C11.601 16.3484 11.723 16.2296 11.8079 16.0853C11.8928 15.9411 11.9376 15.7767 11.9375 15.6094V1.85938C11.9375 1.44497 11.7729 1.04755 11.4799 0.754521C11.1868 0.461495 10.7894 0.296875 10.375 0.296875ZM10.0625 13.918L6.49609 11.6891C6.3471 11.5959 6.17492 11.5466 5.99922 11.5466C5.82351 11.5466 5.65134 11.5959 5.50234 11.6891L1.9375 13.918V2.17188H10.0625V13.918Z" fill="currentColor"/>
</svg>
