<svg width="10" height="13" viewBox="0 0 10 13" fill="none" xmlns="http://www.w3.org/2000/svg">
<path d="M6.53125 2.67187H1.28125C0.99117 2.67187 0.71297 2.78711 0.507852 2.99223C0.302734 3.19734 0.1875 3.47554 0.1875 3.76562V12.0781C0.187367 12.1989 0.22057 12.3174 0.283452 12.4205C0.346335 12.5236 0.436456 12.6074 0.543893 12.6626C0.65133 12.7178 0.771913 12.7422 0.892364 12.7333C1.01281 12.7243 1.12846 12.6823 1.22656 12.6119L3.90625 10.6978L6.58594 12.6119C6.68404 12.6823 6.79969 12.7243 6.92014 12.7333C7.04059 12.7422 7.16117 12.7178 7.26861 12.6626C7.37604 12.6074 7.46617 12.5236 7.52905 12.4205C7.59193 12.3174 7.62513 12.1989 7.625 12.0781V3.76562C7.625 3.47554 7.50977 3.19734 7.30465 2.99223C7.09953 2.78711 6.82133 2.67187 6.53125 2.67187ZM6.3125 10.8028L4.28906 9.35633C4.1775 9.2762 4.04361 9.23311 3.90625 9.23311C3.7689 9.23311 3.635 9.2762 3.52344 9.35633L1.5 10.8028V3.98437H6.3125V10.8028ZM9.8125 1.57812V9.89062C9.8125 10.0647 9.74336 10.2316 9.62029 10.3547C9.49722 10.4777 9.3303 10.5469 9.15625 10.5469C8.9822 10.5469 8.81528 10.4777 8.69221 10.3547C8.56914 10.2316 8.5 10.0647 8.5 9.89062V1.79687H3.03125C2.8572 1.79687 2.69028 1.72773 2.56721 1.60466C2.44414 1.48159 2.375 1.31467 2.375 1.14062C2.375 0.966577 2.44414 0.799657 2.56721 0.676586C2.69028 0.553515 2.8572 0.484375 3.03125 0.484375H8.71875C9.00883 0.484375 9.28703 0.599609 9.49215 0.804727C9.69727 1.00984 9.8125 1.28804 9.8125 1.57812Z" fill="currentColor"/>
</svg>
