<svg width="20" height="21" viewBox="0 0 20 21" fill="none" xmlns="http://www.w3.org/2000/svg">
<path d="M15.9508 9.86863C15.9508 9.64863 15.8508 9.42863 15.6708 9.26863C15.4908 9.10863 15.2508 9.01863 15.0008 9.01863C14.7508 9.01863 14.5108 9.10863 14.3308 9.26863C14.1508 9.42863 14.0508 9.63863 14.0508 9.86863V12.6786C14.0508 12.6786 14.0508 12.6886 14.0508 12.6986V16.7386L10.4808 14.5086C10.3308 14.4186 10.1608 14.3686 9.98078 14.3686C9.80078 14.3686 9.63078 14.4186 9.48078 14.5086L5.92078 16.7386V4.98863H6.52078C6.52078 4.98863 6.55078 4.99863 6.57078 4.99863H9.38078C9.60078 4.99863 9.82078 4.89863 9.98078 4.71863C10.1408 4.53863 10.2308 4.29863 10.2308 4.04863C10.2308 3.79863 10.1408 3.55863 9.98078 3.37863C9.82078 3.19863 9.61078 3.09863 9.38078 3.09863H6.57078H5.61078C5.20078 3.09863 4.80078 3.25863 4.51078 3.55863C4.22078 3.85863 4.05078 4.24863 4.05078 4.65863V18.4086C4.05078 18.5786 4.09078 18.7386 4.18078 18.8886C4.26078 19.0286 4.39078 19.1486 4.53078 19.2286C4.68078 19.3086 4.84078 19.3486 5.01078 19.3486C5.18078 19.3486 5.34078 19.2986 5.48078 19.2086L9.98078 16.3986L14.4808 19.2086C14.6208 19.2986 14.7908 19.3486 14.9508 19.3486C15.1108 19.3486 15.2808 19.3086 15.4308 19.2286C15.5808 19.1486 15.7008 19.0286 15.7808 18.8886C15.8608 18.7486 15.9108 18.5786 15.9108 18.4086V12.6886C15.9108 12.6886 15.9108 12.6686 15.9108 12.6486V9.83863L15.9508 9.86863Z" fill="currentColor"/>
<path fill-rule="evenodd" clip-rule="evenodd" d="M12.0417 1.30879C12.2317 1.11879 12.4817 1.01879 12.7517 1.01879C13.0217 1.01879 13.2717 1.12879 13.4617 1.30879L15.0017 2.84879L16.5417 1.30879C16.6317 1.21879 16.7417 1.13879 16.8617 1.08879C16.9817 1.03879 17.1117 1.00879 17.2417 1.00879C17.3717 1.00879 17.5017 1.03879 17.6217 1.08879C17.7417 1.13879 17.8517 1.20879 17.9417 1.30879C18.0317 1.39879 18.1117 1.50879 18.1617 1.62879C18.2117 1.74879 18.2417 1.87879 18.2417 2.00879C18.2417 2.13879 18.2117 2.26879 18.1617 2.38879C18.1117 2.50879 18.0417 2.61879 17.9417 2.70879L16.4017 4.24879L17.9417 5.78879C18.0317 5.87879 18.1117 5.98879 18.1617 6.10879C18.2117 6.22879 18.2417 6.35879 18.2417 6.48879C18.2417 6.61879 18.2117 6.74879 18.1617 6.86879C18.1117 6.98879 18.0417 7.09879 17.9417 7.18879C17.8517 7.27879 17.7417 7.35879 17.6217 7.40879C17.5017 7.45879 17.3717 7.48879 17.2417 7.48879C17.1117 7.48879 16.9817 7.45879 16.8617 7.40879C16.7417 7.35879 16.6317 7.28879 16.5417 7.18879L15.0017 5.64879L13.4617 7.18879C13.3717 7.27879 13.2617 7.35879 13.1417 7.40879C13.0217 7.45879 12.8917 7.48879 12.7617 7.48879C12.6317 7.48879 12.5017 7.45879 12.3817 7.40879C12.2617 7.35879 12.1517 7.28879 12.0617 7.18879C11.9717 7.09879 11.8917 6.98879 11.8417 6.86879C11.7917 6.74879 11.7617 6.61879 11.7617 6.48879C11.7617 6.35879 11.7917 6.22879 11.8417 6.10879C11.8917 5.98879 11.9617 5.87879 12.0617 5.78879L13.6017 4.24879L12.0617 2.70879C11.8717 2.51879 11.7717 2.26879 11.7717 1.99879C11.7717 1.72879 11.8817 1.47879 12.0617 1.28879L12.0417 1.30879Z" fill="currentColor"/>
</svg>
