<svg width="14" height="13" viewBox="0 0 14 13" fill="none" xmlns="http://www.w3.org/2000/svg">
<path d="M13 0.609375H9C8.61189 0.609375 8.2291 0.699738 7.88197 0.873307C7.53483 1.04688 7.23287 1.29888 7 1.60938C6.76713 1.29888 6.46517 1.04688 6.11803 0.873307C5.7709 0.699738 5.38811 0.609375 5 0.609375H1C0.734784 0.609375 0.48043 0.714732 0.292893 0.902268C0.105357 1.0898 0 1.34416 0 1.60938V9.60938C0 9.87459 0.105357 10.1289 0.292893 10.3165C0.48043 10.504 0.734784 10.6094 1 10.6094H5C5.39782 10.6094 5.77936 10.7674 6.06066 11.0487C6.34196 11.33 6.5 11.7116 6.5 12.1094C6.5 12.242 6.55268 12.3692 6.64645 12.4629C6.74021 12.5567 6.86739 12.6094 7 12.6094C7.13261 12.6094 7.25979 12.5567 7.35355 12.4629C7.44732 12.3692 7.5 12.242 7.5 12.1094C7.5 11.7116 7.65804 11.33 7.93934 11.0487C8.22064 10.7674 8.60218 10.6094 9 10.6094H13C13.2652 10.6094 13.5196 10.504 13.7071 10.3165C13.8946 10.1289 14 9.87459 14 9.60938V1.60938C14 1.34416 13.8946 1.0898 13.7071 0.902268C13.5196 0.714732 13.2652 0.609375 13 0.609375ZM5 9.60938H1V1.60938H5C5.39782 1.60938 5.77936 1.76741 6.06066 2.04871C6.34196 2.33002 6.5 2.71155 6.5 3.10938V10.1094C6.06766 9.78405 5.54106 9.60851 5 9.60938ZM13 9.60938H9C8.45893 9.60851 7.93234 9.78405 7.5 10.1094V3.10938C7.5 2.71155 7.65804 2.33002 7.93934 2.04871C8.22064 1.76741 8.60218 1.60938 9 1.60938H13V9.60938ZM9 3.10938H11.5C11.6326 3.10938 11.7598 3.16205 11.8536 3.25582C11.9473 3.34959 12 3.47677 12 3.60938C12 3.74198 11.9473 3.86916 11.8536 3.96293C11.7598 4.0567 11.6326 4.10938 11.5 4.10938H9C8.86739 4.10938 8.74021 4.0567 8.64645 3.96293C8.55268 3.86916 8.5 3.74198 8.5 3.60938C8.5 3.47677 8.55268 3.34959 8.64645 3.25582C8.74021 3.16205 8.86739 3.10938 9 3.10938ZM12 5.60938C12 5.74198 11.9473 5.86916 11.8536 5.96293C11.7598 6.0567 11.6326 6.10938 11.5 6.10938H9C8.86739 6.10938 8.74021 6.0567 8.64645 5.96293C8.55268 5.86916 8.5 5.74198 8.5 5.60938C8.5 5.47677 8.55268 5.34959 8.64645 5.25582C8.74021 5.16205 8.86739 5.10938 9 5.10938H11.5C11.6326 5.10938 11.7598 5.16205 11.8536 5.25582C11.9473 5.34959 12 5.47677 12 5.60938ZM12 7.60938C12 7.74198 11.9473 7.86916 11.8536 7.96293C11.7598 8.0567 11.6326 8.10938 11.5 8.10938H9C8.86739 8.10938 8.74021 8.0567 8.64645 7.96293C8.55268 7.86916 8.5 7.74198 8.5 7.60938C8.5 7.47677 8.55268 7.34959 8.64645 7.25582C8.74021 7.16205 8.86739 7.10938 9 7.10938H11.5C11.6326 7.10938 11.7598 7.16205 11.8536 7.25582C11.9473 7.34959 12 7.47677 12 7.60938Z" fill="currentColor"/>
</svg>
