<svg width="10" height="11" viewBox="0 0 10 11" fill="none" xmlns="http://www.w3.org/2000/svg">
<path d="M8.75 0.42334H2.375C1.92745 0.42334 1.49822 0.601129 1.18176 0.917597C0.86529 1.23406 0.6875 1.66329 0.6875 2.11084V9.98584C0.6875 10.135 0.746763 10.2781 0.852252 10.3836C0.957742 10.4891 1.10082 10.5483 1.25 10.5483H8C8.14918 10.5483 8.29226 10.4891 8.39775 10.3836C8.50324 10.2781 8.5625 10.135 8.5625 9.98584C8.5625 9.83666 8.50324 9.69358 8.39775 9.58809C8.29226 9.4826 8.14918 9.42334 8 9.42334H1.8125V9.23584C1.8125 9.08666 1.87176 8.94358 1.97725 8.83809C2.08274 8.7326 2.22582 8.67334 2.375 8.67334H8.75C8.89918 8.67334 9.04226 8.61408 9.14775 8.50859C9.25324 8.4031 9.3125 8.26002 9.3125 8.11084V0.98584C9.3125 0.836656 9.25324 0.693582 9.14775 0.588092C9.04226 0.482603 8.89918 0.42334 8.75 0.42334ZM4.625 1.54834H6.5V4.36084L5.89953 3.91084C5.80216 3.83782 5.68374 3.79834 5.56203 3.79834C5.44032 3.79834 5.3219 3.83782 5.22453 3.91084L4.625 4.36084V1.54834ZM8.1875 7.54834H2.375C2.18335 7.54798 1.99306 7.58064 1.8125 7.6449V2.11084C1.8125 1.96166 1.87176 1.81858 1.97725 1.71309C2.08274 1.6076 2.22582 1.54834 2.375 1.54834H3.5V5.48584C3.5 5.5903 3.52909 5.6927 3.58401 5.78156C3.63893 5.87043 3.71751 5.94224 3.81094 5.98896C3.90438 6.03567 4.00897 6.05545 4.11302 6.04607C4.21706 6.03669 4.31643 5.99852 4.4 5.93584L5.5625 5.06396L6.72547 5.93584C6.80904 5.99838 6.90837 6.03644 7.01233 6.04575C7.1163 6.05506 7.22081 6.03525 7.31416 5.98855C7.40752 5.94185 7.48603 5.87009 7.54093 5.78131C7.59583 5.69253 7.62493 5.59022 7.625 5.48584V1.54834H8.1875V7.54834Z" fill="currentColor"/>
</svg>
