<svg width="16" height="13" viewBox="0 0 16 13" fill="none" xmlns="http://www.w3.org/2000/svg">
<path d="M11.9375 2.58203L1.8125 2.58203C1.51413 2.58203 1.22798 2.70056 1.017 2.91154C0.806026 3.12251 0.6875 3.40866 0.6875 3.70703L0.6875 11.582C0.6875 11.8804 0.806026 12.1665 1.017 12.3775C1.22798 12.5885 1.51413 12.707 1.8125 12.707H11.9375C12.2359 12.707 12.522 12.5885 12.733 12.3775C12.944 12.1665 13.0625 11.8804 13.0625 11.582V3.70703C13.0625 3.40866 12.944 3.12251 12.733 2.91154C12.522 2.70056 12.2359 2.58203 11.9375 2.58203ZM11.9375 11.582H1.8125L1.8125 3.70703L11.9375 3.70703V11.582ZM15.3125 1.45703V9.89453C15.3125 10.0437 15.2532 10.1868 15.1477 10.2923C15.0423 10.3978 14.8992 10.457 14.75 10.457C14.6008 10.457 14.4577 10.3978 14.3523 10.2923C14.2468 10.1868 14.1875 10.0437 14.1875 9.89453V1.45703L3.5 1.45703C3.35082 1.45703 3.20774 1.39777 3.10225 1.29228C2.99676 1.18679 2.9375 1.04372 2.9375 0.894531C2.9375 0.745347 2.99676 0.602273 3.10225 0.496784C3.20774 0.391295 3.35082 0.332031 3.5 0.332031L14.1875 0.332031C14.4859 0.332031 14.772 0.450558 14.983 0.661536C15.194 0.872514 15.3125 1.15866 15.3125 1.45703Z" fill="currentColor"/>
</svg>
