<svg width="13" height="13" viewBox="0 0 13 13" fill="none" xmlns="http://www.w3.org/2000/svg">
<path d="M11.4004 1H9.90039V0.5C9.90039 0.367392 9.84771 0.240215 9.75394 0.146447C9.66018 0.0526784 9.533 0 9.40039 0C9.26778 0 9.1406 0.0526784 9.04684 0.146447C8.95307 0.240215 8.90039 0.367392 8.90039 0.5V1H3.90039V0.5C3.90039 0.367392 3.84771 0.240215 3.75394 0.146447C3.66018 0.0526784 3.533 0 3.40039 0C3.26778 0 3.14061 0.0526784 3.04684 0.146447C2.95307 0.240215 2.90039 0.367392 2.90039 0.5V1H1.40039C1.13517 1 0.88082 1.10536 0.693284 1.29289C0.505747 1.48043 0.400391 1.73478 0.400391 2V12C0.400391 12.2652 0.505747 12.5196 0.693284 12.7071C0.88082 12.8946 1.13517 13 1.40039 13H11.4004C11.6656 13 11.92 12.8946 12.1075 12.7071C12.295 12.5196 12.4004 12.2652 12.4004 12V2C12.4004 1.73478 12.295 1.48043 12.1075 1.29289C11.92 1.10536 11.6656 1 11.4004 1ZM2.90039 2V2.5C2.90039 2.63261 2.95307 2.75979 3.04684 2.85355C3.14061 2.94732 3.26778 3 3.40039 3C3.533 3 3.66018 2.94732 3.75394 2.85355C3.84771 2.75979 3.90039 2.63261 3.90039 2.5V2H8.90039V2.5C8.90039 2.63261 8.95307 2.75979 9.04684 2.85355C9.1406 2.94732 9.26778 3 9.40039 3C9.533 3 9.66018 2.94732 9.75394 2.85355C9.84771 2.75979 9.90039 2.63261 9.90039 2.5V2H11.4004V4H1.40039V2H2.90039ZM11.4004 12H1.40039V5H11.4004V12ZM8.25414 7.35375L7.10727 8.5L8.25414 9.64625C8.3006 9.69271 8.33745 9.74786 8.36259 9.80855C8.38773 9.86925 8.40067 9.9343 8.40067 10C8.40067 10.0657 8.38773 10.1308 8.36259 10.1914C8.33745 10.2521 8.3006 10.3073 8.25414 10.3538C8.20769 10.4002 8.15254 10.4371 8.09184 10.4622C8.03114 10.4873 7.96609 10.5003 7.90039 10.5003C7.83469 10.5003 7.76964 10.4873 7.70894 10.4622C7.64825 10.4371 7.5931 10.4002 7.54664 10.3538L6.40039 9.20687L5.25414 10.3538C5.20769 10.4002 5.15254 10.4371 5.09184 10.4622C5.03114 10.4873 4.96609 10.5003 4.90039 10.5003C4.83469 10.5003 4.76964 10.4873 4.70894 10.4622C4.64825 10.4371 4.5931 10.4002 4.54664 10.3538C4.50019 10.3073 4.46334 10.2521 4.43819 10.1914C4.41305 10.1308 4.40011 10.0657 4.40011 10C4.40011 9.9343 4.41305 9.86925 4.43819 9.80855C4.46334 9.74786 4.50019 9.69271 4.54664 9.64625L5.69352 8.5L4.54664 7.35375C4.45282 7.25993 4.40011 7.13268 4.40011 7C4.40011 6.86732 4.45282 6.74007 4.54664 6.64625C4.64046 6.55243 4.76771 6.49972 4.90039 6.49972C5.03307 6.49972 5.16032 6.55243 5.25414 6.64625L6.40039 7.79313L7.54664 6.64625C7.5931 6.59979 7.64825 6.56294 7.70894 6.5378C7.76964 6.51266 7.83469 6.49972 7.90039 6.49972C7.96609 6.49972 8.03114 6.51266 8.09184 6.5378C8.15254 6.56294 8.20769 6.59979 8.25414 6.64625C8.3006 6.6927 8.33745 6.74786 8.36259 6.80855C8.38773 6.86925 8.40067 6.9343 8.40067 7C8.40067 7.0657 8.38773 7.13075 8.36259 7.19145C8.33745 7.25214 8.3006 7.3073 8.25414 7.35375Z" fill="currentColor"/>
</svg>
