<svg width="13" height="13" viewBox="0 0 13 13" fill="none" xmlns="http://www.w3.org/2000/svg">
<path d="M11.7998 1H10.2998V0.5C10.2998 0.367392 10.2471 0.240215 10.1534 0.146447C10.0596 0.0526784 9.93241 0 9.7998 0C9.6672 0 9.54002 0.0526784 9.44625 0.146447C9.35248 0.240215 9.2998 0.367392 9.2998 0.5V1H4.2998V0.5C4.2998 0.367392 4.24713 0.240215 4.15336 0.146447C4.05959 0.0526784 3.93241 0 3.7998 0C3.6672 0 3.54002 0.0526784 3.44625 0.146447C3.35248 0.240215 3.2998 0.367392 3.2998 0.5V1H1.7998C1.53459 1 1.28023 1.10536 1.0927 1.29289C0.905161 1.48043 0.799805 1.73478 0.799805 2V12C0.799805 12.2652 0.905161 12.5196 1.0927 12.7071C1.28023 12.8946 1.53459 13 1.7998 13H11.7998C12.065 13 12.3194 12.8946 12.5069 12.7071C12.6944 12.5196 12.7998 12.2652 12.7998 12V2C12.7998 1.73478 12.6944 1.48043 12.5069 1.29289C12.3194 1.10536 12.065 1 11.7998 1ZM3.2998 2V2.5C3.2998 2.63261 3.35248 2.75979 3.44625 2.85355C3.54002 2.94732 3.6672 3 3.7998 3C3.93241 3 4.05959 2.94732 4.15336 2.85355C4.24713 2.75979 4.2998 2.63261 4.2998 2.5V2H9.2998V2.5C9.2998 2.63261 9.35248 2.75979 9.44625 2.85355C9.54002 2.94732 9.6672 3 9.7998 3C9.93241 3 10.0596 2.94732 10.1534 2.85355C10.2471 2.75979 10.2998 2.63261 10.2998 2.5V2H11.7998V4H1.7998V2H3.2998ZM11.7998 12H1.7998V5H11.7998V12ZM7.5498 7.25C7.5498 7.39834 7.50582 7.54334 7.42341 7.66668C7.341 7.79001 7.22386 7.88614 7.08682 7.94291C6.94977 7.99967 6.79897 8.01453 6.65349 7.98559C6.508 7.95665 6.37436 7.88522 6.26947 7.78033C6.16459 7.67544 6.09315 7.5418 6.06422 7.39632C6.03528 7.25083 6.05013 7.10003 6.10689 6.96299C6.16366 6.82594 6.25979 6.70881 6.38313 6.6264C6.50646 6.54399 6.65147 6.5 6.7998 6.5C6.99872 6.5 7.18948 6.57902 7.33013 6.71967C7.47079 6.86032 7.5498 7.05109 7.5498 7.25ZM10.2998 7.25C10.2998 7.39834 10.2558 7.54334 10.1734 7.66668C10.091 7.79001 9.97386 7.88614 9.83682 7.94291C9.69977 7.99967 9.54897 8.01453 9.40349 7.98559C9.258 7.95665 9.12436 7.88522 9.01947 7.78033C8.91459 7.67544 8.84315 7.5418 8.81422 7.39632C8.78528 7.25083 8.80013 7.10003 8.8569 6.96299C8.91366 6.82594 9.00979 6.70881 9.13313 6.6264C9.25646 6.54399 9.40147 6.5 9.5498 6.5C9.74872 6.5 9.93948 6.57902 10.0801 6.71967C10.2208 6.86032 10.2998 7.05109 10.2998 7.25ZM4.7998 9.75C4.7998 9.89834 4.75582 10.0433 4.67341 10.1667C4.591 10.29 4.47386 10.3861 4.33682 10.4429C4.19977 10.4997 4.04897 10.5145 3.90349 10.4856C3.758 10.4566 3.62436 10.3852 3.51947 10.2803C3.41459 10.1754 3.34315 10.0418 3.31422 9.89632C3.28528 9.75083 3.30013 9.60003 3.35689 9.46299C3.41366 9.32594 3.50979 9.20881 3.63313 9.1264C3.75646 9.04399 3.90147 9 4.0498 9C4.24872 9 4.43948 9.07902 4.58013 9.21967C4.72079 9.36032 4.7998 9.55109 4.7998 9.75ZM7.5498 9.75C7.5498 9.89834 7.50582 10.0433 7.42341 10.1667C7.341 10.29 7.22386 10.3861 7.08682 10.4429C6.94977 10.4997 6.79897 10.5145 6.65349 10.4856C6.508 10.4566 6.37436 10.3852 6.26947 10.2803C6.16459 10.1754 6.09315 10.0418 6.06422 9.89632C6.03528 9.75083 6.05013 9.60003 6.10689 9.46299C6.16366 9.32594 6.25979 9.20881 6.38313 9.1264C6.50646 9.04399 6.65147 9 6.7998 9C6.99872 9 7.18948 9.07902 7.33013 9.21967C7.47079 9.36032 7.5498 9.55109 7.5498 9.75ZM10.2998 9.75C10.2998 9.89834 10.2558 10.0433 10.1734 10.1667C10.091 10.29 9.97386 10.3861 9.83682 10.4429C9.69977 10.4997 9.54897 10.5145 9.40349 10.4856C9.258 10.4566 9.12436 10.3852 9.01947 10.2803C8.91459 10.1754 8.84315 10.0418 8.81422 9.89632C8.78528 9.75083 8.80013 9.60003 8.8569 9.46299C8.91366 9.32594 9.00979 9.20881 9.13313 9.1264C9.25646 9.04399 9.40147 9 9.5498 9C9.74872 9 9.93948 9.07902 10.0801 9.21967C10.2208 9.36032 10.2998 9.55109 10.2998 9.75Z" fill="currentColor"/>
</svg>
