<svg width="14" height="14" viewBox="0 0 14 14" fill="none" xmlns="http://www.w3.org/2000/svg">
<path d="M12 1.30469H10.75V1.05469C10.75 0.855775 10.671 0.66501 10.5303 0.524357C10.3897 0.383705 10.1989 0.304688 10 0.304688C9.80109 0.304688 9.61032 0.383705 9.46967 0.524357C9.32902 0.66501 9.25 0.855775 9.25 1.05469V1.30469H4.75V1.05469C4.75 0.855775 4.67098 0.66501 4.53033 0.524357C4.38968 0.383705 4.19891 0.304688 4 0.304688C3.80109 0.304688 3.61032 0.383705 3.46967 0.524357C3.32902 0.66501 3.25 0.855775 3.25 1.05469V1.30469H2C1.66848 1.30469 1.35054 1.43638 1.11612 1.6708C0.881696 1.90522 0.75 2.22317 0.75 2.55469V12.5547C0.75 12.8862 0.881696 13.2042 1.11612 13.4386C1.35054 13.673 1.66848 13.8047 2 13.8047H12C12.3315 13.8047 12.6495 13.673 12.8839 13.4386C13.1183 13.2042 13.25 12.8862 13.25 12.5547V2.55469C13.25 2.22317 13.1183 1.90522 12.8839 1.6708C12.6495 1.43638 12.3315 1.30469 12 1.30469ZM3.25 2.80469C3.25 3.0036 3.32902 3.19437 3.46967 3.33502C3.61032 3.47567 3.80109 3.55469 4 3.55469C4.19891 3.55469 4.38968 3.47567 4.53033 3.33502C4.67098 3.19437 4.75 3.0036 4.75 2.80469H9.25C9.25 3.0036 9.32902 3.19437 9.46967 3.33502C9.61032 3.47567 9.80109 3.55469 10 3.55469C10.1989 3.55469 10.3897 3.47567 10.5303 3.33502C10.671 3.19437 10.75 3.0036 10.75 2.80469H11.75V4.30469H2.25V2.80469H3.25ZM2.25 12.3047V5.80469H11.75V12.3047H2.25Z" fill="currentColor"/>
</svg>
