<svg width="11" height="10" viewBox="0 0 11 10" fill="none" xmlns="http://www.w3.org/2000/svg">
<path d="M6.06225 5.48594V7.36094C6.06225 7.51012 6.00299 7.6532 5.8975 7.75868C5.79201 7.86417 5.64893 7.92344 5.49975 7.92344C5.35057 7.92344 5.20749 7.86417 5.102 7.75868C4.99651 7.6532 4.93725 7.51012 4.93725 7.36094V5.48594C4.93725 5.33675 4.99651 5.19368 5.102 5.08819C5.20749 4.9827 5.35057 4.92344 5.49975 4.92344C5.64893 4.92344 5.79201 4.9827 5.8975 5.08819C6.00299 5.19368 6.06225 5.33675 6.06225 5.48594ZM10.9288 4.10969L10.281 8.98469C10.2504 9.21002 10.1392 9.41663 9.96791 9.56625C9.79666 9.71586 9.577 9.79835 9.34959 9.79844H1.64991C1.4226 9.79827 1.20304 9.71581 1.03183 9.56631C0.860607 9.4168 0.749306 9.21036 0.7185 8.98516L0.0688131 4.11016C0.051091 3.97759 0.0619405 3.84276 0.100633 3.71473C0.139325 3.5867 0.204964 3.46843 0.293143 3.36786C0.381321 3.2673 0.489997 3.18676 0.611873 3.13167C0.733748 3.07657 0.866001 3.0482 0.999751 3.04844H2.61928L5.07788 0.240626C5.13067 0.180302 5.19575 0.13196 5.26875 0.0988394C5.34175 0.0657185 5.42099 0.048584 5.50116 0.048584C5.58132 0.048584 5.66056 0.0657185 5.73356 0.0988394C5.80656 0.13196 5.87164 0.180302 5.92444 0.240626L8.38022 3.04844H9.99975C10.1333 3.04854 10.2652 3.07715 10.3868 3.13236C10.5083 3.18758 10.6167 3.26812 10.7046 3.36859C10.7925 3.46906 10.8579 3.58716 10.8965 3.71496C10.9351 3.84277 10.946 3.97735 10.9283 4.10969H10.9288ZM4.11459 3.04844H6.88538L5.49975 1.465L4.11459 3.04844ZM9.78647 4.17344H1.21397L1.81397 8.67344H9.18553L9.78647 4.17344ZM7.3785 5.43016L7.191 7.30516C7.17622 7.45359 7.221 7.60182 7.3155 7.71724C7.41 7.83266 7.54647 7.90582 7.69491 7.92063C7.71366 7.92063 7.73287 7.92344 7.75162 7.92344C7.89098 7.9232 8.02529 7.87123 8.12852 7.77761C8.23175 7.684 8.29656 7.55539 8.31038 7.41672L8.49788 5.54172C8.50614 5.46775 8.49963 5.39287 8.47875 5.32143C8.45786 5.24999 8.423 5.18341 8.37619 5.12554C8.32938 5.06767 8.27155 5.01967 8.20606 4.98431C8.14056 4.94895 8.0687 4.92695 7.99464 4.91957C7.92057 4.91218 7.84578 4.91957 7.77459 4.94131C7.70341 4.96304 7.63724 4.99869 7.57993 5.04618C7.52262 5.09368 7.47531 5.15207 7.44073 5.21798C7.40615 5.28389 7.385 5.35601 7.3785 5.43016ZM3.62288 5.43016C3.60645 5.28304 3.53269 5.14834 3.4176 5.05524C3.30251 4.96215 3.15536 4.91818 3.00807 4.93286C2.86077 4.94754 2.72519 5.01969 2.63074 5.13367C2.53629 5.24764 2.49057 5.39426 2.5035 5.54172L2.691 7.41672C2.70482 7.55539 2.76962 7.684 2.87285 7.77761C2.97608 7.87123 3.11039 7.9232 3.24975 7.92344C3.26803 7.92344 3.28725 7.92344 3.306 7.92063C3.45443 7.90582 3.59091 7.83266 3.68541 7.71724C3.77991 7.60182 3.82469 7.45359 3.80991 7.30516L3.62288 5.43016Z" fill="currentColor"/>
</svg>
