<svg width="259" height="41" viewBox="0 0 259 41" fill="none" xmlns="http://www.w3.org/2000/svg">
<path d="M0.75 4.10938C0.75 2.03831 2.42893 0.359375 4.5 0.359375H254.5C256.571 0.359375 258.25 2.03831 258.25 4.10938V39.8594H0.75V4.10938Z" fill="#F5F5F5"/>
<path d="M0.75 4.10938C0.75 2.03831 2.42893 0.359375 4.5 0.359375H254.5C256.571 0.359375 258.25 2.03831 258.25 4.10938V39.8594H0.75V4.10938Z" stroke="#AFB1B6" stroke-width="0.5"/>
<mask id="path-2-inside-1_669_55971" fill="white">
<path d="M16.5 40.1094C16.5 26.8545 27.2452 16.1094 40.5 16.1094H48.5C61.7548 16.1094 72.5 26.8545 72.5 40.1094H16.5Z"/>
</mask>
<path d="M16.5 40.1094C16.5 26.8545 27.2452 16.1094 40.5 16.1094H48.5C61.7548 16.1094 72.5 26.8545 72.5 40.1094H16.5Z" fill="#FEFEFE"/>
<path d="M16 40.1094C16 26.5784 26.969 15.6094 40.5 15.6094H48.5C62.031 15.6094 73 26.5784 73 40.1094H72C72 27.1307 61.4787 16.6094 48.5 16.6094H40.5C27.5213 16.6094 17 27.1307 17 40.1094H16ZM72.5 40.1094H16.5H72.5ZM16 40.1094C16 26.5784 26.969 15.6094 40.5 15.6094V16.6094C27.5213 16.6094 17 27.1307 17 40.1094H16ZM48.5 15.6094C62.031 15.6094 73 26.5784 73 40.1094H72C72 27.1307 61.4787 16.6094 48.5 16.6094V15.6094Z" fill="#AFB1B6" mask="url(#path-2-inside-1_669_55971)"/>
</svg>
