<svg width="14" height="12" viewBox="0 0 14 12" fill="none" xmlns="http://www.w3.org/2000/svg">
<path d="M9.84375 3.04688H1.96875C1.67867 3.04688 1.40047 3.16211 1.19535 3.36723C0.990234 3.57234 0.875 3.85054 0.875 4.14062V10.2656C0.875 10.5557 0.990234 10.8339 1.19535 11.039C1.40047 11.2441 1.67867 11.3594 1.96875 11.3594H9.84375C10.1338 11.3594 10.412 11.2441 10.6171 11.039C10.8223 10.8339 10.9375 10.5557 10.9375 10.2656V4.14062C10.9375 3.85054 10.8223 3.57234 10.6171 3.36723C10.412 3.16211 10.1338 3.04688 9.84375 3.04688ZM9.625 10.0469H2.1875V4.35938H9.625V10.0469ZM13.125 1.95312V8.73438C13.125 8.90842 13.0559 9.07534 12.9328 9.19841C12.8097 9.32148 12.6428 9.39062 12.4688 9.39062C12.2947 9.39062 12.1278 9.32148 12.0047 9.19841C11.8816 9.07534 11.8125 8.90842 11.8125 8.73438V2.17188H3.5C3.32595 2.17188 3.15903 2.10273 3.03596 1.97966C2.91289 1.85659 2.84375 1.68967 2.84375 1.51562C2.84375 1.34158 2.91289 1.17466 3.03596 1.05159C3.15903 0.928515 3.32595 0.859375 3.5 0.859375H12.0312C12.3213 0.859375 12.5995 0.974609 12.8046 1.17973C13.0098 1.38484 13.125 1.66304 13.125 1.95312Z" fill="currentColor"/>
</svg>
