<svg width="14" height="14" viewBox="0 0 14 14" fill="none" xmlns="http://www.w3.org/2000/svg">
<path d="M7.82812 4.00002V6.57565L9.96375 7.8569C10.0501 7.90658 10.1257 7.97297 10.1861 8.0522C10.2465 8.13142 10.2906 8.22189 10.3156 8.31831C10.3407 8.41474 10.3463 8.5152 10.3321 8.61381C10.3179 8.71243 10.2842 8.80723 10.233 8.89268C10.1817 8.97813 10.114 9.05251 10.0337 9.11148C9.95339 9.17046 9.86214 9.21284 9.76528 9.23616C9.66841 9.25948 9.56787 9.26326 9.46953 9.24729C9.37118 9.23132 9.27701 9.19592 9.1925 9.14315L6.6925 7.64315C6.5814 7.57654 6.48944 7.4823 6.42558 7.36959C6.36172 7.25688 6.32815 7.12956 6.32812 7.00002V4.00002C6.32812 3.80111 6.40714 3.61034 6.54779 3.46969C6.68845 3.32904 6.87921 3.25002 7.07812 3.25002C7.27704 3.25002 7.4678 3.32904 7.60845 3.46969C7.74911 3.61034 7.82812 3.80111 7.82812 4.00002ZM7.07812 0.750021C6.25631 0.747904 5.44224 0.908897 4.6831 1.22367C3.92395 1.53844 3.23482 2.00074 2.65563 2.58377C2.3625 2.88002 2.09312 3.1694 1.82812 3.45877V3.00002C1.82812 2.80111 1.74911 2.61034 1.60846 2.46969C1.4678 2.32904 1.27704 2.25002 1.07812 2.25002C0.879213 2.25002 0.688447 2.32904 0.547795 2.46969C0.407143 2.61034 0.328125 2.80111 0.328125 3.00002V5.50002C0.328125 5.69893 0.407143 5.8897 0.547795 6.03035C0.688447 6.171 0.879213 6.25002 1.07812 6.25002H3.57812C3.77704 6.25002 3.9678 6.171 4.10846 6.03035C4.24911 5.8897 4.32812 5.69893 4.32812 5.50002C4.32812 5.30111 4.24911 5.11034 4.10846 4.96969C3.9678 4.82904 3.77704 4.75002 3.57812 4.75002H2.68875C3.01562 4.37502 3.35125 4.01377 3.71938 3.64127C4.37947 2.98098 5.21953 2.52987 6.13456 2.3443C7.04959 2.15874 7.99902 2.24696 8.86419 2.59793C9.72937 2.9489 10.4719 3.54706 10.9991 4.31767C11.5262 5.08827 11.8146 5.99714 11.8281 6.9307C11.8417 7.86426 11.5798 8.7811 11.0752 9.56666C10.5706 10.3522 9.84567 10.9717 8.99102 11.3476C8.13638 11.7235 7.18991 11.8392 6.26989 11.6802C5.34986 11.5212 4.49709 11.0947 3.81812 10.4538C3.67342 10.3172 3.48038 10.2437 3.28147 10.2494C3.08256 10.2552 2.89409 10.3397 2.7575 10.4844C2.62091 10.6291 2.54741 10.8221 2.55315 11.0211C2.55889 11.22 2.64342 11.4084 2.78813 11.545C3.53002 12.2453 4.43206 12.7534 5.41549 13.0248C6.39893 13.2962 7.43385 13.3227 8.42991 13.1021C9.42597 12.8815 10.3529 12.4204 11.1297 11.7591C11.9065 11.0977 12.5097 10.2563 12.8864 9.30822C13.2632 8.36014 13.4022 7.33424 13.2912 6.32009C13.1802 5.30594 12.8226 4.33438 12.2497 3.49023C11.6768 2.64609 10.906 1.95502 10.0045 1.47736C9.10303 0.999709 8.09833 0.749994 7.07812 0.750021Z" fill="currentColor"/>
</svg>
