<svg width="16" height="16" viewBox="0 0 16 16" fill="none" xmlns="http://www.w3.org/2000/svg">
<path d="M8.22508 4.25V7.64609L11.047 9.33906C11.1891 9.42443 11.2915 9.56276 11.3316 9.72363C11.3718 9.8845 11.3464 10.0547 11.261 10.1969C11.1756 10.339 11.0373 10.4414 10.8764 10.4816C10.7156 10.5217 10.5453 10.4963 10.4032 10.4109L7.2782 8.53593C7.18571 8.48037 7.10918 8.4018 7.05606 8.30788C7.00294 8.21397 6.97504 8.1079 6.97508 8V4.25C6.97508 4.08424 7.04093 3.92526 7.15813 3.80805C7.27535 3.69084 7.43432 3.625 7.60008 3.625C7.76584 3.625 7.92481 3.69084 8.04202 3.80805C8.15923 3.92526 8.22508 4.08424 8.22508 4.25ZM15.1001 2.375C14.9343 2.375 14.7753 2.44084 14.6581 2.55805C14.5409 2.67526 14.4751 2.83424 14.4751 3V4.40625C13.979 3.83125 13.4727 3.27734 12.9032 2.70078C11.8609 1.65836 10.5345 0.946213 9.08979 0.65332C7.64506 0.360426 6.14605 0.499775 4.78007 1.05395C3.41408 1.60813 2.2417 2.55257 1.4094 3.76925C0.577106 4.98593 0.121809 6.4209 0.100401 7.89487C0.0789923 9.36883 0.492422 10.8164 1.28903 12.0568C2.08564 13.2971 3.2301 14.2752 4.57941 14.8688C5.92873 15.4624 7.42306 15.6452 8.87568 15.3944C10.3283 15.1436 11.6748 14.4703 12.747 13.4586C12.8067 13.4022 12.8547 13.3345 12.8882 13.2595C12.9218 13.1846 12.9403 13.1037 12.9426 13.0216C12.9449 12.9395 12.9311 12.8577 12.9018 12.7809C12.8725 12.7042 12.8284 12.6339 12.772 12.5742C12.7155 12.5145 12.6479 12.4665 12.5729 12.4329C12.4979 12.3993 12.4171 12.3809 12.3349 12.3786C12.2528 12.3762 12.171 12.3901 12.0943 12.4194C12.0175 12.4487 11.9473 12.4928 11.8876 12.5492C10.9939 13.3915 9.87182 13.9518 8.66158 14.1601C7.45133 14.3685 6.20652 14.2157 5.08259 13.7209C3.95865 13.226 3.0054 12.411 2.34188 11.3777C1.67836 10.3443 1.33398 9.13835 1.35173 7.91042C1.36948 6.6825 1.74858 5.48701 2.44169 4.47326C3.13481 3.4595 4.11122 2.6724 5.24899 2.21024C6.38675 1.74808 7.63546 1.63135 8.83918 1.87462C10.0429 2.1179 11.1483 2.71039 12.0173 3.57812C12.6532 4.22187 13.2102 4.84218 13.772 5.5H11.9751C11.8093 5.5 11.6503 5.56584 11.5331 5.68305C11.4159 5.80026 11.3501 5.95924 11.3501 6.125C11.3501 6.29076 11.4159 6.44973 11.5331 6.56694C11.6503 6.68415 11.8093 6.75 11.9751 6.75H15.1001C15.2658 6.75 15.4248 6.68415 15.542 6.56694C15.6592 6.44973 15.7251 6.29076 15.7251 6.125V3C15.7251 2.83424 15.6592 2.67526 15.542 2.55805C15.4248 2.44084 15.2658 2.375 15.1001 2.375Z" fill="currentColor"/>
</svg>
