<svg width="12" height="12" viewBox="0 0 12 12" fill="none" xmlns="http://www.w3.org/2000/svg">
<path d="M11.0326 10.2874C11.1734 10.4283 11.2526 10.6193 11.2526 10.8186C11.2526 11.0179 11.1734 11.209 11.0326 11.3499C10.8917 11.4908 10.7006 11.5699 10.5013 11.5699C10.302 11.5699 10.1109 11.4908 9.97005 11.3499L6.00193 7.38048L2.03255 11.3486C1.89165 11.4895 1.70056 11.5687 1.5013 11.5687C1.30204 11.5687 1.11095 11.4895 0.970051 11.3486C0.829155 11.2077 0.75 11.0166 0.75 10.8174C0.75 10.6181 0.829155 10.427 0.970051 10.2861L4.93943 6.31798L0.971301 2.34861C0.830405 2.20771 0.75125 2.01661 0.75125 1.81736C0.75125 1.6181 0.830405 1.427 0.971301 1.28611C1.1122 1.14521 1.30329 1.06605 1.50255 1.06605C1.70181 1.06605 1.8929 1.14521 2.0338 1.28611L6.00193 5.25548L9.9713 1.28548C10.1122 1.14458 10.3033 1.06543 10.5026 1.06543C10.7018 1.06543 10.8929 1.14458 11.0338 1.28548C11.1747 1.42638 11.2539 1.61747 11.2539 1.81673C11.2539 2.01599 11.1747 2.20708 11.0338 2.34798L7.06443 6.31798L11.0326 10.2874Z" fill="CurrentColor" stroke="currentColor" stroke-width="0.15"/>
</svg>
