<svg width="19" height="20" viewBox="0 0 19 20" fill="currentColor" xmlns="http://www.w3.org/2000/svg">
<mask id="mask0_371_792" style="mask-type:luminance" maskUnits="userSpaceOnUse" x="0" y="0" width="19" height="20">
<path fill-rule="evenodd" clip-rule="evenodd" d="M0 0H18.6138V20H0V0Z" fill="white"/>
</mask>
<g mask="url(#mask0_371_792)">
<path fill-rule="evenodd" clip-rule="evenodd" d="M5.02163 14.9027C5.24266 14.9027 5.46369 14.9307 5.6799 14.9886C6.33237 15.1643 6.89895 15.6006 7.23484 16.1864C7.45298 16.5542 7.57363 16.9837 7.57749 17.4219C7.57749 18.0493 8.08132 18.5522 8.70099 18.5522H9.91039C10.5272 18.5522 11.031 18.0522 11.0339 17.4354C11.03 16.754 11.2964 16.1063 11.7838 15.6189C12.2645 15.1382 12.9363 14.8496 13.6081 14.8689C14.0482 14.8795 14.4719 14.9983 14.8455 15.2106C15.3831 15.5185 16.0694 15.3351 16.3802 14.8043L17.021 13.7358C17.1639 13.4897 17.2054 13.1808 17.1292 12.8961C17.0539 12.6113 16.8647 12.3642 16.6099 12.2185C16.0134 11.8749 15.5877 11.3208 15.4111 10.6568C15.2364 10.0053 15.3319 9.29391 15.6727 8.70803C15.8947 8.32195 16.2199 7.99668 16.6099 7.77275C17.133 7.46678 17.3164 6.78245 17.0124 6.24966C16.9998 6.22842 16.9882 6.20622 16.9786 6.18306L16.413 5.20241C16.1051 4.66672 15.4198 4.48237 14.8822 4.78834C14.3011 5.13195 13.61 5.2304 12.946 5.0557C12.2829 4.88389 11.7269 4.46403 11.3804 3.87139C11.1584 3.50076 11.0377 3.06931 11.0339 2.63014C11.0426 2.30004 10.9267 2.00372 10.7163 1.78655C10.5069 1.57035 10.2125 1.44777 9.91039 1.44777H8.70099C8.40177 1.44777 8.12186 1.56456 7.91048 1.77497C7.70007 1.98635 7.58521 2.26723 7.58714 2.56644C7.56687 3.97757 6.41345 5.11361 5.0168 5.11361C4.56895 5.10879 4.1375 4.98814 3.763 4.76421C3.23696 4.465 2.54974 4.64935 2.24184 5.18504L1.58839 6.25931C1.28918 6.77859 1.47257 7.46485 2.00536 7.77468C2.79587 8.23219 3.28909 9.08543 3.28909 10.0004C3.28909 10.9155 2.79587 11.7677 2.00343 12.2262C1.47354 12.5331 1.29015 13.2155 1.59708 13.7464L2.20613 14.7965C2.3567 15.0678 2.60282 15.2637 2.88756 15.3438C3.17133 15.423 3.48406 15.3892 3.74466 15.2444C4.12785 15.0195 4.57377 14.9027 5.02163 14.9027ZM9.90994 20H8.70054C7.28265 20 6.12923 18.8475 6.12923 17.4297C6.1273 17.255 6.07711 17.0735 5.98349 16.9162C5.83195 16.6517 5.58679 16.4625 5.30398 16.3872C5.02311 16.312 4.71521 16.3535 4.46233 16.5002C3.85618 16.838 3.14289 16.92 2.49041 16.7366C1.8389 16.5523 1.27619 16.1044 0.946087 15.5108L0.342834 14.4713C-0.36273 13.2474 0.0571336 11.679 1.27908 10.9724C1.62559 10.7726 1.84083 10.4001 1.84083 10.0005C1.84083 9.60089 1.62559 9.22735 1.27908 9.02756C0.0561685 8.31717 -0.36273 6.74485 0.341869 5.52097L0.996277 4.4467C1.69219 3.23633 3.26547 2.80971 4.49225 3.51431C4.65923 3.61373 4.84069 3.66392 5.02504 3.66585C5.62636 3.66585 6.12923 3.16973 6.13889 2.55972C6.13503 1.88697 6.40046 1.24125 6.88402 0.753825C7.36952 0.267362 8.01428 0 8.70054 0H9.90994C10.601 0 11.2728 0.28377 11.7544 0.77699C12.2351 1.2731 12.5005 1.95357 12.4803 2.64369C12.4822 2.79909 12.5334 2.97862 12.626 3.13595C12.7795 3.39655 13.0218 3.57994 13.3094 3.65523C13.597 3.72665 13.8982 3.68805 14.1539 3.53651C15.3894 2.83094 16.9617 3.2537 17.6673 4.47951L18.2686 5.52097C18.2841 5.54896 18.2976 5.57599 18.3091 5.60398C18.9481 6.81145 18.5215 8.33164 17.3343 9.02563C17.1615 9.12504 17.0216 9.26403 16.925 9.43198C16.7754 9.69162 16.7339 10.0005 16.8092 10.2843C16.8864 10.5738 17.0708 10.8141 17.3304 10.9628C17.9163 11.2996 18.3535 11.8672 18.5282 12.5226C18.7029 13.177 18.6074 13.8874 18.2667 14.4732L17.6258 15.5408C16.9202 16.7531 15.3479 17.1729 14.125 16.4664C13.9619 16.3728 13.7737 16.3216 13.5864 16.3168H13.5806C13.3017 16.3168 13.015 16.4355 12.8065 16.643C12.5951 16.8544 12.4793 17.1362 12.4812 17.4355C12.4745 18.8533 11.3211 20 9.90994 20Z" fill="currentColor"/>
</g>
<path fill-rule="evenodd" clip-rule="evenodd" d="M9.30953 8.17925C8.30571 8.17925 7.48915 8.99678 7.48915 10.0006C7.48915 11.0044 8.30571 11.82 9.30953 11.82C10.3133 11.82 11.1299 11.0044 11.1299 10.0006C11.1299 8.99678 10.3133 8.17925 9.30953 8.17925ZM9.30903 13.2678C7.50699 13.2678 6.04085 11.8027 6.04085 10.0006C6.04085 8.19859 7.50699 6.73148 9.30903 6.73148C11.1111 6.73148 12.5772 8.19859 12.5772 10.0006C12.5772 11.8027 11.1111 13.2678 9.30903 13.2678Z" fill="#1E1E1E"/>
</svg>
