<svg width="17" height="20" viewBox="0 0 17 20" fill="none" xmlns="http://www.w3.org/2000/svg">
<path d="M16.6088 5.71938L11.3588 0.469375C11.289 0.399749 11.2063 0.344539 11.1153 0.306898C11.0242 0.269257 10.9266 0.249923 10.8281 0.25H1.82812C1.4303 0.25 1.04877 0.408035 0.767465 0.68934C0.48616 0.970645 0.328125 1.35218 0.328125 1.75V18.25C0.328125 18.6478 0.48616 19.0294 0.767465 19.3107C1.04877 19.592 1.4303 19.75 1.82812 19.75H15.3281C15.7259 19.75 16.1075 19.592 16.3888 19.3107C16.6701 19.0294 16.8281 18.6478 16.8281 18.25V6.25C16.8282 6.15148 16.8089 6.05391 16.7712 5.96286C16.7336 5.87182 16.6784 5.78908 16.6088 5.71938ZM11.5781 2.81031L14.2678 5.5H11.5781V2.81031ZM15.3281 18.25H1.82812V1.75H10.0781V6.25C10.0781 6.44891 10.1571 6.63968 10.2978 6.78033C10.4384 6.92098 10.6292 7 10.8281 7H15.3281V18.25ZM12.3281 10.75C12.3281 10.9489 12.2491 11.1397 12.1085 11.2803C11.9678 11.421 11.777 11.5 11.5781 11.5H5.57812C5.37921 11.5 5.18845 11.421 5.0478 11.2803C4.90714 11.1397 4.82812 10.9489 4.82812 10.75C4.82812 10.5511 4.90714 10.3603 5.0478 10.2197C5.18845 10.079 5.37921 10 5.57812 10H11.5781C11.777 10 11.9678 10.079 12.1085 10.2197C12.2491 10.3603 12.3281 10.5511 12.3281 10.75ZM12.3281 13.75C12.3281 13.9489 12.2491 14.1397 12.1085 14.2803C11.9678 14.421 11.777 14.5 11.5781 14.5H5.57812C5.37921 14.5 5.18845 14.421 5.0478 14.2803C4.90714 14.1397 4.82812 13.9489 4.82812 13.75C4.82812 13.5511 4.90714 13.3603 5.0478 13.2197C5.18845 13.079 5.37921 13 5.57812 13H11.5781C11.777 13 11.9678 13.079 12.1085 13.2197C12.2491 13.3603 12.3281 13.5511 12.3281 13.75Z" fill="currentColor"/>
</svg>
