<svg width="18" height="15" viewBox="0 0 18 15" xmlns="http://www.w3.org/2000/svg">
<path d="M15.875 0.130859H2.125C1.7106 0.130859 1.31317 0.295479 1.02015 0.588505C0.72712 0.881531 0.5625 1.27896 0.5625 1.69336V12.9434C0.5625 13.3578 0.72712 13.7552 1.02015 14.0482C1.31317 14.3412 1.7106 14.5059 2.125 14.5059H15.875C16.2894 14.5059 16.6868 14.3412 16.9799 14.0482C17.2729 13.7552 17.4375 13.3578 17.4375 12.9434V1.69336C17.4375 1.27896 17.2729 0.881531 16.9799 0.588505C16.6868 0.295479 16.2894 0.130859 15.875 0.130859ZM2.4375 2.00586H4.9375V12.6309H2.4375V2.00586ZM15.5625 12.6309H6.8125V2.00586H15.5625V12.6309Z" fill="currentColor"/>
</svg>
