<svg width="18" height="16" viewBox="0 0 18 16" fill="none" xmlns="http://www.w3.org/2000/svg">
<path d="M16.1875 0.818359H4.9375C4.5231 0.818359 4.12567 0.982979 3.83265 1.27601C3.53962 1.56903 3.375 1.96646 3.375 2.38086V3.94336H1.8125C1.3981 3.94336 1.00067 4.10798 0.707646 4.40101C0.41462 4.69403 0.25 5.09146 0.25 5.50586V14.2559C0.25 14.6703 0.41462 15.0677 0.707646 15.3607C1.00067 15.6537 1.3981 15.8184 1.8125 15.8184H13.0625C13.4769 15.8184 13.8743 15.6537 14.1674 15.3607C14.4604 15.0677 14.625 14.6703 14.625 14.2559V12.6934H16.1875C16.6019 12.6934 16.9993 12.5287 17.2924 12.2357C17.5854 11.9427 17.75 11.5453 17.75 11.1309V2.38086C17.75 1.96646 17.5854 1.56903 17.2924 1.27601C16.9993 0.982979 16.6019 0.818359 16.1875 0.818359ZM12.75 5.81836V7.06836H2.125V5.81836H12.75ZM12.75 13.9434H2.125V8.94336H12.75V13.9434ZM15.875 10.8184H14.625V5.50586C14.625 5.09146 14.4604 4.69403 14.1674 4.40101C13.8743 4.10798 13.4769 3.94336 13.0625 3.94336H5.25V2.69336H15.875V10.8184Z" fill="currentColor"/>
</svg>
