<svg width="18" height="15" viewBox="0 0 18 15" fill="none" xmlns="http://www.w3.org/2000/svg">
<path d="M2.125 0.130859H15.875C16.2894 0.130859 16.6868 0.295479 16.9799 0.588505C17.2729 0.881531 17.4375 1.27896 17.4375 1.69336V12.9434C17.4375 13.3578 17.2729 13.7552 16.9799 14.0482C16.6868 14.3412 16.2894 14.5059 15.875 14.5059H2.125C1.7106 14.5059 1.31317 14.3412 1.02015 14.0482C0.727119 13.7552 0.5625 13.3578 0.5625 12.9434V1.69336C0.5625 1.27896 0.727119 0.881531 1.02015 0.588505C1.31317 0.295479 1.7106 0.130859 2.125 0.130859ZM15.5625 2.00586H13.0625V12.6309H15.5625V2.00586ZM2.4375 12.6309H11.1875V2.00586H2.4375V12.6309Z" fill="currentColor"/>
</svg>
