<svg width="12" height="13" viewBox="0 0 12 13" fill="none" xmlns="http://www.w3.org/2000/svg">
<path d="M11.058 2.51764L8.87055 0.330137C8.80956 0.269214 8.73716 0.220905 8.65749 0.187969C8.57783 0.155033 8.49246 0.138116 8.40625 0.138184H4.03125C3.74117 0.138184 3.46297 0.253418 3.25785 0.458536C3.05273 0.663654 2.9375 0.941853 2.9375 1.23193V2.32568H2.0625C1.77242 2.32568 1.49422 2.44092 1.2891 2.64604C1.08398 2.85115 0.96875 3.12935 0.96875 3.41943V11.0757C0.96875 11.3658 1.08398 11.644 1.2891 11.8491C1.49422 12.0542 1.77242 12.1694 2.0625 12.1694H7.96875C8.25883 12.1694 8.53703 12.0542 8.74215 11.8491C8.94727 11.644 9.0625 11.3658 9.0625 11.0757V9.98193H10.1562C10.4463 9.98193 10.7245 9.8667 10.9296 9.66158C11.1348 9.45646 11.25 9.17826 11.25 8.88818V2.98193C11.2501 2.89573 11.2332 2.81035 11.2002 2.73069C11.1673 2.65102 11.119 2.57863 11.058 2.51764ZM7.75 10.8569H2.28125V3.63818H5.94531L7.75 5.44287V10.8569ZM9.9375 8.66943H9.0625V5.16943C9.06257 5.08323 9.04565 4.99785 9.01271 4.91819C8.97978 4.83852 8.93147 4.76613 8.87055 4.70514L6.68305 2.51764C6.62206 2.45671 6.54966 2.40841 6.46999 2.37547C6.39033 2.34253 6.30496 2.32562 6.21875 2.32568H4.25V1.45068H8.13281L9.9375 3.25537V8.66943ZM6.875 7.13818C6.875 7.31223 6.80586 7.47915 6.68279 7.60222C6.55972 7.72529 6.3928 7.79443 6.21875 7.79443H3.8125C3.63845 7.79443 3.47153 7.72529 3.34846 7.60222C3.22539 7.47915 3.15625 7.31223 3.15625 7.13818C3.15625 6.96414 3.22539 6.79722 3.34846 6.67415C3.47153 6.55107 3.63845 6.48193 3.8125 6.48193H6.21875C6.3928 6.48193 6.55972 6.55107 6.68279 6.67415C6.80586 6.79722 6.875 6.96414 6.875 7.13818ZM6.875 9.32568C6.875 9.49973 6.80586 9.66665 6.68279 9.78972C6.55972 9.91279 6.3928 9.98193 6.21875 9.98193H3.8125C3.63845 9.98193 3.47153 9.91279 3.34846 9.78972C3.22539 9.66665 3.15625 9.49973 3.15625 9.32568C3.15625 9.15164 3.22539 8.98472 3.34846 8.86165C3.47153 8.73857 3.63845 8.66943 3.8125 8.66943H6.21875C6.3928 8.66943 6.55972 8.73857 6.68279 8.86165C6.80586 8.98472 6.875 9.15164 6.875 9.32568Z" fill="currentColor"/>
</svg>
