<svg width="15" height="7" viewBox="0 0 15 7" fill="none" xmlns="http://www.w3.org/2000/svg">
<path d="M8.83512 1.84312L3.93512 6.65562C3.8124 6.77619 3.64724 6.84375 3.4752 6.84375C3.30316 6.84375 3.138 6.77619 3.01528 6.65562L0.915277 4.59335C0.853766 4.53296 0.804754 4.46104 0.771038 4.3817C0.737323 4.30236 0.719565 4.21715 0.718777 4.13095C0.717188 3.95686 0.784822 3.78926 0.906801 3.66503C0.967198 3.60352 1.03912 3.55451 1.11846 3.5208C1.1978 3.48708 1.283 3.46932 1.36921 3.46853C1.5433 3.46694 1.71089 3.53458 1.83512 3.65656L3.47575 5.26765L7.91582 0.906871C8.03998 0.784892 8.2075 0.717229 8.38155 0.718767C8.55559 0.720306 8.72189 0.790919 8.84387 0.915074C8.96585 1.03923 9.03351 1.20675 9.03197 1.3808C9.03044 1.55484 8.95982 1.72114 8.83567 1.84312H8.83512ZM14.0933 0.913433C14.0329 0.851712 13.9609 0.802527 13.8814 0.768699C13.8019 0.734871 13.7166 0.717066 13.6302 0.716304C13.5438 0.715542 13.4581 0.731838 13.3781 0.764258C13.298 0.796679 13.2251 0.844585 13.1636 0.90523L8.7252 5.26765L8.29426 4.84437C8.17011 4.72239 8.00258 4.65473 7.82854 4.65627C7.6545 4.65781 7.48819 4.72842 7.36622 4.85257C7.24424 4.97673 7.17657 5.14425 7.17811 5.3183C7.17965 5.49234 7.25026 5.65864 7.37442 5.78062L8.26528 6.65562C8.388 6.77619 8.55316 6.84375 8.7252 6.84375C8.89724 6.84375 9.0624 6.77619 9.18512 6.65562L14.0851 1.84312C14.1466 1.78272 14.1956 1.71081 14.2293 1.63148C14.2629 1.55216 14.2807 1.46697 14.2814 1.3808C14.2822 1.29462 14.266 1.20914 14.2337 1.12923C14.2014 1.04932 14.1537 0.976548 14.0933 0.915074V0.913433Z" fill="currentColor"/>
</svg>
