<svg width="16" height="17" viewBox="0 0 16 17" fill="none" xmlns="http://www.w3.org/2000/svg">
<path d="M12.0625 3.55469H1.125C0.87636 3.55469 0.637903 3.65346 0.462087 3.82927C0.286272 4.00509 0.1875 4.24355 0.1875 4.49219V15.4297C0.1875 15.6783 0.286272 15.9168 0.462087 16.0926C0.637903 16.2684 0.87636 16.3672 1.125 16.3672H12.0625C12.3111 16.3672 12.5496 16.2684 12.7254 16.0926C12.9012 15.9168 13 15.6783 13 15.4297V4.49219C13 4.24355 12.9012 4.00509 12.7254 3.82927C12.5496 3.65346 12.3111 3.55469 12.0625 3.55469ZM11.125 14.4922H2.0625V5.42969H11.125V14.4922ZM15.8125 1.67969V12.6172C15.8125 12.8658 15.7137 13.1043 15.5379 13.2801C15.3621 13.4559 15.1236 13.5547 14.875 13.5547C14.6264 13.5547 14.3879 13.4559 14.2121 13.2801C14.0363 13.1043 13.9375 12.8658 13.9375 12.6172V2.61719H3.9375C3.68886 2.61719 3.4504 2.51842 3.27459 2.3426C3.09877 2.16678 3 1.92833 3 1.67969C3 1.43105 3.09877 1.19259 3.27459 1.01677C3.4504 0.84096 3.68886 0.742188 3.9375 0.742188H14.875C15.1236 0.742188 15.3621 0.84096 15.5379 1.01677C15.7137 1.19259 15.8125 1.43105 15.8125 1.67969Z" fill="currentColor"/>
</svg>
