<svg width="381" height="218" viewBox="0 0 381 218" fill="none" xmlns="http://www.w3.org/2000/svg">
<path d="M237.941 108.599C226.091 108.599 220.567 117.667 220.231 127.767C219.895 137.867 228.431 143.855 237.941 144.157C247.451 144.459 255.199 134.647 255.315 127.327C255.431 120.007 251.943 108.599 237.941 108.599ZM238.161 137.555C238.161 137.555 228.581 128.185 228.581 127.791C228.581 127.397 233.581 127.269 233.771 127.051C233.961 126.833 233.877 117.367 234.131 116.741C234.385 116.115 241.081 116.141 241.451 116.341C241.821 116.541 241.995 126.765 242.261 126.983C242.527 127.201 247.741 126.983 247.809 127.307C247.887 127.665 237.203 138.493 238.161 137.555Z" fill="var(--color-brand-primary)"/>
<path d="M214.175 111.101C199.847 110.941 185.519 110.927 171.203 110.869C170.137 110.869 170.101 112.733 171.203 112.745C185.529 112.883 199.847 113.057 214.175 113.081C215.333 113.081 215.333 111.113 214.175 111.101ZM186.943 117.181C186.725 117.206 186.525 117.311 186.38 117.474C186.234 117.637 186.154 117.848 186.154 118.067C186.154 118.286 186.234 118.497 186.38 118.66C186.525 118.824 186.725 118.928 186.943 118.953C196.487 119.289 208.343 120.425 217.671 120.041C218.807 120.019 219.097 118.241 217.927 118.075C217.927 117.739 196.049 117.079 186.943 117.181Z" fill="var(--color-gray-950)"/>
<path d="M275.298 62.8007C274.424 54.4267 271.534 52.7467 264.734 52.6007C263.762 52.6007 254.148 52.4967 240.412 52.3807C240.516 54.9407 240.612 57.5347 240.654 59.9567H267.098C267.688 70.0568 273.386 145.387 273.386 148.319C265.626 148.759 127.018 150.403 124.386 150.253C124.986 124.945 125.926 64.4387 126.216 59.0167H157.974V51.7048C143.288 51.5768 132.262 51.4728 129.62 51.4268C123.02 51.2988 119.81 57.5088 119.636 62.4768C119.336 70.6648 117.552 134.289 117.69 157.059C123.84 157.349 253.612 156.909 281.56 156.331C281.63 153.111 276.272 72.1727 275.298 62.8007Z" fill="var(--color-gray-950)"/>
<path d="M329.862 184.313C317.756 176.741 297.754 163.477 285.21 158.183C283.994 157.673 282.976 159.341 284.18 160.013C299.85 169.013 314.38 176.449 329.352 187.187C341.86 196.163 326.04 203.031 316.668 203.187C238.522 204.497 157.004 203.859 77.5818 201.833C68.7818 201.601 67.1578 194.107 75.4978 187.725C83.2118 181.783 91.8858 177.045 100.098 171.869C104.974 168.787 109.886 165.775 114.728 162.669C115.954 161.881 114.928 159.889 113.638 160.653C103.723 166.536 93.8744 172.536 84.0918 178.653C79.5811 181.319 75.2824 184.328 71.2338 187.653C57.7298 199.237 75.6477 216.611 93.5897 216.935C113.558 217.271 313.228 217.629 319.39 216.459C331.7 214.127 347.718 195.483 329.862 184.313ZM297.262 177.955C297.9 178.719 297.862 180.121 296.624 180.097C235.898 179.183 175.008 180.341 114.316 179.195C112.96 179.195 112.798 177.075 114.188 177.063C173.618 176.415 233.292 177.967 292.788 177.663C288.27 174.189 280.324 168.153 276.49 164.725C227.23 165.699 169.11 165.125 124.29 165.071C123.468 166.231 109.176 177.547 107.242 178.833C107.14 178.921 107.022 178.987 106.894 179.029C106.766 179.071 106.632 179.087 106.498 179.077C106.364 179.067 106.233 179.03 106.114 178.97C105.994 178.909 105.887 178.825 105.8 178.723C105.712 178.621 105.646 178.503 105.604 178.376C105.562 178.248 105.546 178.113 105.556 177.98C105.566 177.846 105.603 177.715 105.663 177.595C105.724 177.475 105.808 177.369 105.91 177.281C107.404 175.785 122.45 162.861 123.284 162.861C180.118 163.061 225.87 162.501 276.034 162.385C276.617 162.359 277.194 162.522 277.678 162.849C279.59 164.135 296.696 177.373 297.172 177.907L297.262 177.955ZM235.33 196.661C235.357 196.842 235.347 197.026 235.299 197.202C235.25 197.378 235.165 197.542 235.05 197.683C234.934 197.824 234.789 197.939 234.626 198.02C234.463 198.102 234.284 198.148 234.102 198.155C211.772 198.155 187.772 198.955 165.568 198.085C164.63 198.085 164.654 196.925 164.908 196.243C165.834 193.533 169.136 185.935 171.382 184.533C172.054 184.105 173.282 184.533 173.074 185.471C172.866 186.409 168.522 193.047 167.572 195.583C188.85 194.865 211.25 195.827 232.632 195.815C231.694 192.349 230.307 189.019 228.508 185.911C211.724 186.111 194.224 186.561 177.544 186.063C176.26 186.063 176.04 184.081 177.382 184.013C194.304 183.097 212.13 183.813 229.156 183.613C229.429 183.57 229.71 183.608 229.961 183.724C230.213 183.839 230.425 184.027 230.57 184.263C232.278 187.233 235.116 193.511 235.336 196.661H235.33Z" fill="var(--color-gray-950)"/>
<path d="M172.27 17.1312C169.524 17.7912 162.83 18.8812 162.61 26.3972C161.764 55.1332 162.112 90.9971 161.74 119.579C161.682 124.039 165.598 126.633 169.616 127.779C173.972 129.019 203.496 128.625 216.48 128.937C218.31 128.937 217.88 126.193 216.052 126.123C203.496 125.707 175.052 125.693 172.558 125.231C164.452 123.737 164.394 120.007 164.452 114.031C164.532 107.301 166.768 105.159 174.018 104.985C194.09 104.545 215.714 105.889 235.916 106.341C236.116 106.345 236.315 106.305 236.497 106.223C236.68 106.142 236.843 106.021 236.973 105.869C237.104 105.717 237.199 105.539 237.252 105.346C237.306 105.153 237.316 104.95 237.282 104.753C236.378 93.4952 238.706 22.1232 235.232 18.5092C235.658 15.9512 175.118 16.4452 172.27 17.1312ZM190.67 61.3992C192.338 61.3072 211.172 61.5052 213.256 61.8872C213.522 61.9816 213.751 62.1588 213.909 62.3928C214.067 62.6268 214.146 62.9053 214.135 63.1875C214.123 63.4697 214.021 63.7408 213.845 63.961C213.668 64.1812 213.425 64.3389 213.152 64.4112C211.114 64.6772 192.176 63.8912 190.566 63.7172C190.258 63.7034 189.969 63.568 189.762 63.3409C189.554 63.1138 189.445 62.8135 189.459 62.5062C189.473 62.1988 189.608 61.9095 189.835 61.7018C190.062 61.4942 190.363 61.3854 190.67 61.3992ZM182.172 51.6832C187.744 51.3812 214.36 50.3152 219.074 51.4972C219.33 51.5813 219.553 51.7462 219.708 51.9672C219.863 52.1881 219.943 52.4534 219.935 52.7233C219.927 52.9932 219.832 53.2534 219.665 53.4649C219.497 53.6765 219.265 53.8281 219.004 53.8972C214.476 55.0572 187.536 54.2691 182.102 54.0252C181.943 54.025 181.786 53.993 181.64 53.931C181.493 53.869 181.361 53.7784 181.25 53.6643C181.14 53.5503 181.053 53.4152 180.996 53.2672C180.938 53.1191 180.911 52.9609 180.916 52.8021C180.92 52.6433 180.957 52.4871 181.023 52.3427C181.089 52.1982 181.183 52.0685 181.301 51.9612C181.418 51.8539 181.555 51.7711 181.705 51.7179C181.854 51.6646 182.013 51.6419 182.172 51.6512V51.6832Z" fill="var(--color-brand-primary)"/>
<path d="M359.118 45.2531C344.066 40.2791 319.918 37.469 305.932 39.161C300.048 18.301 280.612 5.16105 268.162 0.347046C267.002 -0.102954 266.782 -0.322949 266.088 1.01905C260.03 12.8571 250.278 26.721 242.688 37.655C241.958 38.697 243.602 39.787 244.342 38.813C251.49 28.813 262.61 13.331 267.844 2.44505C292.932 13.575 299.754 28.7591 304.044 40.0291C297.372 49.5151 290.632 59.071 284.284 68.789C283.716 69.657 285.176 70.677 285.8 69.831C292.636 60.485 299.18 50.895 305.746 41.351C322.546 39.509 348.104 43.5971 358.714 47.2811C355.332 52.8811 324.546 103.965 324.464 104.949C314.214 100.467 299.064 96.1351 287.876 96.0551C287.744 96.0497 287.613 96.0702 287.49 96.1155C287.366 96.1608 287.253 96.2299 287.156 96.319C287.06 96.408 286.982 96.5152 286.926 96.6345C286.871 96.7538 286.84 96.8827 286.835 97.0141C286.829 97.1454 286.85 97.2765 286.895 97.3999C286.94 97.5232 287.009 97.6365 287.098 97.7332C287.188 97.8298 287.295 97.908 287.414 97.9632C287.533 98.0185 287.662 98.0497 287.794 98.0551C301.808 100.055 309.408 101.077 322.356 106.637C324.522 107.575 324.672 108.015 326.236 105.595C338.074 86.7271 349.98 66.995 361.124 47.683C361.5 46.933 361.39 46.0031 359.118 45.2531Z" fill="var(--color-gray-950)"/>
<path d="M359.556 62.1631C349.528 80.5891 331.33 109.919 324.658 122.393C319.018 118.375 290.658 107.335 282.962 105.297C282.682 105.235 282.388 105.279 282.138 105.422C281.889 105.564 281.701 105.794 281.611 106.067C281.522 106.34 281.537 106.637 281.654 106.899C281.771 107.161 281.981 107.371 282.244 107.487C294.896 111.58 307.194 116.692 319.018 122.775C325.538 126.099 324.926 126.945 328.55 121.049C335.928 109.049 353.14 78.4371 361.896 63.4851C362.662 62.1631 360.298 60.8071 359.556 62.1631Z" fill="var(--color-brand-primary)"/>
<path d="M338.038 156.191C337.02 154.153 337.864 153.075 336.996 152.241C336.128 151.407 334.216 152.925 335.756 156.641C336.326 158.009 338.664 161.275 339.776 159.675C340.426 158.717 338.618 157.349 338.038 156.191ZM376.076 115.525C375 113.427 375.38 110.405 374.918 109.725C374.318 108.725 372.172 109.111 372.96 113.339C373.968 118.675 376.954 117.241 376.076 115.525Z" fill="var(--color-gray-950)"/>
<path d="M97.7115 155.103C88.1855 162.061 68.2335 175.315 56.8835 178.857C48.7755 181.417 45.7295 173.381 51.8575 167.011C62.6275 155.821 89.0135 145.477 93.3795 140.103C96.2055 136.623 57.8555 105.691 49.1455 100.953C48.0815 100.375 21.7295 115.443 18.5095 117.169C7.05548 123.413 -7.07452 134.357 5.30948 148.117C15.4575 159.423 32.7715 173.599 46.3095 180.387C48.1291 181.313 50.1224 181.848 52.1612 181.957C54.2 182.067 56.2391 181.748 58.1475 181.023C72.6502 174.609 86.3975 166.607 99.1375 157.165C100.433 156.223 99.0095 154.153 97.7115 155.103ZM41.8615 162.223C29.9287 153.284 18.4874 143.707 7.58748 133.535C6.56948 132.553 8.03948 131.057 9.10548 131.961C20.4795 141.621 31.8075 151.291 43.7595 160.233C45.1735 161.287 43.2695 163.289 41.8615 162.223Z" fill="var(--color-brand-primary)"/>
<path d="M94.9206 153.793C91.6066 152.299 91.3646 149.971 91.5946 146.845C91.7106 145.257 88.3406 144.319 88.8166 149.161C89.3366 154.349 94.5266 156.961 95.3246 155.103C95.4241 154.873 95.4381 154.614 95.3641 154.374C95.29 154.134 95.1328 153.928 94.9206 153.793Z" fill="var(--color-gray-950)"/>
<path d="M27.8105 77.6026C27.2665 76.4446 25.2845 76.9886 25.6565 78.2866C27.0225 83.0346 32.9985 100.583 35.6745 104.707C36.4625 105.865 38.2745 104.835 38.0745 103.549C37.3445 98.9966 29.8745 81.7266 27.8125 77.5486L27.8105 77.6026ZM115.167 120.459C114.643 119.435 113.741 119.729 112.967 120.157C111.065 121.032 108.927 121.253 106.887 120.783C106.447 120.691 90.2305 126.875 88.6325 127.583C87.4745 128.091 88.0885 130.211 89.3505 129.771C95.4425 127.687 101.501 125.475 107.581 123.319C110.533 124.189 116.345 122.765 115.167 120.459Z" fill="var(--color-brand-primary)"/>
<path d="M140.08 46.1453C139.432 43.9053 128.844 25.4253 126.968 22.1693C125.81 20.1553 125.994 20.1893 124.118 21.1393C115.026 25.7713 83.2082 46.2233 80.0982 52.7933C66.6522 51.1253 43.5682 53.1293 29.7502 60.5533C28.9502 60.9953 28.7502 61.6433 29.1502 62.8713C33.3902 75.6113 37.5142 89.2093 42.3782 101.579C42.5226 101.803 42.7392 101.969 42.9919 102.052C43.2446 102.135 43.518 102.128 43.7663 102.033C44.0146 101.938 44.2228 101.761 44.356 101.531C44.4893 101.301 44.5395 101.032 44.4982 100.769C40.7682 88.0273 35.6262 74.8353 31.1782 62.2573C46.4104 55.1765 63.4121 52.8126 79.9982 55.4693C88.5122 74.2693 95.7842 92.2913 105.434 111.887C98.1022 114.541 90.7342 117.099 83.4342 119.915C82.2762 120.355 82.9942 122.023 84.1302 121.651C86.1442 121.003 107.816 113.685 107.85 113.651C109.779 111.535 112.106 109.818 114.698 108.599C114.87 108.429 114.985 108.209 115.026 107.971C115.067 107.732 115.032 107.486 114.926 107.269C114.821 107.051 114.649 106.871 114.437 106.756C114.224 106.64 113.98 106.594 113.74 106.623C111.468 107.663 109.403 109.108 107.648 110.887C101.614 97.2993 89.2482 70.1853 81.9702 54.0513C92.7182 42.6073 108.216 32.7153 125.242 23.3913C128.23 28.9633 134.856 40.0253 138.412 47.2393C138.886 48.2073 140.34 47.0473 140.08 46.1453Z" fill="var(--color-gray-950)"/>
<path d="M378.843 117.145C373.843 123.483 357.877 143.091 339.113 164.333L306.835 154.105C301.413 152.393 289.795 146.799 296.699 139.675C309.927 143.323 321.161 145.605 334.261 150.723C334.604 150.817 334.966 150.821 335.311 150.734C335.656 150.647 335.973 150.472 336.231 150.227C346.387 138.645 368.327 116.627 375.611 104.903C376.027 104.233 376.179 103.455 374.927 102.739C371.727 100.885 354.855 95.4528 349.215 94.2588C343.331 105.101 331.053 127.859 327.045 128.717C323.513 129.481 313.145 124.467 306.939 121.351C302.363 126.951 298.181 132.807 293.955 138.609C286.645 148.675 299.443 154.719 307.135 157.141C317.375 160.373 327.735 163.199 337.841 166.847C340.241 167.703 339.961 167.067 342.041 164.901C351.307 155.217 379.011 122.615 380.441 118.489C380.789 117.633 379.477 116.345 378.843 117.145Z" fill="var(--color-brand-primary)"/>
</svg>
