<svg width="385" height="371" viewBox="0 0 385 371" fill="none" xmlns="http://www.w3.org/2000/svg">
<path opacity="0.5" d="M99.3676 333.077C61.0984 315.67 17.8489 300.886 5.00516 273.94C-7.83862 246.756 9.98538 207.649 18.6353 168.543C27.5473 129.674 27.2852 91.2829 45.1092 59.3298C62.6711 27.6152 98.3191 2.57736 135.802 0.19281C173.285 -2.19177 212.865 18.077 252.444 31.4305C292.024 45.0225 331.604 51.6992 351.001 73.6372C370.397 95.3366 369.349 132.536 374.591 168.543C379.572 204.311 390.843 239.125 379.834 266.309C369.087 293.493 335.798 312.808 302.509 332.362C269.22 351.677 236.193 371.468 203.166 370.992C170.139 370.753 137.375 350.484 99.3676 333.077Z" fill="var(--color-brand-secondary)"/>
</svg>
