<svg width="16" height="18" viewBox="0 0 16 18" fill="currentColor" xmlns="http://www.w3.org/2000/svg">
<path d="M15.2344 8.74976V16.2498C15.2344 16.6642 15.0698 17.0616 14.7767 17.3546C14.4837 17.6476 14.0863 17.8123 13.6719 17.8123H2.42188C2.00747 17.8123 1.61005 17.6476 1.31702 17.3546C1.024 17.0616 0.859375 16.6642 0.859375 16.2498V8.74976C0.859375 8.33536 1.024 7.93793 1.31702 7.64491C1.61005 7.35188 2.00747 7.18726 2.42188 7.18726H3.98438C4.23302 7.18726 4.47147 7.28604 4.64729 7.46185C4.8231 7.63767 4.92188 7.87612 4.92188 8.12476C4.92188 8.3734 4.8231 8.61186 4.64729 8.78768C4.47147 8.96349 4.23302 9.06226 3.98438 9.06226H2.73438V15.9373H13.3594V9.06226H12.1094C11.8607 9.06226 11.6223 8.96349 11.4465 8.78768C11.2706 8.61186 11.1719 8.3734 11.1719 8.12476C11.1719 7.87612 11.2706 7.63767 11.4465 7.46185C11.6223 7.28604 11.8607 7.18726 12.1094 7.18726H13.6719C14.0863 7.18726 14.4837 7.35188 14.7767 7.64491C15.0698 7.93793 15.2344 8.33536 15.2344 8.74976ZM5.58516 5.66304L7.10938 4.14039V10.6248C7.10938 10.8734 7.20815 11.1119 7.38396 11.2877C7.55978 11.4635 7.79823 11.5623 8.04688 11.5623C8.29552 11.5623 8.53397 11.4635 8.70979 11.2877C8.8856 11.1119 8.98438 10.8734 8.98438 10.6248V4.14039L10.5086 5.66539C10.5958 5.75259 10.6993 5.82177 10.8133 5.86897C10.9272 5.91616 11.0493 5.94045 11.1727 5.94045C11.296 5.94045 11.4181 5.91616 11.532 5.86897C11.646 5.82177 11.7495 5.75259 11.8367 5.66539C11.9239 5.57818 11.9931 5.47465 12.0403 5.36071C12.0875 5.24677 12.1118 5.12465 12.1118 5.00133C12.1118 4.878 12.0875 4.75588 12.0403 4.64194C11.9931 4.528 11.9239 4.42447 11.8367 4.33726L8.71172 1.21226C8.62462 1.12486 8.52113 1.05552 8.40717 1.0082C8.29322 0.960881 8.17104 0.936523 8.04766 0.936523C7.92427 0.936523 7.80209 0.960881 7.68814 1.0082C7.57418 1.05552 7.47069 1.12486 7.38359 1.21226L4.25859 4.33726C4.17139 4.42447 4.10221 4.528 4.05502 4.64194C4.00782 4.75588 3.98353 4.878 3.98353 5.00133C3.98353 5.2504 4.08247 5.48927 4.25859 5.66539C4.43471 5.84151 4.67358 5.94045 4.92266 5.94045C5.17173 5.94045 5.4106 5.84151 5.58672 5.66539L5.58516 5.66304Z" fill="currentColor"/>
</svg>
