<svg width="20" height="21" viewBox="0 0 20 21" fill="none" xmlns="http://www.w3.org/2000/svg">
<path d="M15.625 3.89258C15.4592 3.89258 15.3003 3.95843 15.1831 4.07564C15.0658 4.19285 15 4.35182 15 4.51758C15 4.68334 15.0658 4.84231 15.1831 4.95952C15.3003 5.07673 15.4592 5.14258 15.625 5.14258C15.9565 5.14258 16.2745 5.27427 16.5089 5.50869C16.7433 5.74312 16.875 6.06106 16.875 6.39258V10.9301C16.4344 10.5667 15.9101 10.3188 15.3497 10.2088C14.7892 10.0989 14.2102 10.1303 13.6649 10.3003C13.1196 10.4703 12.6253 10.7734 12.2266 11.1824C11.8279 11.5913 11.5373 12.0932 11.3812 12.6426H8.61875C8.46266 12.0932 8.17212 11.5913 7.77341 11.1824C7.3747 10.7734 6.88037 10.4703 6.3351 10.3003C5.78983 10.1303 5.2108 10.0989 4.65033 10.2088C4.08987 10.3188 3.56563 10.5667 3.125 10.9301V6.39258C3.125 6.06106 3.2567 5.74312 3.49112 5.50869C3.72554 5.27427 4.04348 5.14258 4.375 5.14258C4.54076 5.14258 4.69973 5.07673 4.81694 4.95952C4.93415 4.84231 5 4.68334 5 4.51758C5 4.35182 4.93415 4.19285 4.81694 4.07564C4.69973 3.95843 4.54076 3.89258 4.375 3.89258C3.71196 3.89258 3.07607 4.15597 2.60723 4.62481C2.13839 5.09365 1.875 5.72954 1.875 6.39258V13.5801C1.87668 14.4635 2.21845 15.3124 2.82939 15.9506C3.44032 16.5888 4.27351 16.9673 5.15607 17.0075C6.03862 17.0477 6.90277 16.7465 7.5692 16.1665C8.23563 15.5865 8.65316 14.7722 8.73516 13.8926H11.2648C11.3468 14.7722 11.7644 15.5865 12.4308 16.1665C13.0972 16.7465 13.9614 17.0477 14.8439 17.0075C15.7265 16.9673 16.5597 16.5888 17.1706 15.9506C17.7815 15.3124 18.1233 14.4635 18.125 13.5801V6.39258C18.125 5.72954 17.8616 5.09365 17.3928 4.62481C16.9239 4.15597 16.288 3.89258 15.625 3.89258ZM5.3125 15.7676C4.87985 15.7676 4.45692 15.6393 4.09719 15.3989C3.73746 15.1586 3.45708 14.8169 3.29151 14.4172C3.12595 14.0175 3.08263 13.5777 3.16703 13.1533C3.25144 12.729 3.45978 12.3392 3.7657 12.0333C4.07163 11.7274 4.46141 11.519 4.88574 11.4346C5.31007 11.3502 5.74991 11.3935 6.14962 11.5591C6.54933 11.7247 6.89097 12.005 7.13134 12.3648C7.37171 12.7245 7.5 13.1474 7.5 13.5801C7.5 14.1602 7.26953 14.7166 6.8593 15.1269C6.44906 15.5371 5.89266 15.7676 5.3125 15.7676ZM14.6875 15.7676C14.2549 15.7676 13.8319 15.6393 13.4722 15.3989C13.1125 15.1586 12.8321 14.8169 12.6665 14.4172C12.5009 14.0175 12.4576 13.5777 12.542 13.1533C12.6264 12.729 12.8348 12.3392 13.1407 12.0333C13.4466 11.7274 13.8364 11.519 14.2607 11.4346C14.6851 11.3502 15.1249 11.3935 15.5246 11.5591C15.9243 11.7247 16.266 12.005 16.5063 12.3648C16.7467 12.7245 16.875 13.1474 16.875 13.5801C16.875 14.1602 16.6445 14.7166 16.2343 15.1269C15.8241 15.5371 15.2677 15.7676 14.6875 15.7676Z" fill="currentColor"/>
</svg>
