<svg width="18" height="17" viewBox="0 0 18 17" fill="currentColor" xmlns="http://www.w3.org/2000/svg">
<path d="M17.3506 1.74297C17.2282 1.46613 17.028 1.23082 16.7743 1.06564C16.5206 0.900453 16.2244 0.812512 15.9217 0.8125H2.17172C1.86906 0.812529 1.57293 0.900459 1.31929 1.06561C1.06566 1.23075 0.865451 1.46601 0.74299 1.74279C0.620529 2.01957 0.581089 2.32595 0.629461 2.62472C0.677833 2.92349 0.811935 3.20178 1.01547 3.42578L1.02485 3.43672L6.23422 8.99609V14.875C6.23418 15.1579 6.31094 15.4355 6.4563 15.6781C6.60166 15.9208 6.81017 16.1195 7.05959 16.2529C7.30901 16.3864 7.58999 16.4496 7.87253 16.4359C8.15508 16.4222 8.4286 16.332 8.66391 16.175L11.1639 14.5086C11.378 14.3658 11.5534 14.1723 11.6747 13.9454C11.796 13.7185 11.8594 13.4651 11.8592 13.2078V8.99609L17.0678 3.43672L17.0772 3.42578C17.2809 3.2019 17.4151 2.92369 17.4637 2.62495C17.5122 2.32622 17.4729 2.01981 17.3506 1.74297ZM10.2413 7.98438C10.0772 8.15746 9.98531 8.38654 9.98422 8.625V13.0406L8.10922 14.2906V8.625C8.10899 8.38697 8.01821 8.15794 7.85532 7.98438L2.89282 2.6875H15.2006L10.2413 7.98438Z" fill="#currentColor"/>
</svg>
