<svg width="18" height="17" viewBox="0 0 18 17" fill="currentColor" xmlns="http://www.w3.org/2000/svg">
<path d="M4.31225 6.74102V1.89258C4.31225 1.64394 4.21348 1.40548 4.03766 1.22967C3.86185 1.05385 3.62339 0.955078 3.37475 0.955078C3.12611 0.955078 2.88765 1.05385 2.71184 1.22967C2.53602 1.40548 2.43725 1.64394 2.43725 1.89258V6.74102C1.88897 6.93492 1.41427 7.29403 1.07853 7.76889C0.742783 8.24375 0.5625 8.81101 0.5625 9.39258C0.5625 9.97414 0.742783 10.5414 1.07853 11.0163C1.41427 11.4911 1.88897 11.8502 2.43725 12.0441V15.6426C2.43725 15.8912 2.53602 16.1297 2.71184 16.3055C2.88765 16.4813 3.12611 16.5801 3.37475 16.5801C3.62339 16.5801 3.86185 16.4813 4.03766 16.3055C4.21348 16.1297 4.31225 15.8912 4.31225 15.6426V12.0441C4.86054 11.8502 5.33523 11.4911 5.67098 11.0163C6.00672 10.5414 6.187 9.97414 6.187 9.39258C6.187 8.81101 6.00672 8.24375 5.67098 7.76889C5.33523 7.29403 4.86054 6.93492 4.31225 6.74102ZM3.37475 10.3301C3.18933 10.3301 3.00808 10.2751 2.8539 10.1721C2.69973 10.0691 2.57957 9.92265 2.50861 9.75134C2.43766 9.58004 2.41909 9.39154 2.45527 9.20968C2.49144 9.02782 2.58073 8.86078 2.71184 8.72967C2.84295 8.59855 3.01 8.50927 3.19185 8.47309C3.37371 8.43692 3.56221 8.45548 3.73352 8.52644C3.90482 8.5974 4.05124 8.71756 4.15425 8.87173C4.25727 9.0259 4.31225 9.20716 4.31225 9.39258C4.31225 9.64122 4.21348 9.87967 4.03766 10.0555C3.86185 10.2313 3.62339 10.3301 3.37475 10.3301ZM11.8123 5.64258C11.8114 5.06117 11.6308 4.49425 11.2951 4.01954C10.9594 3.54483 10.4851 3.18557 9.93725 2.99102V1.89258C9.93725 1.64394 9.83848 1.40548 9.66266 1.22967C9.48685 1.05385 9.24839 0.955078 8.99975 0.955078C8.75111 0.955078 8.51265 1.05385 8.33684 1.22967C8.16102 1.40548 8.06225 1.64394 8.06225 1.89258V2.99102C7.51397 3.18492 7.03927 3.54403 6.70353 4.01889C6.36778 4.49375 6.1875 5.06101 6.1875 5.64258C6.1875 6.22414 6.36778 6.79141 6.70353 7.26627C7.03927 7.74113 7.51397 8.10023 8.06225 8.29414V15.6426C8.06225 15.8912 8.16102 16.1297 8.33684 16.3055C8.51265 16.4813 8.75111 16.5801 8.99975 16.5801C9.24839 16.5801 9.48685 16.4813 9.66266 16.3055C9.83848 16.1297 9.93725 15.8912 9.93725 15.6426V8.29414C10.4851 8.09959 10.9594 7.74033 11.2951 7.26562C11.6308 6.79091 11.8114 6.22398 11.8123 5.64258ZM8.99975 6.58008C8.81433 6.58008 8.63308 6.52509 8.4789 6.42208C8.32473 6.31907 8.20457 6.17265 8.13361 6.00134C8.06266 5.83004 8.04409 5.64154 8.08027 5.45968C8.11644 5.27782 8.20573 5.11078 8.33684 4.97967C8.46795 4.84855 8.635 4.75927 8.81685 4.72309C8.99871 4.68692 9.18721 4.70548 9.35852 4.77644C9.52982 4.8474 9.67624 4.96756 9.77925 5.12173C9.88227 5.2759 9.93725 5.45716 9.93725 5.64258C9.93725 5.89122 9.83848 6.12968 9.66266 6.30549C9.48685 6.48131 9.24839 6.58008 8.99975 6.58008ZM17.4373 11.8926C17.4364 11.3112 17.2558 10.7443 16.9201 10.2695C16.5844 9.79483 16.1101 9.43557 15.5623 9.24102V1.89258C15.5623 1.64394 15.4635 1.40548 15.2877 1.22967C15.1118 1.05385 14.8734 0.955078 14.6248 0.955078C14.3761 0.955078 14.1377 1.05385 13.9618 1.22967C13.786 1.40548 13.6873 1.64394 13.6873 1.89258V9.24102C13.139 9.43492 12.6643 9.79403 12.3285 10.2689C11.9928 10.7437 11.8125 11.311 11.8125 11.8926C11.8125 12.4741 11.9928 13.0414 12.3285 13.5163C12.6643 13.9911 13.139 14.3502 13.6873 14.5441V15.6426C13.6873 15.8912 13.786 16.1297 13.9618 16.3055C14.1377 16.4813 14.3761 16.5801 14.6248 16.5801C14.8734 16.5801 15.1118 16.4813 15.2877 16.3055C15.4635 16.1297 15.5623 15.8912 15.5623 15.6426V14.5441C16.1101 14.3496 16.5844 13.9903 16.9201 13.5156C17.2558 13.0409 17.4364 12.474 17.4373 11.8926ZM14.6248 12.8301C14.4393 12.8301 14.2581 12.7751 14.1039 12.6721C13.9497 12.5691 13.8296 12.4226 13.7586 12.2513C13.6877 12.08 13.6691 11.8915 13.7053 11.7097C13.7414 11.5278 13.8307 11.3608 13.9618 11.2297C14.093 11.0986 14.26 11.0093 14.4419 10.9731C14.6237 10.9369 14.8122 10.9555 14.9835 11.0264C15.1548 11.0974 15.3012 11.2176 15.4043 11.3717C15.5073 11.5259 15.5623 11.7072 15.5623 11.8926C15.5623 12.1412 15.4635 12.3797 15.2877 12.5555C15.1118 12.7313 14.8734 12.8301 14.6248 12.8301Z" fill="curentColor"/>
</svg>
