<svg width="8" height="8" viewBox="0 0 8 8" fill="CurrentColor" xmlns="http://www.w3.org/2000/svg">
<path d="M7.67734 2.04082L5.98555 0.349026C5.9132 0.276232 5.82713 0.218517 5.73231 0.179224C5.6375 0.139931 5.53583 0.119842 5.4332 0.12012H0.875C0.6678 0.12012 0.469086 0.20243 0.322573 0.348943C0.17606 0.495456 0.09375 0.69417 0.09375 0.90137V7.15137C0.09375 7.35857 0.17606 7.55728 0.322573 7.7038C0.469086 7.85031 0.6678 7.93262 0.875 7.93262H7.125C7.3322 7.93262 7.53091 7.85031 7.67743 7.7038C7.82394 7.55728 7.90625 7.35857 7.90625 7.15137V2.59317C7.90653 2.49054 7.88644 2.38887 7.84715 2.29406C7.80785 2.19924 7.75014 2.11317 7.67734 2.04082ZM5.40625 6.99512H2.59375V5.12012H5.40625V6.99512ZM6.96875 6.99512H6.34375V4.96387C6.34375 4.75667 6.26144 4.55796 6.11493 4.41144C5.96841 4.26493 5.7697 4.18262 5.5625 4.18262H2.4375C2.2303 4.18262 2.03159 4.26493 1.88507 4.41144C1.73856 4.55796 1.65625 4.75667 1.65625 4.96387V6.99512H1.03125V1.05762H5.36719L6.96875 2.65918V6.99512ZM5.40625 2.15137C5.40625 2.27569 5.35686 2.39492 5.26896 2.48283C5.18105 2.57073 5.06182 2.62012 4.9375 2.62012H2.75C2.62568 2.62012 2.50645 2.57073 2.41854 2.48283C2.33064 2.39492 2.28125 2.27569 2.28125 2.15137C2.28125 2.02705 2.33064 1.90782 2.41854 1.81991C2.50645 1.73201 2.62568 1.68262 2.75 1.68262H4.9375C5.06182 1.68262 5.18105 1.73201 5.26896 1.81991C5.35686 1.90782 5.40625 2.02705 5.40625 2.15137Z" fill="CurrentColor"/>
</svg>
