<svg width="10" height="11" viewBox="0 0 10 11" fill="none" xmlns="http://www.w3.org/2000/svg">
<path d="M9.6875 4.375C9.6875 4.52418 9.62824 4.66726 9.52275 4.77275C9.41726 4.87824 9.27418 4.9375 9.125 4.9375C8.97582 4.9375 8.83274 4.87824 8.72725 4.77275C8.62176 4.66726 8.5625 4.52418 8.5625 4.375V2.73438L5.77297 5.52391C5.6673 5.62958 5.52397 5.68894 5.37453 5.68894C5.22509 5.68894 5.08177 5.62958 4.97609 5.52391C4.87042 5.41823 4.81106 5.27491 4.81106 5.12547C4.81106 4.97603 4.87042 4.8327 4.97609 4.72703L7.76562 1.9375H6.125C5.97582 1.9375 5.83274 1.87824 5.72725 1.77275C5.62176 1.66726 5.5625 1.52418 5.5625 1.375C5.5625 1.22582 5.62176 1.08274 5.72725 0.977252C5.83274 0.871763 5.97582 0.8125 6.125 0.8125H9.125C9.27418 0.8125 9.41726 0.871763 9.52275 0.977252C9.62824 1.08274 9.6875 1.22582 9.6875 1.375V4.375ZM7.625 5.5C7.47582 5.5 7.33274 5.55926 7.22725 5.66475C7.12176 5.77024 7.0625 5.91332 7.0625 6.0625V9.0625H1.4375V3.4375H4.4375C4.58668 3.4375 4.72976 3.37824 4.83525 3.27275C4.94074 3.16726 5 3.02418 5 2.875C5 2.72582 4.94074 2.58274 4.83525 2.47725C4.72976 2.37176 4.58668 2.3125 4.4375 2.3125H1.25C1.00136 2.3125 0.762903 2.41127 0.587087 2.58709C0.411272 2.7629 0.3125 3.00136 0.3125 3.25V9.25C0.3125 9.49864 0.411272 9.7371 0.587087 9.91291C0.762903 10.0887 1.00136 10.1875 1.25 10.1875H7.25C7.49864 10.1875 7.7371 10.0887 7.91291 9.91291C8.08873 9.7371 8.1875 9.49864 8.1875 9.25V6.0625C8.1875 5.91332 8.12824 5.77024 8.02275 5.66475C7.91726 5.55926 7.77418 5.5 7.625 5.5Z" fill="#1053C8"/>
</svg>
