<svg width="15" height="15" viewBox="0 0 15 15" fill="none" xmlns="http://www.w3.org/2000/svg">
<path d="M7.5 0.804688C6.16498 0.804688 4.85994 1.20057 3.7499 1.94227C2.63987 2.68397 1.77471 3.73817 1.26382 4.97157C0.752925 6.20498 0.619252 7.56217 0.879702 8.87155C1.14015 10.1809 1.78303 11.3837 2.72703 12.3277C3.67104 13.2717 4.87377 13.9145 6.18314 14.175C7.49252 14.4354 8.84971 14.3018 10.0831 13.7909C11.3165 13.28 12.3707 12.4148 13.1124 11.3048C13.8541 10.1948 14.25 8.88971 14.25 7.55469C14.248 5.76509 13.5362 4.04935 12.2708 2.78391C11.0053 1.51847 9.28961 0.806673 7.5 0.804688ZM12.75 7.55469C12.7511 8.688 12.3837 9.79094 11.7031 10.6972L4.3575 3.35156C5.13773 2.76857 6.06475 2.4141 7.0349 2.32782C8.00505 2.24153 8.98008 2.42683 9.85095 2.86297C10.7218 3.29912 11.4542 3.96893 11.9662 4.79749C12.4781 5.62606 12.7495 6.58071 12.75 7.55469ZM2.25 7.55469C2.24892 6.42137 2.61635 5.31843 3.29688 4.41219L10.6425 11.7578C9.86228 12.3408 8.93525 12.6953 7.9651 12.7816C6.99495 12.8678 6.01992 12.6825 5.14906 12.2464C4.27819 11.8103 3.54581 11.1404 3.03384 10.3119C2.52186 9.48332 2.25046 8.52867 2.25 7.55469Z" fill="currentColor"/>
</svg>
