<svg width="18" height="17" viewBox="0 0 18 17" fill="none" xmlns="http://www.w3.org/2000/svg">
<path d="M17.0594 2.92989V6.67989C17.0594 6.92853 16.9607 7.16699 16.7848 7.3428C16.609 7.51862 16.3706 7.61739 16.1219 7.61739H12.3719C12.1233 7.61739 11.8848 7.51862 11.709 7.3428C11.5332 7.16699 11.4344 6.92853 11.4344 6.67989C11.4344 6.43125 11.5332 6.19279 11.709 6.01698C11.8848 5.84116 12.1233 5.74239 12.3719 5.74239H13.7079L12.2235 4.38458C12.2133 4.3752 12.2032 4.36583 12.1938 4.35567C11.5055 3.66782 10.6588 3.15968 9.72799 2.87593C8.79722 2.59219 7.81098 2.54156 6.85604 2.72848C5.90111 2.91541 5.00675 3.33416 4.25166 3.9479C3.49656 4.56164 2.90388 5.35156 2.52576 6.24814C2.14764 7.14473 1.99567 8.12051 2.08322 9.08962C2.17077 10.0587 2.49516 10.9915 3.02784 11.8058C3.56052 12.6201 4.28518 13.291 5.13804 13.7595C5.9909 14.2279 6.94583 14.4796 7.9188 14.4924H7.99693C9.51249 14.496 10.9713 13.9164 12.0711 12.8736C12.2519 12.7028 12.4932 12.6108 12.7418 12.6178C12.9904 12.6248 13.2261 12.7304 13.3969 12.9111C13.5678 13.0919 13.6598 13.3332 13.6528 13.5818C13.6457 13.8304 13.5402 14.0661 13.3594 14.2369C11.9117 15.6091 9.99164 16.3719 7.99693 16.3674H7.88989C6.61102 16.3494 5.35614 16.0176 4.23543 15.4013C3.11471 14.785 2.16245 13.903 1.46225 12.8327C0.762052 11.7624 0.335335 10.5365 0.21957 9.2628C0.103804 7.98905 0.302531 6.70636 0.798299 5.52736C1.29407 4.34836 2.07171 3.30911 3.06296 2.50085C4.0542 1.6926 5.22872 1.14008 6.48338 0.891787C7.73805 0.643499 9.03448 0.707044 10.2589 1.07684C11.4832 1.44664 12.5981 2.11138 13.5055 3.0127L15.1844 4.54864V2.92989C15.1844 2.68125 15.2832 2.44279 15.459 2.26698C15.6348 2.09116 15.8733 1.99239 16.1219 1.99239C16.3706 1.99239 16.609 2.09116 16.7848 2.26698C16.9607 2.44279 17.0594 2.68125 17.0594 2.92989Z" fill="currentColor"/>
</svg>
