<svg width="16" height="15" viewBox="0 0 16 15" fill="none" xmlns="http://www.w3.org/2000/svg">
<path d="M15.2812 1.25V4.375C15.2812 4.62364 15.1825 4.8621 15.0067 5.03791C14.8308 5.21373 14.5924 5.3125 14.3438 5.3125C14.0951 5.3125 13.8567 5.21373 13.6808 5.03791C13.505 4.8621 13.4062 4.62364 13.4062 4.375V2.1875H11.2188C10.9701 2.1875 10.7317 2.08873 10.5558 1.91291C10.38 1.7371 10.2812 1.49864 10.2812 1.25C10.2812 1.00136 10.38 0.762903 10.5558 0.587087C10.7317 0.411272 10.9701 0.3125 11.2188 0.3125H14.3438C14.5924 0.3125 14.8308 0.411272 15.0067 0.587087C15.1825 0.762903 15.2812 1.00136 15.2812 1.25ZM4.96875 12.8125H2.78125V10.625C2.78125 10.3764 2.68248 10.1379 2.50666 9.96209C2.33085 9.78627 2.09239 9.6875 1.84375 9.6875C1.59511 9.6875 1.35665 9.78627 1.18084 9.96209C1.00502 10.1379 0.90625 10.3764 0.90625 10.625V13.75C0.90625 13.9986 1.00502 14.2371 1.18084 14.4129C1.35665 14.5887 1.59511 14.6875 1.84375 14.6875H4.96875C5.21739 14.6875 5.45585 14.5887 5.63166 14.4129C5.80748 14.2371 5.90625 13.9986 5.90625 13.75C5.90625 13.5014 5.80748 13.2629 5.63166 13.0871C5.45585 12.9113 5.21739 12.8125 4.96875 12.8125ZM14.3438 9.6875C14.0951 9.6875 13.8567 9.78627 13.6808 9.96209C13.505 10.1379 13.4062 10.3764 13.4062 10.625V12.8125H11.2188C10.9701 12.8125 10.7317 12.9113 10.5558 13.0871C10.38 13.2629 10.2812 13.5014 10.2812 13.75C10.2812 13.9986 10.38 14.2371 10.5558 14.4129C10.7317 14.5887 10.9701 14.6875 11.2188 14.6875H14.3438C14.5924 14.6875 14.8308 14.5887 15.0067 14.4129C15.1825 14.2371 15.2812 13.9986 15.2812 13.75V10.625C15.2812 10.3764 15.1825 10.1379 15.0067 9.96209C14.8308 9.78627 14.5924 9.6875 14.3438 9.6875ZM4.96875 0.3125H1.84375C1.59511 0.3125 1.35665 0.411272 1.18084 0.587087C1.00502 0.762903 0.90625 1.00136 0.90625 1.25V4.375C0.90625 4.62364 1.00502 4.8621 1.18084 5.03791C1.35665 5.21373 1.59511 5.3125 1.84375 5.3125C2.09239 5.3125 2.33085 5.21373 2.50666 5.03791C2.68248 4.8621 2.78125 4.62364 2.78125 4.375V2.1875H4.96875C5.21739 2.1875 5.45585 2.08873 5.63166 1.91291C5.80748 1.7371 5.90625 1.49864 5.90625 1.25C5.90625 1.00136 5.80748 0.762903 5.63166 0.587087C5.45585 0.411272 5.21739 0.3125 4.96875 0.3125Z" fill="currentColor"/>
</svg>
