<!-- Generated by IcoMoon.io -->
<svg version="1.1" xmlns="http://www.w3.org/2000/svg" width="32" height="32" viewBox="0 0 32 32">
<title>gift</title>
<path d="M24.11 10c0.566-0.402 1.11-0.851 1.608-1.348 1.044-1.044 1.742-2.328 1.966-3.616 0.246-1.412-0.115-2.723-0.988-3.597-0.697-0.697-1.641-1.065-2.73-1.065-1.551 0-3.185 0.744-4.483 2.043-2.077 2.077-3.288 4.945-3.94 6.991-0.482-2.056-1.444-4.833-3.313-6.702-1.003-1.003-2.285-1.518-3.495-1.518-0.989 0-1.931 0.344-2.633 1.046-1.562 1.562-1.351 4.306 0.471 6.128 0.65 0.65 1.409 1.189 2.21 1.638h-6.782v8h2v14h24v-14h2v-8h-5.89zM21.073 4.007c0.866-0.866 1.948-1.384 2.892-1.384 0.334 0 0.803 0.070 1.139 0.406 0.813 0.813 0.357 2.697-0.977 4.031-1.373 1.373-3.221 2.318-4.826 2.939h-1.584c0.58-1.798 1.627-4.264 3.356-5.993zM7.31 5.028c-0.022-0.285-0.002-0.82 0.381-1.203 0.32-0.32 0.743-0.387 1.042-0.387v0c0.664 0 1.358 0.313 1.904 0.859 1.059 1.058 1.93 2.743 2.521 4.871 0.016 0.057 0.031 0.115 0.047 0.171-0.057-0.015-0.114-0.031-0.171-0.047-2.128-0.591-3.813-1.462-4.871-2.521-0.495-0.495-0.805-1.13-0.853-1.743zM14 30h-8v-13h8v13zM14 16h-10v-4h10v4zM26 30h-8v-13h8v13zM28 16h-10v-4h10v4z"></path>
</svg>
