<svg width="25" height="26" viewBox="0 0 25 26" fill="none" xmlns="http://www.w3.org/2000/svg">
<path d="M12.5 0.609375C10.0277 0.609375 7.61099 1.34249 5.55538 2.716C3.49976 4.08952 1.89761 6.04176 0.951511 8.32583C0.00541586 10.6099 -0.242126 13.1232 0.24019 15.548C0.722505 17.9728 1.91301 20.2001 3.66117 21.9482C5.40933 23.6964 7.63661 24.8869 10.0614 25.3692C12.4861 25.8515 14.9995 25.604 17.2835 24.6579C19.5676 23.7118 21.5199 22.1096 22.8934 20.054C24.2669 17.9984 25 15.5816 25 13.1094C24.9964 9.79529 23.6782 6.61798 21.3348 4.27456C18.9914 1.93114 15.8141 0.613014 12.5 0.609375ZM23.455 16.6094H17.6863C18.1046 14.2948 18.1046 11.924 17.6863 9.60938H23.455C24.1817 11.8861 24.1817 14.3326 23.455 16.6094ZM12.5 24.6094C12.4346 24.6093 12.3699 24.5957 12.31 24.5692C12.2502 24.5427 12.1965 24.504 12.1525 24.4556C10.4463 22.6181 9.21251 20.2406 8.55126 17.6094H16.4488C15.7875 20.2406 14.5538 22.6181 12.8475 24.4556C12.8035 24.504 12.7498 24.5427 12.69 24.5692C12.6301 24.5957 12.5654 24.6093 12.5 24.6094ZM8.33126 16.6094C7.88959 14.2969 7.88959 11.9218 8.33126 9.60938H16.6688C17.1104 11.9218 17.1104 14.2969 16.6688 16.6094H8.33126ZM12.5 1.60938C12.5654 1.6094 12.6301 1.62309 12.69 1.64957C12.7498 1.67604 12.8035 1.71472 12.8475 1.76312C14.5538 3.60063 15.7875 5.98438 16.4488 8.60938H8.55126C9.21251 5.98438 10.4463 3.60063 12.1525 1.76312C12.1965 1.71472 12.2502 1.67604 12.31 1.64957C12.3699 1.62309 12.4346 1.6094 12.5 1.60938ZM23.0825 8.60938H17.4763C16.8625 6.01813 15.7263 3.64437 14.1438 1.72687C16.0983 2.01293 17.9466 2.796 19.5117 4.00109C21.0768 5.20618 22.3064 6.79293 23.0825 8.60938ZM10.8563 1.72687C9.27751 3.64437 8.13751 6.01813 7.52376 8.60938H1.91751C2.69366 6.79293 3.92318 5.20618 5.48831 4.00109C7.05344 2.796 8.90176 2.01293 10.8563 1.72687ZM1.54501 9.60938H7.31376C6.89542 11.924 6.89542 14.2948 7.31376 16.6094H1.54501C0.818353 14.3326 0.818353 11.8861 1.54501 9.60938ZM1.92001 17.6094H7.52376C8.13751 20.2006 9.27376 22.5744 10.8563 24.4919C8.90176 24.2058 7.05344 23.4228 5.48831 22.2177C3.92318 21.0126 2.69366 19.4258 1.91751 17.6094H1.92001ZM14.1463 24.4919C15.725 22.5744 16.865 20.2006 17.4788 17.6094H23.085C22.3086 19.4261 21.0787 21.0131 19.5131 22.2182C17.9475 23.4233 16.0987 24.2062 14.1438 24.4919H14.1463Z" fill="currentColor"/>
</svg>
