<svg width="18" height="18" viewBox="0 0 18 18" fill="none" xmlns="http://www.w3.org/2000/svg">
<path d="M9 0.330078C7.33122 0.330078 5.69992 0.824929 4.31238 1.75205C2.92484 2.67918 1.84338 3.99693 1.20477 5.53869C0.566156 7.08044 0.399065 8.77694 0.724628 10.4137C1.05019 12.0504 1.85379 13.5538 3.03379 14.7338C4.2138 15.9138 5.71721 16.7174 7.35393 17.043C8.99064 17.3685 10.6871 17.2014 12.2289 16.5628C13.7706 15.9242 15.0884 14.8427 16.0155 13.4552C16.9427 12.0677 17.4375 10.4364 17.4375 8.76758C17.435 6.53058 16.5453 4.38591 14.9635 2.80411C13.3817 1.2223 11.237 0.33256 9 0.330078ZM15.4945 7.83008H13.0281C12.9073 6.02895 12.3866 4.27738 11.5039 2.70273C12.5559 3.13899 13.4767 3.84081 14.1762 4.73954C14.8757 5.63828 15.3299 6.70317 15.4945 7.83008ZM6.85235 9.70508H11.1492C10.9734 11.7902 10.2117 13.7254 9.00157 15.1621C7.78594 13.7254 7.02813 11.7902 6.85235 9.70508ZM6.85235 7.83008C7.02813 5.74492 7.78594 3.80977 9 2.37305C10.2141 3.80977 10.9719 5.74492 11.1477 7.83008H6.85235ZM6.5 2.70273C5.61593 4.27705 5.0939 6.02864 4.97188 7.83008H2.50547C2.67046 6.70275 3.12531 5.63758 3.82551 4.7388C4.52572 3.84003 5.44728 3.13845 6.5 2.70273ZM2.50547 9.70508H4.97188C5.0939 11.5065 5.61593 13.2581 6.5 14.8324C5.44728 14.3967 4.52572 13.6951 3.82551 12.7964C3.12531 11.8976 2.67046 10.8324 2.50547 9.70508ZM11.5039 14.8324C12.3866 13.2578 12.9073 11.5062 13.0281 9.70508H15.4945C15.3299 10.832 14.8757 11.8969 14.1762 12.7956C13.4767 13.6944 12.5559 14.3962 11.5039 14.8324Z" fill="currentColor"/>
</svg>
