<svg width="11" height="12" viewBox="0 0 11 12" fill="none" xmlns="http://www.w3.org/2000/svg">
<path d="M3.96875 0.96875H1.5625C1.27242 0.96875 0.99422 1.08398 0.789102 1.2891C0.583984 1.49422 0.46875 1.77242 0.46875 2.0625V4.46875C0.46875 4.75883 0.583984 5.03703 0.789102 5.24215C0.99422 5.44727 1.27242 5.5625 1.5625 5.5625H3.96875C4.25883 5.5625 4.53703 5.44727 4.74215 5.24215C4.94727 5.03703 5.0625 4.75883 5.0625 4.46875V2.0625C5.0625 1.77242 4.94727 1.49422 4.74215 1.2891C4.53703 1.08398 4.25883 0.96875 3.96875 0.96875ZM3.75 4.25H1.78125V2.28125H3.75V4.25ZM9.4375 0.96875H7.03125C6.74117 0.96875 6.46297 1.08398 6.25785 1.2891C6.05273 1.49422 5.9375 1.77242 5.9375 2.0625V4.46875C5.9375 4.75883 6.05273 5.03703 6.25785 5.24215C6.46297 5.44727 6.74117 5.5625 7.03125 5.5625H9.4375C9.72758 5.5625 10.0058 5.44727 10.2109 5.24215C10.416 5.03703 10.5312 4.75883 10.5312 4.46875V2.0625C10.5312 1.77242 10.416 1.49422 10.2109 1.2891C10.0058 1.08398 9.72758 0.96875 9.4375 0.96875ZM9.21875 4.25H7.25V2.28125H9.21875V4.25ZM3.96875 6.4375H1.5625C1.27242 6.4375 0.99422 6.55273 0.789102 6.75785C0.583984 6.96297 0.46875 7.24117 0.46875 7.53125V9.9375C0.46875 10.2276 0.583984 10.5058 0.789102 10.7109C0.99422 10.916 1.27242 11.0312 1.5625 11.0312H3.96875C4.25883 11.0312 4.53703 10.916 4.74215 10.7109C4.94727 10.5058 5.0625 10.2276 5.0625 9.9375V7.53125C5.0625 7.24117 4.94727 6.96297 4.74215 6.75785C4.53703 6.55273 4.25883 6.4375 3.96875 6.4375ZM3.75 9.71875H1.78125V7.75H3.75V9.71875ZM9.4375 6.4375H7.03125C6.74117 6.4375 6.46297 6.55273 6.25785 6.75785C6.05273 6.96297 5.9375 7.24117 5.9375 7.53125V9.9375C5.9375 10.2276 6.05273 10.5058 6.25785 10.7109C6.46297 10.916 6.74117 11.0312 7.03125 11.0312H9.4375C9.72758 11.0312 10.0058 10.916 10.2109 10.7109C10.416 10.5058 10.5312 10.2276 10.5312 9.9375V7.53125C10.5312 7.24117 10.416 6.96297 10.2109 6.75785C10.0058 6.55273 9.72758 6.4375 9.4375 6.4375ZM9.21875 9.71875H7.25V7.75H9.21875V9.71875Z" fill="currentColor"/>
</svg>
