<svg width="18" height="16" viewBox="0 0 18 16" fill="none" xmlns="http://www.w3.org/2000/svg">
<path d="M14.9945 2.73022C13.816 1.54418 12.3119 0.734756 10.6728 0.404562C9.03376 0.0743673 7.33356 0.238268 5.78775 0.875486C4.24194 1.5127 2.92014 2.59455 1.98989 3.98387C1.05965 5.37319 0.56286 7.00744 0.5625 8.67943V13.0544C0.5625 13.6346 0.792968 14.191 1.2032 14.6012C1.61344 15.0115 2.16984 15.2419 2.75 15.2419H4C4.58016 15.2419 5.13656 15.0115 5.5468 14.6012C5.95703 14.191 6.1875 13.6346 6.1875 13.0544V9.92943C6.1875 9.34927 5.95703 8.79287 5.5468 8.38264C5.13656 7.9724 4.58016 7.74193 4 7.74193H2.50312C2.72938 6.18012 3.51053 4.75202 4.70361 3.71905C5.89669 2.68608 7.42188 2.11734 9 2.11693H9.05C10.6211 2.12366 12.1372 2.69582 13.3211 3.72873C14.5049 4.76164 15.2773 6.18625 15.4969 7.74193H14C13.4198 7.74193 12.8634 7.9724 12.4532 8.38264C12.043 8.79287 11.8125 9.34927 11.8125 9.92943V13.0544C11.8125 13.6346 12.043 14.191 12.4532 14.6012C12.8634 15.0115 13.4198 15.2419 14 15.2419H15.25C15.5373 15.2419 15.8217 15.1854 16.0871 15.0754C16.3525 14.9655 16.5937 14.8044 16.7968 14.6012C16.9999 14.3981 17.1611 14.157 17.271 13.8916C17.3809 13.6262 17.4375 13.3417 17.4375 13.0544V8.67943C17.4418 7.57583 17.2282 6.48222 16.809 5.46133C16.3898 4.44043 15.7732 3.51232 14.9945 2.73022ZM4 9.61693C4.08288 9.61693 4.16237 9.64986 4.22097 9.70846C4.27958 9.76707 4.3125 9.84655 4.3125 9.92943V13.0544C4.3125 13.1373 4.27958 13.2168 4.22097 13.2754C4.16237 13.334 4.08288 13.3669 4 13.3669H2.75C2.66712 13.3669 2.58763 13.334 2.52903 13.2754C2.47042 13.2168 2.4375 13.1373 2.4375 13.0544V9.61693H4ZM15.5625 13.0544C15.5625 13.1373 15.5296 13.2168 15.471 13.2754C15.4124 13.334 15.3329 13.3669 15.25 13.3669H14C13.9171 13.3669 13.8376 13.334 13.779 13.2754C13.7204 13.2168 13.6875 13.1373 13.6875 13.0544V9.92943C13.6875 9.84655 13.7204 9.76707 13.779 9.70846C13.8376 9.64986 13.9171 9.61693 14 9.61693H15.5625V13.0544Z" fill="currentColor"/>
</svg>
