<svg width="18" height="18" viewBox="0 0 18 18" fill="none" xmlns="http://www.w3.org/2000/svg">
<path d="M14.9664 2.98468C13.5862 1.60441 11.7702 0.745369 9.82769 0.553892C7.88519 0.362415 5.93638 0.85035 4.31328 1.93457C2.69018 3.01879 1.49319 4.63223 0.92625 6.5C0.359308 8.36777 0.457482 10.3743 1.20405 12.1778C1.95061 13.9813 3.29938 15.4702 5.02057 16.3908C6.74176 17.3114 8.72889 17.6068 10.6434 17.2266C12.558 16.8464 14.2815 15.8142 15.5203 14.3058C16.7591 12.7974 17.4367 10.9061 17.4375 8.95421C17.4375 6.71551 16.5487 4.56839 14.9664 2.98468ZM9.9375 9.57921H8.0625V7.65655L9.9375 6.71905V9.57921ZM6.8125 15.1456V11.4542H11.1875V15.1456C9.77132 15.6415 8.22869 15.6415 6.8125 15.1456ZM13.6406 13.5956C13.4581 13.7773 13.265 13.9482 13.0625 14.1073V11.1417C13.0626 10.7815 12.9382 10.4323 12.7104 10.1533C12.4826 9.87426 12.1654 9.6825 11.8125 9.61046V5.20421C11.8125 5.04439 11.7716 4.88723 11.6938 4.74765C11.6159 4.60807 11.5037 4.49072 11.3677 4.40672C11.2317 4.32273 11.0765 4.27489 10.9169 4.26775C10.7572 4.26061 10.5984 4.29441 10.4555 4.36593L6.70547 6.24093C6.54983 6.31881 6.41895 6.43847 6.32747 6.58652C6.23599 6.73458 6.18752 6.90517 6.1875 7.07921V9.61124C5.83471 9.68325 5.51761 9.8749 5.28984 10.1538C5.06207 10.4327 4.93761 10.7816 4.9375 11.1417V14.1105C4.73498 13.9513 4.54194 13.7804 4.35938 13.5987C3.44166 12.6809 2.81671 11.5116 2.56355 10.2386C2.31039 8.96564 2.44039 7.64617 2.93711 6.44707C3.43383 5.24797 4.27496 4.22309 5.35414 3.50202C6.43332 2.78095 7.70209 2.39609 9 2.39609C10.2979 2.39609 11.5667 2.78095 12.6459 3.50202C13.725 4.22309 14.5662 5.24797 15.0629 6.44707C15.5596 7.64617 15.6896 8.96564 15.4365 10.2386C15.1833 11.5116 14.5583 12.6809 13.6406 13.5987V13.5956Z" fill="currentColor"/>
</svg>
