<svg width="14" height="12" viewBox="0 0 14 12" fill="none" xmlns="http://www.w3.org/2000/svg">
<path d="M13.125 10.2655H12.4688V5.42837C12.4685 5.27735 12.4371 5.12801 12.3765 4.98968C12.3159 4.85136 12.2274 4.72702 12.1166 4.62446L7.7443 0.497199L7.73555 0.488996C7.53461 0.30511 7.2721 0.203125 6.99973 0.203125C6.72735 0.203125 6.46484 0.30511 6.26391 0.488996L6.25461 0.497199L1.88344 4.62446C1.77259 4.72702 1.68409 4.85136 1.62349 4.98968C1.56289 5.12801 1.53149 5.27735 1.53125 5.42837V10.2655H0.875C0.700952 10.2655 0.534032 10.3346 0.410961 10.4577C0.28789 10.5808 0.21875 10.7477 0.21875 10.9217C0.21875 11.0958 0.28789 11.2627 0.410961 11.3858C0.534032 11.5088 0.700952 11.578 0.875 11.578H13.125C13.299 11.578 13.466 11.5088 13.589 11.3858C13.7121 11.2627 13.7812 11.0958 13.7812 10.9217C13.7812 10.7477 13.7121 10.5808 13.589 10.4577C13.466 10.3346 13.299 10.2655 13.125 10.2655ZM2.84375 5.52298L7 1.59915L11.1562 5.52298V10.2655H8.96875V7.85923C8.96875 7.7156 8.94046 7.57337 8.88549 7.44067C8.83053 7.30797 8.74996 7.1874 8.6484 7.08583C8.54683 6.98427 8.42626 6.9037 8.29356 6.84874C8.16086 6.79377 8.01863 6.76548 7.875 6.76548H6.125C5.83492 6.76548 5.55672 6.88071 5.3516 7.08583C5.14648 7.29095 5.03125 7.56915 5.03125 7.85923V10.2655H2.84375V5.52298ZM7.65625 10.2655H6.34375V8.07798H7.65625V10.2655Z" fill="currentColor"/>
</svg>
