<svg width="16" height="16" viewBox="0 0 16 16" fill="currentColor" xmlns="http://www.w3.org/2000/svg">
<path d="M15.8594 9.875V14.25C15.8594 14.6644 15.6948 15.0618 15.4017 15.3549C15.1087 15.6479 14.7113 15.8125 14.2969 15.8125H1.79688C1.38247 15.8125 0.985046 15.6479 0.692021 15.3549C0.398995 15.0618 0.234375 14.6644 0.234375 14.25V9.875C0.234375 9.62636 0.333147 9.3879 0.508962 9.21209C0.684778 9.03627 0.923235 8.9375 1.17188 8.9375C1.42052 8.9375 1.65897 9.03627 1.83479 9.21209C2.0106 9.3879 2.10938 9.62636 2.10938 9.875V13.9375H13.9844V9.875C13.9844 9.62636 14.0831 9.3879 14.259 9.21209C14.4348 9.03627 14.6732 8.9375 14.9219 8.9375C15.1705 8.9375 15.409 9.03627 15.5848 9.21209C15.7606 9.3879 15.8594 9.62636 15.8594 9.875ZM7.38359 10.5383C7.47069 10.6257 7.57418 10.695 7.68814 10.7423C7.80209 10.7897 7.92427 10.814 8.04766 10.814C8.17104 10.814 8.29322 10.7897 8.40717 10.7423C8.52113 10.695 8.62462 10.6257 8.71172 10.5383L11.8367 7.41328C12.0128 7.23716 12.1118 6.99829 12.1118 6.74922C12.1118 6.50015 12.0128 6.26128 11.8367 6.08516C11.6606 5.90904 11.4217 5.81009 11.1727 5.81009C10.9236 5.81009 10.6847 5.90904 10.5086 6.08516L8.98438 7.60938V1.125C8.98438 0.87636 8.8856 0.637903 8.70979 0.462087C8.53397 0.286272 8.29552 0.1875 8.04688 0.1875C7.79823 0.1875 7.55978 0.286272 7.38396 0.462087C7.20815 0.637903 7.10938 0.87636 7.10938 1.125V7.60938L5.58516 6.08672C5.40904 5.9106 5.17017 5.81166 4.92109 5.81166C4.67202 5.81166 4.43315 5.9106 4.25703 6.08672C4.08091 6.26284 3.98197 6.50171 3.98197 6.75078C3.98197 6.99985 4.08091 7.23872 4.25703 7.41484L7.38359 10.5383Z" fill="currentColor"/>
</svg>
