<svg width="19" height="19" viewBox="0 0 19 19" fill="none" xmlns="http://www.w3.org/2000/svg">
<path d="M11.5 0.9375C10.4805 0.938091 9.47507 1.17608 8.56347 1.63261C7.65186 2.08914 6.85908 2.75168 6.24793 3.56773C5.63678 4.38379 5.22405 5.33094 5.04243 6.33417C4.86081 7.3374 4.91529 8.36914 5.20156 9.34766L0.836719 13.7117C0.749687 13.7988 0.680674 13.9023 0.633622 14.0161C0.586571 14.1299 0.562403 14.2518 0.5625 14.375V17.5C0.5625 17.7486 0.661272 17.9871 0.837088 18.1629C1.0129 18.3387 1.25136 18.4375 1.5 18.4375H4.625C4.87364 18.4375 5.1121 18.3387 5.28791 18.1629C5.46373 17.9871 5.5625 17.7486 5.5625 17.5V16.5625H6.5C6.74864 16.5625 6.9871 16.4637 7.16291 16.2879C7.33873 16.1121 7.4375 15.8736 7.4375 15.625V14.6875H8.375C8.49815 14.6876 8.62011 14.6634 8.73392 14.6164C8.84773 14.5693 8.95115 14.5003 9.03828 14.4133L9.65234 13.7984C10.5548 14.0625 11.5034 14.1295 12.434 13.995C13.3646 13.8605 14.2554 13.5276 15.0461 13.0188C15.8368 12.5101 16.509 11.8373 17.0171 11.0462C17.5251 10.255 17.8573 9.36391 17.991 8.43321C18.1247 7.50251 18.0569 6.55395 17.792 5.65176C17.5272 4.74956 17.0716 3.91481 16.4561 3.20402C15.8406 2.49323 15.0795 1.92301 14.2245 1.53196C13.3694 1.14092 12.4403 0.93819 11.5 0.9375ZM11.5 12.1875C10.9089 12.1888 10.3229 12.0774 9.77344 11.8594C9.6011 11.7855 9.41057 11.765 9.22646 11.8005C9.04235 11.836 8.87311 11.9259 8.74063 12.0586L7.98438 12.8125H6.5C6.25136 12.8125 6.0129 12.9113 5.83709 13.0871C5.66127 13.2629 5.5625 13.5014 5.5625 13.75V14.6875H4.625C4.37636 14.6875 4.1379 14.7863 3.96209 14.9621C3.78627 15.1379 3.6875 15.3764 3.6875 15.625V16.5625H2.4375V14.7656L6.94141 10.2617C7.07393 10.1293 7.16374 9.9602 7.19925 9.77625C7.23476 9.5923 7.21434 9.40192 7.14062 9.22969C6.77068 8.29788 6.70924 7.27201 6.96531 6.3027C7.22139 5.3334 7.7815 4.47173 8.5634 3.84422C9.34529 3.21671 10.3078 2.85643 11.3095 2.81626C12.3113 2.7761 13.2995 3.05817 14.1292 3.62107C14.9588 4.18397 15.5861 4.99802 15.9189 5.94372C16.2518 6.88941 16.2727 7.91691 15.9785 8.87534C15.6844 9.83378 15.0907 10.6727 14.2846 11.2688C13.4785 11.8649 12.5026 12.1869 11.5 12.1875ZM14.3125 5.9375C14.3125 6.18473 14.2392 6.4264 14.1018 6.63196C13.9645 6.83752 13.7693 6.99774 13.5409 7.09235C13.3124 7.18696 13.0611 7.21171 12.8186 7.16348C12.5762 7.11525 12.3534 6.9962 12.1786 6.82138C12.0038 6.64657 11.8847 6.42384 11.8365 6.18136C11.7883 5.93889 11.813 5.68755 11.9076 5.45915C12.0023 5.23074 12.1625 5.03551 12.368 4.89816C12.5736 4.76081 12.8153 4.6875 13.0625 4.6875C13.394 4.6875 13.712 4.8192 13.9464 5.05362C14.1808 5.28804 14.3125 5.60598 14.3125 5.9375Z" fill="currentColor"/>
</svg>
