<svg fill="currentColor" height="800px" width="800px" version="1.1" id="Capa_1" xmlns="http://www.w3.org/2000/svg" xmlns:xlink="http://www.w3.org/1999/xlink" 
	 viewBox="0 0 313.725 313.725" xml:space="preserve">
<g>
	<path d="M178.904,235.909h-44.086c-5.56,0-10.847-2.348-14.505-6.441c-3.36-3.761-4.909-8.512-4.361-13.378
		c1.531-13.581,9.721-45.987,13.479-60.447c-10.729-8.186-17.134-20.775-17.134-34.428c0-24.082,19.991-43.675,44.563-43.675
		c24.573,0,44.565,19.593,44.565,43.675c0,13.653-6.405,26.244-17.136,34.429c3.76,14.46,11.95,46.863,13.481,60.444
		c0.547,4.872-1.003,9.623-4.363,13.382C189.751,233.563,184.464,235.909,178.904,235.909z M136.146,215.909h41.433
		c-2.642-17.856-14.355-61.748-14.479-62.211c-1.223-4.571,0.926-9.373,5.147-11.508c8.13-4.11,13.18-12.148,13.18-20.976
		c0-13.055-11.02-23.675-24.565-23.675c-13.544,0-24.563,10.62-24.563,23.675c0,8.826,5.05,16.864,13.179,20.977
		c4.222,2.135,6.369,6.937,5.146,11.506C150.5,154.161,138.788,198.052,136.146,215.909z"/>
	<path d="M267.438,313.725H46.285c-24.105,0-43.717-19.881-43.717-44.318V44.316C2.568,19.88,22.18,0,46.285,0h221.152
		c24.106,0,43.719,19.88,43.719,44.316v225.09C311.156,293.844,291.544,313.725,267.438,313.725z M46.285,20
		c-13.077,0-23.717,10.908-23.717,24.316v225.09c0,13.409,10.64,24.318,23.717,24.318h221.152c13.078,0,23.719-10.909,23.719-24.318
		V44.316c0-13.408-10.641-24.316-23.719-24.316H46.285z"/>
</g>
</svg>