<svg width="18" height="14" viewBox="0 0 18 14" fill="none" xmlns="http://www.w3.org/2000/svg">
<path d="M13.375 5.125V7.625C13.375 7.79076 13.3092 7.94973 13.1919 8.06694C13.0747 8.18415 12.9158 8.25 12.75 8.25H6.75859L7.56719 9.05781C7.62526 9.11588 7.67132 9.18482 7.70275 9.26069C7.73417 9.33656 7.75035 9.41788 7.75035 9.5C7.75035 9.58212 7.73417 9.66344 7.70275 9.73931C7.67132 9.81518 7.62526 9.88412 7.56719 9.94219C7.50912 10.0003 7.44018 10.0463 7.36431 10.0777C7.28844 10.1092 7.20712 10.1253 7.125 10.1253C7.04288 10.1253 6.96156 10.1092 6.88569 10.0777C6.80982 10.0463 6.74088 10.0003 6.68281 9.94219L4.80781 8.06719C4.7497 8.00914 4.7036 7.94021 4.67215 7.86434C4.6407 7.78846 4.62451 7.70713 4.62451 7.625C4.62451 7.54287 4.6407 7.46154 4.67215 7.38566C4.7036 7.30979 4.7497 7.24086 4.80781 7.18281L6.68281 5.30781C6.80009 5.19054 6.95915 5.12465 7.125 5.12465C7.29085 5.12465 7.44991 5.19054 7.56719 5.30781C7.68446 5.42509 7.75035 5.58415 7.75035 5.75C7.75035 5.91585 7.68446 6.07491 7.56719 6.19219L6.75859 7H12.125V5.125C12.125 4.95924 12.1908 4.80027 12.3081 4.68306C12.4253 4.56585 12.5842 4.5 12.75 4.5C12.9158 4.5 13.0747 4.56585 13.1919 4.68306C13.3092 4.80027 13.375 4.95924 13.375 5.125ZM17.125 1.375V12.625C17.125 12.9565 16.9933 13.2745 16.7589 13.5089C16.5245 13.7433 16.2065 13.875 15.875 13.875H2.125C1.79348 13.875 1.47554 13.7433 1.24112 13.5089C1.0067 13.2745 0.875 12.9565 0.875 12.625V1.375C0.875 1.04348 1.0067 0.725537 1.24112 0.491116C1.47554 0.256696 1.79348 0.125 2.125 0.125H15.875C16.2065 0.125 16.5245 0.256696 16.7589 0.491116C16.9933 0.725537 17.125 1.04348 17.125 1.375ZM15.875 12.625V1.375H2.125V12.625H15.875Z" fill="currentColor"/>
</svg>
