<svg width="12" height="13" viewBox="0 0 12 13" fill="none" xmlns="http://www.w3.org/2000/svg">
<path d="M9.9375 11.6406H7.78992C8.0732 11.3672 8.37781 11.0549 8.68297 10.7038C10.2191 8.93742 11.0312 7.06711 11.0312 5.29688C11.0312 3.9625 10.5012 2.68279 9.55763 1.73924C8.61409 0.795702 7.33437 0.265625 6 0.265625C4.66563 0.265625 3.38591 0.795702 2.44237 1.73924C1.49883 2.68279 0.96875 3.9625 0.96875 5.29688C0.96875 8.03125 2.83469 10.3248 4.20516 11.6406H2.0625C1.88845 11.6406 1.72153 11.7098 1.59846 11.8328C1.47539 11.9559 1.40625 12.1228 1.40625 12.2969C1.40625 12.4709 1.47539 12.6378 1.59846 12.7609C1.72153 12.884 1.88845 12.9531 2.0625 12.9531H9.9375C10.1115 12.9531 10.2785 12.884 10.4015 12.7609C10.5246 12.6378 10.5938 12.4709 10.5938 12.2969C10.5938 12.1228 10.5246 11.9559 10.4015 11.8328C10.2785 11.7098 10.1115 11.6406 9.9375 11.6406ZM2.28125 5.29688C2.28125 4.3106 2.67305 3.36472 3.37045 2.66732C4.06785 1.96992 5.01373 1.57812 6 1.57812C6.98627 1.57812 7.93215 1.96992 8.62955 2.66732C9.32695 3.36472 9.71875 4.3106 9.71875 5.29688C9.71875 7.11852 8.625 8.76242 7.71172 9.82008C7.19029 10.419 6.61754 10.9713 6 11.4705C5.38246 10.9713 4.80971 10.419 4.28828 9.82008C3.375 8.76242 2.28125 7.11852 2.28125 5.29688ZM6 7.70312C6.47591 7.70312 6.94113 7.562 7.33684 7.2976C7.73255 7.0332 8.04096 6.65739 8.22308 6.21771C8.40521 5.77802 8.45286 5.29421 8.36001 4.82744C8.26717 4.36067 8.038 3.93192 7.70148 3.5954C7.36496 3.25888 6.9362 3.02971 6.46944 2.93686C6.00267 2.84401 5.51885 2.89167 5.07917 3.07379C4.63948 3.25591 4.26368 3.56433 3.99928 3.96003C3.73487 4.35574 3.59375 4.82096 3.59375 5.29688C3.59447 5.93483 3.84822 6.54645 4.29932 6.99755C4.75043 7.44865 5.36204 7.7024 6 7.70312ZM6 4.20312C6.21632 4.20312 6.42779 4.26727 6.60766 4.38745C6.78752 4.50764 6.92771 4.67846 7.01049 4.87831C7.09328 5.07817 7.11494 5.29809 7.07273 5.51026C7.03053 5.72242 6.92636 5.91731 6.7734 6.07027C6.62043 6.22324 6.42555 6.32741 6.21338 6.36961C6.00121 6.41181 5.7813 6.39015 5.58144 6.30737C5.38158 6.22459 5.21076 6.0844 5.09058 5.90453C4.9704 5.72466 4.90625 5.5132 4.90625 5.29688C4.90625 5.00679 5.02148 4.72859 5.2266 4.52348C5.43172 4.31836 5.70992 4.20312 6 4.20312Z" fill="currentColor"/>
</svg>
