<svg width="17" height="14" viewBox="0 0 17 14" fill="none" xmlns="http://www.w3.org/2000/svg">
<path d="M15.0747 0.125H1.32471C0.993186 0.125 0.675244 0.256696 0.440823 0.491116C0.206403 0.725537 0.074707 1.04348 0.074707 1.375V12.625C0.074707 12.9565 0.206403 13.2745 0.440823 13.5089C0.675244 13.7433 0.993186 13.875 1.32471 13.875H15.0747C15.4062 13.875 15.7242 13.7433 15.9586 13.5089C16.193 13.2745 16.3247 12.9565 16.3247 12.625V1.375C16.3247 1.04348 16.193 0.725537 15.9586 0.491116C15.7242 0.256696 15.4062 0.125 15.0747 0.125ZM15.0747 1.375V4.5H1.32471V1.375H15.0747ZM1.32471 5.75H5.69971V12.625H1.32471V5.75ZM15.0747 12.625H6.94971V5.75H15.0747V12.625Z" fill="black"/>
</svg>
