<svg width="12" height="11" viewBox="0 0 12 11" fill="none" xmlns="http://www.w3.org/2000/svg">
<path d="M6.97461 4.06055C6.97461 3.8865 7.04375 3.71958 7.16682 3.59651C7.28989 3.47344 7.45681 3.4043 7.63086 3.4043H9.38086C9.55491 3.4043 9.72183 3.47344 9.8449 3.59651C9.96797 3.71958 10.0371 3.8865 10.0371 4.06055C10.0371 4.2346 9.96797 4.40152 9.8449 4.52459C9.72183 4.64766 9.55491 4.7168 9.38086 4.7168H7.63086C7.45681 4.7168 7.28989 4.64766 7.16682 4.52459C7.04375 4.40152 6.97461 4.2346 6.97461 4.06055ZM7.63086 6.9043H9.38086C9.55491 6.9043 9.72183 6.83516 9.8449 6.71209C9.96797 6.58901 10.0371 6.4221 10.0371 6.24805C10.0371 6.074 9.96797 5.90708 9.8449 5.78401C9.72183 5.66094 9.55491 5.5918 9.38086 5.5918H7.63086C7.45681 5.5918 7.28989 5.66094 7.16682 5.78401C7.04375 5.90708 6.97461 6.074 6.97461 6.24805C6.97461 6.4221 7.04375 6.58901 7.16682 6.71209C7.28989 6.83516 7.45681 6.9043 7.63086 6.9043ZM12.0059 1.2168V9.0918C12.0059 9.38188 11.8906 9.66008 11.6855 9.8652C11.4804 10.0703 11.2022 10.1855 10.9121 10.1855H1.28711C0.997029 10.1855 0.718829 10.0703 0.513711 9.8652C0.308593 9.66008 0.193359 9.38188 0.193359 9.0918V1.2168C0.193359 0.926716 0.308593 0.648517 0.513711 0.443399C0.718829 0.238281 0.997029 0.123047 1.28711 0.123047H10.9121C11.2022 0.123047 11.4804 0.238281 11.6855 0.443399C11.8906 0.648517 12.0059 0.926716 12.0059 1.2168ZM10.6934 1.43555H1.50586V8.87305H10.6934V1.43555ZM2.06805 6.86984C2.22551 6.49711 2.4748 6.17031 2.79266 5.91992C2.56734 5.62878 2.42817 5.28029 2.39095 4.91402C2.35373 4.54776 2.41995 4.1784 2.5821 3.84788C2.74424 3.51736 2.99582 3.23892 3.30825 3.04419C3.62068 2.84946 3.98146 2.74623 4.34961 2.74623C4.71776 2.74623 5.07853 2.84946 5.39097 3.04419C5.7034 3.23892 5.95497 3.51736 6.11712 3.84788C6.27927 4.1784 6.34549 4.54776 6.30827 4.91402C6.27105 5.28029 6.13188 5.62878 5.90656 5.91992C6.22459 6.17028 6.47406 6.49707 6.63172 6.86984C6.69887 7.03048 6.69946 7.21121 6.63337 7.37227C6.56727 7.53334 6.43989 7.66156 6.27926 7.72871C6.11863 7.79586 5.9379 7.79646 5.77683 7.73036C5.61576 7.66426 5.48754 7.53688 5.42039 7.37625C5.25086 6.96938 4.81008 6.68555 4.34961 6.68555C3.88914 6.68555 3.44891 6.96992 3.27828 7.37625C3.24682 7.45825 3.19921 7.53311 3.13828 7.59637C3.07736 7.65964 3.00435 7.71003 2.92359 7.74456C2.84283 7.77909 2.75596 7.79706 2.66813 7.7974C2.5803 7.79774 2.49329 7.78045 2.41227 7.74655C2.33124 7.71264 2.25785 7.66282 2.19643 7.60003C2.13502 7.53724 2.08683 7.46275 2.05473 7.381C2.02263 7.29924 2.00727 7.21187 2.00956 7.12407C2.01185 7.03627 2.03173 6.94982 2.06805 6.86984ZM3.69336 4.7168C3.69336 4.84659 3.73185 4.97347 3.80396 5.08139C3.87607 5.18931 3.97856 5.27342 4.09847 5.32309C4.21839 5.37276 4.35034 5.38576 4.47764 5.36044C4.60494 5.33512 4.72187 5.27261 4.81365 5.18084C4.90543 5.08906 4.96793 4.97213 4.99325 4.84483C5.01857 4.71753 5.00558 4.58558 4.95591 4.46566C4.90624 4.34575 4.82212 4.24325 4.7142 4.17114C4.60628 4.09904 4.4794 4.06055 4.34961 4.06055C4.17556 4.06055 4.00864 4.12969 3.88557 4.25276C3.7625 4.37583 3.69336 4.54275 3.69336 4.7168Z" fill="currentColor"/>
</svg>
