<svg width="10" height="11" viewBox="0 0 10 11" fill="none" xmlns="http://www.w3.org/2000/svg">
<path d="M7.43756 10.4295C7.43756 10.5787 7.3783 10.7217 7.27281 10.8272C7.16732 10.9327 7.02425 10.992 6.87506 10.992H3.12506C2.97588 10.992 2.8328 10.9327 2.72732 10.8272C2.62183 10.7217 2.56256 10.5787 2.56256 10.4295C2.56256 10.2803 2.62183 10.1372 2.72732 10.0317C2.8328 9.92623 2.97588 9.86697 3.12506 9.86697H6.87506C7.02425 9.86697 7.16732 9.92623 7.27281 10.0317C7.3783 10.1372 7.43756 10.2803 7.43756 10.4295ZM9.31256 4.42947C9.31427 5.083 9.16663 5.72828 8.88092 6.31604C8.5952 6.90381 8.17896 7.41852 7.66397 7.82087C7.59422 7.87401 7.53756 7.94239 7.49832 8.0208C7.45908 8.0992 7.43829 8.18554 7.43756 8.27322V8.36697C7.43756 8.61561 7.33879 8.85406 7.16297 9.02988C6.98716 9.2057 6.7487 9.30447 6.50006 9.30447H3.50006C3.25142 9.30447 3.01297 9.2057 2.83715 9.02988C2.66134 8.85406 2.56256 8.61561 2.56256 8.36697V8.27322C2.56246 8.187 2.54254 8.10196 2.50434 8.02466C2.46614 7.94737 2.41068 7.87989 2.34225 7.82744C1.82867 7.4274 1.41281 6.91579 1.12614 6.33132C0.839467 5.74685 0.689492 5.10483 0.687563 4.45384C0.674907 2.11806 2.56256 0.173217 4.89647 0.116967C5.47145 0.103151 6.04339 0.20449 6.57862 0.415019C7.11386 0.625548 7.60157 0.941014 8.01306 1.34285C8.42455 1.74469 8.7515 2.22478 8.97467 2.75486C9.19784 3.28495 9.31273 3.85432 9.31256 4.42947ZM8.18756 4.42947C8.18769 4.00429 8.10275 3.58339 7.93775 3.19153C7.77275 2.79968 7.53102 2.44479 7.22679 2.14777C6.92256 1.85075 6.56199 1.6176 6.16629 1.46204C5.77059 1.30648 5.34777 1.23165 4.92272 1.24197C3.19819 1.28322 1.80319 2.72087 1.81256 4.44728C1.81417 4.92842 1.92514 5.4029 2.1371 5.83484C2.34905 6.26678 2.65643 6.64489 3.036 6.94056C3.22722 7.08815 3.3844 7.2752 3.49684 7.48899C3.60927 7.70278 3.67432 7.93828 3.68756 8.17947H6.31725C6.33075 7.93781 6.3959 7.70185 6.50829 7.48749C6.62068 7.27313 6.77772 7.08535 6.96881 6.93681C7.34947 6.63927 7.65715 6.25872 7.86836 5.82418C8.07958 5.38965 8.18875 4.91261 8.18756 4.42947ZM7.24678 4.18009C7.19701 3.7592 7.03058 3.3606 6.76628 3.02928C6.50197 2.69797 6.15031 2.44713 5.751 2.30509C5.61143 2.25949 5.45956 2.27027 5.32783 2.33513C5.1961 2.39999 5.09495 2.51379 5.04599 2.65222C4.99703 2.79065 5.00414 2.94274 5.0658 3.076C5.12747 3.20925 5.23879 3.31312 5.376 3.36541C5.57666 3.43574 5.75365 3.56082 5.88693 3.72649C6.02022 3.89217 6.10449 4.09183 6.13022 4.30291C6.14663 4.45122 6.22128 4.58694 6.33776 4.68021C6.39544 4.72639 6.46164 4.76076 6.5326 4.78136C6.60356 4.80196 6.67788 4.80837 6.75131 4.80025C6.82475 4.79212 6.89587 4.76961 6.96061 4.734C7.02534 4.69839 7.08243 4.65038 7.12862 4.59271C7.1748 4.53503 7.20917 4.46883 7.22977 4.39787C7.25036 4.32691 7.25678 4.25259 7.24866 4.17916L7.24678 4.18009Z" fill="currentColor"/>
</svg>
