<svg width="12" height="12" viewBox="0 0 12 12" fill="none" xmlns="http://www.w3.org/2000/svg">
<path d="M4.10179 7.10252L7.10179 4.10252C7.15411 4.0502 7.21623 4.00869 7.2846 3.98038C7.35296 3.95206 7.42623 3.93748 7.50023 3.93748C7.57422 3.93748 7.6475 3.95206 7.71586 3.98038C7.78423 4.00869 7.84634 4.0502 7.89867 4.10252C7.95099 4.15485 7.9925 4.21696 8.02081 4.28533C8.04913 4.35369 8.0637 4.42696 8.0637 4.50096C8.0637 4.57496 8.04913 4.64823 8.02081 4.71659C7.9925 4.78496 7.95099 4.84707 7.89867 4.8994L4.89867 7.8994C4.79299 8.00507 4.64967 8.06444 4.50023 8.06444C4.35078 8.06444 4.20746 8.00507 4.10179 7.8994C3.99612 7.79372 3.93675 7.6504 3.93675 7.50096C3.93675 7.35152 3.99612 7.20819 4.10179 7.10252ZM10.2424 1.75877C9.71445 1.232 8.99909 0.936157 8.25328 0.936157C7.50746 0.936157 6.7921 1.232 6.26413 1.75877L4.85226 3.16924C4.74659 3.27491 4.68722 3.41824 4.68722 3.56768C4.68722 3.64167 4.7018 3.71495 4.73011 3.78331C4.75843 3.85167 4.79994 3.91379 4.85226 3.96612C4.90458 4.01844 4.9667 4.05994 5.03506 4.08826C5.10343 4.11658 5.1767 4.13115 5.2507 4.13115C5.40014 4.13115 5.54346 4.07179 5.64913 3.96612L7.05867 2.55705C7.37519 2.24047 7.8045 2.06259 8.25217 2.06255C8.69984 2.06251 9.12919 2.2403 9.44578 2.55682C9.76236 2.87334 9.94024 3.30265 9.94028 3.75032C9.94032 4.19799 9.76253 4.62735 9.44601 4.94393L8.0346 6.35252C7.98228 6.40485 7.94077 6.46696 7.91246 6.53533C7.88414 6.60369 7.86957 6.67696 7.86957 6.75096C7.86957 6.82496 7.88414 6.89823 7.91246 6.96659C7.94077 7.03496 7.98228 7.09707 8.0346 7.1494C8.08693 7.20172 8.14904 7.24323 8.21741 7.27154C8.28577 7.29986 8.35904 7.31444 8.43304 7.31444C8.50704 7.31444 8.58031 7.29986 8.64867 7.27154C8.71704 7.24323 8.77915 7.20172 8.83148 7.1494L10.2415 5.74033C10.7685 5.21205 11.0644 4.4962 11.0641 3.74997C11.0639 3.00373 10.7675 2.28809 10.2401 1.76018L10.2424 1.75877ZM6.35273 8.0344L4.9432 9.4444C4.78644 9.60112 4.60035 9.72544 4.39555 9.81024C4.19075 9.89505 3.97126 9.93869 3.74959 9.93867C3.52793 9.93864 3.30844 9.89496 3.10366 9.81012C2.89888 9.72527 2.71281 9.60092 2.55609 9.44416C2.23957 9.12758 2.06177 8.69823 2.06182 8.25056C2.06186 7.80289 2.23974 7.37357 2.55632 7.05705L3.96538 5.64752C4.01771 5.5952 4.05921 5.53308 4.08753 5.46472C4.11585 5.39635 4.13042 5.32308 4.13042 5.24908C4.13042 5.17509 4.11585 5.10182 4.08753 5.03345C4.05921 4.96509 4.01771 4.90297 3.96538 4.85065C3.91306 4.79832 3.85094 4.75682 3.78258 4.7285C3.71422 4.70018 3.64094 4.68561 3.56695 4.68561C3.49295 4.68561 3.41968 4.70018 3.35131 4.7285C3.28295 4.75682 3.22083 4.79832 3.16851 4.85065L1.76038 6.26158C1.49917 6.52283 1.29196 6.83297 1.1506 7.1743C1.00925 7.51562 0.936502 7.88145 0.936523 8.25089C0.936567 8.99701 1.233 9.71255 1.76062 10.2401C2.28823 10.7677 3.00381 11.064 3.74992 11.064C4.49604 11.0639 5.21158 10.7675 5.73913 10.2399L7.1482 8.83033C7.25387 8.72466 7.31324 8.58134 7.31324 8.4319C7.31324 8.28245 7.25387 8.13913 7.1482 8.03346C7.04253 7.92779 6.8992 7.86842 6.74976 7.86842C6.60032 7.86842 6.45699 7.92779 6.35132 8.03346L6.35273 8.0344Z" fill="#2D2D2D"/>
</svg>
