<svg width="11" height="10" viewBox="0 0 11 10" fill="none" xmlns="http://www.w3.org/2000/svg">
<path d="M2.65625 1.5C2.65625 1.32595 2.72539 1.15903 2.84846 1.03596C2.97153 0.91289 3.13845 0.84375 3.3125 0.84375H10.3125C10.4865 0.84375 10.6535 0.91289 10.7765 1.03596C10.8996 1.15903 10.9688 1.32595 10.9688 1.5C10.9688 1.67405 10.8996 1.84097 10.7765 1.96404C10.6535 2.08711 10.4865 2.15625 10.3125 2.15625H3.3125C3.13845 2.15625 2.97153 2.08711 2.84846 1.96404C2.72539 1.84097 2.65625 1.67405 2.65625 1.5ZM10.3125 4.34375H3.3125C3.13845 4.34375 2.97153 4.41289 2.84846 4.53596C2.72539 4.65903 2.65625 4.82595 2.65625 5C2.65625 5.17405 2.72539 5.34097 2.84846 5.46404C2.97153 5.58711 3.13845 5.65625 3.3125 5.65625H10.3125C10.4865 5.65625 10.6535 5.58711 10.7765 5.46404C10.8996 5.34097 10.9688 5.17405 10.9688 5C10.9688 4.82595 10.8996 4.65903 10.7765 4.53596C10.6535 4.41289 10.4865 4.34375 10.3125 4.34375ZM10.3125 7.84375H3.3125C3.13845 7.84375 2.97153 7.91289 2.84846 8.03596C2.72539 8.15903 2.65625 8.32595 2.65625 8.5C2.65625 8.67405 2.72539 8.84097 2.84846 8.96404C2.97153 9.08711 3.13845 9.15625 3.3125 9.15625H10.3125C10.4865 9.15625 10.6535 9.08711 10.7765 8.96404C10.8996 8.84097 10.9688 8.67405 10.9688 8.5C10.9688 8.32595 10.8996 8.15903 10.7765 8.03596C10.6535 7.91289 10.4865 7.84375 10.3125 7.84375ZM0.90625 4.125C0.733192 4.125 0.56402 4.17632 0.420126 4.27246C0.276233 4.36861 0.164082 4.50527 0.0978558 4.66515C0.0316291 4.82504 0.0143012 5.00097 0.0480633 5.1707C0.0818253 5.34044 0.165161 5.49635 0.287532 5.61872C0.409903 5.74109 0.565813 5.82443 0.735546 5.85819C0.90528 5.89195 1.08121 5.87462 1.2411 5.80839C1.40098 5.74217 1.53764 5.63002 1.63379 5.48612C1.72993 5.34223 1.78125 5.17306 1.78125 5C1.78125 4.76794 1.68906 4.54538 1.52497 4.38128C1.36087 4.21719 1.13831 4.125 0.90625 4.125ZM0.90625 0.625C0.733192 0.625 0.56402 0.676318 0.420126 0.772464C0.276233 0.86861 0.164082 1.00527 0.0978558 1.16515C0.0316291 1.32504 0.0143012 1.50097 0.0480633 1.6707C0.0818253 1.84044 0.165161 1.99635 0.287532 2.11872C0.409903 2.24109 0.565813 2.32443 0.735546 2.35819C0.90528 2.39195 1.08121 2.37462 1.2411 2.30839C1.40098 2.24217 1.53764 2.13002 1.63379 1.98612C1.72993 1.84223 1.78125 1.67306 1.78125 1.5C1.78125 1.26794 1.68906 1.04538 1.52497 0.881282C1.36087 0.717187 1.13831 0.625 0.90625 0.625ZM0.90625 7.625C0.733192 7.625 0.56402 7.67632 0.420126 7.77246C0.276233 7.86861 0.164082 8.00527 0.0978558 8.16515C0.0316291 8.32504 0.0143012 8.50097 0.0480633 8.6707C0.0818253 8.84044 0.165161 8.99635 0.287532 9.11872C0.409903 9.24109 0.565813 9.32442 0.735546 9.35819C0.90528 9.39195 1.08121 9.37462 1.2411 9.30839C1.40098 9.24217 1.53764 9.13002 1.63379 8.98612C1.72993 8.84223 1.78125 8.67306 1.78125 8.5C1.78125 8.26794 1.68906 8.04538 1.52497 7.88128C1.36087 7.71719 1.13831 7.625 0.90625 7.625Z" fill="currentColor"/>
</svg>
