<svg width="16" height="18" viewBox="0 0 16 18" fill="currentColor" xmlns="http://www.w3.org/2000/svg">
<path d="M14.25 5.9375H12.0625V4.375C12.0625 3.29756 11.6345 2.26425 10.8726 1.50238C10.1108 0.740512 9.07744 0.3125 8 0.3125C6.92256 0.3125 5.88925 0.740512 5.12738 1.50238C4.36551 2.26425 3.9375 3.29756 3.9375 4.375V5.9375H1.75C1.3356 5.9375 0.938171 6.10212 0.645146 6.39515C0.35212 6.68817 0.1875 7.0856 0.1875 7.5V16.25C0.1875 16.6644 0.35212 17.0618 0.645146 17.3549C0.938171 17.6479 1.3356 17.8125 1.75 17.8125H14.25C14.6644 17.8125 15.0618 17.6479 15.3549 17.3549C15.6479 17.0618 15.8125 16.6644 15.8125 16.25V7.5C15.8125 7.0856 15.6479 6.68817 15.3549 6.39515C15.0618 6.10212 14.6644 5.9375 14.25 5.9375ZM5.8125 4.375C5.8125 3.79484 6.04297 3.23844 6.4532 2.8282C6.86344 2.41797 7.41984 2.1875 8 2.1875C8.58016 2.1875 9.13656 2.41797 9.5468 2.8282C9.95703 3.23844 10.1875 3.79484 10.1875 4.375V5.9375H5.8125V4.375ZM13.9375 15.9375H2.0625V7.8125H13.9375V15.9375ZM8 8.75C7.41999 8.75021 6.85811 8.95209 6.41059 9.32105C5.96307 9.69001 5.65776 10.2031 5.54696 10.7724C5.43617 11.3417 5.52677 11.9319 5.80326 12.4417C6.07974 12.9516 6.52491 13.3495 7.0625 13.5672V14.0625C7.0625 14.3111 7.16127 14.5496 7.33709 14.7254C7.5129 14.9012 7.75136 15 8 15C8.24864 15 8.4871 14.9012 8.66291 14.7254C8.83873 14.5496 8.9375 14.3111 8.9375 14.0625V13.5672C9.47509 13.3495 9.92026 12.9516 10.1967 12.4417C10.4732 11.9319 10.5638 11.3417 10.453 10.7724C10.3422 10.2031 10.0369 9.69001 9.58941 9.32105C9.14189 8.95209 8.58 8.75021 8 8.75ZM8 10.625C8.12361 10.625 8.24445 10.6617 8.34723 10.7303C8.45001 10.799 8.53012 10.8966 8.57743 11.0108C8.62473 11.125 8.63711 11.2507 8.61299 11.3719C8.58887 11.4932 8.52935 11.6045 8.44194 11.6919C8.35453 11.7794 8.24317 11.8389 8.12193 11.863C8.00069 11.8871 7.87503 11.8747 7.76082 11.8274C7.64662 11.7801 7.54901 11.7 7.48033 11.5972C7.41166 11.4945 7.375 11.3736 7.375 11.25C7.375 11.0842 7.44085 10.9253 7.55806 10.8081C7.67527 10.6908 7.83424 10.625 8 10.625Z" fill="currentColor"/>
</svg>
