<svg width="44" height="44" viewBox="0 0 44 44" fill="none" xmlns="http://www.w3.org/2000/svg">
<path d="M44 22C44 34.1486 34.1519 44 22.0032 44C9.8546 44 0 34.1486 0 22C0 9.85137 9.85138 0 22 0C34.1486 0 43.9968 9.84814 43.9968 22H44Z" fill="#243E91"/>
<path d="M8.40039 24.0125V9.25H18.1258V11.8219H11.2825V15.2855H17.1112V17.8574H11.2825V21.4439H18.1258V24.0158H8.40039V24.0125Z" fill="white"/>
<path d="M27.1438 22.6038C26.168 23.5796 24.7787 24.0158 23.2472 24.0158H17.916V9.25H23.2472C24.7787 9.25 26.1713 9.68619 27.1438 10.6587C28.8045 12.3162 28.6365 14.3485 28.6365 16.5683C28.6365 18.788 28.8013 20.9431 27.1438 22.6006V22.6038ZM25.1309 12.733C24.6333 12.1321 23.9709 11.8219 22.9758 11.8219H20.7981V21.4439H22.9758C23.9709 21.4439 24.6333 21.1337 25.1309 20.5327C25.6705 19.8704 25.7512 18.8106 25.7512 16.5715C25.7512 14.3324 25.6705 13.3986 25.1309 12.7363V12.733Z" fill="white"/>
<path d="M33.9976 27.1629L31.1156 21.2728H29.0412V27.1629H26.1592V12.4004H31.9427C34.9508 12.4004 36.7311 14.4521 36.7311 16.9206C36.7311 18.9949 35.4677 20.2808 34.0364 20.7978L37.332 27.1629H33.9944H33.9976ZM31.7585 14.9691H29.0412V18.8657H31.7585C33.0219 18.8657 33.8522 18.0579 33.8522 16.9174C33.8522 15.7768 33.0219 14.9691 31.7585 14.9691Z" fill="white"/>
<path d="M8.39355 35.1137V21.7373H11.0042V32.7842H17.0721V35.1137H8.39355Z" fill="white"/>
<path d="M23.1096 34.9949V34.1483C22.4505 34.8075 21.8301 35.0886 20.7057 35.0886C19.5813 35.0886 18.7897 34.8075 18.2081 34.2227C17.6815 33.6766 17.4004 32.8882 17.4004 32.0256C17.4004 30.4682 18.4699 29.1887 20.7445 29.1887H23.0579V28.7008C23.0579 27.6281 22.5312 27.1596 21.2356 27.1596C20.2954 27.1596 19.8657 27.3858 19.3584 27.9674L17.7978 26.4456C18.7542 25.3923 19.6944 25.0918 21.3293 25.0918C24.0724 25.0918 25.5006 26.2582 25.5006 28.549V34.9916H23.1161L23.1096 34.9949ZM23.0547 30.8624H21.1193C20.2372 30.8624 19.7461 31.276 19.7461 31.9706C19.7461 32.6653 20.1985 33.0983 21.1581 33.0983C21.8333 33.0983 22.2663 33.0401 22.6993 32.6298C22.961 32.3842 23.0579 31.99 23.0579 31.3891V30.8624H23.0547Z" fill="white"/>
<path d="M33.3556 34.1699C32.8096 34.716 31.9275 35.052 30.9711 35.052C29.9372 35.052 29.2038 34.7709 28.5285 34.0181V34.9389H26.1602V18.4316H28.6028V26.0148C29.2425 25.3008 29.976 25.0391 30.9711 25.0391C31.9663 25.0391 32.8128 25.3783 33.3556 25.9211C34.3314 26.8969 34.3508 28.5706 34.3508 30.0342C34.3508 31.4979 34.3314 33.1909 33.3556 34.1667V34.1699ZM30.2571 27.2394C28.7902 27.2394 28.6028 28.4413 28.6028 30.0375C28.6028 31.6336 28.7902 32.8549 30.2571 32.8549C31.724 32.8549 31.9114 31.6336 31.9114 30.0375C31.9114 28.4413 31.724 27.2394 30.2571 27.2394Z" fill="white"/>
</svg>
