<svg width="18" height="17" viewBox="0 0 18 17" fill="none" xmlns="http://www.w3.org/2000/svg">
<path d="M17.1634 15.3915L13.4533 11.6798C14.5657 10.2302 15.085 8.41169 14.906 6.59322C14.7269 4.77474 13.8629 3.09246 12.4891 1.88763C11.1153 0.682801 9.33464 0.045647 7.50834 0.105417C5.68205 0.165188 3.94687 0.917406 2.65479 2.20948C1.36272 3.50156 0.6105 5.23674 0.55073 7.06303C0.490959 8.88932 1.12811 10.67 2.33294 12.0438C3.53777 13.4176 5.22005 14.2816 7.03853 14.4607C8.85701 14.6397 10.6755 14.1204 12.1251 13.0079L15.8384 16.722C15.9256 16.8092 16.0292 16.8784 16.1431 16.9256C16.257 16.9728 16.3792 16.9971 16.5025 16.9971C16.6258 16.9971 16.7479 16.9728 16.8619 16.9256C16.9758 16.8784 17.0793 16.8092 17.1665 16.722C17.2537 16.6348 17.3229 16.5313 17.3701 16.4173C17.4173 16.3034 17.4416 16.1813 17.4416 16.0579C17.4416 15.9346 17.4173 15.8125 17.3701 15.6986C17.3229 15.5846 17.2537 15.4811 17.1665 15.3939L17.1634 15.3915ZM2.43764 7.30482C2.43764 6.25411 2.74921 5.22699 3.33295 4.35336C3.9167 3.47972 4.7464 2.79881 5.71713 2.39671C6.68786 1.99462 7.75603 1.88942 8.78656 2.0944C9.81708 2.29939 10.7637 2.80535 11.5066 3.54832C12.2496 4.29129 12.7556 5.23788 12.9606 6.26841C13.1655 7.29893 13.0603 8.3671 12.6582 9.33783C12.2562 10.3086 11.5752 11.1383 10.7016 11.722C9.82797 12.3058 8.80085 12.6173 7.75014 12.6173C6.34162 12.6159 4.9912 12.0557 3.99523 11.0597C2.99926 10.0638 2.43908 8.71334 2.43764 7.30482Z" fill="currentColor"/>
</svg>
