<svg width="12" height="10" viewBox="0 0 12 10" fill="none" xmlns="http://www.w3.org/2000/svg">
<path d="M10.5 0.75H7.5C7.20892 0.75 6.92183 0.817772 6.66147 0.947949C6.40112 1.07813 6.17465 1.26713 6 1.5C5.82535 1.26713 5.59888 1.07813 5.33853 0.947949C5.07817 0.817772 4.79108 0.75 4.5 0.75H1.5C1.30109 0.75 1.11032 0.829018 0.96967 0.96967C0.829018 1.11032 0.75 1.30109 0.75 1.5V7.5C0.75 7.69891 0.829018 7.88968 0.96967 8.03033C1.11032 8.17098 1.30109 8.25 1.5 8.25H4.5C4.79837 8.25 5.08452 8.36853 5.2955 8.5795C5.50647 8.79048 5.625 9.07663 5.625 9.375C5.625 9.47446 5.66451 9.56984 5.73484 9.64017C5.80516 9.71049 5.90054 9.75 6 9.75C6.09946 9.75 6.19484 9.71049 6.26517 9.64017C6.33549 9.56984 6.375 9.47446 6.375 9.375C6.375 9.07663 6.49353 8.79048 6.7045 8.5795C6.91548 8.36853 7.20163 8.25 7.5 8.25H10.5C10.6989 8.25 10.8897 8.17098 11.0303 8.03033C11.171 7.88968 11.25 7.69891 11.25 7.5V1.5C11.25 1.30109 11.171 1.11032 11.0303 0.96967C10.8897 0.829018 10.6989 0.75 10.5 0.75ZM4.5 7.5H1.5V1.5H4.5C4.79837 1.5 5.08452 1.61853 5.2955 1.8295C5.50647 2.04048 5.625 2.32663 5.625 2.625V7.875C5.30075 7.631 4.9058 7.49935 4.5 7.5ZM10.5 7.5H7.5C7.0942 7.49935 6.69925 7.631 6.375 7.875V2.625C6.375 2.32663 6.49353 2.04048 6.7045 1.8295C6.91548 1.61853 7.20163 1.5 7.5 1.5H10.5V7.5ZM7.5 2.625H9.375C9.47446 2.625 9.56984 2.66451 9.64017 2.73484C9.71049 2.80516 9.75 2.90054 9.75 3C9.75 3.09946 9.71049 3.19484 9.64017 3.26516C9.56984 3.33549 9.47446 3.375 9.375 3.375H7.5C7.40054 3.375 7.30516 3.33549 7.23483 3.26516C7.16451 3.19484 7.125 3.09946 7.125 3C7.125 2.90054 7.16451 2.80516 7.23483 2.73484C7.30516 2.66451 7.40054 2.625 7.5 2.625ZM9.75 4.5C9.75 4.59946 9.71049 4.69484 9.64017 4.76517C9.56984 4.83549 9.47446 4.875 9.375 4.875H7.5C7.40054 4.875 7.30516 4.83549 7.23483 4.76517C7.16451 4.69484 7.125 4.59946 7.125 4.5C7.125 4.40054 7.16451 4.30516 7.23483 4.23484C7.30516 4.16451 7.40054 4.125 7.5 4.125H9.375C9.47446 4.125 9.56984 4.16451 9.64017 4.23484C9.71049 4.30516 9.75 4.40054 9.75 4.5ZM9.75 6C9.75 6.09946 9.71049 6.19484 9.64017 6.26517C9.56984 6.33549 9.47446 6.375 9.375 6.375H7.5C7.40054 6.375 7.30516 6.33549 7.23483 6.26517C7.16451 6.19484 7.125 6.09946 7.125 6C7.125 5.90054 7.16451 5.80516 7.23483 5.73483C7.30516 5.66451 7.40054 5.625 7.5 5.625H9.375C9.47446 5.625 9.56984 5.66451 9.64017 5.73483C9.71049 5.80516 9.75 5.90054 9.75 6Z" fill="#1E1E1E"/>
</svg>
