<svg width="24" height="24" viewBox="0 0 24 24" fill="none" xmlns="http://www.w3.org/2000/svg">
<g clip-path="url(#clip0_2469_130765)">
<path d="M0.0117188 5.76937C0.0117188 2.58832 2.59027 0.00976562 5.77132 0.00976562H18.2312C21.4132 0.00976562 23.9918 2.58832 23.9918 5.76937V23.9998H5.77132C2.59027 23.9998 0.0117188 21.4212 0.0117188 18.2402V5.76937Z" fill="#74AA9C"/>
<path d="M11.046 2.98345C9.07092 2.98345 7.31629 4.25327 6.70482 6.12858L6.48438 7.41636V11.6847C6.48438 11.8982 6.5941 12.0877 6.77764 12.1974L10.2141 14.1776V8.31213H10.215V8.03382L13.6934 6.02484C14.0297 5.83013 14.396 5.69709 14.7753 5.62756L14.4405 4.49168C13.5766 3.52609 12.3407 2.97746 11.046 2.98345ZM11.046 4.15552L11.04 4.1615C11.835 4.1615 12.5991 4.43582 13.2106 4.94355C13.1856 4.95552 13.1367 4.98644 13.1008 5.00439L9.50482 7.07522C9.32128 7.17896 9.21156 7.37447 9.21156 7.58794V12.4488L7.66442 11.557V7.53906C7.66343 5.67273 9.17665 4.15851 11.046 4.15552Z" fill="white"/>
<path d="M19.3315 6.66484C18.344 4.95439 16.367 4.06976 14.4372 4.47786L13.2117 4.93084L9.51524 7.065C9.33037 7.17174 9.2211 7.36152 9.21784 7.57534L9.22115 11.5415L14.3008 8.60871L14.3013 8.60958L14.5423 8.47042L18.0213 10.4782C18.3581 10.6721 18.6565 10.9229 18.9064 11.2166L19.7226 10.3587C20.1269 9.12779 19.9841 7.78314 19.3315 6.66484ZM18.3165 7.25087L18.3083 7.24868C18.7058 7.93717 18.8503 8.73606 18.7163 9.51948C18.6935 9.50386 18.6423 9.477 18.6088 9.45487L15.0174 7.37605C14.8358 7.26897 14.6116 7.2717 14.4267 7.37843L10.2171 9.80886L10.2158 8.02312L13.6955 6.01414C15.3113 5.08011 17.3792 5.63349 18.3165 7.25087Z" fill="white"/>
<path d="M20.2856 15.6814C21.2731 13.9709 21.0507 11.8165 19.7324 10.3493L18.7273 9.51447L15.0309 7.38031C14.846 7.27358 14.627 7.27384 14.4402 7.37793L11.0071 9.36384L16.0868 12.2966L16.0863 12.2975L16.3273 12.4366L16.3279 16.4534C16.3284 16.842 16.2605 17.2258 16.131 17.5891L17.2821 17.867C18.5503 17.6017 19.6434 16.8057 20.2856 15.6814ZM19.2705 15.0954L19.2683 15.0872C18.8708 15.7757 18.2512 16.3002 17.5058 16.5759C17.5079 16.5483 17.5055 16.4906 17.5079 16.4505L17.5126 12.3008C17.5145 12.09 17.4 11.8972 17.2152 11.7905L13.0056 9.36007L14.5514 8.4661L18.0311 10.4751C19.6478 11.4074 20.2026 13.475 19.2705 15.0954Z" fill="white"/>
<path d="M12.954 21.0166C14.9291 21.0166 16.6837 19.7467 17.2952 17.8714L17.5156 16.5836V12.3153C17.5156 12.1018 17.4059 11.9123 17.2224 11.8026L13.7859 9.82239L13.7859 15.6879H13.785V15.9662L10.3066 17.9752C9.97034 18.1699 9.604 18.3029 9.22465 18.3724L9.55952 19.5083C10.4234 20.4739 11.6593 21.0225 12.954 21.0166ZM12.954 19.8445L12.96 19.8385C12.165 19.8385 11.4009 19.5642 10.7894 19.0565C10.8144 19.0445 10.8633 19.0136 10.8992 18.9956L14.4952 16.9248C14.6787 16.821 14.7884 16.6255 14.7884 16.4121L14.7884 11.5512L16.3356 12.443V16.4609C16.3366 18.3273 14.8233 19.8415 12.954 19.8445Z" fill="white"/>
<path d="M4.66846 17.3352C5.65599 19.0456 7.633 19.9302 9.5628 19.5221L10.7883 19.0692L14.4848 16.935C14.6696 16.8283 14.7789 16.6385 14.7822 16.4247L14.7789 12.4585L9.69919 15.3913L9.69869 15.3904L9.45768 15.5296L5.9787 13.5218C5.64192 13.3279 5.34354 13.0771 5.09364 12.7834L4.27737 13.6413C3.87307 14.8722 4.0159 16.2169 4.66846 17.3352ZM5.6835 16.7491L5.69168 16.7513C5.29418 16.0628 5.14969 15.2639 5.28366 14.4805C5.3065 14.4961 5.35772 14.523 5.39122 14.5451L8.98261 16.624C9.16423 16.731 9.38841 16.7283 9.57327 16.6216L13.7829 14.1911L13.7842 15.9769L10.3045 17.9859C8.68872 18.9199 6.62075 18.3665 5.6835 16.7491Z" fill="white"/>
<path d="M3.71443 8.31861C2.72691 10.0291 2.9493 12.1835 4.26763 13.6507L5.27266 14.4855L8.96914 16.6197C9.154 16.7264 9.373 16.7262 9.5598 16.6221L12.9929 14.6362L7.91324 11.7034L7.91374 11.7025L7.67272 11.5634L7.67205 7.54661C7.67158 7.158 7.73953 6.77423 7.86899 6.41093L6.71786 6.13299C5.44971 6.3983 4.35663 7.19432 3.71443 8.31861ZM4.72948 8.90464L4.73167 8.91282C5.12917 8.22433 5.74878 7.69975 6.49422 7.42407C6.49212 7.45165 6.49446 7.50944 6.49206 7.54952L6.48744 11.6992C6.48551 11.91 6.59996 12.1028 6.78483 12.2095L10.9944 14.6399L9.44859 15.5339L5.96894 13.5249C4.35215 12.5926 3.79741 10.525 4.72948 8.90464Z" fill="white"/>
</g>
<defs>
<clipPath id="clip0_2469_130765">
<rect width="24" height="24" fill="white"/>
</clipPath>
</defs>
</svg>
