<svg width="20" height="16" viewBox="0 0 20 16" xmlns="http://www.w3.org/2000/svg">
<path d="M17.5 -0.00781232H12.5C12.0315 -0.00796264 11.5679 0.0879818 11.1379 0.274091C10.7079 0.4602 10.3206 0.73252 10 1.07422C9.67941 0.73252 9.29215 0.4602 8.86215 0.274091C8.43215 0.0879818 7.96855 -0.00796264 7.5 -0.00781232H2.5C2.0856 -0.00781232 1.68817 0.156808 1.39515 0.449833C1.10212 0.742859 0.9375 1.14029 0.9375 1.55469V11.5547C0.9375 11.9691 1.10212 12.3665 1.39515 12.6595C1.68817 12.9526 2.0856 13.1172 2.5 13.1172H7.5C7.9144 13.1172 8.31183 13.2818 8.60485 13.5748C8.89788 13.8679 9.0625 14.2653 9.0625 14.6797C9.0625 14.9283 9.16127 15.1668 9.33709 15.3426C9.5129 15.5184 9.75136 15.6172 10 15.6172C10.2486 15.6172 10.4871 15.5184 10.6629 15.3426C10.8387 15.1668 10.9375 14.9283 10.9375 14.6797C10.9375 14.2653 11.1021 13.8679 11.3951 13.5748C11.6882 13.2818 12.0856 13.1172 12.5 13.1172H17.5C17.9144 13.1172 18.3118 12.9526 18.6049 12.6595C18.8979 12.3665 19.0625 11.9691 19.0625 11.5547V1.55469C19.0625 1.14029 18.8979 0.742859 18.6049 0.449833C18.3118 0.156808 17.9144 -0.00781232 17.5 -0.00781232ZM7.5 11.2422H2.8125V1.86719H7.5C7.9144 1.86719 8.31183 2.03181 8.60485 2.32483C8.89788 2.61786 9.0625 3.01529 9.0625 3.42969V11.618C8.57889 11.3704 8.04328 11.2416 7.5 11.2422ZM17.1875 11.2422H12.5C11.9566 11.2418 11.4209 11.3712 10.9375 11.6195V3.42969C10.9375 3.01529 11.1021 2.61786 11.3951 2.32483C11.6882 2.03181 12.0856 1.86719 12.5 1.86719H17.1875V11.2422Z" fill="currentColor"/>
</svg>
