<?xml version="1.0" encoding="utf-8"?>
<!-- Generator: Adobe Illustrator 21.1.0, SVG Export Plug-In . SVG Version: 6.00 Build 0)  -->
<svg version="1.1"
	 id="Layer_1" xmlns:cc="http://creativecommons.org/ns#" xmlns:dc="http://purl.org/dc/elements/1.1/" xmlns:inkscape="http://www.inkscape.org/namespaces/inkscape" xmlns:rdf="http://www.w3.org/1999/02/22-rdf-syntax-ns#" xmlns:sodipodi="http://sodipodi.sourceforge.net/DTD/sodipodi-0.dtd" xmlns:svg="http://www.w3.org/2000/svg"
	 xmlns="http://www.w3.org/2000/svg" xmlns:xlink="http://www.w3.org/1999/xlink" x="0px" y="0px" viewBox="0 0 24 24"
	 style="enable-background:new 0 0 24 24;" xml:space="preserve">
<style type="text/css">
	.st0{stroke:var(--reader-fontColor);stroke-width:1.5;stroke-linecap:round;stroke-linejoin:round;stroke-miterlimit:10;}
</style>
<g transform="translate(0,-952.36218)">
	<path class="st0" d="M1.7,955.3c-0.1,0-0.2,0.2-0.2,0.3v14.8c0,0.2,0.1,0.3,0.3,0.3h6.1c1.8,0,3.3,1,3.9,2.5
		c0.1,0.2,0.2,0.2,0.4,0.2c0.1,0,0.1-0.1,0.2-0.2c0.6-1.5,2.1-2.5,3.9-2.5h6.1c0.2,0,0.3-0.1,0.3-0.3v-14.8c0-0.2-0.1-0.3-0.3-0.3
		h-6.1c-1.8,0-3.4,1-4.2,2.5c-0.8-1.5-2.4-2.5-4.2-2.5H1.7C1.7,955.3,1.7,955.3,1.7,955.3z M2,955.9h5.8c1.7,0,3.2,1.1,3.9,2.6V972
		c-0.9-1.2-2.3-2-3.9-2H2V955.9z M16.2,955.9H22v14.2h-5.8c-1.6,0-3,0.7-3.9,2v-13.5C12.9,957,14.4,955.9,16.2,955.9z"/>
</g>
</svg>
