<?xml version="1.0" encoding="utf-8"?>
<!-- Generator: Adobe Illustrator 21.1.0, SVG Export Plug-In . SVG Version: 6.00 Build 0)  -->
<svg version="1.1" id="Layer_1" xmlns="http://www.w3.org/2000/svg" xmlns:xlink="http://www.w3.org/1999/xlink" x="0px" y="0px"
	 viewBox="0 0 24 24" style="enable-background:new 0 0 24 24;" xml:space="preserve">
<path d="M5.9,18.8c3.7,3.3,9.4,3.1,12.7-0.6c1.7-1.8,2.4-4.2,2.3-6.5l-2,0.1c0.1,1.8-0.5,3.6-1.8,5c-2.6,2.9-7,3.1-9.9,0.5
	s-3.1-7-0.5-9.9s7-3.1,9.9-0.5l-2,2.2l5.6-0.3l-0.3-5.6l-2,2.2C14.4,2.1,8.7,2.4,5.3,6S2.3,15.4,5.9,18.8z"/>
<polygon points="10.5,8.3 10.5,13.3 14.7,15.9 15.5,14.6 12,12.5 12,8.3 "/>
</svg>
