<?xml version="1.0" encoding="utf-8"?>
<!-- Generator: Adobe Illustrator 21.1.0, SVG Export Plug-In . SVG Version: 6.00 Build 0)  -->
<svg version="1.1" id="Layer_1" xmlns="http://www.w3.org/2000/svg" xmlns:xlink="http://www.w3.org/1999/xlink" x="0px" y="0px"
	 viewBox="0 0 24 24" style="enable-background:new 0 0 24 24;" xml:space="preserve">
<style type="text/css">
	.st0{fill:none;}
</style>
<path class="st0" d="M0,0h24v24H0V0z"/>
<path d="M3,13h2v-2H3V13z M3,17h2v-2H3V17z M5,21v-2H3C3,20.1,3.9,21,5,21z M3,9h2V7H3V9z M15,21h2v-2h-2V21z M19,3H9
	C7.9,3,7,3.9,7,5v10c0,1.1,0.9,2,2,2h10c1.1,0,2-0.9,2-2V5C21,3.9,20.1,3,19,3z M19,15H9V5h10V15z M11,21h2v-2h-2V21z M7,21h2v-2H7
	V21z"/>
</svg>
