<svg width="22" height="19" viewBox="0 0 22 19" fill="none" xmlns="http://www.w3.org/2000/svg">
<path d="M20 0.5H14C13.4178 0.5 12.8437 0.635544 12.3229 0.895898C11.8022 1.15625 11.3493 1.53426 11 2C10.6507 1.53426 10.1978 1.15625 9.67705 0.895898C9.15634 0.635544 8.58217 0.5 8 0.5H2C1.60218 0.5 1.22064 0.658035 0.93934 0.93934C0.658035 1.22064 0.5 1.60218 0.5 2V14C0.5 14.3978 0.658035 14.7794 0.93934 15.0607C1.22064 15.342 1.60218 15.5 2 15.5H8C8.59674 15.5 9.16903 15.7371 9.59099 16.159C10.0129 16.581 10.25 17.1533 10.25 17.75C10.25 17.9489 10.329 18.1397 10.4697 18.2803C10.6103 18.421 10.8011 18.5 11 18.5C11.1989 18.5 11.3897 18.421 11.5303 18.2803C11.671 18.1397 11.75 17.9489 11.75 17.75C11.75 17.1533 11.9871 16.581 12.409 16.159C12.831 15.7371 13.4033 15.5 14 15.5H20C20.3978 15.5 20.7794 15.342 21.0607 15.0607C21.342 14.7794 21.5 14.3978 21.5 14V2C21.5 1.60218 21.342 1.22064 21.0607 0.93934C20.7794 0.658035 20.3978 0.5 20 0.5ZM8 14H2V2H8C8.59674 2 9.16903 2.23705 9.59099 2.65901C10.0129 3.08097 10.25 3.65326 10.25 4.25V14.75C9.6015 14.262 8.8116 13.9987 8 14ZM20 14H14C13.1884 13.9987 12.3985 14.262 11.75 14.75V4.25C11.75 3.65326 11.9871 3.08097 12.409 2.65901C12.831 2.23705 13.4033 2 14 2H20V14ZM14 4.25H17.75C17.9489 4.25 18.1397 4.32902 18.2803 4.46967C18.421 4.61032 18.5 4.80109 18.5 5C18.5 5.19891 18.421 5.38968 18.2803 5.53033C18.1397 5.67098 17.9489 5.75 17.75 5.75H14C13.8011 5.75 13.6103 5.67098 13.4697 5.53033C13.329 5.38968 13.25 5.19891 13.25 5C13.25 4.80109 13.329 4.61032 13.4697 4.46967C13.6103 4.32902 13.8011 4.25 14 4.25ZM18.5 8C18.5 8.19891 18.421 8.38968 18.2803 8.53033C18.1397 8.67098 17.9489 8.75 17.75 8.75H14C13.8011 8.75 13.6103 8.67098 13.4697 8.53033C13.329 8.38968 13.25 8.19891 13.25 8C13.25 7.80109 13.329 7.61032 13.4697 7.46967C13.6103 7.32902 13.8011 7.25 14 7.25H17.75C17.9489 7.25 18.1397 7.32902 18.2803 7.46967C18.421 7.61032 18.5 7.80109 18.5 8ZM18.5 11C18.5 11.1989 18.421 11.3897 18.2803 11.5303C18.1397 11.671 17.9489 11.75 17.75 11.75H14C13.8011 11.75 13.6103 11.671 13.4697 11.5303C13.329 11.3897 13.25 11.1989 13.25 11C13.25 10.8011 13.329 10.6103 13.4697 10.4697C13.6103 10.329 13.8011 10.25 14 10.25H17.75C17.9489 10.25 18.1397 10.329 18.2803 10.4697C18.421 10.6103 18.5 10.8011 18.5 11Z" fill="CurrentColor"/>
</svg>
