<svg width="11" height="10" viewBox="0 0 11 10" fill="none" xmlns="http://www.w3.org/2000/svg">
<path d="M10.875 0.5C10.875 0.400544 10.8355 0.305161 10.7652 0.234835C10.6949 0.164509 10.5995 0.125 10.5 0.125C8.43379 0.125 6.31363 2.45516 5.13613 3.99828C4.7156 3.86949 4.27073 3.84112 3.83725 3.91544C3.40376 3.98977 2.99375 4.16472 2.64014 4.42624C2.28654 4.68777 1.99919 5.02857 1.80119 5.42129C1.60318 5.81401 1.50004 6.24769 1.50004 6.6875C1.50004 8.135 0.584103 8.78422 0.540509 8.81422C0.473988 8.85914 0.423635 8.92421 0.396855 8.99988C0.370074 9.07555 0.368278 9.15781 0.391732 9.23458C0.415187 9.31134 0.462652 9.37855 0.52715 9.42633C0.591648 9.47411 0.669774 9.49993 0.750041 9.5H4.31254C4.75235 9.5 5.18603 9.39686 5.57875 9.19885C5.97147 9.00085 6.31227 8.7135 6.5738 8.3599C6.83532 8.00629 7.01027 7.59628 7.0846 7.16279C7.15892 6.72931 7.13055 6.28444 7.00176 5.86391C8.54535 4.68641 10.875 2.56625 10.875 0.5ZM4.31254 8.75H1.62332C1.93973 8.30047 2.25004 7.62125 2.25004 6.6875C2.25004 6.27958 2.371 5.88081 2.59763 5.54164C2.82427 5.20246 3.14638 4.9381 3.52326 4.782C3.90013 4.62589 4.31483 4.58505 4.71491 4.66463C5.115 4.74421 5.4825 4.94065 5.77095 5.22909C6.05939 5.51754 6.25583 5.88504 6.33541 6.28513C6.41499 6.68521 6.37415 7.09991 6.21804 7.47678C6.06194 7.85366 5.79758 8.17578 5.4584 8.40241C5.11923 8.62904 4.72046 8.75 4.31254 8.75ZM5.83223 4.32266C5.99285 4.11453 6.15051 3.91844 6.3052 3.73438C6.68382 3.99018 7.00986 4.31622 7.26567 4.69484C7.08129 4.84922 6.8852 5.00688 6.67738 5.16781C6.45886 4.82929 6.17075 4.54118 5.83223 4.32266ZM7.83379 4.19703C7.55068 3.79756 7.20201 3.44889 6.80254 3.16578C8.29223 1.54719 9.41582 1.05641 10.0791 0.92C9.94551 1.58375 9.45238 2.70734 7.83379 4.19703Z" fill="currentColor"/>
</svg>
