<svg width="18" height="17" viewBox="0 0 18 17" fill="none" xmlns="http://www.w3.org/2000/svg">
<path d="M14.6852 3.21016C13.1724 1.71218 11.1289 0.872822 9 0.875004H8.91641C6.77604 0.897026 4.73083 1.76276 3.22513 3.28412C1.71943 4.80547 0.874887 6.85953 0.875 9C0.875 12.3594 2.95156 15.1766 6.29375 16.357C6.67071 16.4899 7.07404 16.5305 7.46992 16.4754C7.86581 16.4202 8.24269 16.271 8.56898 16.0401C8.89527 15.8092 9.16145 15.5035 9.34519 15.1485C9.52893 14.7936 9.62488 14.3997 9.625 14C9.625 13.6685 9.7567 13.3505 9.99112 13.1161C10.2255 12.8817 10.5435 12.75 10.875 12.75H14.4852C15.0522 12.7527 15.6032 12.5615 16.0466 12.2079C16.49 11.8543 16.7991 11.3597 16.9227 10.8063C17.0624 10.1912 17.1303 9.56197 17.125 8.93125C17.117 7.86365 16.8973 6.80823 16.4785 5.82617C16.0597 4.84411 15.4501 3.95493 14.6852 3.21016ZM15.7008 10.5313C15.6387 10.807 15.4844 11.0533 15.2634 11.2294C15.0423 11.4056 14.7678 11.501 14.4852 11.5H10.875C10.212 11.5 9.57607 11.7634 9.10723 12.2322C8.63839 12.7011 8.375 13.337 8.375 14C8.37471 14.1997 8.3266 14.3963 8.23469 14.5736C8.14278 14.7508 8.00975 14.9035 7.84674 15.0188C7.68372 15.1341 7.49546 15.2086 7.29772 15.2362C7.09998 15.2638 6.8985 15.2436 6.71016 15.1773C3.88203 14.1797 2.125 11.8125 2.125 9C2.1249 7.18889 2.83946 5.4509 4.11344 4.16361C5.38742 2.87632 7.11789 2.14373 8.92891 2.125H8.99922C10.8103 2.13204 12.5461 2.85061 13.8322 4.12576C15.1183 5.40091 15.8517 7.13045 15.8742 8.94141C15.8789 9.47615 15.8217 10.0096 15.7039 10.5313H15.7008ZM9.9375 4.9375C9.9375 5.12292 9.88252 5.30418 9.7795 5.45835C9.67649 5.61252 9.53007 5.73268 9.35876 5.80364C9.18746 5.8746 8.99896 5.89316 8.8171 5.85699C8.63525 5.82082 8.4682 5.73153 8.33709 5.60042C8.20598 5.46931 8.11669 5.30226 8.08051 5.1204C8.04434 4.93854 8.06291 4.75004 8.13386 4.57874C8.20482 4.40743 8.32498 4.26101 8.47915 4.158C8.63332 4.05499 8.81458 4 9 4C9.24864 4 9.4871 4.09878 9.66291 4.27459C9.83873 4.45041 9.9375 4.68886 9.9375 4.9375ZM6.5 6.8125C6.5 6.99792 6.44502 7.17918 6.342 7.33335C6.23899 7.48752 6.09257 7.60768 5.92127 7.67864C5.74996 7.7496 5.56146 7.76816 5.3796 7.73199C5.19775 7.69582 5.0307 7.60653 4.89959 7.47542C4.76848 7.34431 4.67919 7.17726 4.64301 6.9954C4.60684 6.81354 4.62541 6.62504 4.69636 6.45374C4.76732 6.28243 4.88748 6.13601 5.04165 6.033C5.19582 5.92999 5.37708 5.875 5.5625 5.875C5.81114 5.875 6.0496 5.97378 6.22541 6.14959C6.40123 6.32541 6.5 6.56386 6.5 6.8125ZM6.5 11.1875C6.5 11.3729 6.44502 11.5542 6.342 11.7084C6.23899 11.8625 6.09257 11.9827 5.92127 12.0536C5.74996 12.1246 5.56146 12.1432 5.3796 12.107C5.19775 12.0708 5.0307 11.9815 4.89959 11.8504C4.76848 11.7193 4.67919 11.5523 4.64301 11.3704C4.60684 11.1885 4.62541 11 4.69636 10.8287C4.76732 10.6574 4.88748 10.511 5.04165 10.408C5.19582 10.305 5.37708 10.25 5.5625 10.25C5.81114 10.25 6.0496 10.3488 6.22541 10.5246C6.40123 10.7004 6.5 10.9389 6.5 11.1875ZM13.375 6.8125C13.375 6.99792 13.32 7.17918 13.217 7.33335C13.114 7.48752 12.9676 7.60768 12.7963 7.67864C12.625 7.7496 12.4365 7.76816 12.2546 7.73199C12.0727 7.69582 11.9057 7.60653 11.7746 7.47542C11.6435 7.34431 11.5542 7.17726 11.518 6.9954C11.4818 6.81354 11.5004 6.62504 11.5714 6.45374C11.6423 6.28243 11.7625 6.13601 11.9167 6.033C12.0708 5.92999 12.2521 5.875 12.4375 5.875C12.6861 5.875 12.9246 5.97378 13.1004 6.14959C13.2762 6.32541 13.375 6.56386 13.375 6.8125Z" fill="currentColor"/>
</svg>
