<svg width="11" height="9" viewBox="0 0 11 9" fill="none" xmlns="http://www.w3.org/2000/svg">
<path d="M1.25 1.51562V8.26562C1.25 8.41481 1.19074 8.55788 1.08525 8.66337C0.979758 8.76886 0.836684 8.82812 0.6875 8.82812C0.538316 8.82812 0.395242 8.76886 0.289752 8.66337C0.184263 8.55788 0.125 8.41481 0.125 8.26562V1.51562C0.125 1.36644 0.184263 1.22337 0.289752 1.11788C0.395242 1.01239 0.538316 0.953125 0.6875 0.953125C0.836684 0.953125 0.979758 1.01239 1.08525 1.11788C1.19074 1.22337 1.25 1.36644 1.25 1.51562ZM5.12797 3.89219L4.4375 4.11625V3.39062C4.4375 3.24144 4.37824 3.09837 4.27275 2.99288C4.16726 2.88739 4.02418 2.82812 3.875 2.82812C3.72582 2.82812 3.58274 2.88739 3.47725 2.99288C3.37176 3.09837 3.3125 3.24144 3.3125 3.39062V4.11625L2.62203 3.89219C2.55126 3.86729 2.47623 3.85681 2.40135 3.86134C2.32647 3.86588 2.25325 3.88535 2.18601 3.91861C2.11877 3.95186 2.05885 3.99823 2.0098 4.05499C1.96074 4.11174 1.92354 4.17774 1.90037 4.24909C1.8772 4.32044 1.86854 4.39571 1.87489 4.47045C1.88125 4.5452 1.90249 4.61792 1.93737 4.68434C1.97224 4.75076 2.02006 4.80953 2.07799 4.85719C2.13592 4.90485 2.2028 4.94045 2.27469 4.96187L2.96469 5.18641L2.53813 5.77328C2.45042 5.894 2.41426 6.04461 2.43759 6.19199C2.46093 6.33936 2.54186 6.47143 2.66258 6.55914C2.78329 6.64685 2.93391 6.68301 3.08128 6.65967C3.22866 6.63633 3.36073 6.5554 3.44844 6.43469L3.875 5.84781L4.30156 6.43469C4.38927 6.5554 4.52134 6.63633 4.66872 6.65967C4.81609 6.68301 4.96671 6.64685 5.08742 6.55914C5.20814 6.47143 5.28907 6.33936 5.31241 6.19199C5.33574 6.04461 5.29958 5.894 5.21187 5.77328L4.78531 5.18641L5.47531 4.96187C5.5472 4.94045 5.61408 4.90485 5.67201 4.85719C5.72994 4.80953 5.77776 4.75076 5.81263 4.68434C5.84751 4.61792 5.86875 4.5452 5.87511 4.47045C5.88146 4.39571 5.8728 4.32044 5.84963 4.24909C5.82646 4.17774 5.78926 4.11174 5.7402 4.05499C5.69115 3.99823 5.63123 3.95186 5.56399 3.91861C5.49675 3.88535 5.42353 3.86588 5.34865 3.86134C5.27377 3.85681 5.19874 3.86729 5.12797 3.89219ZM10.3367 4.25313C10.2906 4.11129 10.19 3.99359 10.0571 3.9259C9.92417 3.85822 9.76982 3.84609 9.62797 3.89219L8.9375 4.11625V3.39062C8.9375 3.24144 8.87824 3.09837 8.77275 2.99288C8.66726 2.88739 8.52418 2.82812 8.375 2.82812C8.22582 2.82812 8.08274 2.88739 7.97725 2.99288C7.87176 3.09837 7.8125 3.24144 7.8125 3.39062V4.11625L7.12203 3.89219C7.05126 3.86729 6.97623 3.85681 6.90135 3.86134C6.82647 3.86588 6.75325 3.88535 6.68601 3.91861C6.61877 3.95186 6.55885 3.99823 6.5098 4.05499C6.46074 4.11174 6.42354 4.17774 6.40037 4.24909C6.3772 4.32044 6.36854 4.39571 6.37489 4.47045C6.38125 4.5452 6.40249 4.61792 6.43737 4.68434C6.47224 4.75076 6.52006 4.80953 6.57799 4.85719C6.63592 4.90485 6.7028 4.94045 6.77469 4.96187L7.46469 5.18641L7.03813 5.77328C6.95042 5.894 6.91426 6.04461 6.93759 6.19199C6.96093 6.33936 7.04186 6.47143 7.16258 6.55914C7.28329 6.64685 7.43391 6.68301 7.58128 6.65967C7.72866 6.63633 7.86073 6.5554 7.94844 6.43469L8.375 5.84781L8.80156 6.43469C8.84499 6.49446 8.89977 6.54509 8.96276 6.58369C9.02576 6.6223 9.09574 6.64811 9.16872 6.65967C9.24169 6.67123 9.31623 6.6683 9.38807 6.65105C9.45991 6.6338 9.52765 6.60257 9.58742 6.55914C9.64719 6.51571 9.69783 6.46094 9.73643 6.39794C9.77503 6.33494 9.80085 6.26496 9.8124 6.19199C9.82396 6.11901 9.82103 6.04448 9.80378 5.97264C9.78653 5.90079 9.7553 5.83305 9.71187 5.77328L9.28531 5.18641L9.97531 4.96187C10.0456 4.93907 10.1107 4.90265 10.1669 4.8547C10.2231 4.80674 10.2693 4.74818 10.3028 4.68236C10.3364 4.61654 10.3567 4.54476 10.3625 4.47111C10.3683 4.39747 10.3595 4.32339 10.3367 4.25313Z" fill="currentColor"/>
</svg>
