<svg width="11" height="11" viewBox="0 0 11 11" fill="none" xmlns="http://www.w3.org/2000/svg">
<path d="M9.78782 3.30658L7.69344 1.21173C7.60638 1.12464 7.50302 1.05555 7.38925 1.00841C7.27548 0.961273 7.15354 0.937012 7.0304 0.937012C6.90725 0.937012 6.78531 0.961273 6.67154 1.00841C6.55777 1.05555 6.45441 1.12464 6.36735 1.21173L0.587191 6.99236C0.499817 7.07916 0.430545 7.18245 0.383393 7.29622C0.33624 7.41 0.312145 7.53201 0.312504 7.65517V9.75001C0.312504 9.99865 0.411276 10.2371 0.587091 10.4129C0.762907 10.5887 1.00136 10.6875 1.25 10.6875H3.34485C3.46801 10.6878 3.59001 10.6637 3.70378 10.6166C3.81755 10.5694 3.92084 10.5002 4.00766 10.4128L9.78782 4.6322C9.96357 4.45639 10.0623 4.21798 10.0623 3.96939C10.0623 3.7208 9.96357 3.48238 9.78782 3.30658ZM3.26563 9.56251H1.4375V7.73439L5.375 3.79689L7.20313 5.62501L3.26563 9.56251ZM8 4.82814L6.17188 3.00001L7.03157 2.14033L8.85969 3.96845L8 4.82814Z" fill="#2D2D2D"/>
</svg>
