<svg width="17" height="16" viewBox="0 0 17 16" fill="none" xmlns="http://www.w3.org/2000/svg">
<path d="M14.3281 8C14.3281 8.19891 14.2491 8.38968 14.1085 8.53033C13.9678 8.67098 13.777 8.75 13.5781 8.75H8.82812V13.5C8.82812 13.6989 8.74911 13.8897 8.60845 14.0303C8.4678 14.171 8.27704 14.25 8.07812 14.25C7.87921 14.25 7.68845 14.171 7.54779 14.0303C7.40714 13.8897 7.32812 13.6989 7.32812 13.5V8.75H2.57812C2.37921 8.75 2.18845 8.67098 2.04779 8.53033C1.90714 8.38968 1.82812 8.19891 1.82812 8C1.82812 7.80109 1.90714 7.61032 2.04779 7.46967C2.18845 7.32902 2.37921 7.25 2.57812 7.25H7.32812V2.5C7.32812 2.30109 7.40714 2.11032 7.54779 1.96967C7.68845 1.82902 7.87921 1.75 8.07812 1.75C8.27704 1.75 8.4678 1.82902 8.60845 1.96967C8.74911 2.11032 8.82812 2.30109 8.82812 2.5V7.25H13.5781C13.777 7.25 13.9678 7.32902 14.1085 7.46967C14.2491 7.61032 14.3281 7.80109 14.3281 8Z" fill="currentColor"/>
</svg>
