<svg width="20" height="17" viewBox="0 0 20 17" fill="none" xmlns="http://www.w3.org/2000/svg">
<path d="M16.7711 4.08008H15.9375V1.89258C15.9375 1.64394 15.8387 1.40548 15.6629 1.22967C15.4871 1.05385 15.2486 0.955078 15 0.955078H5C4.75136 0.955078 4.5129 1.05385 4.33709 1.22967C4.16127 1.40548 4.0625 1.64394 4.0625 1.89258V4.08008H3.22891C1.96563 4.08008 0.9375 5.06133 0.9375 6.26758V12.5176C0.9375 12.7662 1.03627 13.0047 1.21209 13.1805C1.3879 13.3563 1.62636 13.4551 1.875 13.4551H4.0625V15.6426C4.0625 15.8912 4.16127 16.1297 4.33709 16.3055C4.5129 16.4813 4.75136 16.5801 5 16.5801H15C15.2486 16.5801 15.4871 16.4813 15.6629 16.3055C15.8387 16.1297 15.9375 15.8912 15.9375 15.6426V13.4551H18.125C18.3736 13.4551 18.6121 13.3563 18.7879 13.1805C18.9637 13.0047 19.0625 12.7662 19.0625 12.5176V6.26758C19.0625 5.06133 18.0344 4.08008 16.7711 4.08008ZM5.9375 2.83008H14.0625V4.08008H5.9375V2.83008ZM14.0625 14.7051H5.9375V12.2051H14.0625V14.7051ZM17.1875 11.5801H15.9375V11.2676C15.9375 11.0189 15.8387 10.7805 15.6629 10.6047C15.4871 10.4289 15.2486 10.3301 15 10.3301H5C4.75136 10.3301 4.5129 10.4289 4.33709 10.6047C4.16127 10.7805 4.0625 11.0189 4.0625 11.2676V11.5801H2.8125V6.26758C2.8125 6.09805 3.00313 5.95508 3.22891 5.95508H16.7711C16.9969 5.95508 17.1875 6.09805 17.1875 6.26758V11.5801ZM15.9375 8.14258C15.9375 8.3898 15.8642 8.63148 15.7268 8.83704C15.5895 9.0426 15.3943 9.20282 15.1659 9.29743C14.9374 9.39204 14.6861 9.41679 14.4436 9.36856C14.2012 9.32033 13.9784 9.20128 13.8036 9.02646C13.6288 8.85165 13.5097 8.62892 13.4615 8.38644C13.4133 8.14396 13.438 7.89263 13.5326 7.66422C13.6273 7.43582 13.7875 7.24059 13.993 7.10324C14.1986 6.96589 14.4403 6.89258 14.6875 6.89258C15.019 6.89258 15.337 7.02427 15.5714 7.25869C15.8058 7.49312 15.9375 7.81106 15.9375 8.14258Z" fill="currentColor"/>
</svg>
