<svg width="19" height="14" viewBox="0 0 19 14" fill="none" xmlns="http://www.w3.org/2000/svg">
<path d="M3.375 7.625C3.375 7.79076 3.30915 7.94973 3.19194 8.06694C3.07473 8.18415 2.91576 8.25 2.75 8.25H0.875C0.70924 8.25 0.550268 8.18415 0.433058 8.06694C0.315848 7.94973 0.25 7.79076 0.25 7.625C0.25 7.45924 0.315848 7.30027 0.433058 7.18306C0.550268 7.06585 0.70924 7 0.875 7H1.5V2H0.875C0.70924 2 0.550268 1.93415 0.433058 1.81694C0.315848 1.69973 0.25 1.54076 0.25 1.375C0.25 1.20924 0.315848 1.05027 0.433058 0.933059C0.550268 0.815848 0.70924 0.75 0.875 0.75H2.125C2.2308 0.749887 2.33491 0.776636 2.42755 0.82774C2.52019 0.878845 2.59835 0.952632 2.65469 1.04219L5.25 5.19609L7.84531 1.04375C7.90147 0.953904 7.97954 0.879809 8.0722 0.828424C8.16485 0.777039 8.26905 0.750053 8.375 0.75H9.625C9.79076 0.75 9.94973 0.815848 10.0669 0.933059C10.1842 1.05027 10.25 1.20924 10.25 1.375C10.25 1.54076 10.1842 1.69973 10.0669 1.81694C9.94973 1.93415 9.79076 2 9.625 2H9V7H9.625C9.79076 7 9.94973 7.06585 10.0669 7.18306C10.1842 7.30027 10.25 7.45924 10.25 7.625C10.25 7.79076 10.1842 7.94973 10.0669 8.06694C9.94973 8.18415 9.79076 8.25 9.625 8.25H7.75C7.58424 8.25 7.42527 8.18415 7.30806 8.06694C7.19085 7.94973 7.125 7.79076 7.125 7.625C7.125 7.45924 7.19085 7.30027 7.30806 7.18306C7.42527 7.06585 7.58424 7 7.75 7V3.55391L5.77969 6.70625C5.72347 6.796 5.64538 6.87 5.55272 6.9213C5.46007 6.97259 5.3559 6.9995 5.25 6.9995C5.1441 6.9995 5.03993 6.97259 4.94728 6.9213C4.85462 6.87 4.77653 6.796 4.72031 6.70625L2.75 3.55391V7C2.91576 7 3.07473 7.06585 3.19194 7.18306C3.30915 7.30027 3.375 7.45924 3.375 7.625ZM12.125 5.75H17.75C17.9158 5.75 18.0747 5.68415 18.1919 5.56694C18.3092 5.44973 18.375 5.29076 18.375 5.125C18.375 4.95924 18.3092 4.80027 18.1919 4.68306C18.0747 4.56585 17.9158 4.5 17.75 4.5H12.125C11.9592 4.5 11.8003 4.56585 11.6831 4.68306C11.5658 4.80027 11.5 4.95924 11.5 5.125C11.5 5.29076 11.5658 5.44973 11.6831 5.56694C11.8003 5.68415 11.9592 5.75 12.125 5.75ZM17.75 7H12.125C11.9592 7 11.8003 7.06585 11.6831 7.18306C11.5658 7.30027 11.5 7.45924 11.5 7.625C11.5 7.79076 11.5658 7.94973 11.6831 8.06694C11.8003 8.18415 11.9592 8.25 12.125 8.25H17.75C17.9158 8.25 18.0747 8.18415 18.1919 8.06694C18.3092 7.94973 18.375 7.79076 18.375 7.625C18.375 7.45924 18.3092 7.30027 18.1919 7.18306C18.0747 7.06585 17.9158 7 17.75 7ZM17.75 9.5H4.625C4.45924 9.5 4.30027 9.56585 4.18306 9.68306C4.06585 9.80027 4 9.95924 4 10.125C4 10.2908 4.06585 10.4497 4.18306 10.5669C4.30027 10.6842 4.45924 10.75 4.625 10.75H17.75C17.9158 10.75 18.0747 10.6842 18.1919 10.5669C18.3092 10.4497 18.375 10.2908 18.375 10.125C18.375 9.95924 18.3092 9.80027 18.1919 9.68306C18.0747 9.56585 17.9158 9.5 17.75 9.5ZM17.75 12H4.625C4.45924 12 4.30027 12.0658 4.18306 12.1831C4.06585 12.3003 4 12.4592 4 12.625C4 12.7908 4.06585 12.9497 4.18306 13.0669C4.30027 13.1842 4.45924 13.25 4.625 13.25H17.75C17.9158 13.25 18.0747 13.1842 18.1919 13.0669C18.3092 12.9497 18.375 12.7908 18.375 12.625C18.375 12.4592 18.3092 12.3003 18.1919 12.1831C18.0747 12.0658 17.9158 12 17.75 12Z" fill="currentColor"/>
</svg>
