<svg width="11" height="9" viewBox="0 0 11 9" fill="currentColor" xmlns="http://www.w3.org/2000/svg">
<path d="M9.25 0.204468H6.75C6.51573 0.204393 6.28393 0.252365 6.06893 0.34542C5.85393 0.438474 5.6603 0.574634 5.5 0.745483C5.3397 0.574634 5.14607 0.438474 4.93107 0.34542C4.71607 0.252365 4.48427 0.204393 4.25 0.204468H1.75C1.5428 0.204468 1.34409 0.286778 1.19757 0.433291C1.05106 0.579803 0.96875 0.778517 0.96875 0.985718V5.98572C0.96875 6.19292 1.05106 6.39163 1.19757 6.53815C1.34409 6.68466 1.5428 6.76697 1.75 6.76697H4.25C4.4572 6.76697 4.65591 6.84928 4.80243 6.99579C4.94894 7.1423 5.03125 7.34102 5.03125 7.54822C5.03125 7.67254 5.08064 7.79177 5.16854 7.87967C5.25645 7.96758 5.37568 8.01697 5.5 8.01697C5.62432 8.01697 5.74355 7.96758 5.83146 7.87967C5.91936 7.79177 5.96875 7.67254 5.96875 7.54822C5.96875 7.34102 6.05106 7.1423 6.19757 6.99579C6.34409 6.84928 6.5428 6.76697 6.75 6.76697H9.25C9.4572 6.76697 9.65591 6.68466 9.80243 6.53815C9.94894 6.39163 10.0312 6.19292 10.0312 5.98572V0.985718C10.0312 0.778517 9.94894 0.579803 9.80243 0.433291C9.65591 0.286778 9.4572 0.204468 9.25 0.204468ZM4.25 5.82947H1.90625V1.14197H4.25C4.4572 1.14197 4.65591 1.22428 4.80243 1.37079C4.94894 1.5173 5.03125 1.71602 5.03125 1.92322V6.01736C4.78945 5.89358 4.52164 5.82918 4.25 5.82947ZM9.09375 5.82947H6.75C6.47828 5.8293 6.21044 5.89398 5.96875 6.01814V1.92322C5.96875 1.71602 6.05106 1.5173 6.19757 1.37079C6.34409 1.22428 6.5428 1.14197 6.75 1.14197H9.09375V5.82947ZM6.90625 2.23572H8.15625C8.28057 2.23572 8.3998 2.2851 8.48771 2.37301C8.57561 2.46092 8.625 2.58015 8.625 2.70447C8.625 2.82879 8.57561 2.94802 8.48771 3.03592C8.3998 3.12383 8.28057 3.17322 8.15625 3.17322H6.90625C6.78193 3.17322 6.6627 3.12383 6.57479 3.03592C6.48689 2.94802 6.4375 2.82879 6.4375 2.70447C6.4375 2.58015 6.48689 2.46092 6.57479 2.37301C6.6627 2.2851 6.78193 2.23572 6.90625 2.23572ZM8.625 4.26697C8.625 4.39129 8.57561 4.51052 8.48771 4.59842C8.3998 4.68633 8.28057 4.73572 8.15625 4.73572H6.90625C6.78193 4.73572 6.6627 4.68633 6.57479 4.59842C6.48689 4.51052 6.4375 4.39129 6.4375 4.26697C6.4375 4.14265 6.48689 4.02342 6.57479 3.93551C6.6627 3.8476 6.78193 3.79822 6.90625 3.79822H8.15625C8.28057 3.79822 8.3998 3.8476 8.48771 3.93551C8.57561 4.02342 8.625 4.14265 8.625 4.26697Z" fill="CurrentColor"/>
</svg>
