<svg width="14" height="13" viewBox="0 0 14 13" fill="none" xmlns="http://www.w3.org/2000/svg">
<path d="M11.5306 9.96937C11.6005 10.0391 11.656 10.1218 11.6939 10.213C11.7317 10.3042 11.7512 10.4019 11.7512 10.5006C11.7512 10.5993 11.7317 10.6971 11.6939 10.7882C11.656 10.8794 11.6005 10.9622 11.5306 11.0319C11.46 11.1019 9.78063 12.7513 7 12.7513C4.89313 12.7513 3.29063 11.66 2.25 10.635V11.5C2.25 11.6989 2.17098 11.8897 2.03033 12.0303C1.88968 12.171 1.69891 12.25 1.5 12.25C1.30109 12.25 1.11032 12.171 0.96967 12.0303C0.829018 11.8897 0.75 11.6989 0.75 11.5V8.5C0.75 8.30109 0.829018 8.11032 0.96967 7.96967C1.11032 7.82902 1.30109 7.75 1.5 7.75H4.5C4.69891 7.75 4.88968 7.82902 5.03033 7.96967C5.17098 8.11032 5.25 8.30109 5.25 8.5C5.25 8.69891 5.17098 8.88968 5.03033 9.03033C4.88968 9.17098 4.69891 9.25 4.5 9.25H3.0075C3.82625 10.145 5.2 11.25 7 11.25C9.16438 11.25 10.4569 9.9825 10.4694 9.96937C10.539 9.89964 10.6217 9.84432 10.7128 9.80658C10.8038 9.76884 10.9014 9.74941 11 9.74941C11.0986 9.74941 11.1962 9.76884 11.2872 9.80658C11.3783 9.84432 11.461 9.89964 11.5306 9.96937ZM12.5 0.75C12.3011 0.75 12.1103 0.829018 11.9697 0.96967C11.829 1.11032 11.75 1.30109 11.75 1.5V2.36625C10.7094 1.34125 9.10687 0.25 7 0.25C4.22125 0.25 2.54 1.89937 2.46937 1.96937C2.32848 2.11027 2.24932 2.30137 2.24932 2.50063C2.24932 2.69988 2.32848 2.89098 2.46937 3.03188C2.61027 3.17277 2.80137 3.25193 3.00063 3.25193C3.19988 3.25193 3.39098 3.17277 3.53188 3.03188C3.54313 3.0175 4.83562 1.75 7 1.75C8.8 1.75 10.1737 2.855 10.9925 3.75H9.5C9.30109 3.75 9.11032 3.82902 8.96967 3.96967C8.82902 4.11032 8.75 4.30109 8.75 4.5C8.75 4.69891 8.82902 4.88968 8.96967 5.03033C9.11032 5.17098 9.30109 5.25 9.5 5.25H12.5C12.6989 5.25 12.8897 5.17098 13.0303 5.03033C13.171 4.88968 13.25 4.69891 13.25 4.5V1.5C13.25 1.30109 13.171 1.11032 13.0303 0.96967C12.8897 0.829018 12.6989 0.75 12.5 0.75Z" fill="currentColor"/>
</svg>
