<svg width="10" height="11" viewBox="0 0 10 11" fill="none" xmlns="http://www.w3.org/2000/svg">
<g clip-path="url(#clip0_142_7376)">
<path d="M2.79336 3.94236C2.7053 3.8543 2.65583 3.73486 2.65583 3.61033C2.65583 3.48579 2.7053 3.36636 2.79336 3.2783C2.88142 3.19024 3.00085 3.14076 3.12539 3.14076C3.24993 3.14076 3.36936 3.19024 3.45742 3.2783L4.53125 4.35291V1.42322C4.53125 1.2989 4.58064 1.17967 4.66854 1.09176C4.75645 1.00385 4.87568 0.954468 5 0.954468C5.12432 0.954468 5.24355 1.00385 5.33146 1.09176C5.41936 1.17967 5.46875 1.2989 5.46875 1.42322V4.35291L6.54336 3.27791C6.63142 3.18985 6.75085 3.14037 6.87539 3.14037C6.99993 3.14037 7.11936 3.18985 7.20742 3.27791C7.29548 3.36597 7.34495 3.4854 7.34495 3.60994C7.34495 3.73447 7.29548 3.85391 7.20742 3.94197L5.33242 5.81697C5.28887 5.86067 5.23713 5.89534 5.18015 5.919C5.12317 5.94266 5.06208 5.95484 5.00039 5.95484C4.9387 5.95484 4.87761 5.94266 4.82063 5.919C4.76365 5.89534 4.71191 5.86067 4.66836 5.81697L2.79336 3.94236ZM8.75 5.01697H7.34375C7.21943 5.01697 7.1002 5.06635 7.01229 5.15426C6.92439 5.24217 6.875 5.3614 6.875 5.48572C6.875 5.61004 6.92439 5.72927 7.01229 5.81717C7.1002 5.90508 7.21943 5.95447 7.34375 5.95447H8.59375V8.14197H1.40625V5.95447H2.65625C2.78057 5.95447 2.8998 5.90508 2.98771 5.81717C3.07561 5.72927 3.125 5.61004 3.125 5.48572C3.125 5.3614 3.07561 5.24217 2.98771 5.15426C2.8998 5.06635 2.78057 5.01697 2.65625 5.01697H1.25C1.0428 5.01697 0.844086 5.09928 0.697573 5.24579C0.55106 5.3923 0.46875 5.59102 0.46875 5.79822V8.29822C0.46875 8.50542 0.55106 8.70413 0.697573 8.85065C0.844086 8.99716 1.0428 9.07947 1.25 9.07947H8.75C8.9572 9.07947 9.15591 8.99716 9.30243 8.85065C9.44894 8.70413 9.53125 8.50542 9.53125 8.29822V5.79822C9.53125 5.59102 9.44894 5.3923 9.30243 5.24579C9.15591 5.09928 8.9572 5.01697 8.75 5.01697ZM7.96875 7.04822C7.96875 6.9246 7.93209 6.80377 7.86342 6.70099C7.79474 6.59821 7.69713 6.5181 7.58293 6.47079C7.46872 6.42349 7.34306 6.41111 7.22182 6.43523C7.10058 6.45934 6.98922 6.51887 6.90181 6.60628C6.8144 6.69368 6.75487 6.80505 6.73076 6.92629C6.70664 7.04752 6.71902 7.17319 6.76632 7.2874C6.81363 7.4016 6.89374 7.49921 6.99652 7.56789C7.0993 7.63656 7.22014 7.67322 7.34375 7.67322C7.50951 7.67322 7.66848 7.60737 7.78569 7.49016C7.9029 7.37295 7.96875 7.21398 7.96875 7.04822Z" fill="#1053C8"/>
</g>
<defs>
<clipPath id="clip0_142_7376">
<rect width="10" height="10" fill="CurrentColor" transform="translate(0 0.485718)"/>
</clipPath>
</defs>
</svg>
