<svg width="20" height="18" viewBox="0 0 20 18" fill="none" xmlns="http://www.w3.org/2000/svg">
<path d="M18.25 0.75H1.75C1.35218 0.75 0.970644 0.908035 0.68934 1.18934C0.408035 1.47064 0.25 1.85218 0.25 2.25V15.75C0.25 16.1478 0.408035 16.5294 0.68934 16.8107C0.970644 17.092 1.35218 17.25 1.75 17.25H18.25C18.6478 17.25 19.0294 17.092 19.3107 16.8107C19.592 16.5294 19.75 16.1478 19.75 15.75V2.25C19.75 1.85218 19.592 1.47064 19.3107 1.18934C19.0294 0.908035 18.6478 0.75 18.25 0.75ZM18.25 15.75H1.75V2.25H18.25V15.75ZM15.25 6C15.25 6.19891 15.171 6.38968 15.0303 6.53033C14.8897 6.67098 14.6989 6.75 14.5 6.75H5.5C5.30109 6.75 5.11032 6.67098 4.96967 6.53033C4.82902 6.38968 4.75 6.19891 4.75 6C4.75 5.80109 4.82902 5.61032 4.96967 5.46967C5.11032 5.32902 5.30109 5.25 5.5 5.25H14.5C14.6989 5.25 14.8897 5.32902 15.0303 5.46967C15.171 5.61032 15.25 5.80109 15.25 6ZM15.25 9C15.25 9.19891 15.171 9.38968 15.0303 9.53033C14.8897 9.67098 14.6989 9.75 14.5 9.75H5.5C5.30109 9.75 5.11032 9.67098 4.96967 9.53033C4.82902 9.38968 4.75 9.19891 4.75 9C4.75 8.80109 4.82902 8.61032 4.96967 8.46967C5.11032 8.32902 5.30109 8.25 5.5 8.25H14.5C14.6989 8.25 14.8897 8.32902 15.0303 8.46967C15.171 8.61032 15.25 8.80109 15.25 9ZM15.25 12C15.25 12.1989 15.171 12.3897 15.0303 12.5303C14.8897 12.671 14.6989 12.75 14.5 12.75H5.5C5.30109 12.75 5.11032 12.671 4.96967 12.5303C4.82902 12.3897 4.75 12.1989 4.75 12C4.75 11.8011 4.82902 11.6103 4.96967 11.4697C5.11032 11.329 5.30109 11.25 5.5 11.25H14.5C14.6989 11.25 14.8897 11.329 15.0303 11.4697C15.171 11.6103 15.25 11.8011 15.25 12Z" fill="currentColor"/>
</svg>
