<svg width="24" height="30" viewBox="0 0 24 30" fill="none" xmlns="http://www.w3.org/2000/svg">
<path fill-rule="evenodd" clip-rule="evenodd" d="M15.2233 23.5001H5.28748C4.71776 23.5001 4.25537 23.0801 4.25537 22.5626C4.25537 22.0451 4.71776 21.6251 5.28748 21.6251H15.2233C15.793 21.6251 16.2554 22.0451 16.2554 22.5626C16.2554 23.0801 15.793 23.5001 15.2233 23.5001Z" fill="CurrenColor"/>
<path fill-rule="evenodd" clip-rule="evenodd" d="M14.9684 18.6251H5.0326C4.46287 18.6251 4.00049 18.2051 4.00049 17.6876C4.00049 17.1701 4.46287 16.7501 5.0326 16.7501H14.9684C15.5381 16.7501 16.0005 17.1701 16.0005 17.6876C16.0005 18.2051 15.5381 18.6251 14.9684 18.6251Z" fill="CurrentColor"/>
<path fill-rule="evenodd" clip-rule="evenodd" d="M14.9684 13.7501H5.0326C4.46287 13.7501 4.00049 13.3301 4.00049 12.8126C4.00049 12.2951 4.46287 11.8751 5.0326 11.8751H14.9684C15.5381 11.8751 16.0005 12.2951 16.0005 12.8126C16.0005 13.3301 15.5381 13.7501 14.9684 13.7501Z" fill="CurrentColor"/>
<path fill-rule="evenodd" clip-rule="evenodd" d="M8.94291 8.87506H5.05807C4.47428 8.87506 4.00049 8.45506 4.00049 7.93756C4.00049 7.42006 4.47428 7.00006 5.05807 7.00006H8.94291C9.52669 7.00006 10.0005 7.42006 10.0005 7.93756C10.0005 8.45506 9.52669 8.87506 8.94291 8.87506Z" fill="CurrentColor"/>
<path d="M19.0288 23.0286C19.0632 22.9942 19.117 22.9911 19.1548 23.0192L19.1657 23.0286L20.0005 23.8633L20.8353 23.0286C20.8696 22.9942 20.9234 22.9911 20.9613 23.0192L20.9721 23.0286C21.0065 23.0629 21.0096 23.1167 20.9815 23.1546L20.9721 23.1654L20.0689 24.0686C20.0346 24.103 19.9808 24.1061 19.9429 24.078L19.9321 24.0686L19.0288 23.1654C18.991 23.1276 18.991 23.0664 19.0288 23.0286Z" fill="CurrentColor" stroke="CurrentColor" stroke-width="0.75"/>
<path d="M20.0005 9.00009L20.0005 21.0001" stroke="CurrentColor" stroke-linecap="round"/>
<path d="M20.9721 7.09684C20.9378 7.1312 20.884 7.13432 20.8461 7.10621L20.8353 7.09684L20.0005 6.26209L19.1657 7.09684C19.1313 7.1312 19.0776 7.13432 19.0397 7.10621L19.0288 7.09684C18.9945 7.06248 18.9914 7.00872 19.0195 6.97083L19.0288 6.95998L19.9321 6.05675C19.9664 6.0224 20.0202 6.01927 20.0581 6.04738L20.0689 6.05675L20.9721 6.95998C21.0099 6.99777 21.0099 7.05905 20.9721 7.09684Z" fill="CurrentColor" stroke="CurrentColor" stroke-width="0.75"/>
</svg>
