<svg width="22" height="18" viewBox="0 0 22 18" fill="none" xmlns="http://www.w3.org/2000/svg">
<path d="M9 6.75C9 6.55109 9.07902 6.36032 9.21967 6.21967C9.36032 6.07902 9.55109 6 9.75 6H15.75C15.9489 6 16.1397 6.07902 16.2803 6.21967C16.421 6.36032 16.5 6.55109 16.5 6.75C16.5 6.94891 16.421 7.13968 16.2803 7.28033C16.1397 7.42098 15.9489 7.5 15.75 7.5H9.75C9.55109 7.5 9.36032 7.42098 9.21967 7.28033C9.07902 7.13968 9 6.94891 9 6.75ZM9.75 10.5H15.75C15.9489 10.5 16.1397 10.421 16.2803 10.2803C16.421 10.1397 16.5 9.94891 16.5 9.75C16.5 9.55109 16.421 9.36032 16.2803 9.21967C16.1397 9.07902 15.9489 9 15.75 9H9.75C9.55109 9 9.36032 9.07902 9.21967 9.21967C9.07902 9.36032 9 9.55109 9 9.75C9 9.94891 9.07902 10.1397 9.21967 10.2803C9.36032 10.421 9.55109 10.5 9.75 10.5ZM21.75 15C21.75 15.7956 21.4339 16.5587 20.8713 17.1213C20.3087 17.6839 19.5456 18 18.75 18H8.25C7.45435 18 6.69129 17.6839 6.12868 17.1213C5.56607 16.5587 5.25 15.7956 5.25 15V3C5.25 2.60218 5.09196 2.22064 4.81066 1.93934C4.52936 1.65804 4.14782 1.5 3.75 1.5C3.35218 1.5 2.97064 1.65804 2.68934 1.93934C2.40804 2.22064 2.25 2.60218 2.25 3C2.25 3.53813 2.70281 3.90188 2.7075 3.90563C2.83163 4.00115 2.92273 4.13313 2.96804 4.28306C3.01334 4.43299 3.01057 4.59335 2.96011 4.74162C2.90965 4.8899 2.81404 5.01866 2.68668 5.10983C2.55933 5.201 2.40663 5.25002 2.25 5.25C2.08781 5.25028 1.93003 5.19725 1.80094 5.09906C1.69219 5.01937 0.75 4.27594 0.75 3C0.75 2.20435 1.06607 1.44129 1.62868 0.87868C2.19129 0.31607 2.95435 0 3.75 0H16.5C17.2956 0 18.0587 0.31607 18.6213 0.87868C19.1839 1.44129 19.5 2.20435 19.5 3V12.75H20.25C20.4123 12.75 20.5702 12.8026 20.7 12.9C20.8125 12.9806 21.75 13.7241 21.75 15ZM9.02437 13.2638C9.07562 13.1125 9.17342 12.9813 9.30376 12.889C9.4341 12.7968 9.59031 12.7481 9.75 12.75H18V3C18 2.60218 17.842 2.22064 17.5607 1.93934C17.2794 1.65804 16.8978 1.5 16.5 1.5H6.34594C6.61119 1.95535 6.75064 2.47302 6.75 3V15C6.75 15.3978 6.90804 15.7794 7.18934 16.0607C7.47064 16.342 7.85218 16.5 8.25 16.5C8.64782 16.5 9.02936 16.342 9.31066 16.0607C9.59196 15.7794 9.75 15.3978 9.75 15C9.75 14.4619 9.29719 14.0981 9.2925 14.0944C9.16469 14.0029 9.06963 13.8729 9.02136 13.7233C8.97308 13.5738 8.97414 13.4127 9.02437 13.2638ZM20.25 15C20.2406 14.7221 20.1334 14.4565 19.9472 14.25H11.1347C11.2101 14.4929 11.2483 14.7457 11.2481 15C11.2488 15.5267 11.1101 16.0443 10.8459 16.5H18.75C19.1478 16.5 19.5294 16.342 19.8107 16.0607C20.092 15.7794 20.25 15.3978 20.25 15Z" fill="CurrentColor"/>
</svg>
