<svg width="20" height="14" viewBox="0 0 20 14" fill="none" xmlns="http://www.w3.org/2000/svg">
<path d="M0 0.75C0 0.551088 0.0790178 0.360322 0.21967 0.21967C0.360322 0.0790178 0.551088 0 0.75 0H17.25C17.4489 0 17.6397 0.0790178 17.7803 0.21967C17.921 0.360322 18 0.551088 18 0.75C18 0.948912 17.921 1.13968 17.7803 1.28033C17.6397 1.42098 17.4489 1.5 17.25 1.5H0.75C0.551088 1.5 0.360322 1.42098 0.21967 1.28033C0.0790178 1.13968 0 0.948912 0 0.75ZM0.75 7.5H7.5C7.69891 7.5 7.88968 7.42098 8.03033 7.28033C8.17098 7.13968 8.25 6.94891 8.25 6.75C8.25 6.55109 8.17098 6.36032 8.03033 6.21967C7.88968 6.07902 7.69891 6 7.5 6H0.75C0.551088 6 0.360322 6.07902 0.21967 6.21967C0.0790178 6.36032 0 6.55109 0 6.75C0 6.94891 0.0790178 7.13968 0.21967 7.28033C0.360322 7.42098 0.551088 7.5 0.75 7.5ZM9 12H0.75C0.551088 12 0.360322 12.079 0.21967 12.2197C0.0790178 12.3603 0 12.5511 0 12.75C0 12.9489 0.0790178 13.1397 0.21967 13.2803C0.360322 13.421 0.551088 13.5 0.75 13.5H9C9.19891 13.5 9.38968 13.421 9.53033 13.2803C9.67098 13.1397 9.75 12.9489 9.75 12.75C9.75 12.5511 9.67098 12.3603 9.53033 12.2197C9.38968 12.079 9.19891 12 9 12ZM19.2806 13.2806C19.211 13.3504 19.1283 13.4057 19.0372 13.4434C18.9462 13.4812 18.8486 13.5006 18.75 13.5006C18.6514 13.5006 18.5538 13.4812 18.4628 13.4434C18.3717 13.4057 18.289 13.3504 18.2194 13.2806L16.3125 11.3775C15.537 11.8891 14.5993 12.0947 13.6809 11.9543C12.7625 11.814 11.9289 11.3377 11.3416 10.6179C10.7544 9.89799 10.4552 8.98574 10.5022 8.05789C10.5491 7.13004 10.9388 6.25265 11.5957 5.59572C12.2526 4.93879 13.13 4.5491 14.0579 4.50216C14.9857 4.45522 15.898 4.75437 16.6179 5.34164C17.3377 5.92891 17.814 6.7625 17.9543 7.68088C18.0947 8.59925 17.8891 9.53703 17.3775 10.3125L19.2806 12.2156C19.3509 12.2853 19.4067 12.3683 19.4448 12.4597C19.4829 12.5511 19.5025 12.6491 19.5025 12.7481C19.5025 12.8471 19.4829 12.9452 19.4448 13.0366C19.4067 13.128 19.3509 13.2109 19.2806 13.2806ZM14.25 10.5C14.695 10.5 15.13 10.368 15.5 10.1208C15.87 9.87357 16.1584 9.52217 16.3287 9.11104C16.499 8.6999 16.5436 8.2475 16.4568 7.81105C16.37 7.37459 16.1557 6.97368 15.841 6.65901C15.5263 6.34434 15.1254 6.13005 14.689 6.04323C14.2525 5.95642 13.8001 6.00097 13.389 6.17127C12.9778 6.34157 12.6264 6.62996 12.3792 6.99997C12.132 7.36998 12 7.80499 12 8.25C12 8.84674 12.2371 9.41903 12.659 9.84099C13.081 10.2629 13.6533 10.5 14.25 10.5Z" fill="currentColor"/>
</svg>
