<svg width="18" height="17" viewBox="0 0 18 17" fill="none" xmlns="http://www.w3.org/2000/svg">
<path d="M12.125 7.51757C12.125 7.68333 12.0592 7.8423 11.9419 7.95951C11.8247 8.07672 11.6658 8.14257 11.5 8.14257H6.5C6.33424 8.14257 6.17527 8.07672 6.05806 7.95951C5.94085 7.8423 5.875 7.68333 5.875 7.51757C5.875 7.35181 5.94085 7.19284 6.05806 7.07563C6.17527 6.95842 6.33424 6.89257 6.5 6.89257H11.5C11.6658 6.89257 11.8247 6.95842 11.9419 7.07563C12.0592 7.19284 12.125 7.35181 12.125 7.51757ZM11.5 9.39257H6.5C6.33424 9.39257 6.17527 9.45842 6.05806 9.57563C5.94085 9.69284 5.875 9.85181 5.875 10.0176C5.875 10.1833 5.94085 10.3423 6.05806 10.4595C6.17527 10.5767 6.33424 10.6426 6.5 10.6426H11.5C11.6658 10.6426 11.8247 10.5767 11.9419 10.4595C12.0592 10.3423 12.125 10.1833 12.125 10.0176C12.125 9.85181 12.0592 9.69284 11.9419 9.57563C11.8247 9.45842 11.6658 9.39257 11.5 9.39257ZM17.125 8.76757C17.1253 10.1703 16.7624 11.5493 16.0717 12.7702C15.381 13.9911 14.3859 15.0124 13.1834 15.7346C11.9808 16.4569 10.6118 16.8555 9.20948 16.8916C7.80719 16.9278 6.41942 16.6003 5.18125 15.941L2.52109 16.8277C2.30085 16.9012 2.0645 16.9118 1.83854 16.8585C1.61257 16.8052 1.40593 16.69 1.24176 16.5258C1.07759 16.3616 0.962386 16.155 0.909061 15.929C0.855735 15.7031 0.866394 15.4667 0.939844 15.2465L1.82656 12.5863C1.24699 11.4967 0.923279 10.2893 0.879998 9.05583C0.836717 7.82238 1.075 6.59528 1.57677 5.46768C2.07854 4.34007 2.8306 3.34159 3.77587 2.54803C4.72114 1.75448 5.83477 1.18669 7.03224 0.887787C8.22971 0.588879 9.47953 0.566702 10.6868 0.822938C11.8942 1.07917 13.0272 1.60709 14.0001 2.36661C14.9729 3.12613 15.7599 4.0973 16.3014 5.2064C16.8428 6.31549 17.1245 7.53336 17.125 8.76757ZM15.875 8.76757C15.8747 7.71298 15.6318 6.67259 15.1651 5.7269C14.6983 4.78121 14.0203 3.95557 13.1834 3.31385C12.3466 2.67213 11.3733 2.23153 10.3389 2.02616C9.30449 1.82078 8.23671 1.85612 7.21815 2.12944C6.1996 2.40277 5.25757 2.90676 4.46496 3.60241C3.67235 4.29806 3.0504 5.16673 2.64724 6.14121C2.24407 7.1157 2.07048 8.16987 2.13992 9.22217C2.20935 10.2745 2.51994 11.2967 3.04766 12.2098C3.09195 12.2864 3.11945 12.3716 3.12834 12.4597C3.13723 12.5478 3.1273 12.6367 3.09922 12.7207L2.125 15.6426L5.04688 14.6684C5.11052 14.6467 5.17729 14.6356 5.24453 14.6355C5.3543 14.6357 5.46208 14.6648 5.55703 14.7199C6.60219 15.3246 7.78817 15.6434 8.99566 15.6441C10.2031 15.6449 11.3895 15.3276 12.4354 14.7243C13.4814 14.1209 14.3499 13.2527 14.9537 12.207C15.5575 11.1613 15.8753 9.97506 15.875 8.76757Z" fill="currentColor"/>
</svg>
