<svg width="19" height="19" viewBox="0 0 19 19" fill="none" xmlns="http://www.w3.org/2000/svg">
<path d="M17.9798 0.787892C17.7834 0.591469 17.5382 0.450936 17.2695 0.380766C17.0008 0.310597 16.7182 0.313326 16.4509 0.388674L16.4337 0.394142L1.44072 4.93946C1.13665 5.02765 0.86654 5.20614 0.666176 5.45128C0.465811 5.69642 0.344644 5.99664 0.318723 6.31218C0.292802 6.62773 0.36335 6.9437 0.521023 7.21825C0.678696 7.4928 0.916054 7.71298 1.20166 7.84961L7.73447 11.0332L10.9149 17.5684C11.0404 17.8351 11.2393 18.0604 11.4884 18.2179C11.7376 18.3754 12.0265 18.4585 12.3212 18.4574C12.3657 18.4574 12.411 18.4574 12.4563 18.452C12.7727 18.4276 13.074 18.3066 13.3194 18.1054C13.5648 17.9042 13.7424 17.6325 13.8282 17.327L18.3735 2.33399C18.3758 2.32841 18.3776 2.32267 18.379 2.3168C18.4544 2.04947 18.4571 1.76689 18.3869 1.49816C18.3167 1.22943 18.1762 0.984256 17.9798 0.787892ZM12.2587 16.0387L9.57353 10.5199L13.1673 6.93008C13.2545 6.84287 13.3237 6.73935 13.3709 6.62541C13.4181 6.51147 13.4423 6.38935 13.4423 6.26602C13.4423 6.14269 13.4181 6.02057 13.3709 5.90663C13.3237 5.79269 13.2545 5.68916 13.1673 5.60196C13.0801 5.51475 12.9766 5.44557 12.8626 5.39838C12.7487 5.35118 12.6265 5.32689 12.5032 5.32689C12.3799 5.32689 12.2578 5.35118 12.1438 5.39838C12.0299 5.44557 11.9264 5.51475 11.8392 5.60196L8.24541 9.1957L2.729 6.50899L16.4063 2.36133L12.2587 16.0387Z" fill="CurrentColor"/>
</svg>
