<svg width="12" height="12" viewBox="0 0 12 12" fill="none" xmlns="http://www.w3.org/2000/svg">
<path d="M11.1684 9.63945L9.35328 1.00976C9.32981 0.896906 9.28426 0.789804 9.21927 0.694606C9.15428 0.599407 9.07112 0.517988 8.97457 0.455025C8.87802 0.392063 8.76997 0.348798 8.65665 0.327717C8.54333 0.306635 8.42695 0.308152 8.31422 0.33218L5.7543 0.882336C5.52786 0.931916 5.33016 1.06889 5.2042 1.26348C5.07823 1.45806 5.03418 1.69451 5.08164 1.9214L6.89672 10.5511C6.93717 10.748 7.04417 10.9249 7.19973 11.0522C7.3553 11.1795 7.54994 11.2493 7.75094 11.25C7.81307 11.2499 7.87502 11.2433 7.93578 11.2303L10.4957 10.6801C10.7224 10.6305 10.9203 10.4932 11.0463 10.2983C11.1723 10.1034 11.2162 9.86656 11.1684 9.63945ZM5.9375 1.74257C5.9375 1.73929 5.9375 1.73765 5.9375 1.73765L8.49688 1.19077L8.67898 2.05866L6.11961 2.60937L5.9375 1.74257ZM6.29953 3.46359L8.86 2.91398L9.04266 3.78351L6.48438 4.33366L6.29953 3.46359ZM6.66266 5.19007L9.22313 4.63991L9.95047 8.09835L7.39 8.64851L6.66266 5.19007ZM10.3125 9.82484L7.75312 10.3717L7.57102 9.50382L10.1304 8.95312L10.3125 9.81991C10.3125 9.8232 10.3125 9.82484 10.3125 9.82484ZM4.1875 0.749993H1.5625C1.33044 0.749993 1.10788 0.84218 0.943782 1.00627C0.779687 1.17037 0.6875 1.39293 0.6875 1.62499V10.375C0.6875 10.6071 0.779687 10.8296 0.943782 10.9937C1.10788 11.1578 1.33044 11.25 1.5625 11.25H4.1875C4.41956 11.25 4.64212 11.1578 4.80622 10.9937C4.97031 10.8296 5.0625 10.6071 5.0625 10.375V1.62499C5.0625 1.39293 4.97031 1.17037 4.80622 1.00627C4.64212 0.84218 4.41956 0.749993 4.1875 0.749993ZM1.5625 1.62499H4.1875V2.49999H1.5625V1.62499ZM1.5625 3.37499H4.1875V8.62499H1.5625V3.37499ZM4.1875 10.375H1.5625V9.49999H4.1875V10.375Z" fill="currentColor"/>
</svg>
