<svg width="17" height="13" viewBox="0 0 17 13" fill="none" xmlns="http://www.w3.org/2000/svg">
<path d="M16.1637 2.05585L6.16374 12.0559C6.07664 12.1433 5.97315 12.2126 5.85919 12.2599C5.74524 12.3072 5.62306 12.3316 5.49967 12.3316C5.37628 12.3316 5.25411 12.3072 5.14016 12.2599C5.0262 12.2126 4.92271 12.1433 4.83561 12.0559L0.460611 7.68085C0.373405 7.59364 0.304229 7.49012 0.257034 7.37618C0.209838 7.26224 0.185547 7.14012 0.185547 7.01679C0.185547 6.89346 0.209838 6.77134 0.257034 6.6574C0.304229 6.54346 0.373405 6.43993 0.460611 6.35273C0.547816 6.26552 0.651345 6.19634 0.765285 6.14915C0.879225 6.10195 1.00135 6.07766 1.12467 6.07766C1.248 6.07766 1.37012 6.10195 1.48406 6.14915C1.598 6.19634 1.70153 6.26552 1.78874 6.35273L5.50045 10.0644L14.8372 0.729287C15.0133 0.553167 15.2522 0.454224 15.5012 0.454224C15.7503 0.454224 15.9892 0.553167 16.1653 0.729287C16.3414 0.905407 16.4404 1.14428 16.4404 1.39335C16.4404 1.64242 16.3414 1.88129 16.1653 2.05741L16.1637 2.05585Z" fill="currentColor"/>
</svg>
