<svg width="16" height="13" viewBox="0 0 16 13" fill="currentColor" xmlns="http://www.w3.org/2000/svg">
<path d="M7 5.76758C7 5.93334 6.93415 6.09231 6.81694 6.20952C6.69973 6.32673 6.54076 6.39258 6.375 6.39258H0.75C0.58424 6.39258 0.425269 6.32673 0.308058 6.20952C0.190848 6.09231 0.125 5.93334 0.125 5.76758C0.125 5.60182 0.190848 5.44285 0.308058 5.32564C0.425269 5.20843 0.58424 5.14258 0.75 5.14258H6.375C6.54076 5.14258 6.69973 5.20843 6.81694 5.32564C6.93415 5.44285 7 5.60182 7 5.76758ZM0.75 1.39258H11.375C11.5408 1.39258 11.6997 1.32673 11.8169 1.20952C11.9342 1.09231 12 0.933338 12 0.767578C12 0.601818 11.9342 0.442847 11.8169 0.325637C11.6997 0.208426 11.5408 0.142578 11.375 0.142578H0.75C0.58424 0.142578 0.425269 0.208426 0.308058 0.325637C0.190848 0.442847 0.125 0.601818 0.125 0.767578C0.125 0.933338 0.190848 1.09231 0.308058 1.20952C0.425269 1.32673 0.58424 1.39258 0.75 1.39258ZM5.125 10.1426H0.75C0.58424 10.1426 0.425269 10.2084 0.308058 10.3256C0.190848 10.4428 0.125 10.6018 0.125 10.7676C0.125 10.9333 0.190848 11.0923 0.308058 11.2095C0.425269 11.3267 0.58424 11.3926 0.75 11.3926H5.125C5.29076 11.3926 5.44973 11.3267 5.56694 11.2095C5.68415 11.0923 5.75 10.9333 5.75 10.7676C5.75 10.6018 5.68415 10.4428 5.56694 10.3256C5.44973 10.2084 5.29076 10.1426 5.125 10.1426ZM14.9422 8.45039C14.8841 8.39228 14.8152 8.34618 14.7393 8.31473C14.6635 8.28327 14.5821 8.26709 14.5 8.26709C14.4179 8.26709 14.3365 8.28327 14.2607 8.31473C14.1848 8.34618 14.1159 8.39228 14.0578 8.45039L12 10.509V4.51758C12 4.35182 11.9342 4.19285 11.8169 4.07564C11.6997 3.95843 11.5408 3.89258 11.375 3.89258C11.2092 3.89258 11.0503 3.95843 10.9331 4.07564C10.8158 4.19285 10.75 4.35182 10.75 4.51758V10.509L8.69219 8.45039C8.57491 8.33311 8.41585 8.26723 8.25 8.26723C8.08415 8.26723 7.92509 8.33311 7.80781 8.45039C7.69054 8.56767 7.62465 8.72673 7.62465 8.89258C7.62465 9.05843 7.69054 9.21749 7.80781 9.33477L10.9328 12.4598C10.9909 12.5179 11.0598 12.564 11.1357 12.5954C11.2115 12.6269 11.2929 12.6431 11.375 12.6431C11.4571 12.6431 11.5385 12.6269 11.6143 12.5954C11.6902 12.564 11.7591 12.5179 11.8172 12.4598L14.9422 9.33477C15.0003 9.27672 15.0464 9.20779 15.0779 9.13192C15.1093 9.05604 15.1255 8.97471 15.1255 8.89258C15.1255 8.81044 15.1093 8.72911 15.0779 8.65324C15.0464 8.57737 15.0003 8.50844 14.9422 8.45039Z" fill="currentColor"/>
</svg>
