<svg width="20" height="18" viewBox="0 0 20 18" fill="none" xmlns="http://www.w3.org/2000/svg">
<path d="M12.2867 0.712455C12.129 0.635367 11.9529 0.604089 11.7783 0.622183C11.6037 0.640276 11.4377 0.707013 11.2992 0.814799L5.92812 4.99214H2.5C2.0856 4.99214 1.68817 5.15676 1.39515 5.44979C1.10212 5.74281 0.9375 6.14024 0.9375 6.55464V11.5546C0.9375 11.969 1.10212 12.3665 1.39515 12.6595C1.68817 12.9525 2.0856 13.1171 2.5 13.1171H5.92812L11.2992 17.2945C11.4377 17.4023 11.6037 17.469 11.7783 17.4871C11.9529 17.5052 12.1291 17.474 12.2868 17.3969C12.4445 17.3198 12.5773 17.2 12.6703 17.0511C12.7632 16.9022 12.8125 16.7302 12.8125 16.5546V1.55464C12.8125 1.37912 12.7632 1.20712 12.6702 1.05823C12.5773 0.909344 12.4444 0.789539 12.2867 0.712455ZM2.8125 6.86714H5.3125V11.2421H2.8125V6.86714ZM10.9375 14.6375L7.1875 11.7211V6.38824L10.9375 3.47183V14.6375ZM16.5625 9.05464C16.5626 9.89209 16.257 10.7008 15.7031 11.3289C15.6217 11.4212 15.5228 11.4966 15.4122 11.5507C15.3016 11.6049 15.1814 11.6367 15.0586 11.6444C14.9357 11.6521 14.8125 11.6355 14.696 11.5955C14.5795 11.5556 14.472 11.4931 14.3797 11.4117C14.2874 11.3302 14.212 11.2314 14.1578 11.1208C14.1037 11.0102 14.0719 10.89 14.0642 10.7671C14.0565 10.6442 14.0731 10.521 14.113 10.4045C14.1529 10.288 14.2154 10.1806 14.2969 10.0882C14.548 9.80294 14.6866 9.4359 14.6866 9.05581C14.6866 8.67573 14.548 8.30868 14.2969 8.02339C14.1408 7.83579 14.064 7.59472 14.0828 7.35139C14.1017 7.10807 14.2146 6.88168 14.3977 6.72034C14.5809 6.559 14.8197 6.47542 15.0634 6.48737C15.3072 6.49932 15.5367 6.60585 15.7031 6.78433C16.2565 7.41118 16.5621 8.21846 16.5625 9.05464ZM19.6875 9.05464C19.6885 10.669 19.0934 12.227 18.0164 13.4296C17.8506 13.615 17.618 13.7269 17.3698 13.7407C17.1215 13.7546 16.8779 13.6692 16.6926 13.5035C16.5072 13.3377 16.3953 13.1051 16.3815 12.8568C16.3676 12.6086 16.453 12.365 16.6187 12.1796C17.3874 11.3202 17.8124 10.2077 17.8124 9.05464C17.8124 7.90162 17.3874 6.78905 16.6187 5.92964C16.5333 5.83849 16.467 5.73118 16.4236 5.61401C16.3802 5.49685 16.3607 5.3722 16.3662 5.24739C16.3717 5.12258 16.4021 5.00013 16.4555 4.88722C16.509 4.77432 16.5845 4.67324 16.6776 4.58993C16.7707 4.50662 16.8795 4.44276 16.9977 4.40209C17.1158 4.36143 17.2409 4.34479 17.3655 4.35315C17.4902 4.36151 17.6119 4.3947 17.7235 4.45077C17.8352 4.50683 17.9345 4.58465 18.0156 4.67964C19.0929 5.8822 19.6882 7.44014 19.6875 9.05464Z" fill="currentColor"/>
</svg>
