<svg width="10" height="9" viewBox="0 0 10 9" fill="none" xmlns="http://www.w3.org/2000/svg">
<path d="M5 0.266968C4.16561 0.266968 3.34996 0.514393 2.65619 0.977955C1.96242 1.44152 1.42169 2.1004 1.10239 2.87127C0.783078 3.64215 0.699533 4.4904 0.862314 5.30875C1.0251 6.12711 1.42689 6.87882 2.0169 7.46882C2.6069 8.05883 3.35861 8.46062 4.17696 8.62341C4.99532 8.78619 5.84357 8.70264 6.61445 8.38334C7.38532 8.06403 8.0442 7.5233 8.50776 6.82953C8.97133 6.13576 9.21875 5.32011 9.21875 4.48572C9.21751 3.36722 8.77264 2.29488 7.98174 1.50398C7.19084 0.713081 6.1185 0.268208 5 0.266968ZM8.28125 4.48572C8.28193 5.19404 8.05229 5.88338 7.62696 6.44978L3.03594 1.85876C3.52358 1.49439 4.10297 1.27285 4.70931 1.21892C5.31566 1.165 5.92505 1.2808 6.46934 1.5534C7.01364 1.82599 7.47137 2.24462 7.79136 2.76247C8.11134 3.28032 8.28096 3.87698 8.28125 4.48572ZM1.71875 4.48572C1.71807 3.7774 1.94772 3.08806 2.37305 2.52166L6.96406 7.11267C6.47642 7.47704 5.89703 7.69858 5.29069 7.75251C4.68435 7.80644 4.07495 7.69063 3.53066 7.41804C2.98637 7.14545 2.52863 6.72682 2.20865 6.20896C1.88866 5.69111 1.71904 5.09446 1.71875 4.48572Z" fill="currentColor"/>
</svg>
