<svg width="24" height="24" viewBox="0 0 10 11" fill="none" xmlns="http://www.w3.org/2000/svg">
<path d="M2.75006 8.43751C2.75006 8.54876 2.71707 8.65751 2.65526 8.75001C2.59345 8.84252 2.5056 8.91461 2.40282 8.95719C2.30003 8.99976 2.18693 9.0109 2.07782 8.9892C1.9687 8.96749 1.86848 8.91392 1.78981 8.83525C1.71114 8.75659 1.65757 8.65636 1.63587 8.54724C1.61416 8.43813 1.6253 8.32503 1.66787 8.22225C1.71045 8.11946 1.78255 8.03161 1.87505 7.9698C1.96755 7.908 2.07631 7.87501 2.18756 7.87501C2.33674 7.87501 2.47982 7.93427 2.5853 8.03976C2.69079 8.14525 2.75006 8.28832 2.75006 8.43751ZM9.87506 7.32141V9.75001C9.87506 9.94892 9.79604 10.1397 9.65539 10.2803C9.51474 10.421 9.32397 10.5 9.12506 10.5H2.18756C2.06281 10.5001 1.93829 10.4894 1.81537 10.4681C1.27913 10.3703 0.803429 10.0642 0.492229 9.61664C0.181028 9.16912 0.0596372 8.6166 0.154588 8.07985L1.32646 1.37063C1.34312 1.27369 1.37876 1.18098 1.43132 1.09784C1.48389 1.0147 1.55236 0.942759 1.6328 0.886143C1.71324 0.829526 1.80407 0.78935 1.90007 0.767919C1.99607 0.746488 2.09536 0.744224 2.19224 0.761257L4.75818 1.21876C4.95342 1.25394 5.12677 1.36505 5.24027 1.52775C5.35378 1.69045 5.3982 1.8915 5.36381 2.08688L4.79756 5.32126L7.97615 4.17188C8.16248 4.10458 8.36786 4.11373 8.54747 4.19734C8.72707 4.28095 8.86629 4.43222 8.93474 4.61813L9.82818 7.0636C9.85688 7.14664 9.87269 7.23359 9.87506 7.32141ZM3.45318 8.66579L4.62506 1.95657L2.06849 1.50001L0.896619 8.20782C0.835438 8.549 0.911705 8.90053 1.10878 9.18569C1.30584 9.47084 1.60771 9.66646 1.94849 9.72985C2.11532 9.75977 2.28642 9.75624 2.45187 9.71946C2.61731 9.68269 2.7738 9.6134 2.91224 9.51563C3.05422 9.41689 3.17516 9.2909 3.26802 9.14501C3.36089 8.99912 3.42383 8.83622 3.45318 8.66579ZM4.09912 9.14063L9.12506 7.31766L8.23068 4.87501L4.64849 6.17344L4.19006 8.79469C4.16968 8.91239 4.13925 9.02813 4.09912 9.14063ZM9.12506 8.11501L4.61287 9.75001H9.12506V8.11501Z" fill="black"/>
</svg>
