<svg width="12" height="10" viewBox="0 0 12 10" fill="none" xmlns="http://www.w3.org/2000/svg">
<path d="M11.25 0.515625H0.75C0.575952 0.515625 0.409032 0.584765 0.285961 0.707836C0.16289 0.830907 0.09375 0.997827 0.09375 1.17188V8.60938C0.09375 8.89946 0.208984 9.17766 0.414102 9.38277C0.61922 9.58789 0.897419 9.70312 1.1875 9.70312H10.8125C11.1026 9.70312 11.3808 9.58789 11.5859 9.38277C11.791 9.17766 11.9062 8.89946 11.9062 8.60938V1.17188C11.9062 0.997827 11.8371 0.830907 11.714 0.707836C11.591 0.584765 11.424 0.515625 11.25 0.515625ZM1.40625 4.45312H3.15625V5.76562H1.40625V4.45312ZM4.46875 4.45312H10.5938V5.76562H4.46875V4.45312ZM10.5938 1.82812V3.14062H1.40625V1.82812H10.5938ZM1.40625 7.07812H3.15625V8.39062H1.40625V7.07812ZM4.46875 8.39062V7.07812H10.5938V8.39062H4.46875Z" fill="currentColor"/>
</svg>
