<svg width="12" height="8" viewBox="0 0 12 8" fill="none" xmlns="http://www.w3.org/2000/svg">
<path d="M11.7188 3.68781L9.57938 0.480156C9.49379 0.351711 9.37781 0.246383 9.24175 0.173524C9.10568 0.100665 8.95372 0.0625284 8.79938 0.0625H1.875C1.62636 0.0625 1.3879 0.161272 1.21209 0.337087C1.03627 0.512903 0.9375 0.75136 0.9375 1V7C0.9375 7.24864 1.03627 7.4871 1.21209 7.66291C1.3879 7.83873 1.62636 7.9375 1.875 7.9375H8.79938C8.95372 7.93747 9.10568 7.89933 9.24175 7.82648C9.37781 7.75362 9.49379 7.64829 9.57938 7.51984L11.7188 4.31219C11.7804 4.21975 11.8133 4.11112 11.8133 4C11.8133 3.88888 11.7804 3.78025 11.7188 3.68781ZM8.69906 6.8125H2.0625V1.1875H8.69906L10.5741 4L8.69906 6.8125Z" fill="currentColor"/>
</svg>
