<svg width="12" height="13" viewBox="0 0 12 13" fill="none" xmlns="http://www.w3.org/2000/svg">
<path d="M6 0.703125C4.83186 0.703125 3.68994 1.04952 2.71867 1.69851C1.74739 2.34749 0.990369 3.26992 0.543339 4.34915C0.0963091 5.42838 -0.0206544 6.61593 0.20724 7.76163C0.435134 8.90733 0.997649 9.95972 1.82365 10.7857C2.64966 11.6117 3.70205 12.1742 4.84775 12.4021C5.99345 12.63 7.181 12.5131 8.26023 12.066C9.33945 11.619 10.2619 10.862 10.9109 9.89071C11.5599 8.91943 11.9063 7.77752 11.9063 6.60938C11.9045 5.04347 11.2817 3.5422 10.1744 2.43494C9.06717 1.32768 7.5659 0.704862 6 0.703125ZM6.65625 11.1555V9.67188C6.65625 9.49783 6.58711 9.33091 6.46404 9.20784C6.34097 9.08477 6.17405 9.01562 6 9.01562C5.82595 9.01562 5.65903 9.08477 5.53596 9.20784C5.41289 9.33091 5.34375 9.49783 5.34375 9.67188V11.1555C4.36302 11.0123 3.4547 10.5564 2.75386 9.85552C2.05302 9.15468 1.59708 8.24636 1.45383 7.26562H2.9375C3.11155 7.26562 3.27847 7.19648 3.40154 7.07341C3.52461 6.95034 3.59375 6.78342 3.59375 6.60938C3.59375 6.43533 3.52461 6.26841 3.40154 6.14534C3.27847 6.02227 3.11155 5.95312 2.9375 5.95312H1.45383C1.59708 4.97239 2.05302 4.06407 2.75386 3.36323C3.4547 2.66239 4.36302 2.20645 5.34375 2.0632V3.54688C5.34375 3.72092 5.41289 3.88784 5.53596 4.01091C5.65903 4.13398 5.82595 4.20312 6 4.20312C6.17405 4.20312 6.34097 4.13398 6.46404 4.01091C6.58711 3.88784 6.65625 3.72092 6.65625 3.54688V2.0632C7.63699 2.20645 8.5453 2.66239 9.24615 3.36323C9.94699 4.06407 10.4029 4.97239 10.5462 5.95312H9.0625C8.88845 5.95312 8.72153 6.02227 8.59846 6.14534C8.47539 6.26841 8.40625 6.43533 8.40625 6.60938C8.40625 6.78342 8.47539 6.95034 8.59846 7.07341C8.72153 7.19648 8.88845 7.26562 9.0625 7.26562H10.5462C10.4029 8.24636 9.94699 9.15468 9.24615 9.85552C8.5453 10.5564 7.63699 11.0123 6.65625 11.1555Z" fill="currentColor"/>
</svg>
