<svg width="24" height="24" viewBox="0 0 19 13" fill="none" xmlns="http://www.w3.org/2000/svg">
<path d="M6.21558 1.1086C6.16511 1.00123 6.08512 0.910437 5.98496 0.846844C5.8848 0.783251 5.7686 0.749481 5.64996 0.749481C5.53131 0.749481 5.41512 0.783251 5.31496 0.846844C5.2148 0.910437 5.13481 1.00123 5.08433 1.1086L0.0843342 11.7336C0.0494005 11.8079 0.0294392 11.8883 0.02559 11.9703C0.0217408 12.0523 0.0340791 12.1342 0.0619004 12.2115C0.118088 12.3674 0.23393 12.4947 0.383944 12.5652C0.533957 12.6358 0.705852 12.6439 0.861815 12.5877C1.01778 12.5315 1.14503 12.4156 1.21558 12.2656L2.51715 9.5H8.78277L10.0843 12.2656C10.1193 12.3399 10.1685 12.4066 10.2292 12.4618C10.2899 12.5171 10.3609 12.5599 10.4381 12.5877C10.5153 12.6155 10.5973 12.6278 10.6793 12.624C10.7613 12.6201 10.8417 12.6002 10.916 12.5652C10.9903 12.5303 11.0569 12.4811 11.1122 12.4204C11.1674 12.3597 11.2102 12.2887 11.238 12.2115C11.2658 12.1342 11.2782 12.0523 11.2743 11.9703C11.2705 11.8883 11.2505 11.8079 11.2156 11.7336L6.21558 1.1086ZM3.10543 8.25001L5.64996 2.84297L8.19449 8.25001H3.10543ZM15.025 4.50001C14.0281 4.50001 13.2492 4.7711 12.7101 5.30626C12.5973 5.42391 12.5348 5.581 12.5362 5.74403C12.5375 5.90705 12.6025 6.0631 12.7173 6.17889C12.832 6.29468 12.9875 6.36104 13.1505 6.36382C13.3135 6.3666 13.4712 6.30557 13.5898 6.19376C13.8867 5.89922 14.3711 5.75001 15.025 5.75001C16.0586 5.75001 16.9 6.45313 16.9 7.31251V7.56407C16.3453 7.19299 15.6923 6.99653 15.025 7.00001C13.3015 7.00001 11.9 8.26172 11.9 9.8125C11.9 11.3633 13.3015 12.625 15.025 12.625C15.6925 12.6279 16.3457 12.4306 16.9 12.0586C16.9077 12.2244 16.981 12.3802 17.1037 12.492C17.2264 12.6037 17.3885 12.6621 17.5543 12.6543C17.72 12.6465 17.8759 12.5732 17.9876 12.4505C18.0993 12.3278 18.1577 12.1658 18.15 12V7.31251C18.15 5.76172 16.7484 4.50001 15.025 4.50001ZM15.025 11.375C13.9914 11.375 13.15 10.6719 13.15 9.8125C13.15 8.95313 13.9914 8.25001 15.025 8.25001C16.0586 8.25001 16.9 8.95313 16.9 9.8125C16.9 10.6719 16.0586 11.375 15.025 11.375Z" fill="black"/>
</svg>
