<svg width="20" height="21" viewBox="0 0 20 21" fill="none" xmlns="http://www.w3.org/2000/svg">
<g clip-path="url(#clip0_1610_46301)">
<rect x="0.94" y="1.89605" width="18.12" height="18.1161" rx="1.06" stroke="currentColor" stroke-width="1.88"/>
<path d="M4.60101 17.113C4.71254 17.1658 4.8334 17.1961 4.95666 17.2021C5.07992 17.2081 5.20315 17.1897 5.31928 17.1479C5.43542 17.1062 5.54217 17.042 5.63341 16.9589C5.72466 16.8758 5.7986 16.7755 5.85101 16.6638L7.06585 14.0771H12.9346L14.1518 16.6638C14.2577 16.8888 14.4486 17.0625 14.6826 17.1468C14.9166 17.231 15.1744 17.2189 15.3994 17.113C15.6245 17.0071 15.7982 16.8162 15.8825 16.5822C15.9667 16.3482 15.9545 16.0904 15.8487 15.8653L10.8487 5.24034C10.773 5.07928 10.653 4.94309 10.5027 4.8477C10.3525 4.75232 10.1782 4.70166 10.0002 4.70166C9.82226 4.70166 9.64797 4.75232 9.49773 4.8477C9.34748 4.94309 9.2275 5.07928 9.15179 5.24034L4.15179 15.8653C4.09934 15.9768 4.06935 16.0974 4.06354 16.2204C4.05773 16.3434 4.07622 16.4664 4.11793 16.5822C4.15965 16.6981 4.22378 16.8046 4.30667 16.8957C4.38956 16.9867 4.48957 17.0606 4.60101 17.113ZM10.0002 7.84112L12.0526 12.2021H7.94788L10.0002 7.84112Z" fill="currentColor"/>
</g>
<defs>
<clipPath id="clip0_1610_46301">
<rect width="20" height="20" fill="currentColor" transform="translate(0 0.954102)"/>
</clipPath>
</defs>
</svg>
