<svg width="20" height="21" viewBox="0 0 20 21" fill="none" xmlns="http://www.w3.org/2000/svg">
<path d="M17.8125 10.9541C17.8125 11.2027 17.7137 11.4412 17.5379 11.617C17.3621 11.7928 17.1236 11.8916 16.875 11.8916H14.5203C15.046 12.4976 15.3283 13.277 15.3125 14.0791C15.3125 15.208 14.7023 16.2916 13.6383 17.0518C12.6563 17.7549 11.3625 18.1416 10 18.1416C8.6375 18.1416 7.34375 17.7549 6.36172 17.0518C5.29766 16.2916 4.6875 15.208 4.6875 14.0791C4.6875 13.8305 4.78627 13.592 4.96209 13.4162C5.1379 13.2404 5.37636 13.1416 5.625 13.1416C5.87364 13.1416 6.1121 13.2404 6.28791 13.4162C6.46373 13.592 6.5625 13.8305 6.5625 14.0791C6.5625 15.265 8.13672 16.2666 10 16.2666C11.8633 16.2666 13.4375 15.265 13.4375 14.0791C13.4375 13.0822 12.7109 12.5025 10.6758 11.8916H3.125C2.87636 11.8916 2.6379 11.7928 2.46209 11.617C2.28627 11.4412 2.1875 11.2027 2.1875 10.9541C2.1875 10.7055 2.28627 10.467 2.46209 10.2912C2.6379 10.1154 2.87636 10.0166 3.125 10.0166H16.875C17.1236 10.0166 17.3621 10.1154 17.5379 10.2912C17.7137 10.467 17.8125 10.7055 17.8125 10.9541ZM5.86797 8.7666C6.11661 8.7666 6.35507 8.66783 6.53088 8.49201C6.7067 8.3162 6.80547 8.07774 6.80547 7.8291C6.80547 6.5791 8.17891 5.6416 10 5.6416C11.3562 5.6416 12.4508 6.16113 12.9281 7.03066C13.0544 7.23565 13.2546 7.38423 13.4874 7.44561C13.7202 7.507 13.9676 7.47648 14.1785 7.36039C14.3894 7.2443 14.5476 7.05152 14.6202 6.82201C14.6929 6.5925 14.6744 6.34384 14.5687 6.12754C13.7602 4.64941 12.0508 3.7666 10 3.7666C7.10938 3.7666 4.93047 5.5127 4.93047 7.8291C4.93047 8.07774 5.02924 8.3162 5.20506 8.49201C5.38087 8.66783 5.61933 8.7666 5.86797 8.7666Z" fill="currentColor"/>
</svg>
