<svg width="12" height="9" viewBox="0 0 12 9" fill="none" xmlns="http://www.w3.org/2000/svg">
<path d="M8.40625 8.10938C8.40625 8.28342 8.33711 8.45034 8.21404 8.57341C8.09097 8.69648 7.92405 8.76562 7.75 8.76562H1.1875C1.01345 8.76562 0.846532 8.69648 0.723462 8.57341C0.600391 8.45034 0.53125 8.28342 0.53125 8.10938C0.53125 7.93533 0.600391 7.76841 0.723462 7.64534C0.846532 7.52227 1.01345 7.45312 1.1875 7.45312L7.75 7.45313C7.92405 7.45313 8.09097 7.52227 8.21404 7.64534C8.33711 7.76841 8.40625 7.93533 8.40625 8.10938ZM1.1875 5.26562L7.75 5.26563C7.92405 5.26563 8.09097 5.19648 8.21404 5.07341C8.33711 4.95034 8.40625 4.78342 8.40625 4.60938C8.40625 4.43533 8.33711 4.26841 8.21404 4.14534C8.09097 4.02227 7.92405 3.95313 7.75 3.95313L1.1875 3.95312C1.01345 3.95312 0.846532 4.02227 0.723462 4.14534C0.600391 4.26841 0.53125 4.43533 0.53125 4.60938C0.53125 4.78342 0.600391 4.95034 0.723462 5.07341C0.846532 5.19648 1.01345 5.26562 1.1875 5.26562ZM1.1875 1.76562L7.75 1.76563C7.92405 1.76563 8.09097 1.69648 8.21404 1.57341C8.33711 1.45034 8.40625 1.28342 8.40625 1.10938C8.40625 0.935327 8.33711 0.768407 8.21404 0.645336C8.09097 0.522265 7.92405 0.453125 7.75 0.453125H1.1875C1.01345 0.453125 0.846532 0.522265 0.723462 0.645336C0.600391 0.768407 0.53125 0.935327 0.53125 1.10938C0.53125 1.28342 0.600391 1.45034 0.723462 1.57341C0.846532 1.69648 1.01345 1.76562 1.1875 1.76562ZM9.9375 8.76563H10.8125C10.9865 8.76563 11.1535 8.69648 11.2765 8.57341C11.3996 8.45034 11.4688 8.28342 11.4688 8.10938C11.4688 7.93533 11.3996 7.76841 11.2765 7.64534C11.1535 7.52227 10.9865 7.45313 10.8125 7.45313L9.9375 7.45313C9.76345 7.45313 9.59653 7.52227 9.47346 7.64534C9.35039 7.76841 9.28125 7.93533 9.28125 8.10938C9.28125 8.28342 9.35039 8.45034 9.47346 8.57341C9.59653 8.69648 9.76345 8.76563 9.9375 8.76563ZM9.9375 5.26563H10.8125C10.9865 5.26563 11.1535 5.19648 11.2765 5.07341C11.3996 4.95034 11.4688 4.78342 11.4688 4.60938C11.4688 4.43533 11.3996 4.26841 11.2765 4.14534C11.1535 4.02227 10.9865 3.95313 10.8125 3.95313H9.9375C9.76345 3.95313 9.59653 4.02227 9.47346 4.14534C9.35039 4.26841 9.28125 4.43533 9.28125 4.60938C9.28125 4.78342 9.35039 4.95034 9.47346 5.07341C9.59653 5.19648 9.76345 5.26563 9.9375 5.26563ZM9.9375 1.76563H10.8125C10.9865 1.76563 11.1535 1.69648 11.2765 1.57341C11.3996 1.45034 11.4688 1.28342 11.4688 1.10938C11.4688 0.935327 11.3996 0.768407 11.2765 0.645336C11.1535 0.522265 10.9865 0.453125 10.8125 0.453125H9.9375C9.76345 0.453125 9.59653 0.522265 9.47346 0.645336C9.35039 0.768407 9.28125 0.935327 9.28125 1.10938C9.28125 1.28342 9.35039 1.45034 9.47346 1.57341C9.59653 1.69648 9.76345 1.76563 9.9375 1.76563Z" fill="currentColor"/>
</svg>
