<svg width="8" height="8" viewBox="0 0 8 8" fill="none" xmlns="http://www.w3.org/2000/svg">
<path d="M6.75 1.5H5.625V1.125C5.625 0.892936 5.53281 0.670376 5.36872 0.506282C5.20462 0.342187 4.98206 0.25 4.75 0.25H3.25C3.01794 0.25 2.79538 0.342187 2.63128 0.506282C2.46719 0.670376 2.375 0.892936 2.375 1.125V1.5H1.25C1.15054 1.5 1.05516 1.53951 0.984835 1.60983C0.914509 1.68016 0.875 1.77554 0.875 1.875C0.875 1.97446 0.914509 2.06984 0.984835 2.14017C1.05516 2.21049 1.15054 2.25 1.25 2.25H1.375V6.5C1.375 6.66576 1.44085 6.82473 1.55806 6.94194C1.67527 7.05915 1.83424 7.125 2 7.125H6C6.16576 7.125 6.32473 7.05915 6.44194 6.94194C6.55915 6.82473 6.625 6.66576 6.625 6.5V2.25H6.75C6.84946 2.25 6.94484 2.21049 7.01516 2.14017C7.08549 2.06984 7.125 1.97446 7.125 1.875C7.125 1.77554 7.08549 1.68016 7.01516 1.60983C6.94484 1.53951 6.84946 1.5 6.75 1.5ZM3.125 1.125C3.125 1.09185 3.13817 1.06005 3.16161 1.03661C3.18505 1.01317 3.21685 1 3.25 1H4.75C4.78315 1 4.81495 1.01317 4.83839 1.03661C4.86183 1.06005 4.875 1.09185 4.875 1.125V1.5H3.125V1.125ZM5.875 6.375H2.125V2.25H5.875V6.375ZM3.625 3.25V5.25C3.625 5.34946 3.58549 5.44484 3.51517 5.51516C3.44484 5.58549 3.34946 5.625 3.25 5.625C3.15054 5.625 3.05516 5.58549 2.98483 5.51516C2.91451 5.44484 2.875 5.34946 2.875 5.25V3.25C2.875 3.15054 2.91451 3.05516 2.98483 2.98483C3.05516 2.91451 3.15054 2.875 3.25 2.875C3.34946 2.875 3.44484 2.91451 3.51517 2.98483C3.58549 3.05516 3.625 3.15054 3.625 3.25ZM5.125 3.25V5.25C5.125 5.34946 5.08549 5.44484 5.01516 5.51516C4.94484 5.58549 4.84946 5.625 4.75 5.625C4.65054 5.625 4.55516 5.58549 4.48484 5.51516C4.41451 5.44484 4.375 5.34946 4.375 5.25V3.25C4.375 3.15054 4.41451 3.05516 4.48484 2.98483C4.55516 2.91451 4.65054 2.875 4.75 2.875C4.84946 2.875 4.94484 2.91451 5.01516 2.98483C5.08549 3.05516 5.125 3.15054 5.125 3.25Z" fill="#FEFEFE"/>
</svg>
