<svg width="8" height="10" viewBox="0 0 8 10" fill="none" xmlns="http://www.w3.org/2000/svg">
<path d="M7.4375 2.36072H0.5625C0.43818 2.36072 0.318951 2.4101 0.231044 2.49801C0.143136 2.58592 0.09375 2.70515 0.09375 2.82947C0.09375 2.95379 0.143136 3.07302 0.231044 3.16092C0.318951 3.24883 0.43818 3.29822 0.5625 3.29822H0.71875V8.61072C0.71875 8.81792 0.80106 9.01663 0.947573 9.16315C1.09409 9.30966 1.2928 9.39197 1.5 9.39197H6.5C6.7072 9.39197 6.90591 9.30966 7.05243 9.16315C7.19894 9.01663 7.28125 8.81792 7.28125 8.61072V3.29822H7.4375C7.56182 3.29822 7.68105 3.24883 7.76896 3.16092C7.85686 3.07302 7.90625 2.95379 7.90625 2.82947C7.90625 2.70515 7.85686 2.58592 7.76896 2.49801C7.68105 2.4101 7.56182 2.36072 7.4375 2.36072ZM6.34375 8.45447H1.65625V3.29822H6.34375V8.45447ZM1.96875 1.26697C1.96875 1.14265 2.01814 1.02342 2.10604 0.935511C2.19395 0.847604 2.31318 0.798218 2.4375 0.798218H5.5625C5.68682 0.798218 5.80605 0.847604 5.89396 0.935511C5.98186 1.02342 6.03125 1.14265 6.03125 1.26697C6.03125 1.39129 5.98186 1.51052 5.89396 1.59842C5.80605 1.68633 5.68682 1.73572 5.5625 1.73572H2.4375C2.31318 1.73572 2.19395 1.68633 2.10604 1.59842C2.01814 1.51052 1.96875 1.39129 1.96875 1.26697Z" fill="CurrentColor"/>
</svg>
