<svg width="16" height="18" viewBox="0 0 16 18" fill="none" xmlns="http://www.w3.org/2000/svg">
<path d="M14.875 3.25H12.0625V2.3125C12.0625 1.73234 11.832 1.17594 11.4218 0.765704C11.0116 0.355468 10.4552 0.125 9.875 0.125H6.125C5.54484 0.125 4.98844 0.355468 4.5782 0.765704C4.16797 1.17594 3.9375 1.73234 3.9375 2.3125V3.25H1.125C0.87636 3.25 0.637903 3.34877 0.462087 3.52459C0.286272 3.7004 0.1875 3.93886 0.1875 4.1875C0.1875 4.43614 0.286272 4.6746 0.462087 4.85041C0.637903 5.02623 0.87636 5.125 1.125 5.125H1.4375V15.75C1.4375 16.1644 1.60212 16.5618 1.89515 16.8549C2.18817 17.1479 2.5856 17.3125 3 17.3125H13C13.4144 17.3125 13.8118 17.1479 14.1049 16.8549C14.3979 16.5618 14.5625 16.1644 14.5625 15.75V5.125H14.875C15.1236 5.125 15.3621 5.02623 15.5379 4.85041C15.7137 4.6746 15.8125 4.43614 15.8125 4.1875C15.8125 3.93886 15.7137 3.7004 15.5379 3.52459C15.3621 3.34877 15.1236 3.25 14.875 3.25ZM5.8125 2.3125C5.8125 2.22962 5.84542 2.15013 5.90403 2.09153C5.96263 2.03292 6.04212 2 6.125 2H9.875C9.95788 2 10.0374 2.03292 10.096 2.09153C10.1546 2.15013 10.1875 2.22962 10.1875 2.3125V3.25H5.8125V2.3125ZM12.6875 15.4375H3.3125V5.125H12.6875V15.4375ZM7.0625 7.625V12.625C7.0625 12.8736 6.96373 13.1121 6.78791 13.2879C6.6121 13.4637 6.37364 13.5625 6.125 13.5625C5.87636 13.5625 5.6379 13.4637 5.46209 13.2879C5.28627 13.1121 5.1875 12.8736 5.1875 12.625V7.625C5.1875 7.37636 5.28627 7.1379 5.46209 6.96209C5.6379 6.78627 5.87636 6.6875 6.125 6.6875C6.37364 6.6875 6.6121 6.78627 6.78791 6.96209C6.96373 7.1379 7.0625 7.37636 7.0625 7.625ZM10.8125 7.625V12.625C10.8125 12.8736 10.7137 13.1121 10.5379 13.2879C10.3621 13.4637 10.1236 13.5625 9.875 13.5625C9.62636 13.5625 9.3879 13.4637 9.21209 13.2879C9.03627 13.1121 8.9375 12.8736 8.9375 12.625V7.625C8.9375 7.37636 9.03627 7.1379 9.21209 6.96209C9.3879 6.78627 9.62636 6.6875 9.875 6.6875C10.1236 6.6875 10.3621 6.78627 10.5379 6.96209C10.7137 7.1379 10.8125 7.37636 10.8125 7.625Z" fill="currentColor"/>
</svg>
