<svg width="12" height="16" viewBox="0 0 12 16" fill="none" xmlns="http://www.w3.org/2000/svg">
<path d="M11.9375 14.4541C11.9375 14.7027 11.8387 14.9412 11.6629 15.117C11.4871 15.2928 11.2486 15.3916 11 15.3916H1C0.75136 15.3916 0.512903 15.2928 0.337087 15.117C0.161272 14.9412 0.0625 14.7027 0.0625 14.4541C0.0625 14.2055 0.161272 13.967 0.337087 13.7912C0.512903 13.6154 0.75136 13.5166 1 13.5166H11C11.2486 13.5166 11.4871 13.6154 11.6629 13.7912C11.8387 13.967 11.9375 14.2055 11.9375 14.4541ZM6 12.2666C7.40852 12.2652 8.75893 11.705 9.75491 10.709C10.7509 9.71303 11.3111 8.36262 11.3125 6.9541V1.3291C11.3125 1.08046 11.2137 0.842004 11.0379 0.666189C10.8621 0.490373 10.6236 0.391602 10.375 0.391602C10.1264 0.391602 9.8879 0.490373 9.71209 0.666189C9.53627 0.842004 9.4375 1.08046 9.4375 1.3291V6.9541C9.4375 7.86578 9.07534 8.74012 8.43068 9.38478C7.78602 10.0294 6.91168 10.3916 6 10.3916C5.08832 10.3916 4.21398 10.0294 3.56932 9.38478C2.92466 8.74012 2.5625 7.86578 2.5625 6.9541V1.3291C2.5625 1.08046 2.46373 0.842004 2.28791 0.666189C2.1121 0.490373 1.87364 0.391602 1.625 0.391602C1.37636 0.391602 1.1379 0.490373 0.962087 0.666189C0.786272 0.842004 0.6875 1.08046 0.6875 1.3291V6.9541C0.688948 8.36262 1.24912 9.71303 2.24509 10.709C3.24107 11.705 4.59148 12.2652 6 12.2666Z" fill="currentColor"/>
</svg>
