<svg width="18" height="18" viewBox="0 0 18 18" fill="none" xmlns="http://www.w3.org/2000/svg">
<path d="M12.7883 6.46172C12.8757 6.54882 12.945 6.65231 12.9923 6.76626C13.0397 6.88022 13.064 7.00239 13.064 7.12578C13.064 7.24917 13.0397 7.37134 12.9923 7.4853C12.945 7.59925 12.8757 7.70275 12.7883 7.78984L8.41328 12.1648C8.32619 12.2522 8.22269 12.3216 8.10874 12.3689C7.99478 12.4162 7.87261 12.4406 7.74922 12.4406C7.62583 12.4406 7.50366 12.4162 7.3897 12.3689C7.27575 12.3216 7.17226 12.2522 7.08516 12.1648L5.21016 10.2898C5.12295 10.2026 5.05378 10.0991 5.00658 9.98517C4.95939 9.87123 4.9351 9.74911 4.9351 9.62578C4.9351 9.50245 4.95939 9.38033 5.00658 9.26639C5.05378 9.15245 5.12295 9.04892 5.21016 8.96172C5.29737 8.87451 5.40089 8.80534 5.51483 8.75814C5.62877 8.71095 5.75089 8.68666 5.87422 8.68666C5.99755 8.68666 6.11967 8.71095 6.23361 8.75814C6.34755 8.80534 6.45108 8.87451 6.53828 8.96172L7.75 10.1719L11.4617 6.45938C11.5489 6.37236 11.6525 6.3034 11.7664 6.25642C11.8803 6.20944 12.0023 6.18537 12.1255 6.18559C12.2487 6.18581 12.3706 6.21031 12.4844 6.25769C12.5981 6.30507 12.7014 6.3744 12.7883 6.46172ZM17.4375 9C17.4375 10.6688 16.9427 12.3001 16.0155 13.6876C15.0884 15.0752 13.7706 16.1566 12.2289 16.7952C10.6871 17.4338 8.99064 17.6009 7.35393 17.2754C5.71721 16.9498 4.2138 16.1462 3.03379 14.9662C1.85379 13.7862 1.05019 12.2828 0.724628 10.6461C0.399065 9.00936 0.566156 7.31286 1.20477 5.77111C1.84338 4.22936 2.92484 2.9116 4.31238 1.98448C5.69992 1.05735 7.33122 0.5625 9 0.5625C11.237 0.564981 13.3817 1.45473 14.9635 3.03653C16.5453 4.61833 17.435 6.763 17.4375 9ZM15.5625 9C15.5625 7.70206 15.1776 6.43327 14.4565 5.35407C13.7354 4.27487 12.7105 3.43374 11.5114 2.93704C10.3122 2.44034 8.99272 2.31038 7.71972 2.5636C6.44672 2.81681 5.2774 3.44183 4.35962 4.35961C3.44183 5.27739 2.81682 6.44672 2.5636 7.71972C2.31039 8.99272 2.44034 10.3122 2.93704 11.5114C3.43374 12.7105 4.27488 13.7354 5.35407 14.4565C6.43327 15.1776 7.70206 15.5625 9 15.5625C10.7399 15.5606 12.408 14.8686 13.6383 13.6383C14.8686 12.408 15.5606 10.7399 15.5625 9Z" fill="CurrentColor"/>
</svg>
