<svg width="16" height="15" viewBox="0 0 16 15" fill="none" xmlns="http://www.w3.org/2000/svg">
<path d="M9.67313 0.826214C9.54698 0.764543 9.40606 0.739522 9.2664 0.753996C9.12673 0.768471 8.99394 0.82186 8.88313 0.908089L4.58625 4.24996H1.84375C1.51223 4.24996 1.19429 4.38166 0.959867 4.61608C0.725446 4.8505 0.59375 5.16844 0.59375 5.49996V9.49997C0.59375 9.83149 0.725446 10.1494 0.959867 10.3838C1.19429 10.6183 1.51223 10.75 1.84375 10.75H4.58625L8.88313 14.0918C8.99394 14.1781 9.12674 14.2315 9.26641 14.246C9.40608 14.2604 9.54701 14.2354 9.67316 14.1737C9.79931 14.1121 9.90562 14.0162 9.97997 13.8971C10.0543 13.778 10.0937 13.6404 10.0938 13.5V1.49996C10.0937 1.35955 10.0543 1.22195 9.97995 1.10284C9.90559 0.983726 9.79928 0.887881 9.67313 0.826214ZM2.09375 5.74996H4.09375V9.24997H2.09375V5.74996ZM8.59375 11.9662L5.59375 9.63309V5.36684L8.59375 3.03371V11.9662ZM13.0938 7.49996C13.0939 8.16992 12.8494 8.81687 12.4062 9.31934C12.3411 9.39321 12.262 9.45352 12.1735 9.49682C12.085 9.54013 11.9889 9.56559 11.8906 9.57174C11.7923 9.57789 11.6937 9.56462 11.6005 9.53268C11.5073 9.50074 11.4214 9.45076 11.3475 9.38559C11.2736 9.32042 11.2133 9.24134 11.17 9.15287C11.1267 9.06439 11.1013 8.96825 11.0951 8.86994C11.0889 8.77162 11.1022 8.67306 11.1342 8.57987C11.1661 8.48669 11.2161 8.40071 11.2812 8.32684C11.4822 8.09861 11.593 7.80497 11.593 7.5009C11.593 7.19684 11.4822 6.9032 11.2812 6.67496C11.1564 6.52489 11.0949 6.33202 11.11 6.13737C11.1251 5.94271 11.2155 5.7616 11.3619 5.63252C11.5084 5.50345 11.6995 5.43659 11.8945 5.44615C12.0895 5.45571 12.2731 5.54093 12.4062 5.68371C12.849 6.18519 13.0934 6.83102 13.0938 7.49996ZM15.5938 7.49996C15.5945 8.79149 15.1185 10.0378 14.2569 11C14.1243 11.1482 13.9382 11.2378 13.7396 11.2488C13.541 11.2599 13.3461 11.1916 13.1978 11.059C13.0495 10.9264 12.96 10.7403 12.9489 10.5417C12.9379 10.3431 13.0061 10.1482 13.1388 9.99997C13.7537 9.31244 14.0937 8.42238 14.0937 7.49996C14.0937 6.57755 13.7537 5.68749 13.1388 4.99996C13.0704 4.92704 13.0173 4.84119 12.9826 4.74746C12.9479 4.65373 12.9323 4.55401 12.9367 4.45417C12.9411 4.35432 12.9654 4.25635 13.0082 4.16603C13.051 4.0757 13.1114 3.99484 13.1858 3.92819C13.2603 3.86154 13.3474 3.81046 13.4419 3.77793C13.5364 3.7454 13.6364 3.73208 13.7362 3.73877C13.8359 3.74546 13.9333 3.77201 14.0226 3.81686C14.1119 3.86172 14.1913 3.92397 14.2563 3.99996C15.1181 4.96201 15.5943 6.20836 15.5938 7.49996Z" fill="currentColor"/>
</svg>
