<svg width="18" height="14" viewBox="0 0 18 14" fill="none" xmlns="http://www.w3.org/2000/svg">
<mask id="mask0_371_3074" style="mask-type:luminance" maskUnits="userSpaceOnUse" x="0" y="0" width="11" height="14">
<path fill-rule="evenodd" clip-rule="evenodd" d="M0.466797 0.16684H10.4834V13.0851H0.466797V0.16684Z" fill="white"/>
</mask>
<g mask="url(#mask0_371_3074)">
<path fill-rule="evenodd" clip-rule="evenodd" d="M8.14012 1.42175C7.41678 1.42175 6.49178 2.15592 5.72178 2.76759C4.98095 3.35509 4.39595 3.82009 3.81262 3.86342C3.55428 3.88175 3.33262 3.89009 3.13762 3.89675C2.51512 3.91759 2.35762 3.93175 2.07678 4.16342C1.70845 4.46592 1.71428 5.70176 1.71762 6.43925L1.71845 6.62342V6.62675L1.71762 6.81092C1.71428 7.54925 1.70845 8.78509 2.07678 9.08759C2.35678 9.31926 2.51428 9.33259 3.13512 9.35509C3.33095 9.36092 3.55345 9.36926 3.81262 9.38842C4.39595 9.43092 4.98095 9.89592 5.72178 10.4834C6.64095 11.2126 7.77928 12.1168 8.53428 11.7409C9.16595 11.1934 9.23345 9.74176 9.23345 6.62509C9.23345 3.50842 9.16595 2.05759 8.53428 1.50925C8.41178 1.44842 8.27928 1.42175 8.14012 1.42175ZM8.14845 13.0851C6.98928 13.0851 5.84012 12.1726 4.94512 11.4626C4.54095 11.1418 3.93012 10.6568 3.71928 10.6351C3.48012 10.6168 3.27345 10.6093 3.09095 10.6043C2.42595 10.5801 1.90012 10.5626 1.28178 10.0526C0.455117 9.37175 0.462617 7.94842 0.467617 6.80509L0.46845 6.62509L0.467617 6.44509C0.462617 5.30175 0.455117 3.87925 1.28178 3.19842C1.90095 2.68842 2.42762 2.67009 3.09428 2.64759C3.27595 2.64092 3.48178 2.63425 3.72095 2.61675C3.93012 2.59425 4.54095 2.10925 4.94512 1.78842C6.11095 0.862588 7.70762 -0.401578 9.19512 0.445921C9.22095 0.461755 9.24678 0.478421 9.27012 0.497588C10.4318 1.41009 10.4834 3.13092 10.4834 6.62509C10.4834 10.1201 10.4318 11.8409 9.27012 12.7543C9.24678 12.7726 9.22095 12.7901 9.19428 12.8051C8.84928 13.0018 8.49845 13.0851 8.14845 13.0851Z" fill="#2D2D2D"/>
</g>
<mask id="mask1_371_3074" style="mask-type:luminance" maskUnits="userSpaceOnUse" x="14" y="0" width="4" height="13">
<path fill-rule="evenodd" clip-rule="evenodd" d="M14.7031 0.919647H17.5365V12.3299H14.7031V0.919647Z" fill="white"/>
</mask>
<g mask="url(#mask1_371_3074)">
<path fill-rule="evenodd" clip-rule="evenodd" d="M15.3279 12.3299C15.2045 12.3299 15.0804 12.2932 14.9712 12.2174C14.6879 12.0207 14.6179 11.6316 14.8154 11.3474C16.8095 8.48075 16.8095 4.77325 14.8154 1.90158C14.6179 1.61825 14.6879 1.22908 14.972 1.03158C15.2554 0.83408 15.6437 0.904913 15.8412 1.18908C18.102 4.44241 18.102 8.81158 15.8412 12.0624C15.7195 12.2366 15.5254 12.3299 15.3279 12.3299Z" fill="#2D2D2D"/>
</g>
<path fill-rule="evenodd" clip-rule="evenodd" d="M13.2423 10.3223C13.1365 10.3223 13.0298 10.2957 12.9315 10.239C12.6323 10.0673 12.529 9.68484 12.7006 9.3865C13.6765 7.68567 13.6765 5.57067 12.7006 3.86484C12.529 3.56484 12.6331 3.18317 12.9323 3.0115C13.2323 2.84317 13.6131 2.944 13.7848 3.24317C14.9806 5.33317 14.9806 7.92484 13.7848 10.0082C13.669 10.2098 13.459 10.3223 13.2423 10.3223Z" fill="#2D2D2D"/>
</svg>
