<?xml version="1.0" encoding="iso-8859-1"?>
<!-- Uploaded to: SVG Repo, www.svgrepo.com, Generator: SVG Repo Mixer Tools -->
<!DOCTYPE svg PUBLIC "-//W3C//DTD SVG 1.1//EN" "http://www.w3.org/Graphics/SVG/1.1/DTD/svg11.dtd">
<svg fill="#000000" version="1.1" id="Capa_1" xmlns="http://www.w3.org/2000/svg" xmlns:xlink="http://www.w3.org/1999/xlink" 
	 width="800px" height="800px" viewBox="0 0 98.574 98.574"
	 xml:space="preserve">
<g>
	<g>
		<path style="opacity:0.88;enable-background:new    ;" d="M96.9,32.006c-0.016-0.062-0.047-0.121-0.086-0.173l-0.232-0.294
			l0.059-0.236c0.021-0.082,0.02-0.168-0.004-0.249c-1.609-5.56-4.332-11.017-7.871-15.782c-0.052-0.068-0.119-0.122-0.199-0.155
			l-0.592-0.249c-0.149-0.063-0.328-0.044-0.463,0.053l-0.472,0.323c-0.321-0.407-0.653-0.846-0.835-1.09
			c-0.809-0.888-1.492-1.793-1.798-2.208c0.021-0.086,0.019-0.178-0.011-0.264l-0.242-0.72c-0.471-0.915-1.94-2.124-2.135-2.279
			C81.957,8.64,81.4,8.255,80.984,8.093c-0.438-0.172-0.897-0.196-0.948-0.198c-0.097-0.005-0.197,0.023-0.28,0.077
			c-1.277-0.916-4.054-3.147-4.085-3.173c-0.048-0.038-0.101-0.065-0.159-0.084L74.96,4.543c-0.179-0.056-0.321-0.05-0.444,0.09
			c-0.006,0.003-0.133,0.086-0.576,0.204c-0.561,0.149-1.057,0.215-1.493,0.272l-0.111,0.016c-0.587,0.075-0.797,0.315-0.866,0.51
			L70.667,6.92C70.643,6.958,70.624,7,70.612,7.043c-0.019,0.062-0.046,0.212,0.007,0.437c-0.01-0.021-0.021-0.042-0.029-0.063
			c-0.195-0.427-0.58-0.762-0.695-0.85c-0.881-0.501-2.4-0.305-3.012-0.198c-1.104,0.188-2.593,0.685-2.896,0.8
			c-0.238,0.092-1.505,0.514-2.158,0.682c-0.382,0.1-0.714,0.198-1.005,0.285c-0.21,0.063-0.398,0.12-0.571,0.165
			c-0.284,0.074-1.716,0.496-4.373,1.288c-1.02,0.302-1.686,0.422-1.68,0.422c-0.345,0.036-0.632,0.049-0.868,0.049
			c-0.693,0-0.945-0.101-0.947-0.097c-0.002-0.01-0.01-0.105-0.01-0.105l0.008-1.133c-0.005-0.069-0.062-0.685-0.591-0.972
			c-0.427-0.233-0.979-0.301-1.733-0.337c-0.81-0.035-1.683,0.043-2.125,0.14c-0.82,0.18-1.475,0.537-1.941,1.061
			c-0.684,0.763-0.59,1.421-0.584,1.436c0,0,0.037,0.666,0.088,1.161c0.019,0.182,0.07,0.337,0.142,0.47
			c-0.427,0.198-1.143,0.486-2.251,0.811c-2.038,0.598-3.421,0.723-3.435,0.725c-0.262,0.022-0.456,0.252-0.436,0.514
			c0.041,0.541,0.47,2.938,0.516,3.203c0.022,0.136,0.219,1.336,0.305,1.664c0.081,0.313,0.298,1.002,0.3,1.002
			c0.015,0.062,0.16,0.576,0.697,0.83c0.419,0.197,1.207,0.309,2.047-0.02c0.699-0.276,0.975-0.604,1.24-0.919l0.468-0.548
			c0.005-0.004,0.438-0.391,0.933-0.225c0.46,0.158,0.824,0.673,0.938,0.874c-0.264,0.089-0.591,0.193-0.835,0.259
			c-0.484,0.13-5.177,1.64-5.177,1.64s-1.817,0.583-3.261,0.932c-1.441,0.348-2.242,0.464-2.557,0.485
			c-0.289,0.02-0.35,0.009-0.358,0.007c0,0,0.015-0.027,0.148-0.265c0.01-0.017,0.013-0.035,0.02-0.052
			c0.002-0.005,0.004-0.008,0.006-0.013c0.031-0.072,0.053-0.145,0.063-0.22c0.006-0.026,0.009-0.043,0.012-0.065
			c0.003-0.038,0.007-0.069,0.009-0.101c0-0.012,0.001-0.019,0-0.028c0.002-0.07,0-0.125,0-0.125s-0.014-0.034-0.042-0.091
			c-0.013-0.034-0.033-0.072-0.059-0.113c-0.102-0.191-0.271-0.485-0.52-0.759c-0.1-0.108-0.21-0.19-0.318-0.252
			c-0.328-0.184-0.648-0.18-0.648-0.18s-0.813-0.116-2.255,0.491c-1.443,0.608-1.942,1.114-2.245,1.572
			c-0.3,0.458-0.024,0.991-0.024,0.991c0.349,0.499,1.012,1.074,1.012,1.074l-0.014,0.004c-0.453,0.513-1.648,0.993-1.94,1.105
			c-0.042,0.015-0.065,0.024-0.065,0.024s-0.028,0.009-0.08,0.028c-0.367,0.127-1.921,0.646-3.332,0.824
			c-0.772,0.097-1.471,0.146-1.98,0.172c0.688-0.682,0.991-1.412,1.004-1.447c0.655-1.607,0.066-3.195-0.289-3.59
			c-0.331-0.359-0.992-0.851-1.042-0.886c-0.233-0.196-0.805-0.434-1.491-0.12c0.065-0.395,0.192-0.875,0.379-1.329
			c0.315-0.763,1-2.098,1-2.098c0.042-0.071,1.029-1.761,1.438-2.838c0.43-1.126,0.429-1.992,0.429-2.028
			c-0.001-0.106-0.036-0.21-0.102-0.294c0,0-0.466-0.591-0.719-0.92c0.76,0.165,1.32-0.151,1.424-0.216
			c1.052-0.795,1.705-2.217,1.726-2.261l0.944-1.915c0.072-0.147,0.064-0.323-0.022-0.464l-0.788-1.278
			c-0.068-0.112-0.181-0.19-0.31-0.217c-0.096-0.019-0.255-0.053-1.188,0.266c-0.43,0.146-0.787,0.299-1.037,0.415l-0.259-0.384
			c-0.015-0.024-0.095-0.108-0.113-0.129c-0.216-0.221-0.633-0.251-1.309-0.098c-0.778,0.179-1.888,0.772-2.407,1.462
			c-0.288,0.382-0.425,0.662-0.49,0.835c-1.403,1.208-2.582,1.78-2.841,1.898c-0.474,0.073-0.776,0.3-0.827,0.338
			c-1.318,1.114-2.856,2.904-3.053,3.135c-0.065,0.063-0.125,0.151-0.183,0.261c-0.06,0.116-0.261,0.724-0.212,0.989
			c0.004,0.021,0.01,0.043,0.015,0.062c-0.6,0.796-0.986,1.239-1.19,1.459c-0.058-0.001-0.12,0.003-0.18,0.012
			c-0.235,0.068-0.664,0.334-0.838,0.445c-0.052,0.034-0.097,0.077-0.133,0.126c-0.367,0.521-1.215,1.921-1.489,2.378
			c-0.063,0.031-0.129,0.071-0.189,0.11c-0.072,0.003-0.144,0.024-0.209,0.061l-0.654,0.367c-0.072,0.041-0.133,0.099-0.175,0.169
			c-3.052,5.019-5.157,10.482-6.259,16.242c-0.013,0.069-0.01,0.143,0.008,0.212l0.041,0.151l-0.172,0.383
			c-0.016,0.037-0.027,0.075-0.034,0.113C0.244,39.087,0,41.933,0,44.781c0,1.858,0.105,3.73,0.312,5.564
			c0.01,0.08,0.038,0.156,0.083,0.221l0.174,0.248l-0.106,0.263c-0.03,0.077-0.041,0.16-0.03,0.242
			C1.3,57.871,3.446,64.084,6.809,69.785c0.032,0.056,0.075,0.104,0.127,0.143L7,69.975l0.054,0.19
			c0.011,0.042,0.028,0.082,0.051,0.119c9.022,14.891,24.791,23.779,42.181,23.779c12.423,0,24.29-4.637,33.415-13.055
			c9.072-8.37,14.646-19.727,15.693-31.977c0.006-0.075-0.006-0.152-0.033-0.222L98.232,48.5l0.171-0.285
			c0.038-0.063,0.062-0.139,0.065-0.214c0.069-1.085,0.105-2.171,0.105-3.228C98.573,40.441,98.01,36.146,96.9,32.006z
			 M97.068,38.719c0.066-0.065,0.109-0.19,0.097-0.503c0.167,1.231,0.286,2.47,0.358,3.715c-0.084,0.183-0.116,0.578-0.116,0.578
			s-0.063,0.447-0.149,0.438c-0.021-0.004-0.053-0.004-0.092-0.022c-0.119-0.06-0.304-0.3-0.447-1.329
			c-0.191-1.374-0.149-2.822-0.149-2.822s-0.042-0.148,0.044-0.181c0.085-0.031,0.18,0.096,0.18,0.096S96.921,38.868,97.068,38.719z
			 M96.002,32.35c0.205,0.771,0.373,1.554,0.54,2.335c-0.237-0.985-0.508-1.897-0.716-2.557L96.002,32.35z M95.825,32.125
			c0.056,0.175,0.11,0.359,0.168,0.554c-0.06-0.195-0.118-0.39-0.171-0.557L95.825,32.125z M95.684,31.948l0.018,0.021l-0.157-0.176
			v-0.001l0.138,0.15C95.682,31.943,95.684,31.947,95.684,31.948z M93.744,25.897c0.008-0.003,0.006-0.012,0.014-0.015
			c0.732,1.711,1.37,3.452,1.889,5.205c-0.041,0.002-0.08-0.001-0.123,0.008c-0.016,0.004-0.023,0.01-0.035,0.014
			c-0.004-0.01-0.006-0.016-0.006-0.016s-0.299-0.873-0.989-2.619c-0.606-1.527-0.772-2.184-0.806-2.324
			c-0.006-0.021-0.008-0.029-0.008-0.029S93.639,25.931,93.744,25.897z M95.541,31.781L95.541,31.781l-0.002-0.002L95.541,31.781z
			 M95.477,31.088L95.477,31.088c0,0.001-0.002-0.005-0.002-0.007C95.475,31.083,95.477,31.086,95.477,31.088z M88.291,17.226
			c0.121-0.061,0.255-0.138,0.363-0.222c0.04-0.031,0.064-0.063,0.097-0.096c0.822,1.171,1.595,2.379,2.313,3.618
			c-0.088,0.013-0.157,0.123,0.02,0.59c0.111,0.294,0.129,0.399,0.107,0.417c-0.035,0.024-0.18-0.194-0.18-0.194
			c-0.886-1.127-2.717-4.109-2.717-4.109l-0.176-0.121L88.291,17.226z M87.706,17.481c0.026-0.012,0.056-0.022,0.08-0.033
			c0.021-0.008,0.038-0.017,0.058-0.025c0.057-0.023,0.111-0.046,0.16-0.069c0,0,0.012-0.004,0.035-0.015c0,0,0,0,0.002,0
			l0.008,0.014c0.977,1.577,2.723,4.111,2.723,4.111s0.709,0.917,0.867,0.926c0.157,0.011-0.08-0.709-0.08-0.709
			s-0.078-0.29-0.014-0.329c0.655,1.18,1.258,2.387,1.811,3.609l-0.002,0.002c0,0-0.14,0.069-0.14,0.316
			c0,0.482,0.476,1.588,0.476,1.588s0.996,2.533,1.632,4.307c-0.203,0.112-0.326,0.289-0.769,0.361
			c-0.566,0.092-1.221,0.292-1.861,1.262c-0.192,0.291-0.262,0.601-0.275,0.896c-0.001,0.005-0.004,0.009-0.005,0.014
			c-0.001,0.02,0.004,0.038,0.002,0.057c0,0.119,0.005,0.232,0.021,0.34c0.004,0.033,0.006,0.064,0.012,0.096
			c0.016,0.091,0.035,0.174,0.057,0.253c0.008,0.029,0.014,0.066,0.021,0.093c0.002,0.006,0.004,0.01,0.007,0.016
			c0.077,0.25,0.163,0.413,0.163,0.413s0.344,0.566,0.511,0.856c0.164,0.293,1.021,2.121,0.035,3.455c0,0-0.528,0.614-1.46,0.822
			c-0.823,0.183-0.614-0.781-0.698-1.297c0,0-0.123-2.184-1.183-3.436c-0.937-1.096-2.629,0.852-3.475,1.5
			c-0.787,0.602-3.089,2.979-6.396,4.712l-0.12-1.588c0,0-0.081-0.854-0.541-2.184c-0.938-2.706-1.857-3.945-1.857-3.945
			s-0.369-0.796-1.188-1.12c-0.207-0.082-0.436-0.143-0.701-0.143c-1.273,0-1.37,1.168-1.37,1.168s-0.298,0.921-0.786,1.206
			c-0.419,0.242-1.549,0.9-2.322,0.518c-0.11-0.057-0.213-0.131-0.307-0.233c-0.146-0.16-0.267-0.332-0.393-0.5
			c-0.145-0.192-0.272-0.387-0.389-0.587c-0.4-0.695-0.647-1.427-0.713-2.139c-0.098-1.1,0.354-1.546,0.354-1.546
			s0.092-0.284,1.544-0.284c1.627,0,1.927-0.501,1.927-0.501s0.31-0.285,0.286-0.922c-0.025-0.638-0.273-2.006-0.745-2.874
			c-0.065-0.119-0.157-0.261-0.253-0.403c-0.357-0.543-0.889-1.216-1.361-1.764l-0.877-0.16l0.877,0.156
			c0.566-0.211,1.348-0.518,2.188-0.896c1.72-0.776,2.54-1.424,3.329-1.874c0,0,1.74-1.071,2.763-1.043
			c0.003,0,0.238-0.007,0.261,0.307c0.021,0.313,0.101,0.779,0.207,1.049c0.107,0.269,0.703,1.744,2.612,1.961
			c0.239,0.027,0.462,0.03,0.667,0.016c0.113-0.008,0.21-0.032,0.312-0.051c0.084-0.015,0.176-0.021,0.252-0.04
			c0.145-0.039,0.271-0.089,0.395-0.142c0.023-0.009,0.053-0.016,0.075-0.026c0.128-0.06,0.239-0.125,0.344-0.192
			c0.011-0.006,0.024-0.011,0.034-0.019c0.443-0.295,0.646-0.619,0.646-0.619s0.655-1.002-0.473-2.196c0,0-0.918-0.984-0.945-1.06
			c0,0-0.056-0.089,0.041-0.164c0.027-0.021,0.062-0.041,0.116-0.058c0.162-0.046,1.302-0.366,2.396-0.72
			C86.823,17.809,87.32,17.638,87.706,17.481z M81.717,48.68c0.504,1.044,1.627,1.151,2.438,0.949
			c0.815-0.204,1.083-0.651,1.534-1.629c0.447-0.974,0.69-1.043,0.69-1.043s0.181-0.259,1.007-0.162
			c0.826,0.095,1.004,0.678,1.004,0.678s0.477,1.125,0.379,2.307c-0.092,1.178-0.351,1.708-0.621,2.127
			c-0.272,0.423-1.685,0.284-1.685,0.284s-2.427-0.271-2.645,2.646c-0.218,2.915,0.759,4.936,0.759,4.936
			c0.355,0.772,0.718,1.179,1.018,1.396c0.297,0.216,0.582,0.502,0.582,0.502s0.053,0.045,0.127,0.143l-0.013-0.001
			c-1.729,1.4-2.241,1.854-3.62,2.829c0,0-1.572,1.175-3.292,2.103c-1.728,0.929-3.753,0.815-3.753,0.815s-0.548-0.06-0.281-0.457
			c0.264-0.396,0.606-1.362,0.737-1.854c0.136-0.493,0.397-1.741-0.604-2.14c-1.004-0.396-2.89,0.188-2.89,0.188
			s-4.331,1.153-6.099,3.092c-1.717,1.885-0.273,2.726-0.273,2.726s0.672,0.469,1.326,0.698c0.617,0.22,0.493,0.416,0.34,0.53
			c0,0-1.936,1.232-4.222,1.891c0,0-3.127,0.957-6.164,1.153c-2.979,0.191-4.265,0.271-4.297,0.271
			c-0.326-0.64-0.663-1.213-0.663-1.213s-0.354-0.545-0.525-1.311c-0.145-0.646-0.16-1.444,0.291-2.23
			c0.993-1.727,2.618-2.247,2.618-2.247s1.437-0.318,2.868,0.015c1.357,0.311,2.042-0.209,2.042-0.209s0.468-0.203,0.806-1.005
			c0.028-0.069,0.053-0.156,0.08-0.234c0.023-0.069,0.051-0.134,0.072-0.213c0.047-0.169,0.088-0.356,0.118-0.565
			c0.25-1.654-0.015-4.729-2.218-5.339c-2.207-0.604-3.379,0.54-3.379,0.54s-1.188,1.312-1.572,1.502
			c-0.387,0.192-0.98,0.538-0.98,0.538s-0.828,0.497-1.391,0.621c-0.35,0.077-1.529-1.47-1.795-2.79
			c-0.018-0.09-0.043-0.182-0.053-0.27c-0.111-1.103-0.321-2.025-0.312-3.976c0.002-0.276,0.007-0.573,0.019-0.896
			c0-0.004,0-0.01,0-0.017c0.391-0.021,0.788-0.043,1.187-0.06c3.42-0.124,5.115-0.53,6.933-0.937
			c1.816-0.41,4.373-1.896,4.754-2.181c0.332-0.247,0.986-0.547,1.25-1.456c0.028-0.097,0.047-0.208,0.065-0.316
			c0.006-0.035,0.017-0.063,0.021-0.101c0-0.004,0.002-0.007,0.002-0.01c0.162-1.238-1.305-2.064-1.305-2.064
			s-1.166-0.615-1.412-0.89c-0.123-0.137-0.127-0.271-0.102-0.371c0.025-0.095,0.079-0.158,0.079-0.158s0.659-1.421,2.772-2.253
			c2.11-0.835,3.531-1.061,4.42-1.156c0.893-0.095,1.191,0.227,1.315,0.379c0.121,0.15,0.121,0.464,0.021,0.785
			c-0.1,0.295-0.426,0.994-0.619,1.336c-0.188,0.341-0.5,1.164-0.301,1.553c0.198,0.388,0.807,0.568,1.59,0.426
			c0.787-0.143,2.859-0.729,4.68-1.486c1.82-0.757,4.855-2.245,4.855-2.245s0.01-0.004,0.021-0.012l0.001-0.007
			c0.002,0,0.002,0,0.005-0.002l0.079-0.676c0.001,0.004,0.003,0.01,0.004,0.014l-0.077,0.684
			C80.034,45.145,81.223,47.654,81.717,48.68z M86.658,61.849l-0.02,0.604c0.2,0.55,0.348,1.418,0.137,2.696
			c-0.275,1.7-0.68,2.685-0.95,3.189c-0.048,0.086-0.097,0.175-0.146,0.254c-0.021,0.028-0.029,0.043-0.045,0.064
			c-0.045,0.067-0.093,0.127-0.14,0.188c-0.05,0.064-0.144,0.176-0.259,0.307c-0.057,0.059-0.111,0.122-0.17,0.175
			c-0.022,0.02-0.047,0.041-0.067,0.06c-0.063,0.063-0.134,0.129-0.209,0.192c-0.021,0.019-0.03,0.032-0.05,0.05
			c-0.365,0.31-0.821,0.6-1.312,0.659c-1.07,0.128-2.23,0.113-3.31,1.145c-0.017,0.017-0.036,0.024-0.052,0.04
			c-0.034,0.035-0.073,0.076-0.109,0.114c-0.02,0.021-0.039,0.035-0.059,0.057c-0.006,0.008-0.012,0.017-0.018,0.023
			c-0.105,0.116-0.212,0.259-0.312,0.416c-0.872,1.309-0.674,2.761-0.674,2.761s0.113,1.101,1.293,0.8
			c1.176-0.3,2.382-1.206,3.291-1.927c0.906-0.719,0.35,0.243,0.35,0.243c-0.799,1.561-2.318,3.12-2.318,3.12
			s-0.529,0.461-1.693,2.102c-0.303,0.426-0.555,0.807-0.766,1.14c0,0.001-0.002,0.001-0.002,0.001s-0.005,0.005-0.008,0.009
			c-1.191,0.639-2.904,1.49-3.984,1.931c0.053-0.019,0.112-0.045,0.168-0.064c-0.057,0.022-0.115,0.05-0.168,0.07
			c-0.57,0.235-1.02,0.39-1.347,0.48c0.011-0.004,0.015-0.006,0.026-0.01c-0.348,0.099-0.555,0.123-0.617,0.092
			c-0.003-0.002-0.012-0.002-0.014-0.004c-0.012-0.011-0.006-0.025,0-0.041c0.002-0.006-0.002-0.009,0.002-0.015
			c0.123-0.179,0.441-0.438,0.441-0.438s0.383-0.383,0.383-0.771c0,0,0.029-0.141-0.147-0.236c-0.177-0.099-0.56-0.152-1.39,0.021
			c-0.407,0.084-0.801,0.2-1.17,0.323c-0.008,0.003-0.019,0.006-0.026,0.009c-0.496,0.167-0.944,0.349-1.281,0.498
			c0.007,0.001,0.009,0.001,0.011,0c0,0,0.033-0.015,0.096-0.039c-0.473,0.209-0.778,0.372-0.778,0.372s-0.836,0.387-1.418,0.841
			l0.019-0.019c-0.021,0.017-0.037,0.033-0.059,0.051c-0.07,0.057-0.139,0.114-0.197,0.174c-0.013,0.012-0.025,0.022-0.037,0.034
			c-0.074,0.076-0.134,0.151-0.181,0.229c-0.007,0.011-0.015,0.021-0.021,0.032c-0.043,0.077-0.067,0.152-0.07,0.227
			c0,0.006,0.001,0.01,0.001,0.015c0.001,0.079,0.022,0.154,0.082,0.225c0,0,0.11,0.18,0.606,0.339
			c0.059,0.018,0.084,0.04,0.096,0.063c0.005,0.007,0.004,0.017,0.004,0.023c0,0.016-0.008,0.03-0.018,0.047
			c-0.013,0.016-0.021,0.03-0.041,0.046c-0.009,0.007-0.021,0.015-0.029,0.021c-0.027,0.021-0.057,0.04-0.094,0.062l0.017-0.005
			c-0.284,0.16-0.813,0.323-0.813,0.323c-1.308,0.428-2.312,0.622-3.58,0.886c-1.315,0.27-2.453,0.518-3.22,0.687l-0.001-0.003
			l0.008-0.002c-0.082-0.312-0.203-0.618-0.336-0.909c-0.018-0.037-0.033-0.072-0.052-0.109c-0.063-0.132-0.127-0.26-0.192-0.382
			c-0.014-0.023-0.025-0.05-0.037-0.071c-0.076-0.137-0.149-0.263-0.22-0.38c-0.032-0.055-0.06-0.098-0.089-0.146
			c-0.033-0.053-0.062-0.103-0.093-0.148c-0.085-0.135-0.161-0.251-0.208-0.326c-0.301-0.481-0.801-0.757-2.291-0.508
			c-1.489,0.248-3.24,0.991-3.24,0.991s-1.811,0.953-3.158,0.774c-0.339-0.045-0.608-0.164-0.824-0.324
			c-0.646-0.479-0.799-1.326-0.788-1.646c0.014-0.428,0.29-0.8,0.994-1.075c0.704-0.276,2.36-0.648,4.772-0.773
			s3.311-1.694,3.311-1.694c0.275-0.4,0.744-1.232-0.049-1.942c-0.115-0.103-0.255-0.202-0.425-0.298
			c-0.842-0.472-1.17-0.574-1.454-0.704c-0.105-0.049-0.206-0.104-0.324-0.179c-0.009-0.007-0.018-0.012-0.026-0.019
			c-0.021-0.013-0.044-0.029-0.063-0.044c-0.05-0.035-0.099-0.067-0.156-0.112c-0.162-0.124-0.328-0.256-0.488-0.396
			c-0.484-0.419-0.932-0.918-1.139-1.549c-0.023-0.081-0.063-0.189-0.1-0.28l-0.486-0.318l-0.32-0.213l-0.002-0.001v0.001l0,0
			l-0.004-0.002l0.002-0.002h-0.002l0.002-0.002v0.001v0.001v0.001l0.002,0.002c0,0,0-0.001,0-0.002l0.005-0.006l0,0l0.058-0.054
			l-0.058,0.054l0.01,0.007c-0.003,0-0.006,0.001-0.009,0.001l0.806,0.532c0.701-0.058,1.615-0.123,2.431-0.162
			c1.617-0.079,4.153-0.454,5.627-0.774c1.474-0.328,3.703-1.016,5.352-1.868c1.65-0.854,1.73-1.455,1.73-1.455
			s0.125-0.177,0.047-0.434c-0.045-0.154-0.162-0.337-0.424-0.525c-0.688-0.501-0.992-0.365-1.602-0.983
			c-0.075-0.074-0.122-0.155-0.148-0.238c-0.187-0.592,0.683-1.301,0.683-1.301s0.588-0.827,3.849-2.084
			c3.262-1.258,3.811-0.836,3.979-0.696c0.041,0.032,0.074,0.087,0.098,0.15c0.07,0.2,0.068,0.507,0.02,0.733
			c-0.066,0.305-0.474,1.394-0.691,1.967c-0.11,0.289-0.186,0.632-0.116,0.924c0.063,0.284,0.261,0.522,0.697,0.616
			c0.886,0.185,2.12-0.009,3.28-0.425c2.77-0.988,3.598-2.196,8.17-5.518c0.012-0.01,0.021-0.015,0.029-0.021l0.016-0.619
			c0.002-0.001,0.003-0.002,0.004-0.003v0.001C86.653,61.837,86.656,61.844,86.658,61.849z M39.581,78.581
			c0.731,0.824,1.498,1.178,1.498,1.178s0.451,0.198,0.443,0.322c-0.007,0.156-0.014,0.295-0.352,0.489c0,0-1.333,0.779-3.932,0.822
			c-2.598,0.043-3.743,0.021-4.506-0.666c-0.63-0.565,0.158-1.765,0.158-1.765s0.315-0.587,0-1.392
			c-0.316-0.805-2.123-0.817-2.123-0.817l-2.503-0.128c-2.963-0.078-6.875-0.41-8.617-0.626c0,0-0.011-0.002-0.03-0.005v0.002
			l-0.051-0.076c0,0-1.794-3.23-1.604-4.418c0,0,0.05-0.604,0.813-0.987c0.109-0.055,0.233-0.104,0.373-0.146
			c0.782-0.24,0.679,0.519,2.979,0.933c0,0,1.153,0.306,1.931-0.188c0.24-0.153,0.447-0.376,0.57-0.718
			c0.516-1.441-0.542-3.249-0.542-3.249s-1.389-2.542-3.105-2.638H20.98l0,0c-0.012-0.001-0.019,0.002-0.028,0.001
			c-0.869-0.036-0.65,0.562-2.004,0.883c0,0-1.833,0.179-2.412-0.921c-0.701-1.33-0.973-2.842-0.973-3.85
			c0-0.035,0.001-0.06,0.001-0.091c0.017-0.632,0.037-0.852,0.07-1.025c0.015-0.062,0.031-0.132,0.051-0.226
			c0.022-0.099,0.063-0.228,0.108-0.394c0.047-0.173,0.097-0.385,0.129-0.653l-0.002-0.01c0.777-0.086,2.024-0.22,3.465-0.376
			c2.42-0.26,4.047-0.521,5.551-0.295c1.505,0.226,1.989,1.399,1.989,1.399s0.026,0.075,0.009,0.178
			c-0.02,0.101-0.079,0.226-0.246,0.333c-0.335,0.217-0.719,0.525-0.907,0.854c-0.001,0.003-0.002,0.005-0.004,0.007
			c0,0,0,0.001-0.001,0.002c-0.021,0.038-0.044,0.083-0.065,0.131c-0.001,0.001-0.001,0.001-0.001,0.001
			c-0.16,0.366-0.264,0.999,0.219,1.815c0.548,0.923,2.051,1.523,3.33,1.371c1.277-0.148,3.192-0.641,4.326-0.938
			c0.928-0.242,1.771-0.646,2.194-1.241c0.142-0.199,0.238-0.419,0.273-0.662c0.142-0.965-1.47-2.198-1.47-2.198
			s-0.774-0.585-0.869-0.718c-0.024-0.034-0.029-0.062-0.026-0.086c0.022-0.062,0.115-0.093,0.115-0.093s0.909-0.22,1.299-0.396
			c0.387-0.182,1.457-0.618,3.21-1.167s5.367-1.193,5.367-1.193s1.995-0.317,4.485-0.521l0.009-0.01
			c0.003-0.001,0.005-0.001,0.007-0.001l0.308-0.354l0.094-0.106l-0.407,0.471c-0.007,0.235-0.015,0.478-0.024,0.729
			c-0.138,3.711,0.689,5.613,0.689,5.613c0.47,1.02,0.979,1.752,1.671,2.219c0.688,0.469,1.627,0.149,1.932,0
			c0.302-0.151,1.143-0.539,1.859-0.992c0.717-0.457,0.693-0.65,1.56-1.45c0.868-0.798,1.987-0.577,1.987-0.577
			s1.061,0.025,1.666,1.256c0.608,1.229,0.486,2.978,0.332,3.612c-0.151,0.633-0.427,1.049-1.019,0.938
			c-0.595-0.109-1.574-0.208-1.933-0.222c-0.359-0.014-1.371-0.048-2.291,0.193c-0.898,0.233-2.111,0.881-3.27,2.761
			c-0.898,1.454-0.458,2.883-0.25,3.448c0.162,0.441,0.607,1.058,0.998,1.813l0.725,0.241l-0.002,0.002l-0.719-0.239
			c-1.229,0.147-3.308,0.443-5.357,0.938c-2.51,0.612-4.904,1.099-6.608,2.198C40.122,76.91,38.848,77.759,39.581,78.581z
			 M19.616,76.015l-0.005,0.135c0-0.001-0.001-0.001-0.001-0.001v0.001l0,0v-0.002l0,0L19.616,76.015z M15.787,57.591l-0.003-0.002
			l0.003-0.002C15.787,57.587,15.787,57.589,15.787,57.591z M45.891,37.285c-0.187-1.338-0.238-1.653-1.42-5.71
			c1.551-0.213,2.81-0.411,4.239-0.689c0.959-0.188,1.991-0.409,3.249-0.699c0,0,2.913-0.519,3.518-1.583
			c0.353-0.62,0.983-1.471-0.039-2.323c-0.002-0.002-0.004-0.004-0.006-0.006v-0.001c0,0-0.117-0.155-0.756-0.298
			c-0.271-0.061-0.511-0.116-0.742-0.186c-0.313-0.095-0.61-0.218-0.92-0.44c-0.541-0.386-0.527-0.832-0.527-0.832
			s-0.047-0.426,0.824-0.916c0,0,0.457-0.335,1.367-0.719c0.305-0.128,0.658-0.261,1.063-0.39c1.619-0.51,3.491-0.283,3.491-0.283
			s0.785,0.085,0.656,0.615c-0.135,0.531-0.578,1.419-0.597,1.875c-0.012,0.273-0.002,0.574,0.198,0.852
			c0.064,0.09,0.154,0.176,0.268,0.259c0.116,0.086,0.254,0.169,0.432,0.244c0.559,0.23,1.268,0.272,1.721,0.271
			c0.271,0,0.452-0.017,0.452-0.017s1.323-0.065,3.493-0.766c1.358-0.439,2.72-0.912,3.545-1.204
			c0.486-0.171,0.787-0.279,0.828-0.294c0.009-0.004,0.01-0.004,0.021-0.008l0.002,0.008c1.902,1.863,2.247,4.134,2.247,4.134
			s0.257,0.895-0.27,0.963c-0.461,0.059-1.535,0.067-1.535,0.067s-0.406,0.042-1.07,0.177c-0.66,0.135-1.082,0.84-1.176,1.328
			c-0.094,0.488-0.383,1.828,0.748,3.934c1.123,2.102,2.547,2.006,2.547,2.006c1.234-0.107,1.613-0.325,2.334-0.813
			c0.697-0.475,1.018-1.531,1.057-1.734c0.043-0.204,0.137-0.406,0.297-0.406c0.168,0,0.112,0,0.492-0.054
			c0.383-0.054,0.667,0.217,0.979,0.854c0.203,0.41,1.287,2.196,1.601,3.256c0.313,1.055,0.585,2.112,0.61,3.062
			c0.012,0.374,0.064,0.805,0.123,1.184l0.302,0.435c0,0.001,0,0.002,0,0.003l-0.001,0.005l-0.311-0.451
			c-1.588,0.791-5.187,2.541-7.533,3.363c0,0-1.795,0.729-2.527,0.748c0,0-0.163,0.006-0.031-0.17
			c0.127-0.178,0.264-0.309,0.484-0.707c0.22-0.4,0.617-1.299,0.617-2.227c0-0.928-1.07-1.835-2.564-1.674
			c-1.492,0.16-2.921,0.574-4.642,1.237c-1.72,0.662-3.199,2.066-3.397,3.23c-0.199,1.164,1.059,1.838,1.059,1.838
			s1.42,0.719,1.602,1.107s0.048,0.75,0.048,0.75s-0.122,0.388-0.75,0.748c-0.62,0.359-2.315,1.23-2.315,1.23
			s-2.112,1.165-5.324,1.447c0,0-2.928,0.249-4.61,0.334c-0.019,0.002-0.039,0.002-0.059,0.003c0.073-2.155-0.188-3.833-0.635-5.082
			c-0.149-0.416-0.318-0.785-0.504-1.107c-0.77-1.353-2.026-2.07-2.646-2.373c-0.619-0.303-2.055-0.441-3.034-0.082
			c-0.979,0.359-1.185,0.647-1.543,1.269c-0.361,0.622-0.8,0.581-0.8,0.581s-1.31,0.027-1.777-1.936
			c-0.01-0.037-0.022-0.063-0.031-0.103c-0.063-0.302-0.101-0.568-0.135-0.829c-0.006-0.056-0.022-0.123-0.027-0.177
			c-0.02-0.173-0.02-0.314-0.025-0.47c-0.005-0.119-0.02-0.252-0.02-0.361c0.01-1.496,0.551-2.026,0.551-2.026
			s0.305-0.456,1.311-0.593c1.008-0.138,1.656,0.11,2.428,0.302c0.771,0.193,1.351,0.111,2.316-0.357
			c0.555-0.271,0.921-0.646,1.101-1.174C45.94,38.344,45.975,37.871,45.891,37.285z M62.066,8.778
			c0.679-0.175,1.986-0.607,2.265-0.715c0.271-0.105,1.692-0.576,2.714-0.752c1.033-0.182,1.965-0.146,2.301,0.036
			c0.055,0.048,0.279,0.265,0.371,0.465c0.127,0.278,0.484,0.96,1.104,1.275c0.519,0.258,0.897,0.41,2.051,0.308
			c1.636-0.411,1.821-1.323,1.653-1.634c-0.215-0.408-0.856-0.826-0.856-0.826s-0.86-0.55-1.046-0.81
			c-0.02-0.028-0.02-0.047-0.029-0.069c0.461-0.062,0.981-0.13,1.592-0.293c0.295-0.079,0.525-0.159,0.697-0.241l0.26,0.08
			c0.51,0.407,3.429,2.744,4.422,3.399c0.205,0.134,0.477,0.093,0.633-0.096l0.02-0.023c0.123,0.099,0.258,0.208,0.299,0.254
			c0,0,0.621-0.003,0.931,0.311c0.407,0.331,1.536,1.327,1.829,1.884l0.145,0.438c-0.08,0.157-0.066,0.346,0.035,0.492
			c0.037,0.052,0.909,1.289,2.014,2.499c0.112,0.153,1.032,1.394,1.543,1.931c-0.269,0.109-0.648,0.248-1.158,0.384
			c-1.065,0.287-2.094,0.767-2.094,0.767s-0.854,0.277-0.529,0.971c0.031,0.064,0.066,0.11,0.1,0.169
			c0.018,0.048,0.043,0.099,0.079,0.15c0,0,0.017,0.017,0.021,0.022c0.291,0.455,0.604,0.688,0.604,0.688s0.052,0.051,0.125,0.132
			c0.039,0.043,0.083,0.095,0.132,0.153c0.02,0.024,0.038,0.047,0.059,0.072c0.071,0.092,0.145,0.197,0.207,0.305
			c0.099,0.166,0.174,0.341,0.183,0.5c0.021,0.503-0.19,0.73-0.731,1.029c-0.539,0.3-1.029,0.358-1.029,0.358
			s-1.279,0.23-1.914-0.37s-0.754-1.592-0.754-1.592s-0.049-0.839-1.099-1.197c-1.056-0.359-2.349,0.406-2.349,0.406
			s-1.02,0.539-2.107,1.245c-1.09,0.706-3.15,1.568-4.441,2.023l-0.146,0.669v0.002c0.001,0,0.001,0,0.001,0l0.002,0.001
			l-0.003-0.001l0,0h-0.001h-0.001v-0.002h0.002h-0.001v-0.001l0.001,0.001l0.069-0.325l0.073-0.341c0-0.002,0-0.002,0-0.002v-0.001
			c-0.09-0.085-0.25-0.254-0.449-0.474c-0.491-0.544-1.239-1.415-1.922-2.232c-0.666-0.798-1.266-1.54-1.486-1.856
			c-0.54-0.773-0.622-0.95-0.718-1.208c-0.023-0.064-0.025-0.148-0.013-0.242c0.043-0.285,0.232-0.664,0.406-0.868
			c0.229-0.27,0.501-0.323,1.057-0.202c0.558,0.122,0.922,0.367,1.805,0.081c0.884-0.282,0.926-0.948,0.99-1.627
			c0.053-0.509-0.393-1.443-0.895-2.171c-0.167-0.244-0.34-0.464-0.502-0.637c-0.654-0.691-1.574-0.802-2.212-0.76
			c-0.636,0.041-1.003,0.502-1.373,0.706c-0.364,0.204-1.056,0.407-1.366,0.272c-0.156-0.068-0.354-0.137-0.578-0.304
			c-0.223-0.168-0.473-0.435-0.735-0.902c-0.349-0.612-0.646-1.173-0.837-1.543C61.662,8.888,61.854,8.833,62.066,8.778z
			 M43.35,22.562c0.152-0.073,0.413-0.179,0.775-0.231l0.732-0.042c0.15,0.009,0.313,0.021,0.484,0.033l0.171,0.016
			c0.331,0.028,0.788,0.064,1.327-0.163c0.004-0.001,0.007-0.002,0.01-0.004c0.015-0.006,0.029-0.013,0.045-0.019
			c0.103-0.039,0.199-0.08,0.285-0.128c0.406-0.227,1.517-0.833,1.439-2.07c-0.074-1.237-1.061-2.703-1.867-3.207
			c-0.203-0.127-0.421-0.209-0.644-0.254c-0.667-0.138-1.375,0.057-1.81,0.379c-0.579,0.431-0.809,0.984-1.162,1.162
			c-0.349,0.172-0.844,0.564-1.368,0.454c-0.006-0.002-0.012,0-0.017-0.001c-0.53-0.127-0.557-1.313-0.783-2.651
			c-0.091-0.54-0.168-0.99-0.23-1.348c-0.025-0.152-0.048-0.283-0.068-0.4c0.621-0.095,1.656-0.286,2.984-0.676
			c2.216-0.649,2.978-1.169,3.058-1.225c0.101-0.073,0.148-0.187,0.169-0.305c0.23-0.146,0.439-0.294,0.604-0.451
			c0,0,0.599-0.28,0.021-0.842c-0.002-0.001-0.002-0.001-0.002-0.001l0,0c-0.581-0.56-0.859-0.729-0.859-0.729
			s-0.097-0.053-0.145-0.171c-0.013-0.033-0.02-0.074-0.021-0.118c0.051-0.094,0.119-0.197,0.225-0.316
			c0.331-0.37,0.813-0.627,1.433-0.763c0.319-0.07,1.113-0.153,1.879-0.119c0.597,0.028,0.945,0.078,1.181,0.164
			c-0.033,0.351-0.084,0.83-0.073,0.978c0.01,0.148,0.025,0.48,0.365,0.791c0.068,0.192,0.191,0.375,0.41,0.466
			c0.146,0.088,0.746,0.36,2.434,0.188c0.03-0.006,0.729-0.129,1.82-0.453c2.611-0.777,4.072-1.208,4.343-1.279
			c0.022-0.006,0.054-0.016,0.075-0.021c0.133,0.266,0.354,0.68,0.729,1.318c0.865,1.488,2.371,2.062,3.021,1.993
			c0.57-0.059,1.548-0.325,1.926-0.744c0.379-0.421,0.76-0.368,0.76-0.368c0.824-0.053,1.029,0.64,1.707,1.615
			c0.68,0.976,0.26,1.735,0.26,1.735c-0.449,0.596-0.953,0.475-1.414,0.38c-0.346-0.072-0.383-0.113-0.783-0.189
			c-1.248-0.165-1.668,0.757-1.668,0.757c-0.896,1.384,0.164,2.387,0.164,2.387s2.363,3.17,4.164,5.123
			c-1.359,0.468-3.125,1.059-3.125,1.059s-2.403,0.887-3.985,1.104c-1.578,0.215-1.931-0.014-2.144-0.229
			c-0.218-0.214,0.037-0.969,0.037-0.969s0.646-1.316,0.334-2c-0.311-0.685-2.347-0.862-2.379-0.862
			c-0.039,0-2.22-0.253-4.262,0.893c-1.814,1.017-2.053,1.572-2.053,1.572s-0.577,0.897,0.109,1.787
			c0.771,1.006,1.797,1.097,1.797,1.097s0.979,0.075,1.205,0.363c0.229,0.286,0.072,0.601,0.072,0.601s-0.32,0.884-2.133,1.255
			c0,0-3.042,0.893-8.717,1.699c-1.132-4.088-1.204-6.664-1.204-6.664C42.904,23.127,43,22.792,43.35,22.562z M24.57,34.986
			c0,0,0.453,0.058,0.387,0.221c-0.062,0.13-0.402,0.396-0.402,0.396s-0.131,0.078-0.625,0.64c-0.496,0.561-0.642,1.105-0.665,1.589
			c-0.003,0.061,0.003,0.137,0.019,0.224c0.105,0.601,0.7,1.737,2.293,2.073c1.821,0.381,3.904-0.326,3.904-0.326
			s1.365-0.301,2.666-1.603c0.591-0.592,0.667-1.235,0.565-1.772c-0.13-0.691-0.554-1.207-0.554-1.207s-0.212-0.292-0.62-0.423
			c0,0-0.097-0.027-0.105-0.087c-0.002-0.02,0.005-0.044,0.031-0.072c0.063-0.07,0.184-0.287,0.486-0.501
			c0.185-0.107,0.457-0.233,0.83-0.366c0.963-0.248,3.813-1.147,10.587-2.043l0.003-0.006c0.001,0.013,0.491,1.967,0.863,3.232
			c0.372,1.27,0.538,2.523,0.595,2.785c0.055,0.262,0.041,0.729-0.304,1.006c-0.345,0.277-1.187,0.512-1.364,0.539
			c-0.18,0.027-0.512-0.041-0.953-0.193c-0.443-0.151-0.883-0.179-0.883-0.179s-1.063-0.18-2.193,0.166
			c-1.132,0.343-1.987,1.501-2.057,2.95c-0.066,1.449-0.054,2.181,0.513,3.463c0.564,1.282,1.586,2.014,2.357,2.027
			c0.774,0.014,1.406-0.386,1.85-1.006c0.439-0.622,0.564-0.719,0.564-0.719c0.523-0.29,1.86-0.415,2.537-0.165
			c0.678,0.247,1.921,1.026,2.606,2.564c0.555,1.242,0.727,2.633,0.698,5.134l0.556,0.427l-0.004,0.005l-0.563-0.43
			c-1.57,0.13-3.389,0.344-3.389,0.344s-4.106,0.583-7.868,1.744c-3.193,0.982-3.801,1.524-3.801,1.524s-0.681,0.57-0.112,1.392
			c0,0,0.325,0.517,0.985,1.034c0.656,0.518,1.185,1.012,1.109,1.261c-0.076,0.254-0.277,0.366-0.277,0.366s-0.92,0.817-4.686,1.452
			c0,0-2.423,0.468-3.168-0.264c-0.745-0.732-0.416-1.225-0.416-1.225s0.05-0.165,0.593-0.504c0,0,0.91-0.571,0.62-1.653
			c-0.291-1.086-2.038-2.437-3.926-2.425c0,0-2.204,0.007-7.846,0.729c0,0-0.011,0.001-0.018,0.003
			c0.002-0.247-0.004-0.511-0.021-0.794c-0.088-1.59-0.202-4.04-0.417-5.466c-0.214-1.428-0.606-3.637-1.907-3.7
			c0,0-0.642-0.051-1.564,0.847c-0.846,0.819-1.611-0.678-1.653-1.592c-0.05-1.072,0.126-2.158,0.392-2.676
			c0.066-0.129,0.162-0.227,0.269-0.302c0.324-0.223,0.759-0.235,0.863-0.227c0.139,0.013,0.531,0.164,0.998,0.454
			c0.353,0.22,0.803,0.273,1.167,0.124c0.12-0.049,0.232-0.119,0.328-0.214c0.377-0.379,0.906-0.82,1.122-2.487
			c0.215-1.666,0.215-3.396,0.013-5.465l-0.004-0.009c0.366-0.065,0.851-0.15,1.398-0.234c0.609-0.093,1.299-0.186,2.023-0.257
			C21.225,34.893,23.58,34.862,24.57,34.986z M8.561,19.517c0.076-0.056,0.197-0.134,0.269-0.16
			c0.114-0.034,0.212-0.109,0.273-0.211c0.011-0.019,1.035-1.731,1.482-2.384c0.146-0.091,0.294-0.178,0.375-0.227
			c0.04,0.016,0.081,0.027,0.125,0.031c0.132,0.018,0.269-0.025,0.371-0.113c0.053-0.046,0.546-0.492,1.69-2.036
			c0.086-0.103,0.121-0.237,0.104-0.368c-0.011-0.088-0.046-0.17-0.099-0.237c0.026-0.121,0.074-0.286,0.112-0.369
			c0.008-0.008,0.017-0.017,0.023-0.025c0.016-0.019,1.639-1.928,2.938-3.026c0.002-0.001,0.165-0.117,0.417-0.146
			c0.045-0.006,0.088-0.018,0.129-0.034c0.061-0.025,1.501-0.634,3.256-2.172c0.072-0.063,0.128-0.165,0.152-0.258
			c0-0.001,0.06-0.218,0.372-0.636c0.254-0.337,0.824-0.716,1.374-0.941c-0.181,0.162-0.411,0.369-0.702,0.681
			C20.928,7.2,20.829,7.393,20.853,7.49c0.021,0.098,0.167,0.101,0.359,0.035c0.098-0.033,0.218-0.08,0.366-0.144
			c0.006-0.002,0.01-0.004,0.017-0.006c0-0.001,0-0.002,0-0.002c0.372-0.159,0.915-0.419,1.684-0.815l0.031,0.046
			c0.139,0.207,0.413,0.273,0.63,0.15c0.005-0.001,0.339-0.182,0.853-0.385C24.499,7,23.991,7.995,23.413,8.712
			c0,0-0.358,0.528-0.636,0.398c-0.276-0.128-0.602-0.138-0.871-0.082c-0.27,0.059-1.106,0.335-1.865,1.353
			c-0.756,1.019-0.845,1.784-0.438,2.012c0.406,0.228,1-0.073,1.358-0.39c0.266-0.236,0.473-0.376,0.608-0.428
			c0.045,0.092,0.113,0.164,0.199,0.211c-0.002,0.063-0.009,0.126-0.018,0.159c-0.025,0.09-0.147,1.306-1.556,3.746
			c-0.353,0.612-0.809,1.521-1.023,1.958l-0.001,0.002c-0.001,0-0.006-0.004-0.006-0.004c-2.285,0.424-3.989,0.952-4.569,1.174
			C14.011,19.042,14,18.9,14,18.9c-0.082-0.098-0.026-0.277,0.066-0.456c0.057-0.111,0.125-0.219,0.189-0.31
			c0.087-0.123,0.161-0.213,0.161-0.213s0.626-0.855,0.874-1.642c0.247-0.785-0.854-0.677-0.854-0.677
			c-0.726,0.115-1.248,0.459-1.849,1.182c-0.464,0.562-0.749,1.331-0.854,1.737c-0.068,0.256-0.185,0.493-0.185,0.493
			s-0.087,0.157-0.431,0.309c-0.398,0.174-1.176,0.379-1.176,0.379s-0.517,0.043-0.891-0.144c-0.126-0.062-0.371-0.042-0.568-0.011
			C8.513,19.54,8.54,19.533,8.561,19.517z M7.861,20.079c0.001-0.002,0.003-0.004,0.003-0.006l0.009-0.008
			c-0.002,0.002-0.003,0.003-0.004,0.004h0.002L7.709,20.31c0.058-0.088,0.111-0.168,0.16-0.241
			C7.865,20.073,7.864,20.075,7.861,20.079z M4.581,26.409c-0.006,0.021-0.007,0.027-0.012,0.046c-0.056,0.203-0.08,0.32-0.08,0.32
			c-0.006,0.093-0.002,0.158,0.009,0.205c0.016,0.059,0.043,0.092,0.1,0.089c0.038-0.002,0.121-0.129,0.147-0.065
			c0.015,0.041,0.011,0.152-0.037,0.403c-0.086,0.446-0.501,1.635-0.664,2.117c-0.162,0.484-0.344,0.813-0.473,0.791
			c-0.043-0.008-0.067-0.037-0.088-0.069c-0.037-0.065-0.041-0.153-0.041-0.153s-0.006-0.075-0.032-0.127
			c-0.022-0.047-0.063-0.071-0.129-0.012C3.668,28.755,4.102,27.574,4.581,26.409z M2.967,30.968L2.97,30.96
			c0,0,0.044-0.118,0.082-0.175c0.03-0.045,0.056-0.048,0.049,0.096c-0.013,0.318,0.188,0.346,0.188,0.346
			c0.128-0.019,0.266-0.165,0.407-0.4l0.001,0.002c0.004-0.006,0.008-0.015,0.012-0.021c0.057-0.096,0.114-0.207,0.175-0.333
			c0.015-0.032,0.03-0.07,0.046-0.106c0.045-0.099,0.092-0.205,0.138-0.319c0.02-0.05,0.04-0.102,0.062-0.154
			c0.043-0.109,0.086-0.226,0.129-0.345c0.021-0.059,0.043-0.116,0.063-0.176c0.036-0.104,0.072-0.212,0.109-0.321
			c0.024-0.071,0.048-0.139,0.071-0.213c0.02-0.059,0.035-0.113,0.053-0.171c0.041-0.131,0.082-0.26,0.119-0.387
			c0.026-0.095,0.053-0.185,0.077-0.275c0.026-0.095,0.051-0.185,0.075-0.275c0.021-0.084,0.043-0.167,0.063-0.248
			c0.035-0.142,0.067-0.276,0.095-0.399C5,27.02,5.01,26.964,5.023,26.903c0.018-0.077,0.032-0.146,0.045-0.212
			c0.004-0.021,0.012-0.054,0.016-0.074l-0.001,0.001c0.037-0.194,0.059-0.328,0.059-0.36c0-0.104-0.054-0.185-0.146-0.132
			c-0.094,0.054-0.12,0.014-0.12,0.014c-0.002-0.022,0.003-0.057,0.01-0.094c0.002-0.006,0.002-0.011,0.004-0.018
			c0.062-0.305,0.332-0.968,0.332-0.968C5.365,24.697,5.515,24.343,5.669,24c0.015-0.032,0.029-0.063,0.043-0.095
			c0.075-0.162,0.149-0.322,0.226-0.479c0.004-0.01,0.008-0.019,0.014-0.028c0.593-1.224,1.211-2.244,1.647-2.919
			c0.08-0.012,0.084-0.007,0.23-0.053c0,0,0.386-0.063,1.065,0.115c0.876,0.232,1.978-0.475,1.978-0.475s0.016-0.011,0.042-0.027
			c0.005-0.002,0.009-0.006,0.014-0.01c0.026-0.017,0.06-0.039,0.102-0.07c0.01-0.007,0.021-0.016,0.031-0.023
			c0.041-0.029,0.084-0.063,0.135-0.104c0.017-0.013,0.035-0.028,0.053-0.044c0.047-0.038,0.094-0.079,0.144-0.126
			c0.014-0.011,0.024-0.021,0.038-0.034c-0.002,0.002-0.005,0.004-0.007,0.004c0.236-0.223,0.496-0.521,0.668-0.888l0.346-0.961
			c0,0,0.279-0.931,1.059-1.227c0,0,0.303-0.163,0.796-0.17c0.307-0.002,0.376,0.131,0.386,0.23c0.005,0.06-0.011,0.107-0.011,0.107
			s-0.054,0.223-0.562,0.873c-0.507,0.648-0.642,1.145-0.642,1.145s-0.172,0.389-0.052,0.679c0.041,0.097,0.113,0.183,0.235,0.239
			c0,0,0.23,0.135,0.899-0.088c0.67-0.223,2.891-0.807,4.248-1.015l0.01-0.004l-0.003,0.006c-0.254,0.726-0.579,1.862-0.45,2.499
			c0.194,0.968,1.108,0.968,1.108,0.968s0.204,0.007,0.507-0.057c0.019,0.009,0.03,0.029,0.051,0.036
			c0.166,0.055,0.485,0.063,1.043-0.222c0.045-0.022,0.08-0.028,0.12-0.041c0.328,0.305,0.419,1.204,0.419,1.391
			c0,0.253-0.006,1.652-0.977,2.337c0,0-0.391,0.301-0.942,0.301c-0.555,0-0.913-0.162-0.913-0.162s-0.941-0.26-1.522,0.079
			c-0.578,0.344-1.269,1.051-1.815,2.077c-0.544,1.026-1.001,2.858-0.976,4.21c0.02,1.063,0.172,2.069,0.279,2.756l0.633,0.413
			c-0.002,0-0.003,0-0.005,0v0.001H15.36v-0.001l-0.644-0.415c0,0-2.192,0.578-4.668,0.563c-1.741-0.008-1.692-0.921-1.472-1.521
			c0.03-0.084,0.064-0.163,0.098-0.232c0.009-0.019,0.019-0.037,0.027-0.054c0.03-0.06,0.061-0.116,0.084-0.152
			c0.027-0.047,0.047-0.076,0.047-0.076s0.61-1.071,0.719-1.688c0,0,0.215-1.671-1.359-1.562c-1.575,0.106-1.885,1.479-1.885,1.479
			s-0.106,0.767-0.084,1.333c0.02,0.568-0.002,1.768-0.711,2.45c-0.705,0.683-1.464,0.475-1.464,0.475s-1.274-0.558-1.527-0.688
			c-0.2-0.104-0.382-0.114-0.557-0.086C2.242,33.617,2.576,32.283,2.967,30.968z M1.502,50.479L1.249,50.12
			c-0.192-1.763-0.292-3.557-0.292-5.338c0-2.772,0.236-5.544,0.699-8.241l0.216-0.483c0.021-0.045,0.03-0.093,0.036-0.141
			c0.205,0.041,0.389,0.133,0.389,0.133s1.088,0.585,1.571,0.686c0.486,0.102,0.838-0.063,1.154-0.279
			c0.065-0.046,0.135-0.113,0.203-0.171c0.059-0.049,0.114-0.088,0.172-0.145c0.045-0.044,0.087-0.097,0.13-0.144
			c0.077-0.081,0.154-0.159,0.228-0.25c-0.007,0.007-0.015,0.013-0.022,0.02c0.205-0.254,0.378-0.534,0.513-0.82
			c-0.008,0.025-0.016,0.05-0.03,0.086c0.057-0.115,0.107-0.229,0.148-0.338c0.025-0.073,0.049-0.162,0.069-0.261
			c0.008-0.032,0.014-0.069,0.02-0.105c0.012-0.053,0.021-0.104,0.031-0.161c-0.003,0.011-0.005,0.019-0.007,0.028
			c0.047-0.288,0.081-0.615,0.104-0.917c0,0.006,0,0.012,0,0.018c0.038-0.479,0.049-0.875,0.049-0.891l0.004,0.012v-0.006
			l0.001,0.004c0,0,0-0.404-0.011-0.497c-0.003-0.009-0.003-0.024-0.005-0.038c-0.016-0.135-0.046-0.507,0.199-0.708
			c0.266-0.225,0.439-0.332,1.095-0.349c0.651-0.017,0.849,0.363,0.849,0.363s0.221,0.311,0.222,0.512
			c0,0.199-0.064,0.324-0.064,0.324s-0.354,0.6-0.479,0.894C8.316,33.209,7.832,34.186,7.973,35c0,0.002,0,0.002,0,0.002v0.003
			c0.142,0.815,1.416,1.197,1.416,1.197s1.016,0.239,2.465,0.025l2.986-0.481l0.52-0.597l0.004,0.007l-0.513,0.588
			c0.075,1.088,0.161,3.219,0.147,3.934c-0.017,0.873-0.146,2.718-1.066,3.151c0,0-0.311,0.163-0.831-0.228
			c-0.521-0.392-1.083-0.408-1.312-0.417c-0.227-0.007-1.23,0.155-1.62,1.255c-0.391,1.097-0.358,2.574-0.276,3.443
			c0.082,0.871,0.838,2.354,1.791,2.354c0,0,0.464,0.033,1.01-0.528c0.544-0.562,0.863-0.611,1.106-0.604
			c0.245,0.009,0.718,0.261,1.026,2.729c0.294,2.338,0.419,4.253,0.396,6.383l0.564,0.367c0,0.001,0,0.002,0,0.003
			c-0.004,0-0.006,0-0.009,0l-0.569-0.371c-0.311,0.038-0.684,0.073-1.067,0.104c-0.968,0.065-2.37-0.057-4.115-0.571
			c-1.684-0.501-2.748-1.397-2.963-1.976c-0.005-0.023-0.021-0.049-0.024-0.072c-0.025-0.093-0.037-0.19-0.04-0.293
			c-0.003-0.029-0.001-0.052-0.003-0.078c0.004-0.3,0.071-0.576,0.071-0.576s0.328-1.26,0.122-2.298
			c-0.023-0.116-0.049-0.229-0.077-0.338c-0.007-0.04-0.013-0.075-0.017-0.102c-0.009-0.024-0.016-0.055-0.022-0.081
			c-0.009-0.021-0.021-0.04-0.029-0.06c-0.228-0.767-0.607-1.392-1.416-1.879c-1.002-0.604-1.572-0.5-1.572-0.5
			s-0.899-0.137-0.866,1.386c0.036,1.521,0.226,2.159,0.226,2.159s0.173,0.537-0.104,0.606c-0.275,0.069-0.709-0.346-0.709-0.346
			s-0.195-0.178-0.463-0.438c-0.034-0.036-0.067-0.07-0.102-0.108c-0.181-0.181-0.38-0.389-0.573-0.602l0.088-0.219
			C1.613,50.784,1.595,50.613,1.502,50.479z M3.244,59.477c0.002-0.005,0.001-0.014,0.004-0.014
			c0.078-0.014,0.556,0.848,0.828,1.668c0.317,0.947,0.531,1.737,0.531,1.737s0.174,0.536,0.161,0.727
			C4.196,62.245,3.689,60.872,3.244,59.477z M7.956,69.845l-0.079-0.286c-0.029-0.104-0.092-0.191-0.178-0.256l-0.117-0.088
			c-0.895-1.521-1.69-3.086-2.407-4.68c0.003-0.009,0.003-0.028,0.005-0.039c0.008-0.028,0.015-0.062,0.016-0.107
			c0.001-0.03-0.003-0.069-0.005-0.107c-0.004-0.059-0.012-0.122-0.022-0.199c-0.004-0.023-0.002-0.035-0.007-0.062
			c-0.002-0.002-0.003-0.002-0.005-0.004c-0.077-0.46-0.287-1.224-0.746-2.465c-0.5-1.354-0.821-2.078-1.024-2.473
			c0-0.002,0.001-0.003,0.002-0.005c-0.02-0.038-0.037-0.07-0.055-0.102c0,0-0.001,0.003-0.001,0.005
			c-0.17-0.314-0.242-0.364-0.264-0.391c-0.024-0.031-0.087-0.09-0.128-0.068c-0.626-2.114-1.097-4.277-1.428-6.479
			c0.076,0.089,0.159,0.185,0.253,0.289l0.002,0.002c0.167,0.187,0.364,0.399,0.598,0.641l0.002,0.002l0,0
			c0,0.001,0.001,0.001,0.001,0.001c1.038,1.073,1.366,0.398,1.366,0.398s0.017-0.048,0.035-0.139
			c0.002-0.009,0.004-0.021,0.006-0.03c0.007-0.039,0.015-0.082,0.022-0.135c0.003-0.02,0.004-0.04,0.007-0.061
			c0.006-0.053,0.012-0.106,0.016-0.171c0-0.011,0.002-0.018,0.002-0.027c0,0.002-0.002,0.004-0.002,0.006
			c0.006-0.128,0.006-0.279-0.003-0.452c0,0.004,0,0.009,0.001,0.014c0-0.005-0.001-0.012-0.001-0.017
			C3.812,52.272,3.8,52.179,3.79,52.081c-0.006-0.052-0.011-0.102-0.019-0.157c-0.016-0.103-0.039-0.216-0.064-0.329
			c-0.01-0.043-0.015-0.08-0.024-0.125c-0.001-0.005-0.003-0.009-0.004-0.014C3.5,50.7,3.451,50.137,3.573,49.822
			c0.032-0.087,0.083-0.146,0.139-0.196c0.02-0.015,0.039-0.027,0.061-0.039c0.046-0.025,0.103-0.038,0.162-0.045
			c0.021-0.002,0.038-0.009,0.061-0.009c0.553,0.019,2.161,0.346,2.662,1.677c0,0,0.207,0.622,0.018,1.416
			c-0.191,0.799-0.155,1.504-0.018,2.197c0.139,0.693,0.727,1.347,1.402,1.887c0.675,0.538,2.629,1.47,4.531,1.59
			c1.902,0.121,2.489,0.021,2.489,0.021l0.708-0.729c0,0.005,0,0.01,0,0.015l-0.71,0.721c-0.042,0.189-0.086,0.397-0.137,0.599
			c-0.162,0.653-0.18,1.307-0.022,2.46c0.153,1.158,0.775,3.562,1.679,4.188c1.198,0.834,1.981,0.818,2.792,0.757
			c0.806-0.064,1.362-0.683,1.362-0.683s0.316-0.326,0.655-0.227c0.342,0.1,1.289,0.632,1.97,1.995
			c0.683,1.364,0.834,2.864-0.302,3.132c-1.136,0.261-3.094-0.81-3.094-0.81s-1.11-0.619-2.018,0.062
			c-0.911,0.684-0.936,1.729-0.48,3.016c0.249,0.706,0.748,1.854,1.447,3.052l0.676,0.283c-0.002-0.002-0.004-0.002-0.006-0.003
			l-0.678-0.282c-1.091-0.213-3.104-0.641-3.901-1.038c-0.313-0.157-0.56-0.235-0.736-0.334c-0.086-0.049-0.157-0.104-0.206-0.172
			c-0.082-0.118-0.111-0.28-0.078-0.551c0.098-0.734-0.72-1.757-0.72-1.757s-1.138-1.231-2.161-1.997
			c-1.023-0.77-1.459-0.54-1.459-0.54s-0.462,0.247-0.047,1.241c0.418,0.994,0.824,1.342,0.824,1.342s0.199,0.212,0.085,0.269
			c-0.112,0.059-0.464-0.209-0.755-0.458c-0.134-0.111-0.676-0.612-1.223-1.124C8.35,70.441,8.144,70.153,7.956,69.845z
			 M32.649,90.174c1.268,0.168,2.885,0.352,3.436,0.405l0.01-0.005c-0.005,0.086-0.04,0.177-0.091,0.295
			c-0.095,0.218,0.108,0.38,0.297,0.479C35.064,91.008,33.849,90.61,32.649,90.174z M36.672,90.314l-0.007-0.005l0.147,0.009
			c-0.117-0.105-0.266-0.203-0.431-0.301c-0.018-0.01-0.028-0.021-0.046-0.03c0.013,0.007,0.026,0.02,0.039,0.026
			c-0.052-0.03-0.099-0.062-0.156-0.092c-0.669-0.355-3.571-2.273-4.469-2.881c-0.6-0.405-1.497-0.99-2.236-1.273
			c-0.054-0.022-0.104-0.04-0.149-0.054c-0.303-0.102-0.573-0.147-0.771-0.087c-0.53,0.164-0.455,0.377-0.77,0.531
			c-0.236,0.11-0.485,0.084-0.917-0.107c-0.009-0.004-0.018-0.008-0.025-0.012c-0.145-0.064-0.307-0.146-0.497-0.248
			c-0.059-0.03-0.112-0.061-0.169-0.09c-0.092-0.048-0.183-0.098-0.271-0.146c-0.475-0.26-0.964-0.576-1.746-1.263
			c-0.069-0.062-0.135-0.118-0.21-0.187c-0.155-0.14-0.317-0.289-0.495-0.459c-1.193-1.134,1.526-0.111,1.526-0.111
			s0.592,0.25,0.328-0.369c-0.031-0.071-0.079-0.158-0.137-0.255c-0.03-0.053-0.071-0.112-0.109-0.169
			c-0.032-0.051-0.063-0.098-0.099-0.149c-0.052-0.075-0.11-0.155-0.171-0.235c-0.032-0.045-0.064-0.09-0.1-0.136
			c-0.067-0.089-0.139-0.18-0.211-0.273c-0.04-0.05-0.079-0.099-0.118-0.148c-0.074-0.093-0.15-0.186-0.229-0.281
			c-0.055-0.063-0.108-0.129-0.164-0.193c-0.07-0.084-0.14-0.167-0.213-0.252c-0.087-0.102-0.177-0.202-0.268-0.306
			c-0.046-0.052-0.09-0.103-0.136-0.153c-0.108-0.12-0.217-0.239-0.327-0.359c0.006,0.006,0.008,0.009,0.017,0.02
			c-0.199-0.218-0.401-0.433-0.602-0.64c-0.383-0.395-0.694-0.739-0.984-1.078c0.009,0.009,0.016,0.019,0.024,0.026
			c-0.5-0.58-0.915-1.138-1.366-1.791l-0.53-0.619c0.003,0.007,0.008,0.013,0.012,0.019l-0.021-0.022l-0.181,0.517
			c0.471,0.717,1.01,1.415,1.606,2.016c0,0,2.36,2.611,3.674,4.267c0,0,0.076,0.15-0.15,0.015c-0.229-0.14-1.213-0.594-1.743-0.541
			c-0.53,0.052-0.431,0.378-0.431,0.378s0.228,1.2,3.839,3.222c0,0,1.3,0.732,2.121,0.732c0,0,0.265,0.037,0.592-0.331
			c0.331-0.363,0.432-0.325,0.658-0.251c0.229,0.073,0.53,0.237,1.668,1.059c1.137,0.82,3.347,2.084,4.14,2.614
			c0.258,0.172,0.421,0.297,0.528,0.401c-1.623-0.13-3.404-0.342-4.341-0.476c-0.419-0.164-0.834-0.337-1.247-0.512
			c-0.198-0.121-0.431-0.263-0.66-0.399c-0.495-0.3-1.984-0.868-1.984-0.868s-0.154-0.06-0.365-0.138
			c-1.777-0.902-3.494-1.915-5.146-3.035c0.288,0.097,0.59,0.145,0.814,0.012c-0.054-0.543-0.673-0.981-1.026-1.249
			c-0.129-0.099-0.22-0.271-0.341-0.379c-0.454-0.4-0.984-0.79-1.478-1.138c-0.407-0.284-0.965-0.455-1.328-0.793
			c-0.01-0.082,0.117-0.284,0.039-0.493c-0.319-0.858-1.521-1.851-2.271-2.31c-0.348-0.217-0.931-0.313-1.249-0.531
			c-0.235-0.017-0.359-0.023-0.417,0.147c-0.094,0.209,0.2,0.499,0.301,0.646c0.261,0.364,0.558,0.79,0.911,1.057
			c0.264,0.2,0.564,0.375,0.793,0.607h0.114c-0.146-0.407-0.582-0.629-0.907-0.87c-0.299-0.22-0.431-0.604-0.683-0.87
			c0.021-0.119,0.033-0.11,0.076-0.19c1.048,0.01,1.726,0.97,2.196,1.592c0.21,0.277,0.547,0.44,0.569,0.91
			c-0.112,0-0.208,0-0.265-0.039h-0.114c0.181,0.499,0.789,0.458,1.213,0.722c0.851,0.525,1.535,1.349,2.271,2.004
			c0.25,0.225,0.688,0.447,0.757,0.836c-0.514-0.026-0.877-0.312-1.207-0.53c-0.039-0.025-0.09-0.062-0.131-0.09
			c-0.485-0.354-0.958-0.727-1.43-1.1c-0.145-0.139-0.275-0.274-0.371-0.402c-0.077-0.099-0.102-0.251-0.191-0.339
			c-0.104-0.106-0.25-0.14-0.34-0.264h-0.151c-0.006,0.068,0.017,0.131,0.035,0.192c-3.355-2.802-6.355-6.084-8.906-9.798
			c0.05,0.041,0.095,0.081,0.148,0.123c1.115,0.873,1.396,0.828,1.468,0.751c0.027-0.024,0.029-0.056,0.029-0.056
			s0.058-0.382-0.285-0.806c-0.095-0.114-0.204-0.271-0.312-0.438c-0.045-0.07-0.09-0.14-0.133-0.214
			c-0.131-0.225-0.244-0.455-0.299-0.648c-0.004-0.013-0.004-0.023-0.008-0.036c-0.013-0.054-0.023-0.104-0.026-0.149
			c-0.002-0.049,0.004-0.09,0.016-0.128c0.002-0.006,0.001-0.019,0.003-0.024c0.139-0.32,0.296-0.292,0.296-0.292
			s0.128-0.052,0.57,0.284c0.442,0.334,1.435,1.032,1.926,1.632c0.483,0.591,0.461,1.112,0.459,1.125
			c0,0.002-0.005,0.034-0.006,0.093c-0.004,0.177,0.036,0.592,0.438,1.031c0.532,0.578,1.659,1.641,5.608,2.248
			c0.021,0.005,0.039,0.005,0.059,0.009l0.183-0.521l0.004,0.006l0.002-0.004l0.008,0.009c0,0-0.002-0.003-0.003-0.004l0.534,0.623
			c0.006,0,0.01,0.001,0.016,0.002c3.438,0.496,5.307,0.539,5.307,0.539s4.508,0.157,5.727,0.157c1.036,0,1.025,0.458,0.999,0.595
			c-0.004,0.021-0.008,0.033-0.008,0.033s-0.068,0.345-0.215,0.619c-0.093,0.172-0.266,0.642-0.293,1.104
			c-0.018,0.278,0.018,0.553,0.154,0.761c0,0,0.56,1.365,4.194,1.462c0,0,3.182,0.257,5.402-0.657
			c0.697-0.287,0.976-0.609,1.032-0.916c0.133-0.671-0.816-1.271-0.816-1.271s-0.76-0.461-1.082-0.708
			c-0.146-0.112-0.19-0.226-0.19-0.332c0.002-0.104,0.044-0.199,0.073-0.276c0.058-0.155,0.284-0.341,0.54-0.472
			c0.253-0.128,1.188-0.625,5.135-1.647c3.948-1.021,6.306-1.132,6.306-1.132s0.021-0.003,0.037-0.005
			c0.379,0.918,0.67,1.426,1.248,2.055c0.619,0.674,1.601,1.197,2.758,1.641c1.16,0.442,0.634,1.228,0.634,1.228
			c-0.661,1.435-2.634,1.49-3.212,1.56c-0.578,0.067-1.791,0.18-2.926,0.428c-1.132,0.249-2.193,0.4-2.83,1.131
			c-0.632,0.731-0.384,1.49-0.011,2.291c0.37,0.799,1.364,1.227,2.73,1.175c1.364-0.057,2.249-0.456,3.075-0.815
			c0.826-0.358,2.262-0.773,2.69-0.896c0.427-0.123,1.007-0.372,1.435,0.249c0.461,0.672,0.951,1.624,1.177,2.347l0.524-0.116
			c0,0.002,0,0.004,0,0.006c-0.094,0.021-0.176,0.039-0.244,0.054c-0.157,0.033-0.241,0.058-0.241,0.058s-1.161,0.278-3.091,1.025
			c-1.93,0.749-5.717,1.368-5.717,1.368s-1.232,0.145-2.025,0.341c0.092-0.03,0.169-0.047,0.169-0.047s0.916-0.186,1.836-0.307
			c0,0-2.435,0.28-2.659,0.598c-0.078,0.126-0.067,0.227-0.024,0.303c0.06,0.127,0.216,0.19,0.216,0.19s0.346,0.214,1.598,0.271
			c0,0,0.433,0,0.452,0.035c0.001,0.001,0.001,0.004,0.001,0.004c0.005,0.009,0.009,0.019,0.007,0.026
			c0,0.003-0.003,0.007-0.004,0.01c-0.008,0.015-0.025,0.03-0.066,0.05c-0.037,0.017-0.085,0.034-0.163,0.06
			c-0.273,0.085-0.817,0.301-2.658,0.534c-1.218,0.154-1.613,0.079-1.745,0.008c0,0,0,0,0.001,0c-0.075-0.038-0.07-0.076-0.07-0.076
			s-0.001-0.02,0.005-0.05c0.009-0.034,0.027-0.086,0.068-0.152c0.021-0.031,0.032-0.07,0.032-0.112
			c0.003-0.126-0.092-0.283-0.312-0.404c0.002-0.002-0.072-0.048-0.259-0.103c0,0,0.016,0.006,0.033,0.018
			c-0.242-0.073-0.708-0.167-1.526-0.161c-1.347,0.009-4.031,0.017-6.541-0.133C36.785,90.322,36.726,90.318,36.672,90.314z
			 M42.605,92.645c-0.834-0.113-1.662-0.245-2.485-0.4c0.497-0.026,0.838-0.048,1.262,0.04c0.604,0.127,1.226,0.277,1.287,0.33
			C42.691,92.632,42.653,92.641,42.605,92.645z M52.43,92.992c0.655-0.087,1.442-0.138,1.881-0.185
			c0.186-0.021,0.308-0.023,0.394-0.021C53.95,92.874,53.191,92.94,52.43,92.992z M55.869,92.645
			c-0.053-0.034-0.186-0.064-0.49-0.078c-0.273-0.012-0.554-0.01-0.836,0c-0.398,0.002-0.92,0.021-1.395,0.089
			c-0.33,0.046-0.66,0.102-0.95,0.151c-0.093,0.014-0.185,0.023-0.276,0.037c-0.617,0.089-0.896,0.168-1.021,0.226
			c-0.537,0.019-1.074,0.038-1.615,0.038c-1.931,0-3.837-0.127-5.72-0.346c0.058-0.059-0.076-0.136-0.167-0.179
			c-0.046-0.022-0.084-0.038-0.084-0.038s-0.084-0.039-0.255-0.098c-0.001,0.001-0.003,0.001-0.004,0.002
			c-0.018-0.006-0.033-0.013-0.053-0.019c0.008,0.002,0.021,0.004,0.029,0.006c-0.096-0.03-0.225-0.067-0.37-0.106
			c-0.004-0.001-0.009-0.002-0.014-0.004c-0.111-0.028-0.233-0.06-0.372-0.088c-0.003-0.002-0.005-0.002-0.007-0.002
			c-0.288-0.063-0.631-0.126-1.046-0.178c0.014,0.003,0.027,0.005,0.042,0.008c-0.218-0.026-0.45-0.053-0.703-0.071
			c0,0-0.77-0.054-1.439,0.013c-0.028,0.003-0.058,0.001-0.086,0.003c0.004-0.001,0.011-0.002,0.015-0.003
			c-0.009,0.001-0.019,0-0.027,0c-0.496-0.105-0.991-0.217-1.483-0.338c-0.274-0.111-0.676-0.318-0.514-0.532
			c0.119-0.158,0.131-0.321,0.062-0.479c1.057,0.064,2.445,0.14,2.445,0.14s2.849,0.106,4.408-0.02
			c0.701-0.061,0.484,0.305,0.484,0.305s-0.204,0.339,0.198,0.506c0,0,0.737,0.42,3.199,0.15c2.463-0.273,3.005-0.825,3.005-0.825
			s0.285-0.263-0.337-0.38c-0.036-0.008-0.065-0.014-0.099-0.02c-0.014-0.005-0.033-0.013-0.039-0.015c-0.006,0-0.012,0-0.019-0.003
			c-0.008-0.002-0.015-0.002-0.021-0.004c-0.006,0-0.008-0.002-0.012-0.002c-0.006-0.001-0.014-0.001-0.021-0.003
			c-0.003,0-0.009,0-0.015-0.002c-0.004,0-0.01-0.002-0.016-0.002c-0.004,0-0.012-0.003-0.018-0.005c-0.004,0-0.012,0-0.016,0
			c-0.007-0.003-0.013-0.003-0.017-0.005c-0.004,0-0.013,0-0.015-0.002c-0.006,0-0.012,0-0.018,0
			c-0.002-0.004-0.009-0.004-0.011-0.004c-0.011-0.001-0.015-0.003-0.021-0.003c-0.004,0-0.006,0-0.008,0
			c-0.01-0.001-0.021-0.001-0.027-0.002c0,0-0.002,0-0.004-0.002c-0.006,0-0.014,0-0.021,0c-0.004-0.002-0.006-0.002-0.011-0.002
			c-0.006,0-0.012,0-0.02,0c-0.005,0-0.007,0-0.009,0c-0.007-0.002-0.012-0.002-0.019-0.002c-0.002,0-0.006,0-0.008,0
			c-0.008,0-0.015-0.003-0.019-0.003s-0.008-0.002-0.011-0.002c-0.007,0-0.015,0-0.02,0c-0.005,0-0.005,0-0.007,0
			c-0.037-0.004-0.076-0.004-0.122-0.009c-0.002,0-0.004,0-0.004,0c-0.009,0-0.015-0.002-0.021-0.002c-0.002,0-0.008,0-0.012,0
			c-0.006,0-0.012,0-0.021,0c-0.004-0.003-0.009-0.003-0.013-0.003c-0.006,0-0.013-0.002-0.019-0.002c-0.005,0-0.012,0-0.016-0.002
			c-0.005,0-0.011,0-0.019,0c-0.009,0-0.019-0.002-0.026-0.004c-0.006,0-0.012,0-0.019,0c-0.008,0-0.017-0.002-0.027-0.002
			c-0.004,0-0.01-0.002-0.015-0.002c-0.009,0-0.018,0-0.023-0.001s-0.012-0.001-0.02-0.001c-0.007-0.002-0.018-0.002-0.025-0.004
			c-0.005,0-0.012,0-0.019,0c-0.008-0.002-0.018-0.003-0.025-0.003c-0.006-0.001-0.016-0.001-0.021-0.003
			c-0.009,0-0.019-0.003-0.026-0.003c-0.007-0.002-0.013-0.002-0.021-0.002c-0.011,0-0.022-0.002-0.033-0.004
			c-0.006,0-0.014,0-0.019,0c-0.019-0.004-0.036-0.006-0.055-0.006c-0.136-0.02-0.26-0.031-0.362-0.054l-0.151-0.02
			c-0.232-0.065-0.273-0.147,0.001-0.22c0.421-0.109,1.123-0.169,1.123-0.169s2.152-0.3,3.892-0.748c0,0,1.856-0.438,3.696-1.087
			c0.725-0.253,1.335-0.438,1.807-0.571l0.418-0.613c0,0.001,0,0.003,0,0.003l-0.41,0.606c0.092,0.626-0.101,0.837-0.244,1.069
			c-0.148,0.249-0.563,0.567-0.357,1.135c0.208,0.564,1.614,0.385,2.428,0.139c0.814-0.249,1.5-0.47,2.041-0.664
			c0.538-0.188,0.688,0.082,0.688,0.082s0.235,0.168-0.55,0.581c-0.174,0.091-0.381,0.169-0.603,0.24
			c-0.03,0.009-0.054,0.019-0.087,0.027c-0.174,0.055-0.357,0.1-0.543,0.142c-0.048,0.011-0.098,0.021-0.146,0.031
			c-0.153,0.033-0.307,0.063-0.457,0.09c-0.062,0.012-0.123,0.021-0.187,0.031c-0.124,0.021-0.244,0.038-0.356,0.055
			c-0.067,0.011-0.135,0.02-0.196,0.027c-0.125,0.017-0.252,0.033-0.351,0.044c-0.084,0.012-0.154,0.018-0.217,0.022
			c-0.037,0.003-0.07,0.005-0.104,0.007c-0.021,0.002-0.045,0.004-0.063,0.005c-0.041,0.003-0.079,0.004-0.114,0.007
			c-0.025,0.002-0.053,0.005-0.078,0.009c-0.012,0.002-0.024,0.003-0.037,0.005c-0.033,0.003-0.069,0.011-0.106,0.019
			c-0.007,0.001-0.013,0.002-0.019,0.004c-0.153,0.032-0.366,0.098-0.779,0.24c-1.035,0.36-0.066,0.677-0.066,0.677
			c0.521,0.136,1.004,0.21,1.449,0.254C58.85,92.156,57.368,92.436,55.869,92.645z M75.623,85.162
			c-0.02,0.021-0.042,0.042-0.062,0.062c-4.336,2.836-9.137,4.994-14.244,6.328c-0.457-0.036-0.779-0.1-0.945-0.122
			c-0.412-0.056-0.745-0.138-0.842-0.346c-0.014-0.025-0.014-0.047-0.01-0.065c0.043-0.136,0.466-0.125,0.466-0.125h0.002
			c0,0,0.089-0.011,0.229-0.029c0.416-0.057,1.354-0.201,2.334-0.473c0.18-0.049,0.359-0.102,0.537-0.159
			c1.49-0.483,1.85-0.938,1.791-1.282c-0.009-0.052-0.035-0.093-0.074-0.126c-0.012-0.013-0.027-0.021-0.043-0.031
			c-0.031-0.021-0.07-0.037-0.113-0.052c-0.021-0.006-0.043-0.014-0.065-0.02c-0.062-0.012-0.128-0.019-0.203-0.021
			c-0.014-0.001-0.024-0.003-0.038-0.003c-0.087,0-0.184,0.008-0.285,0.021c-0.017,0.001-0.027,0-0.045,0.002
			c0.01-0.001,0.017,0.001,0.023,0c-0.255,0.032-0.551,0.101-0.864,0.201c-0.896,0.293-2.233,0.718-2.548,0.786
			c-0.078,0.017-0.156,0.028-0.232,0.034c0.008-0.002,0.012-0.002,0.02-0.004c-0.115,0.009-0.225,0.002-0.318-0.021
			c-0.013-0.003-0.025-0.007-0.039-0.012c-0.088-0.026-0.162-0.068-0.203-0.136c0-0.001-0.002-0.001-0.002-0.001
			c-0.109-0.196-0.207-0.509,0.14-0.867c0.345-0.36,0.385-0.664,0.385-0.664c0.034-0.157,0.04-0.322,0.036-0.488
			c0-0.042-0.004-0.083-0.008-0.125c-0.004-0.051-0.002-0.1-0.008-0.151c0.06-0.013,0.096-0.019,0.096-0.019
			s2.208-0.516,3.133-0.673c0.926-0.16,3.02-0.61,3.914-1.039c0.889-0.431,1.335-0.771,1.439-1.03
			c0.103-0.26-0.377-0.411-0.377-0.411s-0.562-0.133-0.485-0.325c0.071-0.196,0.28-0.366,1.161-0.761
			c0.879-0.393,1.98-0.82,3.089-1.095c1.104-0.27,0.7,0.186,0.7,0.186s-0.662,0.676-0.75,0.938
			c-0.082,0.261,0.029,0.271,0.115,0.319c0.084,0.047,0.617,0.024,0.979-0.065c0.365-0.094,3.314-1.216,5.111-2.246
			c0.047-0.024,0.09-0.052,0.133-0.076l0.375-0.623l0.002,0.001c-0.002,0.002-0.002,0.001-0.002,0.003
			c-0.021,0.032-0.03,0.057-0.049,0.088c-0.537,0.867-0.762,1.367-0.762,1.367s-0.273,0.526-0.299,0.826
			c-0.023,0.301-0.242,0.26-0.242,0.26s-0.459-0.023-1.119,0.258c-0.02,0.008-0.033,0.012-0.056,0.019c0,0-0.026,0.015-0.073,0.038
			c-0.215,0.102-0.447,0.242-0.691,0.42c-0.045,0.031-0.086,0.056-0.133,0.089c-0.026,0.021-0.057,0.04-0.08,0.061
			c-0.705,0.579-1.192,1.07-1.469,1.375c-0.013,0.017-0.023,0.032-0.035,0.049c-0.146,0.163-0.223,0.259-0.223,0.259
			s-0.406,0.54-0.015,0.54s1.313-0.475,1.666-0.786C75.801,84.902,75.623,85.162,75.623,85.162z M84.086,78.005
			c-0.617,0.683-0.927,0.965-0.927,0.965s-0.106,0.109-0.222,0.245l-0.012,0.013c0,0.005-0.005,0.013-0.011,0.015h0.001
			c-0.077,0.094-0.148,0.193-0.193,0.283c-2.018,1.938-4.194,3.704-6.517,5.273c0.047-0.077,0.069-0.14,0.038-0.164h-0.002
			c-0.001-0.001,0-0.003,0-0.003c-0.123-0.097-0.598,0.245-0.598,0.245s-0.069,0.06-0.178,0.136l0.004-0.002
			c-0.133,0.096-0.317,0.22-0.508,0.316c-0.054,0.024-0.105,0.051-0.156,0.069c-0.033,0.014-0.063,0.024-0.095,0.033
			c-0.069,0.021-0.138,0.035-0.192,0.031c-0.379-0.031,0.459-0.829,0.459-0.829s0.486-0.548,1.078-0.885
			c0.198-0.112,0.408-0.201,0.614-0.238c0.825-0.148,0.979-0.354,1.382-0.664c0.137-0.104,0.234-0.215,0.334-0.367
			c0.203-0.304,0.418-0.784,0.971-1.792c0.031-0.057,0.064-0.111,0.096-0.17h0.001c1.058-0.591,1.433-0.773,1.685-0.922
			c1.131-0.673,2.48-1.496,2.836-1.774C83.975,77.819,84.703,77.323,84.086,78.005z M90.924,69.19
			c0.29-0.632,0.529-1.305,0.82-1.959c0.288-0.653,0.703-1.296,0.682-2.233c-0.046-0.043-0.08-0.099-0.111-0.151h-0.23
			c-0.229,0.195-0.546,0.284-0.795,0.455c-0.384,0.271-0.727,0.632-1.098,0.91c-0.168,0.128-0.416,0.242-0.53,0.417
			c-0.19,0.286-0.153,0.772-0.38,1.021v0.15c0.301-0.109,0.443-0.463,0.683-0.643c0.294-0.222,0.538-0.516,0.832-0.723
			c0.185-0.129,0.396-0.197,0.568-0.341c0.12,0.022,0.11,0.036,0.19,0.078c-0.02,0.962-0.525,1.641-0.834,2.349
			c-0.088,0.206-0.115,0.527-0.265,0.681c-0.071,0.071-0.219,0.09-0.3,0.149c-0.254,0.279-0.506,0.557-0.76,0.836
			c-0.24,0.329-0.351,0.77-0.606,1.098c-0.002,0.108-0.002,0.206,0.036,0.265c0.039,0.029,0.105,0.056,0.152,0.076
			c0.416-0.396,0.817-0.739,1.179-1.173c-1.642,2.584-3.521,4.998-5.604,7.223c0.043-0.055,0.086-0.108,0.125-0.16
			c0.021-0.025,0.033-0.046,0.049-0.068c0.291-0.404,0.088-0.385,0.088-0.385s-0.063-0.009-0.248,0.063
			c-0.026,0.011-0.055,0.021-0.09,0.038c-0.017,0.007-0.024,0.01-0.043,0.018v0.002c-0.138,0.065-0.319,0.164-0.568,0.321
			c-0.766,0.486-1.309,0.822-1.309,0.822s-1.647,0.942-2.693,1.554c-0.01,0.005-0.021,0.012-0.03,0.018
			c0.002-0.003,0.003-0.005,0.005-0.007c0.008-0.006,0.021-0.012,0.028-0.017c-0.009,0.005-0.021,0.011-0.028,0.016
			c0.754-1.175,1.643-2.2,2.317-2.955c0.825-0.919,1.817-2.415,1.817-2.415s0.613-1.055,0.637-1.541
			c0.003-0.068-0.006-0.129-0.028-0.171c-0.012-0.02-0.043-0.016-0.062-0.027c-0.021-0.013-0.039-0.03-0.07-0.031
			c-0.23-0.036-0.723,0.213-1.482,0.779c-0.686,0.513-1.242,0.862-1.703,1.107c-0.021,0.009-0.039,0.015-0.06,0.022
			c0.021-0.01,0.04-0.02,0.06-0.028c-0.262,0.119-0.528,0.211-0.764,0.235c-0.615,0.066-0.832-0.302-0.893-0.696
			c-0.033-0.236-0.012-0.482,0.013-0.649c0.067-0.449,0.299-1.479,1.017-1.887c0.719-0.409,1.723-0.394,2.426-0.492
			c0.707-0.095,1.031-0.297,1.031-0.297s1.151-0.731,1.911-1.965c0.761-1.236,1.439-3.229,1.519-5.207
			c0-0.022-0.002-0.041-0.002-0.063c0.007-0.194,0.002-0.377-0.008-0.55c-0.004-0.064-0.012-0.127-0.019-0.189
			c-0.013-0.13-0.03-0.254-0.051-0.37c-0.011-0.052-0.019-0.104-0.029-0.152c-0.032-0.147-0.067-0.288-0.11-0.415l0.004,0.001
			c1.893-1.506,3.703-3.419,3.703-3.419s1.203-1.207,1.809-2.256c0.046-0.08,0.082-0.134,0.113-0.18
			c0.011-0.015,0.021-0.025,0.028-0.037c0.025-0.03,0.048-0.054,0.063-0.063c0.002-0.001,0.005-0.005,0.007-0.006
			c0.017-0.007,0.028,0.001,0.036,0.018c0.002,0.005,0.003,0.01,0.004,0.016c0.005,0.02,0.007,0.044,0.005,0.076
			c0,0.006-0.002,0.015-0.002,0.02c-0.001,0.002-0.002,0.008-0.002,0.008s-0.491,1.381-0.318,2.066c0,0.005,0,0.011,0,0.016
			c-0.002-0.005-0.005-0.009-0.006-0.014c0.001,0.014,0.005,0.026,0.006,0.041c0.007,0.14,0.026,0.275,0.056,0.404
			c0.01,0.04,0.021,0.076,0.033,0.113c0.041,0.136,0.096,0.261,0.18,0.354c0,0.003,0,0.006,0.002,0.008
			c0.018,0.018,0.039,0.018,0.058,0.028c0.425,0.292,1.44-0.789,1.44-0.789s0.658-0.755,0.924-1.973
			c0.244-1.121,0.252-1.684,0.224-1.944c-0.016-0.159-0.045-0.209-0.045-0.209s-0.237-0.372-0.089-0.817
			c0.012-0.034,0.035-0.101,0.057-0.157c0.241-0.66,1.062-2.689,1.771-3.587C96.653,56.728,94.385,63.351,90.924,69.19z
			 M90.039,69.96c-0.049,0.376-0.335,0.713-0.607,0.873v0.038h-0.039c0.067-0.455,0.412-0.581,0.57-0.911H90.039z M92.919,56.845
			c-0.041,0.153-0.073,0.267-0.073,0.267s-0.004,0.023-0.01,0.047c0.004-0.019,0.01-0.05,0.01-0.05S92.878,56.997,92.919,56.845z
			 M97.52,47.828l-0.232,0.391c-0.076,0.129-0.088,0.286-0.031,0.425l0.104,0.256c-0.005,0.008-0.009,0.014-0.013,0.021
			c-0.002,0.002-0.004,0.004-0.006,0.006c-0.014,0.021-0.029,0.048-0.043,0.069c-0.176,0.275-0.391,0.623-0.654,1.06
			c-1.213,1.997-1.404,3.609-1.404,3.609s-0.114,0.625-0.051,0.99c0.013,0.071,0.027,0.134,0.045,0.189
			c0.002,0.005,0.003,0.011,0.004,0.017c0.018,0.057,0.035,0.104,0.053,0.147c0,0.002,0.001,0.005,0.002,0.007
			c0,0.001,0,0.001,0.001,0.002c0.021,0.055,0.041,0.103,0.056,0.141c0.002,0.007,0.004,0.012,0.006,0.019
			c0.009,0.026,0.018,0.052,0.019,0.073c0.004,0.045-0.012,0.24-0.065,0.508c-0.011,0.051-0.022,0.103-0.035,0.156
			c-0.012,0.046-0.021,0.092-0.036,0.141c-0.028,0.105-0.063,0.217-0.104,0.332c-0.013,0.038-0.029,0.077-0.045,0.115
			c-0.05,0.129-0.105,0.261-0.175,0.393c-0.009,0.018-0.017,0.035-0.024,0.054c-0.42,0.778-0.781,0.986-0.781,0.986
			s-0.723,0.521-0.822,0.15c-0.1-0.373-0.071-0.689-0.034-0.925c0.034-0.237,0.277-1.513,0.241-1.983
			c-0.033-0.474-0.458-0.094-0.458-0.094s-0.099,0.114-0.285,0.35c-0.187,0.237-1.231,1.567-1.632,2.034
			c-0.946,1.108-1.807,1.904-4.107,3.763c-0.009,0.003-0.016,0.011-0.02,0.015c-0.008-0.011-0.014-0.018-0.02-0.026
			c-0.088-0.144-0.174-0.264-0.254-0.366c-0.101-0.132-0.191-0.238-0.25-0.316c-0.271-0.351-0.767-0.194-1.371-1.655
			c-0.604-1.455-0.744-2.695-0.73-3.555c0.002-0.122,0.006-0.235,0.013-0.342c0.056-0.852,0.261-1.178,0.652-1.545
			c0.394-0.365,2.13-0.202,2.13-0.202s0.852,0.176,1.615-1.088c0.562-0.938,0.678-2.317,0.599-3.388
			c-0.026-0.37-0.077-0.705-0.142-0.97c-0.242-1.03-0.596-1.928-2.008-2.075c-1.408-0.146-2.045,1.589-2.045,1.589
			s-0.285,0.663-0.584,1.045c-0.298,0.378-1.109,0.272-1.109,0.272c-0.354-0.043-0.785,0.095-1.211-0.775
			c-0.418-0.867-1.379-3.145-1.379-3.145c-0.325-0.775-0.532-1.448-0.658-1.968l-0.692-0.284l-0.002-0.003l0.692,0.28
			c0.977-0.538,2.646-1.513,3.839-2.519c1.791-1.506,3.541-3.087,3.987-3.482c0.445-0.4,0.854-0.72,1.25-0.701
			c0.396,0.021,0.701,0.303,0.947,1.372c0.246,1.07,0.295,1.951,0.406,2.472c0.112,0.52,0.273,1.125,0.893,1.249
			c0.619,0.123,1.449-0.416,1.76-0.683c0.08-0.067,0.177-0.174,0.275-0.314c0.004-0.007,0.01-0.017,0.016-0.024
			c0.043-0.062,0.085-0.126,0.127-0.199c0.238-0.417,0.453-1.027,0.431-1.751c0,0,0.063-1.536-0.729-2.993
			c0,0-0.334-0.588-0.457-0.749c-0.084-0.114-0.147-0.229-0.008-0.501c0.035-0.067,0.08-0.149,0.137-0.24
			c0.173-0.274,0.449-0.62,0.875-0.859c0.429-0.245,0.842-0.303,1.078-0.38c0,0,0.265-0.063,0.601-0.248l-0.002-0.006
			c0,0,0.002-0.001,0.003-0.002c0.004,0.01,0.007,0.019,0.009,0.027c0.505,1.57,1.085,4.182,1.085,4.182s0.18,0.769,0.198,1.123
			c0.021,0.355-0.06,0.364-0.219,0.178c-0.157-0.187-0.315-0.069-0.315-0.069s-0.167,0.069-0.167,0.74s0.08,2.246,0.207,3.461
			c0.146,1.44,0.591,2.042,0.591,2.042s0.396,0.592,0.504-0.552c0.004-0.043,0.008-0.065,0.012-0.101
			c0.018,0.526,0.051,1.052,0.051,1.579C97.615,45.774,97.583,46.802,97.52,47.828z"/>
		<path style="opacity:0.88;enable-background:new    ;" d="M22.914,80.086c0.052,0.056,0.102,0.112,0.153,0.168
			c-0.007-0.008-0.015-0.019-0.015-0.019L22.914,80.086z"/>
		<path style="opacity:0.88;enable-background:new    ;" d="M15.359,35.144h0.001H15.359z"/>
		<polygon style="opacity:0.88;enable-background:new    ;" points="52.816,74.017 52.819,74.017 52.816,74.016 		"/>
		<path style="opacity:0.88;enable-background:new    ;" d="M73.831,72.157c-1.104-0.273-2.034,0.272-3.183,0.189
			c-0.109-0.115-0.191-0.182-0.264-0.341c-0.8,0.023-1.683,1.805-0.871,2.348c0.435,0.295,1.67,0.124,2.196,0
			c0.294-0.066,0.75-0.133,0.983,0.037c0.318,0.236,0.262,1.131,0.15,1.63c-0.127,0.935-0.254,1.868-0.379,2.805
			c-0.111,0.566-0.227,1.134-0.342,1.703c0.581-0.004,1.128-0.598,1.291-1.023c0.096-0.247,0.045-0.48,0.114-0.757
			c0.2-0.795,0.227-1.743,0.417-2.575c0.121-0.538,0.039-1.053,0.148-1.552c0.084-0.376,0.137-1.622,0.041-1.972
			C74.078,72.458,73.93,72.307,73.831,72.157z"/>
		<path style="opacity:0.88;enable-background:new    ;" d="M20.16,8.528V8.452h-0.151c-0.178,0.13-0.646,0.209-0.869,0.339
			c0.03,0.13,0.019,0.097,0.113,0.151c-0.133,0.369-0.572,0.645-0.797,0.949c-0.354,0.479-0.751,0.926-1.099,1.401
			c-0.117,0.157-0.195,0.402-0.34,0.529c-0.227,0.198-0.874,0.177-1.135,0.378h-0.075c0.054-0.317,0.869-1.332,1.099-1.552v-0.038
			c-0.391,0.055-0.693,0.261-0.948,0.452c0.043,0.087,0.036,0.07,0.116,0.115c-0.14,0.229-0.346,0.397-0.493,0.605
			c-0.189,0.264-0.292,0.576-0.492,0.834c0.014,0.038,0.026,0.074,0.037,0.113c0.242-0.021,1.25-0.341,1.401-0.453h0.111
			c-0.152,0.46-0.755,1.092-1.021,1.515c-0.149,0.237-0.241,0.547-0.453,0.72c0.035,0.041-0.004,0.001,0.037,0.037
			c0.084,0.051,0.778-0.133,0.91-0.226c0.079,0.014,0.072,0.011,0.114,0.037c0.041,0.066-0.46,0.949-0.569,1.062v0.039
			c0.188-0.022,0.48-0.054,0.606-0.153c0.367-0.286,0.451-0.897,0.719-1.289c-0.013-0.063-0.024-0.126-0.039-0.188
			c-0.212-0.038-0.651,0.02-0.832,0.151h-0.038c0.088-0.454,0.831-1.289,1.098-1.668c0.435-0.619,0.843-1.214,1.287-1.818
			c0.233-0.316,0.56-0.595,0.796-0.908C19.516,9.237,19.797,8.772,20.16,8.528z"/>
		<path style="opacity:0.88;enable-background:new    ;" d="M30.65,71.929c-0.058,0.129-0.05,0.339-0.111,0.492
			c-0.328,0.804-0.436,0.973,0.075,1.742c0.228,0,0.257-0.035,0.379-0.113C31.144,73.421,31.168,72.225,30.65,71.929z"/>
		<path style="opacity:0.88;enable-background:new    ;" d="M32.244,71.248c-0.158-0.259-0.47-0.327-0.683-0.53
			c-0.066-0.021-0.038-0.008-0.076-0.037c0.488-0.253,1.008-0.531,1.516-0.757c0.137,0.15,0.767,0.759,0.985,0.643
			c0.037-0.012,0.074-0.021,0.112-0.035c-0.013-0.216-0.023-0.431-0.038-0.646c-0.479-0.477-1.182-0.871-1.971-1.021v0.037h-0.038
			c0.089,0.262,0.381,0.511,0.608,0.644v0.113c-0.448,0.064-0.847,0.281-1.25,0.419c-0.277,0.089-0.611,0.077-0.836,0.225h-0.112
			c0.165-0.458,0.706-0.834,0.984-1.213c0.551-0.743,0.988-1.653,1.857-2.083c-0.023-0.35-1.03-1.071-1.402-0.833
			c-0.093,0.048-0.028-0.02-0.074,0.073c-0.058,0.139,0.131,0.309,0.074,0.531c-0.073,0.292-0.794,1.666-0.985,1.818v0.039
			c-0.39-0.134-0.686-0.501-1.059-0.683c0.066-0.35,0.358-0.617,0.529-0.871c0.435-0.655,0.782-1.278,1.44-1.706
			c-0.006-0.504-0.819-1.029-1.365-1.021c0.002,0.231,0.12,0.362,0.077,0.566c-0.134,0.618-0.417,1.241-0.644,1.781
			c-0.149,0.349-0.217,0.765-0.456,1.02c-0.051,0.029-0.471-0.006-0.568-0.073c-0.143-0.002-0.285,0.006-0.377,0.036v0.076
			c0.638,0.617,1.327,0.828,2.197,1.214c-0.121,0.627-0.753,1.045-1.062,1.517c-0.159,0-0.287-0.011-0.378-0.076
			c-0.088,0.017-0.093,0.021-0.151,0.039c0.016,0.557,0.479,1.031,0.945,1.137c0.313-0.35,0.706-0.52,1.175-0.718
			c0.431,0.447,0.554,1.088,0.72,1.814c0.071,0.317-0.046,0.667,0.038,0.945c0.146,0.492,0.407,0.639,0.643,0.983h0.268
			c0.166-0.892-0.242-1.753-0.454-2.461C32.37,71.855,32.308,71.552,32.244,71.248z"/>
		<path style="opacity:0.88;enable-background:new    ;" d="M41.785,87.948c0.287,0.104,0.521,0.385,0.796,0.53
			c0.729,0.382,1.935,0.695,3.031,0.456c0.538-0.12,1.095-0.12,1.248-0.607c0.17-0.267-0.065-0.64-0.149-0.79
			c-0.354-0.632-0.819-1.044-1.402-1.44c-1.929-1.318-4.772-2.655-8.067-2.573c-0.16,0.102-0.481,0.021-0.681,0.074
			c-0.275,0.072-0.444,0.214-0.643,0.34c-0.008,0.931,1.383,1.434,2.158,1.626c0.463,0.117,0.87-0.101,1.138-0.188
			c0.205-0.786-0.743-0.899-1.175-1.289h-0.078v-0.038c2.906-0.114,5.082,0.697,6.742,1.934c0.415,0.31,0.89,0.749,1.099,1.25
			c0.078,0.187,0.11,0.493,0,0.646c-0.152,0.421-0.656,0.384-1.137,0.493c-1.112,0.256-2.638-0.374-3.145-0.871
			c-0.104,0.181,0.047,0.459-0.114,0.646c-0.168,0.457-0.753,0.338-1.288,0.453c-0.876,0.19-2.252-0.259-2.764-0.604
			c-0.144-0.101-0.246-0.274-0.379-0.38c-0.008-0.099-0.018-0.13-0.039-0.19c0.076-0.069,0.169-0.179,0.226-0.263
			c1.091-0.081,1.646-0.025,2.275,0.57c-0.017,0.073-0.01,0.068-0.04,0.108c-0.069,0.146-0.234,0.162-0.453,0.154v0.068
			c0.399,0.006,0.567-0.056,0.795-0.188c0.012-0.076,0.026-0.152,0.038-0.227c-0.13-0.135-0.222-0.312-0.38-0.419
			c-0.621-0.408-1.905-0.613-2.611-0.149c-0.111,0.538,0.222,0.828,0.53,1.058c0.618,0.468,1.14,0.738,2.008,0.985
			c0.278,0.078,0.527,0.008,0.834,0.073c0.268,0.062,0.732,0.074,1.022,0c0.482-0.123,1.153-0.631,0.604-1.215L41.785,87.948
			L41.785,87.948z M38.301,84.352c0.134,0.092,0.211,0.279,0.341,0.38c-0.003,0.096-0.004,0.143-0.037,0.19
			c-0.247,0.668-1.635,0.174-1.971-0.077c-0.104-0.077-0.146-0.237-0.227-0.34c0.015-0.078,0.01-0.073,0.039-0.11
			c0.104-0.293,0.4-0.193,0.644-0.339C37.57,84.056,38.004,84.15,38.301,84.352z"/>
		<path style="opacity:0.88;enable-background:new    ;" d="M51.635,91.85c0.014-0.035,0.023-0.072,0.037-0.11
			c-0.934-0.038-1.87-0.075-2.802-0.113c-0.118,0.078-0.299,0.033-0.454,0.075c-0.194,0.057-0.408,0.145-0.568,0.229
			c0.024,0.064,0.008,0.037,0.038,0.074c0.229,0.18,1.555,0.19,1.818,0h0.075V91.93c-0.4-0.127-1.133,0.192-1.438,0h-0.039v-0.039
			c1.006-0.068,2.133-0.042,3.183-0.038c-0.101,0.069-0.314,0.05-0.417,0.114c-0.038,0.013-0.075,0.025-0.112,0.037v0.077
			c0.228,0.034,0.454,0.073,0.681,0.11c0.035,0.039-0.004,0.004,0.037,0.035c-0.335,0.225-1.199,0.135-1.514-0.035v-0.076
			c-0.17-0.078-0.948,0.08-1.099,0.111c-0.127,0.029-0.259-0.014-0.342,0.037c-0.158,0.01-0.174,0.027-0.264,0.076
			c0.021,0.122,0.033,0.11,0.076,0.188c0.243,0.059,0.666,0.062,0.944,0.148V92.64h0.039v-0.037
			c-0.142-0.055-0.536-0.022-0.683-0.108h-0.076c0.127-0.102,1.364-0.268,1.593-0.114c0.063,0.021,0.037,0.007,0.076,0.037
			c-0.203,0.037-0.406,0.077-0.608,0.111c0.024,0.062,0.009,0.036,0.039,0.074c0.062,0.043,0.185,0.043,0.302,0.037
			c-0.038,0.071-0.052,0.104-0.114,0.151c0.014,0.021,0.026,0.049,0.039,0.075c0.536,0,0.986-0.056,1.438-0.149
			c0.27-0.06,0.599,0.05,0.795-0.077h0.306v-0.075c-0.517-0.001-1.806-0.052-2.12,0.152h-0.113c0.031-0.041-0.004-0.004,0.035-0.04
			c0.149-0.172,0.451-0.086,0.719-0.148c0.422-0.1,1.117-0.271,1.479,0c0.1,0.062,0.037-0.008,0.037,0.111
			c0.102-0.002,0.173-0.002,0.227-0.033h0.264v-0.078c-0.342-0.084-0.852-0.239-1.137-0.415
			C51.848,92.015,51.922,91.876,51.635,91.85z"/>
		<path style="opacity:0.88;enable-background:new    ;" d="M92.766,62.35c-0.137,0.124-0.338,0.155-0.492,0.266
			c-0.479,0.344-0.98,0.92-1.325,1.399c-0.274,0.386-0.511,0.808-0.757,1.214c-0.107,0.181-0.131,0.386-0.266,0.529v0.076
			c0.33-0.056,0.524-0.271,0.758-0.417c0.631-0.392,1.195-0.748,1.778-1.172c0.282-0.208,0.493-0.528,0.796-0.723
			c0.027-0.452,0.119-0.809-0.076-1.138C93.064,62.362,92.93,62.348,92.766,62.35z M92.311,63.711
			c-0.229,0.169-0.448,0.405-0.682,0.569c-0.199,0.141-0.438,0.215-0.605,0.38h-0.038c0.125-0.392,0.782-1.062,1.098-1.286
			c0.162-0.12,0.366-0.15,0.532-0.269h0.148c0.035,0.044,0.033,0.042,0.078,0.076C92.807,63.468,92.498,63.57,92.311,63.711z"/>
		<path style="opacity:0.88;enable-background:new    ;" d="M73.45,84.731h-0.38c-0.25,0.2-0.662,0.227-0.947,0.381
			c-0.253,0.134-0.557,0.316-0.794,0.491c-0.198,0.142-0.313,0.4-0.495,0.566c0.004,0.188,0.008,0.22,0.154,0.266
			c0.037,0.027,0.009,0.019,0.07,0.038c0.041-0.045,0.078-0.06,0.115-0.115c0.032-0.021-0.025-0.1-0.037-0.222
			c0.366-0.369,0.639-0.572,1.174-0.796c0.14-0.057,0.429-0.224,0.607-0.114h0.075c-0.024,0.374-0.877,1.523-1.138,1.705v0.109
			c0.697-0.18,1.162-1.573,1.63-2.081c-0.013-0.087-0.011-0.106-0.038-0.15L73.45,84.731z"/>
		<path style="opacity:0.88;enable-background:new    ;" d="M92.01,46.251c0.082,0.209,0.243,0.556,0.418,0.683
			c0.082,0.06,0.125,0.037,0.188,0.113c1.255,0.107,1.764-2.052,1.253-3.296c-0.093-0.215-0.495-0.847-0.872-0.605h-0.077
			c0.025-0.065,0.011-0.036,0.039-0.077c-0.001-0.179-0.021-0.239-0.073-0.34c-0.076-0.012-0.148-0.024-0.229-0.036
			c-0.037,0.029-0.01,0.014-0.074,0.036c0.025,0.23,0.105,0.236,0.114,0.492C92.083,43.78,91.561,45.118,92.01,46.251z
			 M92.424,44.245c0.084-0.204,0.254-0.336,0.379-0.493c0.078-0.015,0.071-0.009,0.111-0.039c0.288,0,0.369,0.056,0.531,0.153
			c0.287,0.681,0.33,1.869-0.149,2.388c-0.073,0.08-0.219,0.11-0.301,0.188C92.201,46.38,92.137,44.934,92.424,44.245z"/>
		<path style="opacity:0.88;enable-background:new    ;" d="M95.113,46.024v-0.605c-0.094-0.434-0.057-1.011-0.149-1.438
			c-0.181-0.844-0.021-1.844-0.34-2.538c-0.188-0.046-0.376-0.081-0.642-0.077c-0.1,0.101-0.172,0.15-0.152,0.267
			c0.079,0.343,0.523,0.413,0.645,0.757c0.015,0.165,0.023,0.329,0.037,0.493c0.129,0.537,0.106,1.231,0.227,1.781v0.454
			c0.061,0.276,0.152,0.991,0.074,1.213c-0.133,0.392-0.56,0.746-0.83,1.022c-0.721,0.722-1.569,1.642-2.844,1.778
			c-0.022,0.065-0.01,0.037-0.039,0.077c0.021,0.473,0.457,0.379,0.76,0.568c0.076-0.015,0.15-0.026,0.226-0.04
			c0.117-0.07,0.185-0.231,0.265-0.342c0.192-0.25,0.541-0.383,0.721-0.643h0.037c0.002,1.154,0.027,2.451,0.039,3.561h0.111
			c0.26-1.123,0.241-2.5,0.229-3.867c0.498-0.465,0.816-1.139,1.326-1.589v-0.075h0.039c0.006,1.198,0.035,2.422,0.035,3.635
			c0,0.389-0.099,1.319,0,1.479v0.228h0.076c0.102-0.407,0.127-0.979,0.227-1.438v-0.645c0.113-0.511,0.111-1.496,0.002-2.009
			C95.055,47.395,95.242,46.618,95.113,46.024z"/>
		<path style="opacity:0.88;enable-background:new    ;" d="M70.42,87.535c-0.225,0.2-0.771,0.22-1.021,0.417H69.36
			c0.1-0.144,0.278-0.204,0.38-0.339c0.072-0.101,0.104-0.218,0.188-0.303c-0.018-0.078-0.01-0.071-0.037-0.111v-0.077
			c-1.105-0.202-2.951,0.751-3.521,1.252c-0.148,0.129-0.236,0.322-0.38,0.457c0.003,0.104,0.015,0.161,0.036,0.226
			c0.673,0.045,1.931-0.366,2.082-0.907c0.029-0.023,0.012-0.002,0-0.038v-0.075c-0.459-0.025-1.076,0.07-1.36,0.339h-0.038
			c0.249-0.378,1.171-0.714,1.664-0.871c0.165-0.051,0.527-0.142,0.686-0.037c0.035,0.015,0.071,0.024,0.111,0.037
			c-0.09,0.38-0.63,0.802-0.984,0.908v0.076c0.58-0.136,1.113-0.398,1.627-0.606c0.353-0.144,0.752-0.181,1.062-0.379
			c0.22-0.143,0.965-1.155,1.021-1.439C71.02,86.195,70.948,87.059,70.42,87.535z M67.428,88.292v0.114
			c-0.072,0.047-0.123,0.148-0.189,0.188c-0.196,0.115-0.458,0.104-0.646,0.229c-0.086-0.011-0.104-0.009-0.148-0.039h-0.037
			C66.508,88.46,67.133,88.312,67.428,88.292z"/>
		<path style="opacity:0.88;enable-background:new    ;" d="M74.854,59.161c-0.426-0.263-0.484-1.604-0.645-2.195
			c-0.312-1.163-0.463-2.383-0.796-3.561c-0.213-0.756-0.501-1.537-0.416-2.464c0.133-0.133,0.222-0.307,0.379-0.417
			c0.213-0.146,0.556-0.22,0.72-0.417c0.026-0.049-0.018-0.122-0.039-0.228c-0.438,0.07-0.84,0.335-1.211,0.491
			c-0.76,0.324-1.502,0.515-2.272,0.834c-0.241,0.1-0.492,0.27-0.798,0.301v0.229c0.027,0.014,0.053,0.023,0.076,0.037
			c0.041,0.043,0.99-0.374,1.289-0.111c0.34,0.119,0.297,0.563,0.492,0.834c-0.059,0.588-0.645,1.491-0.873,2.008
			c-0.557,1.269-1.121,2.479-1.738,3.672c-0.237,0.457-0.521,1.276-0.834,1.628v0.037c-0.207-0.283-0.189-1.006-0.301-1.399
			c-0.338-1.182-0.554-2.479-0.91-3.635c-0.064-0.221-0.291-1.225-0.148-1.438c0.049-0.522,0.787-0.751,1.211-0.909
			c-0.011-0.088-0.021-0.178-0.037-0.267c-0.671,0.103-1.367,0.459-1.97,0.684c-0.569,0.214-1.091,0.3-1.667,0.494
			c-0.285,0.098-0.607,0.263-0.943,0.301v0.039h-0.039c0.016,0.106,0.023,0.164,0.074,0.227c0.155,0.104,0.986-0.337,1.327-0.072
			c0.532,0.181,0.548,1.028,0.72,1.589c0.46,1.512,0.696,3.186,1.137,4.735c0.109,0.388,0.375,1.613,0.113,1.932
			c-0.141,0.421-0.847,0.589-1.25,0.758c0.014,0.076,0.021,0.152,0.034,0.227c0.583-0.087,1.112-0.355,1.634-0.534
			c1.018-0.341,1.979-0.623,2.958-0.985c-0.017-0.088-0.026-0.179-0.04-0.264c-0.418,0.11-0.74,0.236-1.326,0.227
			c-0.076-0.066-0.149-0.128-0.225-0.191c-0.064-0.2-0.13-0.402-0.191-0.604c0.041-0.479,0.654-1.36,0.871-1.781
			c0.646-1.237,1.209-2.488,1.776-3.786c0.22-0.496,0.722-1.221,0.797-1.776c0.177,0.105,0.127,0.42,0.188,0.644
			c0.129,0.454,0.201,0.938,0.34,1.438c0.27,0.958,0.374,1.985,0.645,2.992c0.1,0.37,0.25,1.004,0.076,1.401
			c-0.171,0.387-0.805,0.645-1.212,0.794c0.017,0.081,0.034,0.176,0.077,0.229c0.003,0.007,0.865-0.276,1.018-0.341
			c1.057-0.449,2.141-0.918,3.217-1.325c-0.015-0.091-0.021-0.181-0.037-0.263C75.836,59.042,75.223,59.391,74.854,59.161z"/>
		<path style="opacity:0.88;enable-background:new    ;" d="M57.35,16.858c0.181,0.09,0.181,0.318,0.268,0.493
			c0.177,0.354,0.418,0.784,0.529,1.175v0.303c0.089,0.241,0.379,0.271,0.57,0.417c0.149-0.021,0.205-0.059,0.301-0.114
			c-0.062-0.72-0.502-1.317-0.756-1.894c-0.078-0.18-0.199-0.433-0.228-0.605c-0.021-0.105,0.062-0.163,0-0.265
			c-0.05-0.118-0.067-0.082-0.147-0.152c-0.059-0.038-0.031-0.016,0-0.075c0.063-0.138,0.202-0.274,0.262-0.417
			c0.127-0.299,0.121-0.552,0.38-0.719c-0.038-0.393-0.611-0.438-1.06-0.416c-0.056,0.039-0.149,0.061-0.23,0.073
			c0.049,0.099,0.078,0.119,0.191,0.15c0.107,1.111-0.67,2.13-1.178,2.803c-0.197,0.267-0.531,0.437-0.718,0.723h-0.037v0.035
			C55.999,18.292,57.096,17.248,57.35,16.858z"/>
		<path style="opacity:0.88;enable-background:new    ;" d="M49.816,17.393c0.19,0.063,0.379,0.125,0.571,0.188
			c0.152,0.002,0.313-0.002,0.414-0.037c-0.01-0.627-0.35-0.875-0.568-1.288c-0.107-0.211-0.168-0.5-0.34-0.645
			c0.066-0.23,0.696-0.294,0.946-0.378c0.615-0.202,1.312-0.404,1.934-0.606c0.293-0.095,0.637-0.074,0.871-0.226
			c0.141,0.014,0.211,0.027,0.267,0.111c0.136,0.204,0.248,1.598,0.149,2.009c-0.383,1.592-0.858,2.836-1.854,3.788v0.038
			c0.368-0.06,0.543-0.418,0.793-0.605c1.007-0.761,1.688-1.888,2.047-3.297c0.211-0.827-0.135-1.64,0.19-2.347h-0.037
			c-0.071-0.18-1.036-0.529-1.33-0.531c-0.156,0.169-0.381,0.398-0.605,0.492c-0.343,0.146-0.804,0.105-1.098,0.302
			c-0.273-0.022-0.484-0.546-0.302-0.757c-0.011-0.086-0.009-0.107-0.038-0.151c-0.229-0.184-0.812-0.163-1.213-0.151
			c-0.129,0.119-0.242,0.144-0.303,0.343h-0.037c-0.021,0.072,0.02,0.048,0.037,0.074c0.024,0.016,0.155-0.006,0.228,0.039
			c0.431,0.045,0.419,0.541,0.646,0.795c-0.024,0.066-0.01,0.039-0.039,0.076c-0.148,0.118-1.246,0.434-1.478,0.494
			c-0.178,0.044-0.396-0.065-0.529-0.078c-0.321-0.027-0.606,0.153-0.797,0.265c0.104,0.151,0.416,0.114,0.531,0.265
			C49.273,16.11,49.453,16.798,49.816,17.393z"/>
		<path style="opacity:0.88;enable-background:new    ;" d="M53.299,33.372c0.76,0.229,1.303,1.088,1.739,1.667
			c0.192,0.255,0.491,0.462,0.683,0.719c0.813,1.08,1.73,2.055,2.537,3.146c0.313,0.423,0.738,0.79,1.021,1.249
			c0.171-0.004,0.206-0.024,0.303-0.077c0.204-0.889,0.316-1.785,0.57-2.689c0.113-0.414,0.257-0.901,0.3-1.362
			c0.313,0.111,0.567,0.58,0.76,0.834c0.593,0.786,1.427,1.438,1.97,2.271c0.156-0.007,0.174-0.025,0.266-0.075
			c0.171-1.285,0.333-2.573,0.498-3.86v-0.379c0.171-0.767,0.131-1.689,0.3-2.461c0.229-1.042-0.097-2.056,0.948-2.312
			c0.02-0.102,0.055-0.141,0-0.228c-0.023-0.064-0.01-0.037-0.039-0.076c-0.041-0.029-0.036-0.022-0.111-0.037
			c-0.291,0.213-1.082,0.357-1.477,0.454c-0.301,0.073-0.611,0.01-0.834,0.151c-0.036,0.013-0.074,0.025-0.113,0.037
			c0.014,0.077,0.023,0.154,0.039,0.228c0.432,0.142,0.83-0.029,1.021,0.341c0.123,0.242,0.105,1.107,0.037,1.44
			c-0.24,1.113-0.142,2.384-0.38,3.483c-0.083,0.381,0.021,1.121-0.149,1.401v0.076c-0.23-0.109-0.381-0.408-0.53-0.606
			c-0.339-0.446-0.838-0.804-1.177-1.249c-0.203-0.269-0.418-0.59-0.682-0.797c0.034-0.729,0.247-1.494,0.42-2.157
			c0.125-0.5,0.129-0.963,0.377-1.328c0.143-0.207,0.483-0.339,0.719-0.454c-0.002-0.095-0.004-0.14-0.037-0.189
			c-0.014-0.038-0.022-0.076-0.035-0.113c-0.521,0.077-0.961,0.325-1.441,0.454c-0.435,0.118-0.871,0.088-1.214,0.264
			c0.011,0.088,0.009,0.107,0.039,0.151c0.015,0.038,0.022,0.077,0.038,0.113c1.331-0.075,1.129,0.649,0.872,1.668
			c-0.081,0.312-0.026,0.741-0.19,0.984v0.074h-0.039c-0.272-0.414-0.683-0.814-1.021-1.174c-0.14-0.126-0.278-0.252-0.416-0.378
			c-0.101-0.132-0.153-0.299-0.269-0.418c0.024-0.417,0.365-0.525,0.685-0.643c-0.015-0.175-0.05-0.197-0.112-0.304
			c-0.988,0.145-1.846,0.699-2.955,0.757v0.039h-0.037c0.004,0.096,0.004,0.141,0.037,0.189v0.075
			c0.217,0.038,0.541-0.051,0.797,0.038c0.408,0.145,0.773,0.621,1.021,0.948c0.371,0.491,0.953,0.909,1.323,1.4
			c0.195,0.262,0.416,0.606,0.684,0.797c-0.035,0.665-0.22,1.366-0.379,1.97c-0.083,0.309-0.033,0.703-0.188,0.945
			c-0.024,0.066-0.01,0.037-0.039,0.076c-0.361-0.688-1.059-1.21-1.516-1.818c-0.879-1.168-1.855-2.22-2.765-3.37
			c0-0.161,0.009-0.257,0.075-0.341c0.07-0.22,0.344-0.424,0.605-0.455c0.016-0.116,0.031-0.129-0.037-0.229
			c-0.016-0.036-0.025-0.074-0.039-0.113c-0.77,0.118-1.457,0.476-2.195,0.684c-0.383,0.107-0.889,0.055-1.176,0.265
			c-0.039,0.012-0.076,0.025-0.112,0.038c0.021,0.146,0.059,0.168,0.112,0.266C52.689,33.366,53.008,33.283,53.299,33.372z"/>
		<path style="opacity:0.88;enable-background:new    ;" d="M89.164,29.357c-0.087,1.316-1.215,1.734-2.421,1.212
			c-0.862-0.369-1.548-1.185-2.087-1.895c-0.18-0.237-0.46-0.437-0.643-0.683c-0.17-0.229-0.293-0.484-0.494-0.683v-0.037h-0.074
			c0.104,0.408,0.339,0.78,0.492,1.138c0.641,1.473,1.455,2.502,2.69,3.37c0.582,0.41,1.552,1.057,2.388,0.455
			c1.461-1.052,0.75-4.967,0.15-6.438c-0.156-0.387-0.281-0.69-0.455-1.021c-0.285-0.55-0.586-1.354-1.4-1.363
			c-0.201,0.171-0.416,0.308-0.531,0.566c-0.743,1.687,0.783,3.588,1.479,4.509C88.502,28.812,88.79,29.169,89.164,29.357z
			 M87.653,25.23h0.188c0.371,0.386,0.715,0.754,0.947,1.286c0.124,0.286,0.146,0.771,0.3,1.023
			c-0.021,0.067-0.005,0.038-0.034,0.077c-0.099,0.097-0.516-0.4-0.606-0.492C88.025,26.701,87.176,25.957,87.653,25.23z"/>
		<path style="opacity:0.88;enable-background:new    ;" d="M12.358,25.572c0.591-0.608,1.838-2.126,1.819-3.257
			c-0.061-0.059-0.114-0.155-0.152-0.227c-0.236-0.057-0.539-0.082-0.872-0.076c-0.085,0.307-0.262,0.567-0.378,0.832
			c-0.256,0.587-0.486,1.173-0.72,1.744c-0.197,0.475-0.319,1.239-0.605,1.626v0.076C11.848,26.22,12.119,25.818,12.358,25.572z
			 M12.51,24.362c0.226-0.537,0.38-1.071,0.643-1.552c0.146,0.002,0.257,0.014,0.341,0.075c0.091,0.049,0.026-0.019,0.075,0.076
			c0.078,0.188-0.17,0.488-0.263,0.642c-0.173,0.286-0.269,0.567-0.456,0.834c-0.17,0.244-0.44,0.434-0.605,0.682h-0.039
			C12.254,24.832,12.409,24.598,12.51,24.362z"/>
		<path style="opacity:0.88;enable-background:new    ;" d="M8.873,26.327h0.529c0.088-0.113,0.176-0.228,0.266-0.341
			c0.316-0.334,0.734-0.673,0.983-1.06h0.114v0.528c-0.29,0.261-0.739,0.665-0.871,1.062v0.302
			c-0.194,0.842,0.214,1.271,0.947,1.212c0.479-0.444,1.268-0.812,1.175-1.702c-0.042-0.033-0.004,0.005-0.039-0.036
			c-0.077,0.017-0.072,0.008-0.112,0.037c-0.275,0.143-0.739,1.365-1.289,1.022c-0.278,0.002-0.305-0.052-0.455-0.153
			c0.02-0.358,0.631-1.017,0.874-1.173c0.03-0.578,0.18-1.198,0.113-1.741c-0.039-0.014-0.076-0.026-0.113-0.038
			c-0.134-0.043-0.239,0.161-0.342,0.266c-0.276,0.278-0.62,0.57-0.834,0.908c-0.321-0.003-1.354-0.013-1.554,0.114H8.152
			c0.095-0.245,0.824-1.051,0.606-1.402c-0.013-0.039-0.023-0.076-0.039-0.114c-0.69,0.002-1.523,1.231-1.742,1.741
			c-0.11,0.256-0.11,0.55-0.264,0.758v0.039c0.517-0.063,1.036-0.127,1.552-0.191C8.462,26.321,8.733,26.414,8.873,26.327z
			 M7.585,25.61H7.357c0.104-0.418,0.514-0.896,1.022-0.91v0.189c-0.177,0.229-0.354,0.454-0.529,0.683
			C7.742,25.57,7.644,25.57,7.585,25.61z"/>
		<path style="opacity:0.88;enable-background:new    ;" d="M27.393,51.062v0.037c0.061,0.084,0.059,0.253,0.113,0.341
			c-0.023,0.063-0.009,0.037-0.038,0.076c-0.157,0.105-0.387,0.059-0.605,0.111c-0.451,0.113-1.901,0.466-2.234,0.151
			c-0.213-0.069-0.354-0.349-0.38-0.604c-0.095,0.004-0.14,0.004-0.188,0.037h-0.078c0.14,0.733,0.278,1.464,0.416,2.197h0.039
			v0.039c1.326-0.229,2.651-0.458,3.978-0.684c-0.19-0.697-0.378-1.39-0.568-2.087c-0.106-0.16-0.447-0.141-0.644-0.223
			c-0.332-0.139-0.742-0.442-0.946-0.719c-0.609-0.839-1.28-2.823-0.833-4.318c0.363-1.213,1.151-2.036,2.424-2.351
			c0.645-0.154,1.337,0.061,1.743,0.268c1.157,0.595,1.651,1.441,2.006,2.84c0.46,1.807-0.125,3.465-1.325,4.015
			c0.074,0.73,0.151,1.465,0.227,2.196c0.426-0.012,0.816-0.101,1.176-0.189c0.602-0.147,1.216-0.168,1.779-0.302
			c0.413-0.1,1.008-0.016,1.326-0.228c0.074-0.162-0.238-1.292-0.303-1.554c-0.055-0.22-0.008-0.441-0.113-0.605v-0.076
			c-0.088,0.013-0.177,0.024-0.265,0.038c0.017,1.145-0.799,0.987-1.705,1.213c-0.453,0.114-1.004,0.258-1.515,0.265
			c0-0.162,0-0.328,0-0.492c0.043-0.079,0.707-0.369,0.83-0.456c0.441-0.305,0.892-0.79,1.177-1.247
			c0.193-0.313,0.351-0.732,0.453-1.102c0.131-0.468,0.147-1.12,0.04-1.591c-0.077-0.324-0.047-0.577-0.152-0.871
			c-0.409-1.136-1.266-1.966-2.348-2.424c-0.492-0.206-1.047-0.215-1.628-0.34c-0.516-0.112-1.444,0.117-1.819,0.228
			c-1.823,0.538-3.061,1.417-3.637,3.182c-0.227,0.697-0.156,1.662,0.038,2.311C24.28,49.64,25.53,51.036,27.393,51.062z"/>
		<path style="opacity:0.88;enable-background:new    ;" d="M32.81,71.438c-0.076,0.327,0.729,1.06,0.984,1.252
			c0.127,0.096,0.298,0.313,0.492,0.226c0.1-0.008,0.131-0.019,0.19-0.038c0.044-0.102,0.11-0.229,0.038-0.339
			C34.494,72.061,33.261,71.529,32.81,71.438z"/>
		<path style="opacity:0.88;enable-background:new    ;" d="M41.6,73.255c0.039-0.016,0.078-0.024,0.113-0.041
			c-0.019-0.495-0.966-0.705-1.479-0.563c-0.228,0.063-0.491,0.204-0.719,0.265c-0.177,0.014-0.354,0.025-0.531,0.037
			c-0.06-0.616-0.363-1.096-0.378-1.74c0.568-0.012,1.283-0.087,1.664-0.303c-0.007-0.19-0.043-0.19-0.111-0.301
			c-0.435-0.102-1.179-0.12-1.517,0.111c-0.096-0.004-0.141-0.004-0.188-0.037c-0.212-0.269-0.11-0.814-0.303-1.098v-0.151
			c0.408-0.088,1.074-0.161,1.287-0.455c0.03-0.039,0.014-0.01,0.038-0.073c-0.034-0.034-0.049-0.065-0.075-0.114
			c-0.593-0.149-0.85-0.047-1.363,0.15c-0.159-0.513,0.033-0.918-0.491-1.06c0.112-0.195,0.484-0.187,0.719-0.265
			c0.365-0.121,0.782-0.283,1.099-0.454c0.025-0.065,0.008-0.039,0.039-0.076c-0.021-0.191-0.074-0.186-0.153-0.303
			c-0.546-0.042-0.982,0.011-1.288,0.303H37.89c0.045-0.282,0.222-0.688,0.378-0.908c0.106-0.155,0.305-0.135,0.38-0.341h0.037
			v-0.041c-0.077-0.099-0.151-0.202-0.228-0.3c-0.178-0.125-0.435-0.139-0.604-0.269c-0.252-0.004-0.493-0.003-0.644,0.075
			c0.021,0.146,0.085,0.237,0.113,0.341c0.105,0.392-0.271,1.6-0.418,1.779c-0.116,0.148-1.484,0.645-1.855,0.531
			c-0.088-0.027-0.345-0.157-0.416-0.229c-0.03-0.038-0.015-0.008-0.038-0.073c0.536-0.505,0.924-1.631,1.667-1.855
			c0.013-0.062,0.025-0.126,0.039-0.188c-0.186-0.191-1.086-1.138-1.554-0.835c-0.037,0.015-0.075,0.022-0.111,0.037
			c0,0.323,0.161,0.567,0.074,0.908c-0.174,0.682-0.562,1.489-0.909,2.048c-0.209,0.334-0.663,0.697-0.682,1.177
			c0.618-0.062,0.768-0.699,1.248-0.873c0.141,0.129,0.278,0.256,0.417,0.38c0.198,0.297,0.161,0.744,0.265,1.135
			c0.177,0.819,0.355,1.641,0.53,2.461c0.024,0.406,0.051,0.809,0.077,1.215c0.101,0.364,0.401,1.002,0.794,1.09
			c0.063,0.031,0.116,0.021,0.188-0.038c0.133-0.107,0.061-0.299,0.153-0.453c0.212-0.152,0.588-0.114,0.872-0.19
			c0.773-0.204,1.678-0.19,2.537-0.38C40.604,73.201,41.277,73.443,41.6,73.255z M35.461,68.334c0.061-0.104,1.065-0.262,1.176-0.19
			c0.401,0.188,0.259,0.778,0.492,1.138c-0.08,0.187-1.003,0.467-1.288,0.491C35.79,69.371,35.723,68.551,35.461,68.334z
			 M35.955,70.189c0.289-0.025,1.039-0.274,1.249-0.418h0.038c0.072,0.346,0.114,0.937,0.304,1.214
			c-0.137,0.333-0.972,0.304-1.288,0.493C36.125,71.399,35.951,70.449,35.955,70.189z M36.636,73.37
			c-0.079-0.54-0.337-1.017-0.341-1.591c0.582-0.012,0.881-0.245,1.361-0.305c0.03,0.354,0.248,1.349,0.418,1.59
			c0.001,0.023,0.001,0.054,0.001,0.077C37.619,73.241,37.143,73.372,36.636,73.37z"/>
		<path style="opacity:0.88;enable-background:new    ;" d="M5.613,45.529c0.08,0.021,0.136,0.035,0.189,0.076
			c0.747-0.051,0.902-0.65,1.287-1.061c0.327,0.785,0.082,2.157-0.643,2.349C6.135,47.107,5.678,46.83,5.5,46.666
			c-0.62-0.574-0.752-1.447-0.983-2.424c-0.079-0.329,0.031-0.998-0.112-1.252c0.005-0.386,0.088-1.084-0.115-1.286v-0.038
			l-0.075,0.002c-0.013,2.361-0.137,6.001,1.705,6.516c0.669,0.184,1.04-0.26,1.249-0.57c0.753-1.119,0.542-3.299-0.189-4.24
			c-0.325,0.032-0.791,0.805-0.946,1.059c-0.078-0.015-0.071-0.011-0.113-0.038c-0.088-0.039-0.082-0.063-0.152-0.113
			c-0.058-0.894,0.121-1.726,0.152-2.576c0.999,0.098,1.857,0.666,2.878,0.72c-0.001-0.178,0-0.416,0.073-0.529
			c-0.009-0.088-0.007-0.106-0.038-0.153c-0.139-0.11-0.908-0.292-1.136-0.301v-0.038H7.66c0.139-1.125-0.179-1.993-0.948-2.312
			c-0.43-0.076-0.858-0.153-1.288-0.229c-0.22-0.08-0.327-0.255-0.492-0.378c-0.056-0.364-0.127-0.772,0.152-0.985
			c-0.021-0.137-0.031-0.161-0.114-0.228v-0.038H4.932c-0.127,0.219-0.234,0.473-0.303,0.759c-0.223,0.941,0.297,1.74,0.872,1.932
			c0.379,0.062,0.757,0.127,1.137,0.189c0.301,0.115,0.434,0.362,0.642,0.568c-0.008,0.49-0.479,0.544-0.871,0.416
			c-0.612-0.198-1.265-0.338-1.893-0.566c-0.165-0.062-0.318-0.162-0.531-0.19c-0.026,0.239-0.052,0.479-0.076,0.719
			c0.53,0.164,1.062,0.328,1.591,0.493C5.477,42.892,4.949,44.496,5.613,45.529z"/>
		<path style="opacity:0.88;enable-background:new    ;" d="M10.347,66.439c0.231,0.121,0.28,0.653,0.378,0.91
			c0.203,0.534,0.5,1.233,0.987,1.478v0.039h0.079c-0.063-0.429-0.304-0.813-0.455-1.177c-0.335-0.817-0.597-1.679-0.872-2.501
			c-0.159-0.479-0.267-0.947-0.416-1.401c-0.077-0.235-0.06-0.503-0.191-0.684v-0.112c0.258,0.093,0.65,0.083,0.872,0.229h0.192
			c-0.043-0.197-0.083-0.528-0.192-0.684c-0.114-0.187-0.849-0.188-1.059-0.338c-0.299-0.234-0.581-0.907-0.797-1.251
			c-0.536-0.85-1.246-1.754-2.045-2.35c-0.425-0.313-0.72-0.643-1.479-0.644c-0.088,0.062-0.177,0.126-0.264,0.188
			c-0.171,0.755,0.133,2.151,0.566,2.499v0.074c-0.182-0.049-0.376-0.145-0.492-0.263H5.122c0.007,0.217,0.049,0.499,0.15,0.644
			c0.045,0.187,0.348,0.338,0.531,0.379c0.237,0.992,0.566,2.011,0.909,2.919c0.276,0.727,0.417,1.417,0.718,2.118
			c0.149,0.342,0.501,0.591,0.607,0.948h0.112c-0.087-0.32-0.261-0.619-0.378-0.909c-0.348-0.837-0.625-1.727-0.911-2.572
			c-0.186-0.559-0.313-1.098-0.492-1.631c-0.066-0.2-0.047-0.408-0.15-0.568v-0.037c0.257,0.047,0.411,0.181,0.605,0.265
			c0.441,0.191,0.865,0.265,1.326,0.455c0.338,0.14,0.763,0.332,1.176,0.379c0.047,0.344,0.243,1.245,0.417,1.479v0.111
			c-0.576-0.395-0.565-0.957-1.593-0.871c-0.051,0.062-0.122,0.112-0.188,0.151c-0.095,0.234-0.1,0.619,0,0.87
			c0.246,0.618,1.026,1.906,1.667,2.086C9.875,66.846,10.235,66.629,10.347,66.439z M9.365,62.121
			c-0.4-0.028-0.74-0.186-1.061-0.301c-0.855-0.318-1.63-0.59-2.385-0.949c-0.092-0.343-0.728-1.573-0.38-2.005
			c0.025-0.039,0.051-0.078,0.076-0.115c0.077-0.019,0.073-0.01,0.113-0.037c1.168,0.139,2.338,1.559,2.916,2.348
			c0.226,0.308,0.411,0.765,0.72,0.984L9.365,62.121L9.365,62.121z M8.382,64.961c0.004-0.372,0.145-0.373,0.301-0.568
			c0.088-0.007,0.107-0.007,0.151-0.035c0.587,0.005,0.721,0.268,1.063,0.493c0.055,0.224,0.09,0.32,0.074,0.564
			c-0.114,0.141-0.227,0.279-0.34,0.417c-0.102,0.075-0.213,0.104-0.303,0.189C8.677,66.003,8.654,65.365,8.382,64.961z"/>
		<path style="opacity:0.88;enable-background:new    ;" d="M75.419,15.423c0.438,0.589,0.931,1.198,1.74,1.402
			c0.915,0.228,1.36-0.847,1.705-1.253c0.354-0.416,1.132-0.516,1.401-1.061c0.1-0.197,0.033-0.588-0.037-0.757
			c-0.174-0.407-1.021-1.552-1.364-1.778c0.022-0.229,0.129-0.237,0.225-0.379c0.237,0.115,0.323,0.45,0.494,0.643
			c0.218,0.248,0.522,0.38,0.759,0.606c0.36,0.003,0.576-0.09,0.756-0.266h0.039c-0.091-0.254-0.424-0.429-0.604-0.606
			c-0.396-0.397-0.698-0.896-1.099-1.287v-0.038c-0.196,0.069-0.861,0.658-0.984,0.834c-0.239-0.092-0.374-0.35-0.568-0.491
			c-0.646-0.487-1.256-1.118-2.384-1.099c-0.142,0.109-0.353,0.113-0.532,0.188c-0.507,0.221-1.035,0.659-1.248,1.175
			c-0.238,0.577,0.004,1.428,0.188,1.855C74.279,13.978,74.891,14.709,75.419,15.423z M75.229,10.157
			c0.645,0.006,0.953,0.439,1.328,0.722c0.924,0.693,1.701,1.556,2.385,2.499c0.307,0.419,0.723,0.658,0.718,1.399
			c-0.116,0.111-0.149,0.215-0.341,0.265c-0.037,0.03-0.01,0.015-0.074,0.039c-0.536-0.892-1.309-1.638-1.932-2.463
			c-0.202-0.27-0.518-0.488-0.719-0.757c-0.348-0.459-0.76-0.827-1.139-1.249c-0.107-0.126-0.161-0.246-0.299-0.342
			C75.188,10.187,75.186,10.215,75.229,10.157z M74.282,10.688h0.149c0.189,0.285,0.516,0.484,0.722,0.757
			c0.565,0.751,1.257,1.407,1.815,2.159c0.344,0.464,0.728,0.899,1.06,1.363c0.171,0.238,0.302,0.54,0.532,0.719
			c-0.039,0.173-0.111,0.253-0.187,0.381c-0.67,0.156-1.003-0.281-1.362-0.646c-0.897-0.895-1.504-2.003-2.199-3.105
			C74.575,11.937,73.965,11.231,74.282,10.688z"/>
	</g>
</g>
</svg>